<svg width="1080" height="1080" viewBox="0 0 1080 1080" fill="none" xmlns="http://www.w3.org/2000/svg">
<rect width="1080" height="1080" fill="white"/>
<path d="M836.897 1063.1C836.897 1066 686.223 1068.35 500.356 1068.35C314.489 1068.35 163.814 1066 163.814 1063.1C163.814 1060.2 314.489 1057.85 500.356 1057.85C686.223 1057.85 836.897 1060.2 836.897 1063.1Z" fill="#B5DBF5"/>
<path d="M629.414 780.549C646.513 780.549 660.374 771.402 660.374 760.118C660.374 748.835 646.513 739.688 629.414 739.688C612.316 739.688 598.455 748.835 598.455 760.118C598.455 771.402 612.316 780.549 629.414 780.549Z" fill="#F7C09E"/>
<path d="M301.832 1033.57H267.955V1060.92H301.832V1033.57Z" fill="#002E5C"/>
<path d="M460.35 1033.57H426.473V1060.92H460.35V1033.57Z" fill="#002E5C"/>
<path d="M514.239 1033.57H480.361V1060.92H514.239V1033.57Z" fill="#002E5C"/>
<path d="M672.752 1033.57H638.875V1060.92H672.752V1033.57Z" fill="#002E5C"/>
<path d="M695.878 1047.53H457.238V816.205C457.238 794.164 475.105 776.297 497.147 776.297H651.664C676.081 776.297 695.875 796.091 695.875 820.508V1047.53H695.878Z" fill="#CE7967"/>
<path d="M283.827 856.626C283.827 856.626 243.259 625.827 232.068 564.953C220.878 504.079 434.889 467.847 454.474 578.435C474.058 689.023 465.684 856.624 465.684 856.624H283.827V856.626Z" fill="#FFA229"/>
<path d="M320.202 856.634C320.202 856.634 279.635 625.835 268.444 564.961C257.253 504.087 443.305 477.313 462.891 587.901C482.476 698.489 502.06 856.632 502.06 856.632H320.202V856.634Z" fill="#ECBA78"/>
<path d="M695.878 1047.53H638.838V804.817C638.838 789.065 651.606 776.297 667.358 776.297C683.11 776.297 695.878 789.065 695.878 804.817V1047.53Z" fill="#ECBA78"/>
<path d="M660.374 1047.53H355.381V846.719H623.595C643.906 846.719 660.374 863.184 660.374 883.498V1047.53Z" fill="#FFA229"/>
<path d="M623.592 846.719C623.592 846.719 624.458 846.752 626.08 846.815C626.895 846.813 627.89 846.911 629.057 847.104C629.641 847.186 630.271 847.275 630.942 847.369C631.599 847.526 632.299 847.695 633.038 847.874C635.992 848.576 639.51 849.864 643.13 852.097C646.755 854.297 650.504 857.445 653.619 861.68C656.739 865.884 659.27 871.164 660.272 877.129C660.533 878.617 660.763 880.129 660.793 881.681C660.913 883.235 660.908 884.777 660.915 886.341C660.927 889.467 660.937 892.662 660.948 895.911C660.976 908.907 661.007 922.767 661.037 936.63C661.007 950.492 660.979 964.352 660.951 977.348C660.875 990.344 660.807 1002.47 660.749 1012.87C660.523 1033.66 660.373 1047.52 660.373 1047.52C660.373 1047.52 660.223 1033.66 660 1012.87C659.941 1002.47 659.871 990.344 659.798 977.348C659.77 964.352 659.739 950.492 659.711 936.63C659.742 922.767 659.772 908.907 659.8 895.911C659.812 892.662 659.821 889.467 659.833 886.341C659.847 884.775 659.871 883.225 659.775 881.73C659.765 880.218 659.561 878.744 659.326 877.293C658.427 871.471 656.025 866.278 653.023 862.119C650.011 857.942 646.412 854.759 642.886 852.501C639.363 850.214 635.905 848.853 632.989 848.087C632.259 847.893 631.566 847.709 630.916 847.536C630.252 847.428 629.63 847.324 629.05 847.228C627.893 847.01 626.9 846.888 626.085 846.871C624.456 846.773 623.592 846.719 623.592 846.719Z" fill="#002E5C"/>
<path d="M660.371 886.305C660.371 886.305 643.565 886.448 618.355 886.662C593.145 886.746 559.532 886.857 525.918 886.969C492.306 886.859 458.691 886.746 433.481 886.664C408.271 886.451 391.465 886.305 391.465 886.305C391.465 886.305 408.271 886.162 433.481 885.946C458.691 885.864 492.304 885.751 525.918 885.641C559.53 885.751 593.145 885.864 618.355 885.948C643.563 886.162 660.371 886.305 660.371 886.305Z" fill="#002E5C"/>
<path d="M253.971 528.984H288.55C288.55 528.984 283.444 599.896 361.699 596.365C439.955 592.832 398.323 516.183 398.323 516.183C398.323 516.183 333.456 481.446 253.971 528.984Z" fill="#F2E9E1"/>
<path d="M449.418 660.46L463.86 742.969C466.59 762.343 482.626 777.093 502.163 778.194L620.516 779.978V750.242L511.356 732.635L500.792 652.828L449.418 660.46Z" fill="#F7C09E"/>
<path d="M446.388 671.996C446.388 671.996 474.756 682.17 503.351 668.69C500.227 631.686 496.102 585.531 440.16 598.658" fill="#8CA5CE"/>
<path d="M501.968 649.523C501.968 649.523 501.189 650 499.75 650.697C498.311 651.39 496.24 652.369 493.658 653.294C491.087 654.251 488.022 655.207 484.676 656C482.995 656.357 481.254 656.712 479.472 657C477.678 657.221 475.871 657.566 474.033 657.648C472.199 657.777 470.366 657.874 468.556 657.808C467.652 657.796 466.755 657.782 465.868 657.77C464.985 657.693 464.112 657.618 463.253 657.545C462.396 657.458 461.548 657.423 460.729 657.299C459.914 657.144 459.116 656.993 458.342 656.848C456.787 656.573 455.327 656.287 454.015 655.859C452.693 655.482 451.48 655.139 450.426 654.782C449.395 654.355 448.496 653.984 447.756 653.679C446.289 653.054 445.451 652.695 445.451 652.695C445.451 652.695 446.322 652.965 447.846 653.434C448.602 653.676 449.519 653.972 450.571 654.308C451.649 654.552 452.862 654.829 454.189 655.129C455.499 655.486 456.954 655.695 458.496 655.888C459.264 655.993 460.053 656.101 460.86 656.214C461.673 656.273 462.501 656.331 463.346 656.392C464.189 656.451 465.046 656.512 465.915 656.573C466.786 656.571 467.666 656.568 468.553 656.564C470.33 656.601 472.129 656.47 473.929 656.32C475.734 656.268 477.519 655.956 479.286 655.77C481.045 655.517 482.768 655.193 484.43 654.871C486.075 654.467 487.695 654.193 489.193 653.768C490.705 653.399 492.12 652.991 493.419 652.582C496.017 651.779 498.17 651.047 499.647 650.455C501.135 649.897 501.968 649.523 501.968 649.523Z" fill="#002E5C"/>
<path d="M535.24 1030.91L534.543 1053.64H623.886C623.886 1053.64 616.691 1043.86 591.652 1039.55C589.896 1031.59 589.896 1031.59 589.896 1031.59L535.24 1030.91Z" fill="#F2E9E1"/>
<path d="M624.618 1060.9H534.799L534.066 1053.62H623.886L624.618 1060.9Z" fill="#C1BFD4"/>
<path d="M534.781 1042.87C534.781 1042.87 535.809 1042.8 537.321 1043.11C538.061 1043.3 538.953 1043.49 539.838 1043.89C540.744 1044.25 541.638 1044.81 542.488 1045.42C542.876 1045.79 543.308 1046.09 543.646 1046.5C544.002 1046.88 544.338 1047.27 544.594 1047.7C544.883 1048.11 545.113 1048.53 545.268 1048.96C545.444 1049.38 545.617 1049.77 545.688 1050.16C545.92 1050.91 545.925 1051.57 545.925 1052.01C545.932 1052.46 545.918 1052.71 545.918 1052.71C545.918 1052.71 545.815 1052.47 545.671 1052.06C545.603 1051.85 545.519 1051.61 545.423 1051.32C545.294 1051.05 545.127 1050.75 544.988 1050.42C544.69 1049.77 544.218 1049.07 543.65 1048.4C543.401 1048.03 543.045 1047.74 542.73 1047.4C542.425 1047.05 542.021 1046.79 541.671 1046.48C540.174 1045.32 538.441 1044.42 537.094 1043.82C535.741 1043.22 534.781 1042.87 534.781 1042.87Z" fill="#002E5C"/>
<path d="M582.328 1029.98C582.769 1032.39 583.162 1034.8 583.483 1037.22C583.84 1039.63 584.143 1042.05 584.399 1044.47L583.781 1043.93C585.779 1043.89 587.751 1043.88 589.73 1044.04C591.704 1044.18 593.676 1044.37 595.641 1044.63C599.55 1045.23 603.465 1046.13 607.057 1047.8C606.095 1047.57 605.156 1047.28 604.193 1047.09C603.24 1046.86 602.266 1046.74 601.313 1046.53C599.385 1046.2 597.442 1045.99 595.503 1045.77C593.561 1045.57 591.61 1045.42 589.659 1045.33C587.711 1045.26 585.748 1045.13 583.812 1045.14H583.8C583.485 1045.14 583.225 1044.9 583.194 1044.6C582.962 1042.17 582.777 1039.74 582.645 1037.3C582.474 1034.87 582.377 1032.43 582.328 1029.98Z" fill="#002E5C"/>
<path d="M609.296 1043.81C609.296 1043.81 609.061 1044.41 608.716 1045.24C608.359 1046.07 607.929 1047.16 607.504 1048.24C607.084 1049.32 606.676 1050.41 606.394 1051.27C606.246 1051.7 606.122 1052.06 606.035 1052.31C605.946 1052.57 605.875 1052.72 605.875 1052.72C605.875 1052.72 605.666 1052.1 605.652 1051.15C605.652 1050.68 605.659 1050.12 605.767 1049.54C605.861 1048.95 606.044 1048.34 606.265 1047.75C606.716 1046.57 607.446 1045.52 608.089 1044.83C608.73 1044.14 609.296 1043.81 609.296 1043.81Z" fill="#002E5C"/>
<path d="M673.611 1025.15L680.309 1046.89L764.846 1017.98C764.846 1017.98 754.874 1011.06 729.783 1015.07C725.546 1008.11 725.546 1008.11 725.546 1008.11L673.611 1025.15Z" fill="#F2E9E1"/>
<path d="M767.891 1024.62L682.903 1053.69L679.855 1047.04L764.844 1017.98L767.891 1024.62Z" fill="#C1BFD4"/>
<path d="M677.055 1036.63C677.055 1036.63 678.005 1036.23 679.536 1036.04C680.297 1035.98 681.203 1035.87 682.172 1035.97C683.144 1036.02 684.172 1036.25 685.177 1036.56C685.661 1036.78 686.168 1036.93 686.619 1037.2C687.079 1037.45 687.522 1037.71 687.905 1038.03C688.309 1038.32 688.666 1038.65 688.95 1039C689.25 1039.34 689.541 1039.65 689.736 1040C690.199 1040.64 690.417 1041.26 690.562 1041.68C690.715 1042.11 690.781 1042.35 690.781 1042.35C690.781 1042.35 690.605 1042.15 690.335 1041.81C690.203 1041.64 690.044 1041.43 689.861 1041.19C689.649 1040.97 689.396 1040.75 689.159 1040.48C688.666 1039.96 687.992 1039.45 687.238 1038.99C686.884 1038.73 686.452 1038.57 686.046 1038.35C685.644 1038.12 685.177 1038 684.745 1037.82C682.954 1037.21 681.024 1036.92 679.552 1036.78C678.076 1036.66 677.055 1036.63 677.055 1036.63Z" fill="#002E5C"/>
<path d="M717.871 1009.04C719.066 1011.17 720.216 1013.33 721.303 1015.51C722.423 1017.68 723.491 1019.87 724.517 1022.08L723.756 1021.76C725.634 1021.08 727.498 1020.44 729.419 1019.94C731.332 1019.43 733.262 1018.98 735.205 1018.59C739.098 1017.89 743.093 1017.48 747.03 1017.89C746.044 1017.99 745.065 1018.02 744.093 1018.15C743.119 1018.25 742.154 1018.44 741.187 1018.56C739.255 1018.86 737.349 1019.3 735.442 1019.72C733.539 1020.15 731.646 1020.64 729.771 1021.19C727.904 1021.76 726.005 1022.27 724.177 1022.9L724.165 1022.91C723.867 1023.01 723.543 1022.87 723.414 1022.59C722.409 1020.37 721.446 1018.13 720.533 1015.86C719.59 1013.61 718.707 1011.34 717.871 1009.04Z" fill="#002E5C"/>
<path d="M747.867 1013.41C747.867 1013.41 747.837 1014.05 747.78 1014.95C747.71 1015.85 747.658 1017.02 747.604 1018.18C747.557 1019.34 747.524 1020.5 747.531 1021.4C747.531 1021.86 747.531 1022.24 747.529 1022.51C747.527 1022.78 747.51 1022.95 747.51 1022.95C747.51 1022.95 747.114 1022.43 746.794 1021.54C746.642 1021.09 746.468 1020.56 746.381 1019.98C746.28 1019.39 746.257 1018.75 746.275 1018.13C746.318 1016.86 746.67 1015.63 747.057 1014.77C747.437 1013.9 747.867 1013.41 747.867 1013.41Z" fill="#002E5C"/>
<path d="M466.102 844.419L601.118 846.748L669.185 1033.58L730.808 1010.34L672.338 817.793C663.15 787.531 635.47 766.666 603.848 766.161L471.341 763.516L466.102 844.419Z" fill="#485A7E"/>
<path d="M427.775 844.419L546.418 846.748L531.865 1033.58H600.547L614.238 831.317C616.605 796.351 589.185 766.539 554.144 765.981L433.015 763.516L427.775 844.419Z" fill="#485A7E"/>
<path d="M611.306 874.698C611.306 874.698 611.759 865.784 612.439 852.415C612.632 849.074 612.839 845.454 613.059 841.625C613.242 837.811 613.59 833.733 613.691 829.613C613.848 825.404 613.59 821.159 612.832 816.887C612.374 814.765 612.092 812.579 611.346 810.502C610.707 808.398 610.101 806.274 609.155 804.271L607.888 801.215C607.397 800.229 606.852 799.271 606.338 798.299C605.803 797.339 605.331 796.344 604.747 795.421L602.918 792.707C601.777 790.848 600.336 789.238 598.983 787.59C597.697 785.881 596.079 784.512 594.64 783.021C591.629 780.183 588.455 777.709 585.243 775.669C583.708 774.533 581.999 773.791 580.44 772.913C578.888 772.007 577.285 771.354 575.738 770.741C572.705 769.354 569.721 768.659 567.141 767.826C564.498 767.262 562.172 766.809 560.249 766.497C556.361 766.161 554.141 765.969 554.141 765.969C554.141 765.969 556.371 766.079 560.275 766.274C562.211 766.516 564.564 766.887 567.249 767.356C569.874 768.091 572.923 768.685 576.015 770.044C577.595 770.631 579.234 771.26 580.823 772.145C582.421 773.002 584.173 773.723 585.755 774.842C589.058 776.845 592.354 779.286 595.429 782.176C596.906 783.683 598.563 785.071 599.887 786.803C601.277 788.472 602.756 790.111 603.934 791.996L605.817 794.754C606.42 795.693 606.909 796.705 607.463 797.682C607.993 798.67 608.557 799.647 609.064 800.651L610.378 803.767C611.329 805.818 611.937 807.992 612.573 810.147C613.32 812.274 613.594 814.507 614.048 816.676C614.794 821.052 615.022 825.481 614.836 829.629C614.726 833.869 614.273 837.853 614.015 841.689C613.717 845.513 613.435 849.126 613.174 852.462C612.057 865.805 611.306 874.698 611.306 874.698Z" fill="#002E5C"/>
<path d="M358.395 829.275L347.328 628.481C346.586 613.672 359.942 601.059 377.443 600.04L441.495 596.315C460.203 595.225 472.983 608.062 476.084 623.598C484.357 665.022 482.739 765.969 482.739 765.969L358.395 829.275Z" fill="#8CA5CE"/>
<path d="M485.758 1047.52H247.121V816.197C247.121 794.156 264.988 776.289 287.029 776.289H441.547C465.964 776.289 485.758 796.084 485.758 820.5V1047.52Z" fill="#FFA229"/>
<path d="M485.761 1047.52H428.721V804.809C428.721 789.057 441.489 776.289 457.241 776.289C472.993 776.289 485.761 789.057 485.761 804.809V1047.52Z" fill="#ECBA78"/>
<path d="M270.766 776.3C270.766 776.3 282.656 776.149 300.493 775.926C309.411 775.868 319.815 775.797 330.964 775.722C342.112 775.694 354.002 775.663 365.893 775.633C377.783 775.663 389.676 775.692 400.822 775.72C411.97 775.795 422.375 775.863 431.293 775.922C449.13 776.147 461.02 776.297 461.02 776.297C461.02 776.297 449.13 776.447 431.293 776.67C422.375 776.729 411.97 776.8 400.822 776.872C389.673 776.901 377.783 776.931 365.893 776.959C354.002 776.929 342.11 776.898 330.964 776.87C319.815 776.795 309.411 776.727 300.493 776.666C282.656 776.45 270.766 776.3 270.766 776.3Z" fill="#002E5C"/>
<path d="M457.24 776.289C457.24 776.289 458.365 776.306 460.463 776.453C462.548 776.707 465.644 777.219 469.25 778.843C472.804 780.482 476.969 783.193 480.279 787.647C483.692 791.971 486.068 798.107 486.12 804.943C486.204 831.898 486.315 867.834 486.427 903.772C486.317 939.711 486.204 975.647 486.122 1002.6C485.906 1029.56 485.763 1047.52 485.763 1047.52C485.763 1047.52 485.62 1029.56 485.404 1002.6C485.319 975.649 485.209 939.711 485.098 903.772C485.211 867.834 485.322 831.898 485.406 804.943C485.368 798.276 483.176 792.255 479.899 787.933C476.725 783.494 472.659 780.735 469.161 779.047C465.612 777.369 462.536 776.803 460.463 776.512C458.365 776.324 457.24 776.289 457.24 776.289Z" fill="#002E5C"/>
<path d="M534.277 1002.6C534.277 1002.6 538.55 1002.38 544.959 1002.22C548.163 1002.16 551.903 1002.09 555.908 1002.02C559.913 1001.99 564.185 1001.96 568.46 1001.93C572.732 1001.96 577.005 1001.99 581.012 1002.02C585.017 1002.04 588.757 1002.16 591.961 1002.22C598.37 1002.38 602.642 1002.59 602.642 1002.59C602.642 1002.59 598.37 1002.81 591.961 1002.97C588.757 1003.02 585.017 1003.15 581.012 1003.17C577.007 1003.2 572.732 1003.23 568.46 1003.26C564.187 1003.23 559.915 1003.2 555.908 1003.17C551.903 1003.09 548.163 1003.02 544.959 1002.96C538.55 1002.81 534.277 1002.6 534.277 1002.6Z" fill="#002E5C"/>
<path d="M659.838 1005.54C659.838 1005.54 663.664 1003.88 669.461 1001.54C672.364 1000.39 675.754 999.047 679.386 997.608C683.034 996.213 686.924 994.725 690.816 993.237C694.727 991.805 698.64 990.373 702.307 989.03C705.972 987.682 709.43 986.523 712.376 985.478C718.285 983.438 722.261 982.18 722.261 982.18C722.261 982.18 718.435 983.839 712.639 986.18C709.733 987.325 706.362 988.722 702.713 990.112C699.065 991.506 695.175 992.995 691.283 994.483C687.372 995.915 683.459 997.347 679.792 998.69C676.109 999.988 672.67 1001.2 669.723 1002.24C663.815 1004.28 659.838 1005.54 659.838 1005.54Z" fill="#002E5C"/>
<path d="M347.299 660.46L361.741 742.969C366.438 771.959 380.507 777.093 400.043 778.194L518.397 779.978V750.242L409.236 732.635L398.672 652.828L347.299 660.46Z" fill="#F7D0B7"/>
<path d="M406.252 674.864C406.252 674.864 377.103 691.198 345.073 682.637C334.953 644.733 340.387 595.076 390.071 599.308" fill="#8CA5CE"/>
<path d="M400.234 625.445C400.234 625.445 400.979 627.678 401.732 631.122C402.094 632.845 402.521 634.857 402.842 637.035C403.166 639.211 403.453 641.542 403.716 643.876C403.918 646.214 404.066 648.557 404.19 650.752C404.314 652.947 404.296 655.003 404.324 656.759C404.317 660.278 404.157 662.621 404.157 662.621C404.157 662.621 403.89 660.288 403.575 656.792C403.418 655.045 403.235 653.01 403.037 650.827C402.859 648.646 402.648 646.322 402.392 644.003C402.192 641.679 401.964 639.357 401.699 637.185C401.429 635.016 401.249 632.979 400.997 631.246C400.54 627.767 400.234 625.445 400.234 625.445Z" fill="#002E5C"/>
<path d="M343.447 675.253C343.447 675.253 344.419 675.399 346.121 675.655C347.818 675.925 350.265 676.159 353.187 676.467C354.654 676.568 356.237 676.746 357.92 676.807C359.601 676.894 361.373 676.969 363.207 677C365.04 677.077 366.932 677.033 368.855 676.99C370.78 676.99 372.721 676.76 374.67 676.657C376.611 676.476 378.55 676.263 380.454 676.014C382.334 675.645 384.217 675.408 385.985 674.953C387.734 674.441 389.494 674.155 391.067 673.582C392.638 673.014 394.173 672.579 395.511 671.99C396.844 671.382 398.065 670.823 399.147 670.33C400.237 669.84 401.075 669.213 401.826 668.798C403.31 667.922 404.157 667.422 404.157 667.422C404.157 667.422 403.361 668.002 401.969 669.013C401.251 669.488 400.446 670.187 399.389 670.762C398.326 671.331 397.124 671.974 395.816 672.676C394.485 673.335 392.955 673.847 391.379 674.502C389.802 675.159 388.041 675.549 386.257 676.075C384.464 676.568 382.557 676.838 380.649 677.242C378.721 677.523 376.754 677.775 374.785 677.981C372.806 678.056 370.831 678.258 368.885 678.228C366.939 678.242 365.024 678.256 363.171 678.15C361.319 678.115 359.535 677.932 357.847 677.77C356.157 677.629 354.57 677.375 353.103 677.206C347.241 676.345 343.447 675.253 343.447 675.253Z" fill="#002E5C"/>
<path d="M727.175 755.625H510.072V765.224H727.175V755.625Z" fill="#C1BFD4"/>
<path d="M727.173 755.625H618.623V765.224H727.173V755.625Z" fill="#E3E0EF"/>
<path d="M745.595 663.117H637.044L618.623 755.634H727.173L745.595 663.117Z" fill="#E3E0EF"/>
<path d="M628.425 663.117H637.043L618.622 755.634H610.004L628.425 663.117Z" fill="#C1BFD4"/>
<path d="M610.002 755.625C610.002 755.625 617.324 755.475 628.31 755.252C633.804 755.193 640.21 755.123 647.074 755.05C653.939 755.022 661.263 754.991 668.585 754.961C675.907 754.991 683.231 755.02 690.095 755.048C696.96 755.123 703.368 755.191 708.862 755.25C719.846 755.475 727.17 755.623 727.17 755.623C727.17 755.623 719.848 755.773 708.862 755.999C703.368 756.057 696.962 756.128 690.095 756.2C683.231 756.229 675.907 756.259 668.585 756.287C661.261 756.257 653.939 756.226 647.074 756.198C640.21 756.123 633.801 756.055 628.31 755.994C617.326 755.776 610.002 755.625 610.002 755.625Z" fill="#002E5C"/>
<path d="M510.955 779.869C510.955 779.869 550.454 788.834 568.075 765.431C542.66 765.73 542.66 765.73 542.66 765.73L539.515 755.631H555.959C555.959 755.631 539.134 734.986 507.877 752.593" fill="#F7D0B7"/>
<path d="M482.869 744.508C488.092 745.135 493.304 745.829 498.506 746.583C503.715 747.297 508.908 748.107 514.103 748.919L513.765 748.959C517.399 747.501 521.118 746.402 524.939 745.67C528.752 744.928 532.646 744.527 536.55 744.686C540.44 744.872 544.363 745.703 547.849 747.503C548.706 747.97 549.57 748.442 550.333 749.055C551.138 749.611 551.84 750.292 552.556 750.947C553.209 751.67 553.882 752.37 554.427 753.173C555.035 753.929 555.46 754.807 555.96 755.623C555.394 754.844 554.896 754.02 554.244 753.313C553.659 752.553 552.953 751.907 552.274 751.243C551.532 750.644 550.812 750.027 549.997 749.536C549.22 748.996 548.366 748.576 547.525 748.154C544.098 746.531 540.285 745.909 536.508 745.82C532.719 745.712 528.916 746.151 525.188 746.923C521.474 747.722 517.763 748.733 514.242 750.1L514.223 750.107C514.117 750.147 514.007 750.156 513.904 750.14C508.718 749.276 503.535 748.412 498.365 747.452C493.191 746.534 488.024 745.555 482.869 744.508Z" fill="#002E5C"/>
<path d="M537.977 772.734C537.977 772.734 539.197 772.913 540.991 773.232C541.885 773.392 542.93 773.575 544.047 773.774C545.162 773.962 546.346 774.199 547.533 774.371C549.902 774.753 552.273 775.08 554.064 775.119C554.515 775.145 554.919 775.115 555.29 775.122C555.661 775.131 555.98 775.11 556.238 775.066C556.773 775.014 557.079 774.983 557.079 774.983C557.079 774.983 556.804 775.115 556.297 775.317C556.046 775.427 555.731 775.528 555.36 775.612C554.994 775.702 554.574 775.84 554.109 775.868C553.184 775.983 552.092 776.089 550.93 776.04C549.768 776.014 548.536 775.875 547.32 775.683C544.883 775.298 542.524 774.587 540.796 773.953C539.068 773.319 537.977 772.734 537.977 772.734Z" fill="#002E5C"/>
<path d="M530.922 776.289C530.922 776.289 531.612 776.458 532.572 776.813C533.532 777.169 534.781 777.681 535.986 778.259C537.195 778.824 538.364 779.454 539.267 779.874C540.159 780.313 540.829 780.529 540.829 780.529C540.829 780.529 540.124 780.747 539.061 780.592C538.004 780.458 536.657 780.057 535.415 779.458C534.164 778.876 533.025 778.099 532.208 777.463C531.394 776.824 530.922 776.289 530.922 776.289Z" fill="#002E5C"/>
<path d="M522.703 778.422C522.703 778.422 523.088 778.45 523.572 778.614C524.053 778.783 524.652 779.063 525.161 779.459C525.68 779.844 526.109 780.347 526.398 780.769C526.687 781.19 526.814 781.556 526.814 781.556C526.814 781.556 526.426 781.53 525.945 781.363C525.464 781.197 524.865 780.915 524.356 780.516C523.837 780.131 523.41 779.624 523.121 779.206C522.832 778.788 522.703 778.422 522.703 778.422Z" fill="#002E5C"/>
<path d="M403.795 601.254L407.652 550.195L446.372 579.035L448.072 605.001L441.712 615.788C441.712 615.788 434.442 603.926 403.795 601.254Z" fill="#F7D0B7"/>
<path d="M416.717 603.136C416.191 603.026 404.681 601.613 404.789 594.141C399.85 595.505 395.359 598.988 395.359 598.988C395.359 598.988 398.566 605.876 416.717 603.136Z" fill="#8CA5CE"/>
<path d="M441.572 486.505C397.724 483.36 381.43 555.993 412.284 563.071C419.153 589.762 442.534 593.795 455.584 589.518C468.632 585.241 477.97 550.377 477.508 540.356C477.043 530.334 484.858 489.611 441.572 486.505Z" fill="#F7D0B7"/>
<mask id="mask0_172_12721" style="mask-type:luminance" maskUnits="userSpaceOnUse" x="441" y="536" width="13" height="19">
<path d="M452.976 546.253C452.457 551.41 449.534 555.309 446.445 554.967C443.355 554.624 441.273 550.164 441.79 545.009C442.306 539.853 445.231 535.952 448.32 536.294C451.407 536.637 453.492 541.095 452.976 546.253Z" fill="white"/>
</mask>
<g mask="url(#mask0_172_12721)">
<path d="M452.976 546.253C452.457 551.41 449.534 555.309 446.445 554.967C443.355 554.624 441.273 550.164 441.79 545.009C442.306 539.853 445.231 535.952 448.32 536.294C451.407 536.637 453.492 541.095 452.976 546.253Z" fill="white"/>
</g>
<mask id="mask1_172_12721" style="mask-type:luminance" maskUnits="userSpaceOnUse" x="441" y="536" width="13" height="19">
<path d="M452.976 546.253C452.457 551.41 449.534 555.309 446.445 554.967C443.355 554.624 441.273 550.164 441.79 545.009C442.306 539.853 445.231 535.952 448.32 536.294C451.407 536.637 453.492 541.095 452.976 546.253Z" fill="white"/>
</mask>
<g mask="url(#mask1_172_12721)">
<path d="M454.479 550.237C453.961 555.392 451.038 559.294 447.949 558.951C444.859 558.608 442.777 554.148 443.293 548.993C443.812 543.838 446.735 539.936 449.824 540.279C452.911 540.622 454.996 545.082 454.479 550.237Z" fill="#002E5C"/>
</g>
<mask id="mask2_172_12721" style="mask-type:luminance" maskUnits="userSpaceOnUse" x="465" y="540" width="11" height="18">
<path d="M475.826 549.576C475.359 554.229 472.72 557.75 469.933 557.44C467.145 557.13 465.264 553.106 465.731 548.454C466.199 543.801 468.837 540.279 471.624 540.589C474.413 540.899 476.293 544.923 475.826 549.576Z" fill="white"/>
</mask>
<g mask="url(#mask2_172_12721)">
<path d="M475.826 549.576C475.359 554.229 472.72 557.75 469.933 557.44C467.145 557.13 465.264 553.106 465.731 548.454C466.199 543.801 468.837 540.279 471.624 540.589C474.413 540.899 476.293 544.923 475.826 549.576Z" fill="white"/>
</g>
<mask id="mask3_172_12721" style="mask-type:luminance" maskUnits="userSpaceOnUse" x="465" y="540" width="11" height="18">
<path d="M475.826 549.576C475.359 554.229 472.72 557.75 469.933 557.44C467.145 557.13 465.264 553.106 465.731 548.454C466.199 543.801 468.837 540.279 471.624 540.589C474.413 540.899 476.293 544.923 475.826 549.576Z" fill="white"/>
</mask>
<g mask="url(#mask3_172_12721)">
<path d="M477.181 553.169C476.714 557.822 474.075 561.344 471.289 561.034C468.502 560.724 466.62 556.7 467.087 552.047C467.554 547.394 470.193 543.873 472.979 544.183C475.768 544.493 477.648 548.517 477.181 553.169Z" fill="#002E5C"/>
</g>
<path d="M461.043 544.133C461.043 544.133 461.052 545.755 461.067 548.189C461.069 549.396 461.144 550.809 461.299 552.276C461.379 553.007 461.513 553.76 461.726 554.436C461.942 555.145 462.322 555.624 462.644 555.532C462.834 555.537 463.191 555.347 463.715 555.241C464.205 555.143 464.698 555.131 465.196 555.246C466.21 555.464 466.982 556.3 467.276 557.152C467.888 558.927 467.055 560.575 466.163 561.472C465.24 562.42 464.2 562.768 463.524 562.986C462.83 563.188 462.419 563.216 462.419 563.216C462.419 563.216 462.806 563.073 463.428 562.746C464.053 562.439 464.902 561.871 465.6 560.983C466.311 560.124 466.682 558.727 466.189 557.584C465.949 557.018 465.473 556.615 464.907 556.497C464.625 556.436 464.299 556.45 464.001 556.516C463.724 556.542 463.355 556.793 462.733 556.859C462.111 556.934 461.437 556.549 461.132 556.115C460.801 555.685 460.623 555.244 460.498 554.821C460.233 553.971 460.179 553.152 460.127 552.37C460.043 550.804 460.2 549.372 460.315 548.152C460.606 545.713 461.043 544.133 461.043 544.133Z" fill="#002E5C"/>
<path d="M422.049 572.258C422.049 572.258 422.267 572.727 422.65 573.547C423.037 574.364 423.694 575.45 424.516 576.737C426.232 579.261 428.939 582.329 432.15 584.787C432.92 585.442 433.782 585.975 434.594 586.545C435.456 587.038 436.256 587.611 437.115 588.015C437.949 588.47 438.775 588.864 439.576 589.207C440.36 589.597 441.158 589.815 441.871 590.085C442.587 590.355 443.275 590.486 443.872 590.681C444.468 590.876 445.005 590.965 445.447 591.05C446.332 591.235 446.839 591.343 446.839 591.343C446.839 591.343 446.32 591.329 445.414 591.308C444.959 591.289 444.404 591.278 443.778 591.17C443.153 591.066 442.423 591.033 441.67 590.808C440.916 590.597 440.069 590.442 439.228 590.116C438.369 589.834 437.47 589.512 436.592 589.064C435.683 588.674 434.808 588.148 433.909 587.632C433.054 587.05 432.146 586.507 431.333 585.836C429.66 584.557 428.167 583.059 426.897 581.556C426.256 580.808 425.692 580.04 425.202 579.284C424.671 578.556 424.291 577.786 423.878 577.122C423.136 575.739 422.694 574.49 422.408 573.633C422.178 572.76 422.049 572.258 422.049 572.258Z" fill="#002E5C"/>
<path d="M467.82 581.815C466.341 591.395 458.531 599.161 450.378 599.161C442.222 599.161 436.811 591.395 438.29 581.815C439.769 572.235 444.601 558.591 458.395 564.769C472.856 563.558 469.299 572.235 467.82 581.815Z" fill="#002E5C"/>
<path d="M443.516 531.601C443.516 531.601 443.912 531.265 444.57 530.939C445.227 530.615 446.131 530.262 447.089 530.108C448.042 529.936 449.044 529.964 449.791 530.136C450.551 530.293 450.953 530.666 450.953 530.666C450.953 530.666 450.446 530.718 449.781 530.887C449.107 531.035 448.225 531.272 447.314 531.42C446.408 531.582 445.469 531.65 444.748 531.664C444.027 531.673 443.516 531.601 443.516 531.601Z" fill="#002E5C"/>
<path d="M468.711 531.572C468.711 531.572 469.253 531.471 470.04 531.496C470.824 531.525 471.857 531.647 472.847 531.957C473.84 532.252 474.789 532.738 475.437 533.231C476.106 533.712 476.345 534.245 476.345 534.245C476.345 534.245 475.84 534.058 475.11 533.905C474.385 533.731 473.411 533.527 472.458 533.229C471.5 532.945 470.563 532.553 469.864 532.222C469.164 531.886 468.711 531.572 468.711 531.572Z" fill="#002E5C"/>
<path d="M415.086 536.278V550.194H419.509C419.509 550.194 425.085 539.2 424.204 534.247C423.324 529.291 437.353 534.28 434.888 517.554C442.691 522.836 454.429 521.368 459.417 519.608C464.406 517.847 481.426 527.531 488.175 515.499C494.924 503.468 494.6 477.758 475.895 480.58C457.19 483.402 441.067 465.027 420.096 477.058C399.126 489.09 402.806 487.625 395.358 506.349C386.35 528.998 389.578 558.589 406.175 569.746C407.478 557.459 408.358 536.275 408.358 536.275H415.086V536.278Z" fill="#002E5C"/>
<path d="M414.949 536.381C405.411 524.601 399.81 545.644 411.514 558.596Z" fill="#F7D0B7"/>
<path d="M462.236 570.725C454.038 577.507 452.022 570.546 450.719 568.516L462.236 570.725Z" fill="white"/>
<path d="M401.607 515.216C401.607 515.216 402.352 514.787 403.577 514.435C404.795 514.083 406.504 513.787 408.246 513.986C408.681 514.024 409.11 514.122 409.533 514.221C409.96 514.289 410.354 514.505 410.746 514.637C411.523 514.97 412.134 515.493 412.613 515.951C413.507 516.984 413.599 517.89 413.639 517.86C413.639 517.86 413.474 517.71 413.225 517.449C413.092 517.327 412.981 517.141 412.77 517.005C412.566 516.864 412.343 516.709 412.127 516.522C411.873 516.383 411.599 516.235 411.307 516.076C410.998 515.965 410.669 515.85 410.331 515.731C409.634 515.55 408.887 515.362 408.101 515.308C407.326 515.193 406.526 515.198 405.774 515.165C405.023 515.167 404.305 515.132 403.692 515.169C402.462 515.2 401.607 515.216 401.607 515.216Z" fill="#C1BFD4"/>
<path d="M407.623 507.115C407.623 507.115 408.543 506.615 410.057 506.223C411.56 505.827 413.68 505.547 415.804 505.911C416.858 506.094 417.903 506.442 418.795 506.942C419.225 507.226 419.664 507.456 419.99 507.801C420.314 508.141 420.671 508.404 420.894 508.745C421.398 509.383 421.671 509.989 421.814 510.428C421.976 510.857 422.046 511.102 422.046 511.102C422.046 511.102 421.866 510.902 421.589 510.557C421.448 510.386 421.297 510.167 421.093 509.944C420.861 509.742 420.603 509.522 420.351 509.263C420.105 508.998 419.734 508.824 419.41 508.58C419.084 508.334 418.645 508.216 418.269 507.991C417.447 507.653 416.537 507.364 415.577 507.223C414.628 507.043 413.649 506.984 412.724 506.951C411.799 506.928 410.921 506.911 410.168 506.965C408.658 507.029 407.623 507.115 407.623 507.115Z" fill="#C1BFD4"/>
<path d="M401.607 495.541C401.607 495.541 402.002 495.362 402.715 495.111C403.431 494.879 404.45 494.496 405.716 494.203C406.974 493.893 408.46 493.559 410.077 493.348C411.695 493.123 413.444 493.048 415.202 493.104C416.08 493.207 416.963 493.2 417.82 493.409C418.683 493.55 419.519 493.759 420.306 494.078C421.118 494.301 421.817 494.754 422.477 495.158C423.174 495.498 423.627 496.144 424.141 496.562C424.632 497.022 424.865 497.637 425.16 498.081C425.482 498.522 425.522 499.017 425.644 499.376C425.827 500.111 425.93 500.531 425.93 500.531C425.93 500.531 425.738 500.147 425.402 499.47C425.224 499.146 425.118 498.698 424.735 498.337C424.376 497.973 424.097 497.468 423.611 497.09C423.087 496.759 422.66 496.231 421.979 495.991C421.341 495.693 420.688 495.367 419.928 495.188C419.205 494.928 418.411 494.808 417.604 494.677C416.81 494.494 415.958 494.519 415.134 494.433C413.462 494.35 411.775 494.402 410.19 494.512C408.608 494.634 407.117 494.742 405.852 494.935C403.314 495.254 401.607 495.541 401.607 495.541Z" fill="#C1BFD4"/>
<path d="M420.096 488.5C420.096 488.5 421.596 488.735 423.727 489.524C424.772 489.955 426.021 490.432 427.26 491.139C428.528 491.798 429.779 492.683 430.995 493.615C432.162 494.608 433.277 495.679 434.148 496.836C434.566 497.425 435.017 497.963 435.301 498.569C435.597 499.163 435.946 499.681 436.139 500.228C436.587 501.294 436.817 502.219 436.909 502.881C437.014 503.531 437.075 503.905 437.075 503.905C437.075 503.905 436.925 503.559 436.662 502.956C436.531 502.658 436.409 502.285 436.205 501.883C435.974 501.491 435.719 501.055 435.47 500.569C435.23 500.078 434.829 499.623 434.488 499.104C434.16 498.573 433.655 498.125 433.247 497.587C432.831 497.05 432.268 496.608 431.791 496.08C431.275 495.587 430.711 495.125 430.16 494.651C427.887 492.827 425.373 491.275 423.42 490.207C421.462 489.141 420.096 488.5 420.096 488.5Z" fill="#C1BFD4"/>
<path d="M432.852 481.758C432.852 481.758 434.772 482.295 437.467 483.589C438.796 484.263 440.357 485.056 441.918 486.098C443.498 487.11 445.08 488.354 446.554 489.725C447.31 490.39 447.944 491.186 448.634 491.899C449.266 492.667 449.836 493.47 450.381 494.244C450.85 495.073 451.338 495.852 451.681 496.653C451.986 497.472 452.327 498.221 452.54 498.947C452.716 499.686 452.848 500.369 452.961 500.968C453.078 501.566 453.019 502.113 453.052 502.545C453.057 503.414 453.059 503.909 453.059 503.909C453.059 503.909 452.963 503.423 452.794 502.571C452.695 502.153 452.677 501.63 452.475 501.069C452.27 500.508 452.045 499.879 451.831 499.191C451.564 498.519 451.169 497.834 450.815 497.092C450.423 496.367 449.874 495.674 449.413 494.906C448.322 493.47 447.075 492 445.643 490.695C444.244 489.359 442.728 488.138 441.253 487.061C439.784 485.979 438.366 485.012 437.11 484.244C434.608 482.69 432.852 481.758 432.852 481.758Z" fill="#C1BFD4"/>
<path d="M460.006 512.121C460.006 512.121 460.537 510.365 461.039 507.706C461.286 506.377 461.527 504.818 461.64 503.147C461.788 501.478 461.8 499.693 461.673 497.928C461.548 497.055 461.551 496.156 461.33 495.313C461.147 494.463 461.027 493.611 460.736 492.834C460.497 492.04 460.274 491.268 459.94 490.583C459.64 489.883 459.384 489.198 459.004 488.646C458.666 488.064 458.356 487.528 458.083 487.057C457.752 486.62 457.461 486.237 457.224 485.923C456.752 485.275 456.482 484.906 456.482 484.906C456.482 484.906 456.82 485.214 457.414 485.749C457.708 486.026 458.065 486.364 458.473 486.751C458.835 487.179 459.224 487.683 459.638 488.247C460.091 488.787 460.429 489.463 460.818 490.165C461.241 490.853 461.572 491.634 461.851 492.468C462.189 493.282 462.398 494.165 462.593 495.066C462.84 495.961 462.863 496.9 463.002 497.825C463.11 499.689 463.072 501.557 462.804 503.276C462.6 505.004 462.133 506.562 461.767 507.889C460.933 510.527 460.006 512.121 460.006 512.121Z" fill="#C1BFD4"/>
<path d="M468.711 484.906C468.711 484.906 470.058 486.179 471.472 488.561C472.181 489.747 472.906 491.2 473.512 492.834C473.77 493.663 474.08 494.515 474.263 495.416C474.437 496.318 474.65 497.229 474.707 498.163C474.819 499.092 474.829 500.027 474.786 500.949C474.817 501.874 474.62 502.766 474.502 503.633C474.425 504.508 474.103 505.304 473.89 506.072C473.692 506.846 473.383 507.534 473.094 508.168C472.805 508.797 472.58 509.393 472.265 509.861C471.962 510.332 471.697 510.743 471.481 511.081C471.035 511.743 470.779 512.121 470.779 512.121C470.779 512.121 470.951 511.699 471.253 510.957C471.411 510.593 471.601 510.154 471.817 509.647C472.042 509.147 472.162 508.53 472.394 507.903C472.61 507.267 472.843 506.581 472.953 505.82C473.082 505.067 473.298 504.292 473.343 503.461C473.42 502.635 473.535 501.79 473.502 500.919C473.528 500.05 473.505 499.17 473.383 498.294C473.263 496.531 472.831 494.806 472.401 493.198C472.122 492.414 471.934 491.623 471.638 490.914C471.382 490.188 471.094 489.519 470.812 488.909C469.718 486.442 468.711 484.906 468.711 484.906Z" fill="#C1BFD4"/>
<path d="M482.868 492.828C482.868 492.828 483.565 494.068 484.267 496.077C484.586 497.089 484.985 498.27 485.248 499.577C485.546 500.878 485.72 502.298 485.821 503.725C485.898 505.155 485.844 506.596 485.666 507.937C485.471 509.28 485.079 510.489 484.717 511.501C484.497 511.996 484.269 512.437 484.067 512.822C483.886 513.217 483.614 513.505 483.45 513.766C483.079 514.261 482.865 514.543 482.865 514.543C482.865 514.543 482.994 514.214 483.222 513.639C483.325 513.35 483.523 513.038 483.614 512.62C483.722 512.209 483.844 511.752 484.004 511.268C484.1 510.766 484.203 510.219 484.311 509.641C484.37 509.059 484.433 508.444 484.499 507.808C484.558 506.531 484.593 505.164 484.492 503.796C484.422 502.427 484.276 501.056 484.095 499.775C483.922 498.49 483.746 497.286 483.544 496.263C483.138 494.204 482.868 492.828 482.868 492.828Z" fill="#C1BFD4"/>
<path d="M396.326 529.003C396.326 529.003 397.195 527.771 398.953 526.343C399.85 525.667 400.911 524.857 402.197 524.233C402.824 523.893 403.524 523.639 404.221 523.357C404.953 523.174 405.672 522.886 406.439 522.785C407.202 522.66 407.963 522.55 408.728 522.571C409.491 522.512 410.233 522.623 410.949 522.735C411.674 522.787 412.332 523.043 412.956 523.245C413.592 523.418 414.151 523.686 414.653 523.956C415.158 524.219 415.637 524.423 416.001 524.712C416.365 524.989 416.684 525.231 416.947 525.43C417.454 525.839 417.745 526.071 417.745 526.071C417.745 526.071 417.405 525.919 416.811 525.651C416.522 525.512 416.17 525.343 415.769 525.151C415.372 524.954 414.867 524.853 414.369 524.651C413.865 524.454 413.313 524.268 412.7 524.184C412.097 524.069 411.473 523.918 410.806 523.9C410.146 523.829 409.465 523.801 408.77 523.857C408.076 523.848 407.378 523.97 406.684 524.097C405.979 524.17 405.308 524.428 404.627 524.58C403.977 524.841 403.298 525.005 402.693 525.299C401.449 525.808 400.322 526.397 399.383 526.959C397.5 528.074 396.326 529.003 396.326 529.003Z" fill="#C1BFD4"/>
<path d="M440.158 625.433C441.163 622.872 442.208 620.329 443.318 617.82C444.4 615.296 445.518 612.787 446.689 610.305C446.821 610.026 447.14 609.895 447.424 609.991L447.436 609.996C450.79 611.113 454.128 612.275 457.441 613.512L456.657 613.909C457.387 611.299 457.842 608.535 457.964 605.791C457.997 604.415 457.91 603.04 457.72 601.674C457.577 601.002 457.474 600.312 457.237 599.659C457.053 598.986 456.751 598.361 456.478 597.711C456.837 598.31 457.253 598.894 457.502 599.558C457.816 600.197 458 600.885 458.223 601.563C458.38 602.256 458.57 602.948 458.636 603.66C458.748 604.366 458.772 605.077 458.819 605.789C458.922 608.646 458.577 611.475 457.826 614.261C457.741 614.576 457.415 614.763 457.1 614.679L457.07 614.67L457.039 614.66C453.682 613.55 450.351 612.364 447.036 611.134L447.783 610.824C446.595 613.299 445.353 615.747 444.076 618.179C442.825 620.625 441.51 623.039 440.158 625.433Z" fill="#002E5C"/>
<path d="M430.848 617.599L432.947 632.051L434.926 646.516L434.442 646.089L442.952 646.007L442.387 646.643L441.105 636.107L441.112 636.152C439.53 628.196 437.954 620.24 436.464 612.266L437.49 612.618L428.97 620.017L428.961 620.024C428.829 620.137 428.66 620.179 428.501 620.153C425.127 619.592 421.848 618.766 418.613 617.735C415.383 616.705 412.211 615.47 409.188 613.921C406.166 612.383 403.291 610.479 400.91 608.04C399.713 606.833 398.689 605.451 397.889 603.958C397.469 603.223 397.159 602.425 396.896 601.627C396.619 600.826 396.473 599.993 396.33 599.164C396.508 599.988 396.687 600.81 396.997 601.594C397.293 602.376 397.631 603.15 398.077 603.857C398.926 605.296 399.985 606.608 401.211 607.742C403.65 610.026 406.537 611.773 409.535 613.238C412.545 614.691 415.7 615.836 418.911 616.775C422.123 617.696 425.402 618.47 428.677 619.003L428.21 619.142L436.67 611.674C436.928 611.446 437.323 611.47 437.551 611.728C437.626 611.813 437.675 611.921 437.696 612.024C439.295 619.975 440.809 627.945 442.316 635.915L442.323 635.959L443.523 646.505C443.563 646.815 443.344 647.099 443.034 647.136L442.957 647.141L434.447 647.059C434.201 647.061 433.994 646.868 433.964 646.631L432.348 632.121L430.848 617.599Z" fill="#002E5C"/>
<path d="M288.551 528.995C288.551 528.995 289.779 528.091 292.056 526.689C293.215 526.032 294.598 525.175 296.26 524.337C297.894 523.438 299.8 522.553 301.892 521.612C304.005 520.729 306.294 519.748 308.775 518.879C311.252 517.997 313.871 517.079 316.653 516.365C319.4 515.522 322.308 514.942 325.248 514.269C328.189 513.616 331.229 513.222 334.243 512.682C337.288 512.369 340.333 512.045 343.333 511.797C346.343 511.682 349.303 511.569 352.169 511.461C355.036 511.538 357.806 511.616 360.433 511.689C363.057 511.778 365.524 512.121 367.806 512.299C370.088 512.51 372.18 512.679 374.008 513.046C375.842 513.355 377.441 513.625 378.757 513.846C381.387 514.29 382.889 514.543 382.889 514.543C382.889 514.543 381.375 514.37 378.725 514.067C377.401 513.916 375.795 513.731 373.952 513.522C372.116 513.259 370.02 513.205 367.745 513.046C365.468 512.938 363.008 512.67 360.397 512.658C357.787 512.644 355.036 512.63 352.188 512.616C349.345 512.752 346.408 512.893 343.425 513.036C340.453 513.311 337.436 513.665 334.424 513.999C331.436 514.506 328.417 514.865 325.496 515.482C322.581 516.121 319.689 516.665 316.961 517.475C314.205 518.18 311.578 518.987 309.094 519.792C306.608 520.581 304.31 521.485 302.185 522.3C300.089 523.189 298.148 523.962 296.476 524.767C294.779 525.513 293.361 526.29 292.168 526.884C289.825 528.157 288.551 528.995 288.551 528.995Z" fill="#002E5C"/>
<path d="M481.66 688.576C481.66 688.576 481.336 684.505 480.852 678.397C480.427 672.291 479.864 664.15 479.298 656.011C479.054 651.94 478.772 647.872 478.469 644.062C478.16 640.252 477.908 636.695 477.594 633.655C477.427 632.136 477.275 630.744 477.138 629.512C476.958 628.284 476.8 627.214 476.671 626.333C476.324 624.594 476.082 623.594 476.082 623.594C476.082 623.594 476.162 623.836 476.31 624.291C476.444 624.749 476.714 625.408 476.925 626.279C477.34 628.021 477.89 630.526 478.336 633.564C478.758 636.602 479.261 640.149 479.617 643.963C479.977 647.778 480.322 651.851 480.622 655.924C480.84 660.002 481.061 664.082 481.265 667.906C481.456 671.73 481.507 675.305 481.596 678.367C481.723 684.489 481.66 688.576 481.66 688.576Z" fill="#002E5C"/>
<path d="M691.973 711.684C691.973 711.684 691.815 712.752 691.364 714.588C690.9 716.414 690.109 719.02 688.554 721.889C687.768 723.304 686.78 724.835 685.181 725.966C684.77 726.236 684.315 726.455 683.805 726.593C683.531 726.621 683.308 726.699 682.979 726.675C682.73 726.635 682.524 726.675 682.223 726.551C681.078 726.192 680.359 725.29 679.843 724.358C678.829 722.45 678.488 720.271 678.406 718.107C678.322 715.933 678.493 713.733 678.852 711.567C679.253 709.435 679.864 707.273 680.646 705.273C681.43 703.259 682.404 701.334 683.711 699.7C684.35 698.878 685.073 698.12 685.935 697.545C686.768 696.972 687.857 696.58 688.853 696.793C689.921 697.005 690.641 697.784 691.092 698.547C691.541 699.331 691.853 700.141 692.031 700.942C692.764 704.139 692.566 706.879 692.397 708.75C692.196 710.628 691.973 711.684 691.973 711.684ZM691.973 711.684C691.973 711.684 692.172 710.62 692.336 708.742C692.395 707.801 692.47 706.658 692.409 705.348C692.353 704.043 692.233 702.552 691.749 701.021C691.534 700.251 691.181 699.491 690.726 698.789C690.271 698.094 689.576 697.493 688.785 697.387C687.061 697.181 685.543 698.695 684.463 700.258C683.338 701.864 682.493 703.752 681.761 705.695C681.042 707.67 680.524 709.686 680.162 711.804C679.77 713.886 679.559 716.003 679.592 718.076C679.646 720.135 679.876 722.208 680.664 723.94C681.047 724.786 681.681 725.549 682.404 725.826C683.305 726.159 684.073 725.919 684.869 725.471C686.374 724.534 687.456 723.095 688.301 721.748C689.986 718.999 690.775 716.377 691.299 714.578C691.792 712.75 691.973 711.684 691.973 711.684Z" fill="#002E5C"/>
<path d="M348.183 970.594C348.183 927.503 328.02 890.526 299.274 874.688H236.639C207.894 890.524 187.73 927.503 187.73 970.594C187.73 1014.83 208.983 1052.59 238.947 1067.69H296.966C326.93 1052.59 348.183 1014.83 348.183 970.594Z" fill="#1C4670"/>
<path d="M297.474 846.734H236.635V874.696H297.474V846.734Z" fill="#1C4670"/>
<path d="M201.67 911.923C201.67 911.923 203.438 913.153 206.766 914.892C208.433 915.754 210.476 916.763 212.891 917.756C214.095 918.261 215.38 918.787 216.765 919.254C218.133 919.771 219.591 920.254 221.131 920.7C224.19 921.658 227.589 922.388 231.207 922.966C233.021 923.203 234.897 923.376 236.808 923.531C238.728 923.513 240.691 923.724 242.679 923.564C244.665 923.416 246.698 923.395 248.712 922.984C249.724 922.822 250.741 922.661 251.764 922.496C252.774 922.273 253.774 921.97 254.785 921.712C258.837 920.693 262.903 919.191 267.054 918.057C271.195 916.874 275.366 915.813 279.489 914.827C283.618 913.876 287.703 913.026 291.684 912.334C295.666 911.651 299.539 911.125 303.232 910.815C305.079 910.665 306.873 910.496 308.617 910.467C310.359 910.39 312.042 910.341 313.662 910.404C315.279 910.406 316.829 910.467 318.298 910.636C319.033 910.704 319.749 910.77 320.444 910.834C321.134 910.951 321.803 911.066 322.451 911.176C323.752 911.374 324.958 911.611 326.047 911.953C327.141 912.268 328.17 912.475 329.026 912.883C329.9 913.237 330.679 913.552 331.358 913.829C331.991 914.195 332.531 914.505 332.968 914.756C333.837 915.266 334.299 915.536 334.299 915.536C334.299 915.536 333.825 915.282 332.937 914.806C332.494 914.571 331.947 914.282 331.304 913.944C330.618 913.698 329.834 913.411 328.951 913.094C328.09 912.723 327.057 912.557 325.963 912.287C324.874 911.991 323.672 911.801 322.374 911.653C321.728 911.568 321.064 911.479 320.378 911.39C319.688 911.352 318.977 911.315 318.247 911.275C316.791 911.162 315.256 911.118 313.652 911.155C312.049 911.127 310.382 911.209 308.654 911.324C306.927 911.39 305.15 911.594 303.321 911.784C299.666 912.169 295.835 912.789 291.879 913.475C287.93 914.191 283.874 915.064 279.77 916.04C275.676 917.05 271.53 918.139 267.418 919.339C263.274 920.44 259.255 921.895 255.098 922.914C254.06 923.172 253.037 923.473 252.004 923.693C250.957 923.853 249.914 924.015 248.879 924.172C246.818 924.576 244.743 924.586 242.714 924.722C240.684 924.865 238.686 924.661 236.733 924.623C234.791 924.426 232.888 924.208 231.052 923.928C227.394 923.264 223.972 922.452 220.903 921.419C217.812 920.459 215.072 919.303 212.692 918.198C210.304 917.109 208.29 916.017 206.654 915.092C203.391 913.216 201.67 911.923 201.67 911.923Z" fill="white"/>
<path d="M189.771 947.133C189.771 947.133 191.537 948.976 195.194 951.471C196.1 952.105 197.126 952.769 198.286 953.427C199.413 954.136 200.702 954.781 202.075 955.469C204.819 956.856 208.064 958.086 211.648 959.26C213.472 959.737 215.371 960.26 217.355 960.685C219.369 960.969 221.421 961.465 223.578 961.608C227.877 962.014 232.445 962.094 237.133 961.659C239.471 961.389 241.873 961.281 244.239 960.718C246.608 960.199 249.059 959.917 251.413 959.126C256.198 957.746 261.057 956.345 265.919 954.943C268.424 954.443 270.931 953.945 273.426 953.448C275.936 953.07 278.448 952.811 280.931 952.492C285.92 952.058 290.85 951.851 295.615 951.976C300.378 952.074 304.979 952.441 309.304 953.016C311.475 953.236 313.567 953.614 315.59 953.952C317.621 954.26 319.562 954.664 321.422 955.065C323.288 955.436 325.065 955.842 326.741 956.293C328.424 956.713 330.014 957.133 331.49 957.589C334.462 958.434 337.016 959.298 339.108 960.028C343.291 961.502 345.597 962.551 345.597 962.551C345.597 962.551 343.256 961.577 339.035 960.239C336.925 959.575 334.352 958.798 331.364 958.051C329.878 957.645 328.281 957.277 326.593 956.913C324.912 956.516 323.14 956.126 321.274 955.798C319.417 955.431 317.478 955.063 315.454 954.795C313.435 954.497 311.353 954.157 309.191 953.978C304.883 953.485 300.315 953.222 295.594 953.128C290.868 953.035 285.988 953.269 281.053 953.727C278.598 954.058 276.112 954.328 273.64 954.715C271.194 955.215 268.736 955.718 266.28 956.22C261.404 957.596 256.529 958.969 251.728 960.324C249.34 961.11 246.847 961.382 244.443 961.894C242.042 962.448 239.6 962.549 237.227 962.807C232.466 963.244 227.82 963.056 223.47 962.568C221.287 962.382 219.21 961.845 217.179 961.519C215.174 961.051 213.261 960.488 211.425 959.972C207.81 958.737 204.575 957.385 201.857 955.894C200.495 955.157 199.22 954.467 198.108 953.718C196.964 953.02 195.953 952.321 195.065 951.654C191.476 949.032 189.771 947.133 189.771 947.133Z" fill="white"/>
<path d="M189.771 987.93C189.771 987.93 191.807 989.425 195.76 991.327C197.737 992.268 200.171 993.355 203.066 994.313C204.495 994.843 206.047 995.306 207.7 995.745C209.334 996.247 211.09 996.625 212.921 997.019C220.243 998.59 229.032 999.259 238.356 998.524C243.011 998.141 247.814 997.503 252.599 996.393C253.798 996.127 255.012 995.909 256.209 995.606L259.782 994.571C262.186 993.883 264.597 993.191 267.01 992.5C269.445 991.881 271.811 991.066 274.295 990.618C276.781 990.183 279.253 989.7 281.713 989.317C284.19 989.099 286.648 988.883 289.075 988.669C291.512 988.66 293.918 988.653 296.284 988.646C298.646 988.765 300.965 989 303.233 989.193C305.491 989.486 307.679 989.923 309.818 990.265C311.938 990.714 313.973 991.273 315.954 991.744C317.91 992.32 319.774 992.958 321.574 993.526C323.333 994.216 325.018 994.876 326.621 995.503C328.178 996.235 329.655 996.928 331.044 997.58C332.392 998.308 333.655 998.989 334.821 999.618C335.955 1000.3 336.998 1000.94 337.937 1001.5C339.782 1002.7 341.19 1003.7 342.129 1004.41C343.061 1005.13 343.54 1005.53 343.54 1005.53C343.54 1005.53 343.047 1005.14 342.096 1004.45C341.136 1003.78 339.697 1002.83 337.822 1001.69C336.866 1001.16 335.81 1000.56 334.657 999.916C333.476 999.327 332.199 998.691 330.833 998.01C329.434 997.407 327.946 996.766 326.375 996.09C324.772 995.501 323.088 994.878 321.33 994.23C319.534 993.7 317.675 993.101 315.731 992.566C313.759 992.134 311.736 991.618 309.632 991.214C307.51 990.913 305.341 990.521 303.108 990.273C300.862 990.139 298.575 989.888 296.244 989.794C293.908 989.815 291.535 989.838 289.131 989.859C286.737 990.085 284.316 990.312 281.875 990.543C279.462 990.935 277.046 991.423 274.614 991.86C272.182 992.308 269.787 993.153 267.365 993.777C264.949 994.454 262.536 995.13 260.132 995.803L256.514 996.827C255.301 997.127 254.071 997.341 252.857 997.602C248.014 998.693 243.148 999.313 238.438 999.672C228.994 1000.36 220.118 999.437 212.759 997.747C210.92 997.31 209.153 996.916 207.521 996.353C205.871 995.857 204.324 995.341 202.901 994.761C200.023 993.702 197.61 992.533 195.659 991.524C191.755 989.491 189.771 987.93 189.771 987.93Z" fill="white"/>
<path d="M201.67 1030.93C201.67 1030.93 203.243 1032.21 206.464 1033.54C208.081 1034.18 210.076 1034.9 212.45 1035.37C213.619 1035.68 214.91 1035.77 216.243 1036C217.593 1036.09 219.009 1036.28 220.495 1036.29C221.981 1036.28 223.528 1036.36 225.122 1036.18C225.92 1036.12 226.73 1036.05 227.554 1035.99C228.373 1035.89 229.202 1035.74 230.042 1035.61C231.733 1035.4 233.435 1035.01 235.169 1034.58C236.918 1034.22 238.658 1033.65 240.433 1033.1C243.97 1032.07 247.513 1030.38 251.269 1029.21L254.067 1028.25L257.025 1027.61L259.997 1026.96C260.992 1026.79 261.997 1026.72 262.997 1026.6C265.002 1026.39 267.004 1026.13 269.009 1026.18C271.012 1026.19 273.012 1026.03 274.981 1026.22C276.951 1026.36 278.918 1026.39 280.841 1026.63C282.761 1026.87 284.658 1027.11 286.524 1027.35C288.374 1027.68 290.191 1028.01 291.97 1028.33C293.741 1028.7 295.454 1029.13 297.133 1029.52C300.469 1030.36 303.607 1031.21 306.462 1032.14C309.335 1033 311.913 1033.97 314.199 1034.81C316.477 1035.68 318.446 1036.46 320.052 1037.15C323.268 1038.52 325.061 1039.4 325.061 1039.4C325.061 1039.4 323.235 1038.59 319.97 1037.36C318.338 1036.74 316.34 1036.03 314.037 1035.26C311.725 1034.52 309.122 1033.67 306.246 1032.86C303.387 1032 300.243 1031.22 296.912 1030.46C295.238 1030.12 293.527 1029.72 291.762 1029.4C289.994 1029.1 288.189 1028.8 286.35 1028.49C284.503 1028.27 282.625 1028.05 280.723 1027.82C278.822 1027.6 276.88 1027.59 274.934 1027.46C272.986 1027.28 271.021 1027.46 269.051 1027.46C267.075 1027.43 265.115 1027.71 263.15 1027.92C262.171 1028.03 261.175 1028.09 260.211 1028.25L257.34 1028.85L254.478 1029.44L251.675 1030.38C249.78 1031.02 248.013 1031.61 246.193 1032.32C244.376 1032.99 242.604 1033.72 240.778 1034.2C238.97 1034.74 237.209 1035.32 235.416 1035.63C233.643 1036.03 231.906 1036.39 230.183 1036.56C229.326 1036.67 228.484 1036.81 227.648 1036.89C226.81 1036.94 225.983 1036.98 225.171 1037.03C223.549 1037.17 221.974 1037.05 220.469 1037.03C218.962 1036.98 217.525 1036.78 216.161 1036.63C214.816 1036.34 213.518 1036.19 212.344 1035.83C209.964 1035.25 207.978 1034.45 206.379 1033.74C203.186 1032.27 201.67 1030.93 201.67 1030.93Z" fill="white"/>
<path d="M911.869 27.2578H782.066V225.637H911.869V27.2578Z" fill="#F2E9E1"/>
<path d="M801.25 63.0237C801.25 63.0237 802.677 62.9838 805.175 62.9134C807.673 62.85 811.241 62.7608 815.523 62.6528C819.805 62.5941 824.801 62.5237 830.153 62.4486C835.505 62.4204 841.215 62.3899 846.924 62.3594C852.633 62.3899 858.342 62.4181 863.695 62.4462C869.047 62.5214 874.043 62.5894 878.325 62.6481C886.888 62.8265 892.598 63.0237 892.598 63.0237C892.598 63.0237 886.888 63.2186 878.325 63.3993C874.043 63.458 869.047 63.5284 863.695 63.6012C858.342 63.6294 852.633 63.6599 846.924 63.6881C841.215 63.6576 835.505 63.627 830.153 63.5989C824.801 63.5238 819.805 63.4557 815.523 63.397C811.241 63.289 807.673 63.1975 805.175 63.1341C802.677 63.066 801.25 63.0237 801.25 63.0237Z" fill="#002E5C"/>
<path d="M801.25 79.8597C801.25 79.8597 802.677 79.8198 805.175 79.7493C807.673 79.6859 811.241 79.5967 815.523 79.4888C819.805 79.4301 824.801 79.3596 830.153 79.2845C835.505 79.2563 841.215 79.2258 846.924 79.1953C852.633 79.2258 858.342 79.254 863.695 79.2822C869.047 79.3573 874.043 79.4254 878.325 79.4841C886.888 79.6625 892.598 79.8597 892.598 79.8597C892.598 79.8597 886.888 80.0545 878.325 80.2353C874.043 80.294 869.047 80.3644 863.695 80.4372C858.342 80.4653 852.633 80.4958 846.924 80.524C841.215 80.4935 835.505 80.463 830.153 80.4348C824.801 80.3597 819.805 80.2916 815.523 80.2306C811.241 80.1226 807.673 80.031 805.175 79.97C802.677 79.9019 801.25 79.8597 801.25 79.8597Z" fill="#002E5C"/>
<path d="M801.25 96.6823C801.25 96.6823 802.677 96.6424 805.175 96.572C807.673 96.5086 811.241 96.4194 815.523 96.3091C819.805 96.2504 824.801 96.1799 830.153 96.1048C835.505 96.0766 841.215 96.0461 846.924 96.0156C852.633 96.0461 858.342 96.0743 863.695 96.1025C869.047 96.1752 874.043 96.2457 878.325 96.3044C886.888 96.4828 892.598 96.68 892.598 96.68C892.598 96.68 886.888 96.8748 878.325 97.0556C874.043 97.1143 869.047 97.1847 863.695 97.2575C858.342 97.2856 852.633 97.3162 846.924 97.3443C841.215 97.3138 835.505 97.2833 830.153 97.2551C824.801 97.18 819.805 97.1119 815.523 97.0532C811.241 96.9452 807.673 96.8537 805.175 96.7903C802.677 96.7246 801.25 96.6823 801.25 96.6823Z" fill="#002E5C"/>
<path d="M801.25 113.518C801.25 113.518 802.677 113.478 805.175 113.408C807.673 113.345 811.241 113.255 815.523 113.145C819.805 113.086 824.801 113.016 830.153 112.941C835.505 112.913 841.215 112.882 846.924 112.852C852.633 112.882 858.342 112.91 863.695 112.938C869.047 113.014 874.043 113.082 878.325 113.14C886.888 113.319 892.598 113.516 892.598 113.516C892.598 113.516 886.888 113.711 878.325 113.892C874.043 113.95 869.047 114.021 863.695 114.093C858.342 114.122 852.633 114.15 846.924 114.18C841.215 114.15 835.505 114.119 830.153 114.091C824.801 114.016 819.805 113.948 815.523 113.887C811.241 113.779 807.673 113.687 805.175 113.624C802.677 113.558 801.25 113.518 801.25 113.518Z" fill="#002E5C"/>
<path d="M801.25 130.354C801.25 130.354 802.677 130.314 805.175 130.244C807.673 130.18 811.241 130.091 815.523 129.981C819.805 129.922 824.801 129.852 830.153 129.777C835.505 129.749 841.215 129.718 846.924 129.688C852.633 129.718 858.342 129.746 863.695 129.774C869.047 129.849 874.043 129.918 878.325 129.976C886.888 130.155 892.598 130.352 892.598 130.352C892.598 130.352 886.888 130.547 878.325 130.727C874.043 130.786 869.047 130.857 863.695 130.929C858.342 130.958 852.633 130.988 846.924 131.016C841.215 130.986 835.505 130.955 830.153 130.927C824.801 130.852 819.805 130.784 815.523 130.723C811.241 130.615 807.673 130.523 805.175 130.46C802.677 130.394 801.25 130.354 801.25 130.354Z" fill="#002E5C"/>
<path d="M801.25 147.19C801.25 147.19 802.677 147.15 805.175 147.08C807.673 147.016 811.241 146.927 815.523 146.817C819.805 146.758 824.801 146.688 830.153 146.613C835.505 146.584 841.215 146.554 846.924 146.523C852.633 146.554 858.342 146.582 863.695 146.61C869.047 146.685 874.043 146.753 878.325 146.812C886.888 146.991 892.598 147.188 892.598 147.188C892.598 147.188 886.888 147.383 878.325 147.563C874.043 147.622 869.047 147.693 863.695 147.765C858.342 147.793 852.633 147.824 846.924 147.852C841.215 147.822 835.505 147.791 830.153 147.763C824.801 147.688 819.805 147.62 815.523 147.559C811.241 147.451 807.673 147.359 805.175 147.298C802.677 147.23 801.25 147.19 801.25 147.19Z" fill="#002E5C"/>
<path d="M801.25 164.024C801.25 164.024 802.677 163.984 805.175 163.913C807.673 163.85 811.241 163.761 815.523 163.653C819.805 163.594 824.801 163.524 830.153 163.449C835.505 163.42 841.215 163.39 846.924 163.359C852.633 163.39 858.342 163.418 863.695 163.446C869.047 163.521 874.043 163.589 878.325 163.648C886.888 163.827 892.598 164.024 892.598 164.024C892.598 164.024 886.888 164.219 878.325 164.399C874.043 164.458 869.047 164.528 863.695 164.601C858.342 164.629 852.633 164.66 846.924 164.688C841.215 164.658 835.505 164.627 830.153 164.599C824.801 164.524 819.805 164.456 815.523 164.395C811.241 164.287 807.673 164.195 805.175 164.134C802.677 164.064 801.25 164.024 801.25 164.024Z" fill="#002E5C"/>
<path d="M801.25 180.846C801.25 180.846 802.677 180.806 805.175 180.736C807.673 180.673 811.241 180.583 815.523 180.473C819.805 180.414 824.801 180.344 830.153 180.269C835.505 180.241 841.215 180.21 846.924 180.18C852.633 180.21 858.342 180.238 863.695 180.267C869.047 180.339 874.043 180.41 878.325 180.468C886.888 180.647 892.598 180.844 892.598 180.844C892.598 180.844 886.888 181.039 878.325 181.22C874.043 181.278 869.047 181.349 863.695 181.422C858.342 181.45 852.633 181.48 846.924 181.508C841.215 181.478 835.505 181.447 830.153 181.419C824.801 181.344 819.805 181.276 815.523 181.217C811.241 181.109 807.673 181.018 805.175 180.954C802.677 180.886 801.25 180.846 801.25 180.846Z" fill="#002E5C"/>
<path d="M801.25 197.68C801.25 197.68 802.677 197.64 805.175 197.57C807.673 197.506 811.241 197.417 815.523 197.309C819.805 197.25 824.801 197.18 830.153 197.105C835.505 197.077 841.215 197.046 846.924 197.016C852.633 197.046 858.342 197.074 863.695 197.102C869.047 197.178 874.043 197.246 878.325 197.304C886.888 197.483 892.598 197.68 892.598 197.68C892.598 197.68 886.888 197.875 878.325 198.056C874.043 198.114 869.047 198.185 863.695 198.257C858.342 198.286 852.633 198.314 846.924 198.344C841.215 198.314 835.505 198.283 830.153 198.255C824.801 198.18 819.805 198.112 815.523 198.051C811.241 197.943 807.673 197.851 805.175 197.788C802.677 197.72 801.25 197.68 801.25 197.68Z" fill="#002E5C"/>
<path d="M852.482 540.561H539.277C525.936 540.561 515.121 529.746 515.121 516.405V175.377C515.121 162.036 525.936 151.219 539.277 151.219H852.479C865.821 151.219 876.636 162.034 876.636 175.377V516.402C876.638 529.746 865.823 540.561 852.482 540.561Z" fill="#DB8C8E"/>
<path d="M853.642 528.37H538.116C530.602 528.37 524.51 522.278 524.51 514.764V175.377C524.51 162.036 535.325 151.219 548.666 151.219H843.088C856.429 151.219 867.244 162.034 867.244 175.377V514.764C867.249 522.278 861.157 528.37 853.642 528.37Z" fill="white"/>
<path d="M627.089 249.812H592.52V472.916H627.089V249.812Z" fill="#FFA229"/>
<path d="M680.611 273.57H646.041V472.928H680.611V273.57Z" fill="#FFA229"/>
<path d="M732.513 320.242H697.943V472.919H732.513V320.242Z" fill="#FFA229"/>
<path d="M787.328 299.734H752.758V472.917H787.328V299.734Z" fill="#FFA229"/>
<path d="M558.988 234.172L559.303 298.835L559.422 363.498L559.638 492.824L558.988 492.174L695.878 492.376L764.323 492.491L832.768 492.824L764.323 493.157L695.878 493.273L558.988 493.474C558.629 493.474 558.338 493.183 558.338 492.824L558.554 363.496L558.674 298.833L558.988 234.172Z" fill="#002E5C"/>
<path d="M876.638 207.56H515.121V175.377C515.121 162.036 525.936 151.219 539.277 151.219H852.479C865.821 151.219 876.636 162.034 876.636 175.377V207.56H876.638Z" fill="#1C4670"/>
<path d="M804.447 188.945H826.392" stroke="white" stroke-width="2" stroke-miterlimit="10" stroke-linecap="round" stroke-linejoin="round"/>
<path d="M838.051 169.875L855.885 188.944" stroke="white" stroke-width="2" stroke-miterlimit="10" stroke-linecap="round" stroke-linejoin="round"/>
<path d="M837.432 188.334L856.503 170.5" stroke="white" stroke-width="2" stroke-miterlimit="10" stroke-linecap="round" stroke-linejoin="round"/>
<path d="M871.95 290.844L829.316 339.299L837.629 290.844H871.95Z" fill="#E8CF9C"/>
<path d="M918.756 307.727H820.746C814.75 307.727 809.889 302.866 809.889 296.87V245.029C809.889 239.034 814.75 234.172 820.746 234.172H918.756C924.752 234.172 929.613 239.034 929.613 245.029V296.87C929.613 302.866 924.752 307.727 918.756 307.727Z" fill="#E8CF9C"/>
<path d="M821.334 250.117C821.334 250.117 822.848 250.078 825.494 250.007C828.142 249.944 831.924 249.855 836.464 249.747C841.004 249.688 846.298 249.617 851.972 249.542C857.646 249.514 863.698 249.484 869.75 249.453C875.802 249.484 881.854 249.512 887.528 249.54C893.202 249.615 898.498 249.683 903.035 249.742C912.113 249.92 918.165 250.117 918.165 250.117C918.165 250.117 912.113 250.312 903.035 250.493C898.495 250.552 893.202 250.622 887.528 250.695C881.854 250.723 875.802 250.754 869.75 250.782C863.698 250.751 857.646 250.721 851.972 250.693C846.298 250.618 841.002 250.549 836.464 250.488C831.924 250.38 828.142 250.289 825.494 250.228C822.846 250.157 821.334 250.117 821.334 250.117Z" fill="#002E5C"/>
<path d="M821.334 263.992C821.334 263.992 822.848 263.953 825.494 263.882C828.142 263.819 831.924 263.73 836.464 263.622C841.004 263.563 846.298 263.492 851.972 263.417C857.646 263.389 863.698 263.359 869.75 263.328C875.802 263.359 881.854 263.387 887.528 263.415C893.202 263.49 898.498 263.558 903.035 263.617C912.113 263.795 918.165 263.992 918.165 263.992C918.165 263.992 912.113 264.187 903.035 264.368C898.495 264.427 893.202 264.497 887.528 264.57C881.854 264.598 875.802 264.629 869.75 264.657C863.698 264.626 857.646 264.596 851.972 264.568C846.298 264.493 841.002 264.424 836.464 264.363C831.924 264.255 828.142 264.164 825.494 264.103C822.846 264.032 821.334 263.992 821.334 263.992Z" fill="#002E5C"/>
<path d="M821.334 277.878C821.334 277.878 822.848 277.838 825.494 277.767C828.142 277.704 831.924 277.615 836.464 277.504C841.004 277.446 846.298 277.375 851.972 277.3C857.646 277.272 863.698 277.241 869.75 277.211C875.802 277.241 881.854 277.27 887.528 277.298C893.202 277.373 898.498 277.441 903.035 277.5C912.113 277.678 918.165 277.875 918.165 277.875C918.165 277.875 912.113 278.07 903.035 278.251C898.495 278.31 893.202 278.38 887.528 278.453C881.854 278.481 875.802 278.511 869.75 278.54C863.698 278.509 857.646 278.479 851.972 278.45C846.298 278.375 841.002 278.307 836.464 278.246C831.924 278.138 828.142 278.047 825.494 277.983C822.846 277.918 821.334 277.878 821.334 277.878Z" fill="#002E5C"/>
<path d="M821.334 291.782C821.334 291.782 822.848 291.742 825.494 291.671C828.142 291.608 831.924 291.519 836.464 291.411C841.004 291.352 846.298 291.282 851.972 291.206C857.646 291.178 863.698 291.148 869.75 291.117C875.802 291.148 881.854 291.176 887.528 291.204C893.202 291.279 898.498 291.347 903.035 291.406C912.113 291.584 918.165 291.782 918.165 291.782C918.165 291.782 912.113 291.976 903.035 292.157C898.495 292.216 893.202 292.286 887.528 292.359C881.854 292.387 875.802 292.418 869.75 292.446C863.698 292.415 857.646 292.385 851.972 292.357C846.298 292.282 841.002 292.213 836.464 292.152C831.924 292.044 828.142 291.953 825.494 291.892C822.846 291.821 821.334 291.782 821.334 291.782Z" fill="#002E5C"/>
<path d="M553.894 331.366H347.162C333.821 331.366 323.006 320.551 323.006 307.21V105.924C323.006 92.5831 333.821 81.7656 347.162 81.7656H553.894C567.235 81.7656 578.05 92.5807 578.05 105.924V307.207C578.052 320.551 567.237 331.366 553.894 331.366Z" fill="#64B39C"/>
<path d="M555.056 319.173H346.003C338.488 319.173 332.396 313.081 332.396 305.566V105.924C332.396 92.5831 343.212 81.7656 356.553 81.7656H544.504C557.845 81.7656 568.66 92.5807 568.66 105.924V305.566C568.663 313.083 562.571 319.173 555.056 319.173Z" fill="white"/>
<path d="M578.052 138.109H323.006V105.924C323.006 92.5831 333.821 81.7656 347.162 81.7656H553.894C567.235 81.7656 578.05 92.5807 578.05 105.924V138.109H578.052Z" fill="#1C4670"/>
<path d="M505.861 119.469H527.806" stroke="white" stroke-width="2" stroke-miterlimit="10" stroke-linecap="round" stroke-linejoin="round"/>
<path d="M539.465 100.398L557.299 119.47" stroke="white" stroke-width="2" stroke-miterlimit="10" stroke-linecap="round" stroke-linejoin="round"/>
<path d="M538.846 118.855L557.915 101.023" stroke="white" stroke-width="2" stroke-miterlimit="10" stroke-linecap="round" stroke-linejoin="round"/>
<path d="M517.562 155.531H346.936V177.845H517.562V155.531Z" fill="#E3E0EF"/>
<path d="M546.65 185.938H346.936V208.251H546.65V185.938Z" fill="#E3E0EF"/>
<path d="M517.562 216.344H346.936V238.657H517.562V216.344Z" fill="#E3E0EF"/>
<path d="M484.945 246.75H346.936V269.063H484.945V246.75Z" fill="#E3E0EF"/>
<path d="M517.562 277.18H346.936V299.493H517.562V277.18Z" fill="#E3E0EF"/>
<path d="M720.857 534.602L695.877 632.534L670.896 534.602H720.857Z" fill="#DB8C8E"/>
<path d="M486.496 433.11H378.009C374.136 433.11 370.967 429.941 370.967 426.067V358.66C370.967 354.786 374.136 351.617 378.009 351.617H486.496C490.37 351.617 493.539 354.786 493.539 358.66V426.067C493.539 429.941 490.37 433.11 486.496 433.11Z" fill="#E8CF9C"/>
<path d="M493.543 425.995C483.176 418.051 472.851 410.055 462.583 401.992L431.844 377.709H432.673L401.934 401.992C391.664 410.055 381.339 418.054 370.973 425.995C381.034 417.669 391.138 409.396 401.296 401.191L431.844 376.669C432.091 376.472 432.436 376.479 432.673 376.669L463.219 401.193C473.377 409.396 483.481 417.669 493.543 425.995Z" fill="#002E5C"/>
<path d="M370.973 356.867L432.258 405.675L493.543 356.867" fill="#E8CF9C"/>
<path d="M370.973 356.867C381.339 364.811 391.664 372.807 401.932 380.871L432.671 405.154H431.842L462.581 380.871C472.851 372.807 483.176 364.809 493.543 356.867C483.481 365.194 473.377 373.467 463.219 381.671L432.671 406.194C432.424 406.391 432.079 406.384 431.842 406.194L401.296 381.669C391.138 373.467 381.034 365.194 370.973 356.867Z" fill="#002E5C"/>
<path d="M721.598 133.571H613.111C609.238 133.571 606.068 130.402 606.068 126.528V59.1208C606.068 55.2473 609.238 52.0781 613.111 52.0781H721.598C725.471 52.0781 728.641 55.2473 728.641 59.1208V126.528C728.641 130.402 725.471 133.571 721.598 133.571Z" fill="#E8CF9C"/>
<path d="M728.644 126.454C718.277 118.51 707.953 110.514 697.685 102.45L666.946 78.1696H667.775L637.036 102.453C626.765 110.516 616.441 118.514 606.074 126.456C616.136 118.129 626.24 109.857 636.397 101.652L666.946 77.1296C667.192 76.9324 667.538 76.9395 667.775 77.1296L698.321 101.654C708.479 109.857 718.583 118.129 728.644 126.454Z" fill="#002E5C"/>
<path d="M606.074 57.3203L667.359 106.126L728.644 57.3203" fill="#E8CF9C"/>
<path d="M606.074 57.3227C616.441 65.2668 626.765 73.2625 637.034 81.3263L667.772 105.607H666.944L697.682 81.3239C707.953 73.2601 718.277 65.262 728.644 57.3203C718.583 65.647 708.479 73.9198 698.321 82.1245L667.772 106.647C667.526 106.844 667.181 106.837 666.944 106.647L636.397 82.1221C626.24 73.9198 616.136 65.6471 606.074 57.3227Z" fill="#002E5C"/>
<mask id="mask4_172_12721" style="mask-type:luminance" maskUnits="userSpaceOnUse" x="807" y="488" width="130" height="131">
<path d="M892.23 492.182C858.261 480.964 821.631 499.407 810.414 533.374C799.197 567.342 817.641 603.972 851.609 615.189C885.578 626.406 922.208 607.964 933.425 573.996C944.643 540.029 926.199 503.399 892.23 492.182Z" fill="white"/>
</mask>
<g mask="url(#mask4_172_12721)">
<path d="M935.876 563.972C941.557 528.653 917.532 495.416 882.214 489.736C846.896 484.055 813.66 508.082 807.979 543.401C802.299 578.72 826.324 611.957 861.642 617.637C896.96 623.318 930.195 599.291 935.876 563.972Z" fill="#8CA5CE"/>
</g>
<mask id="mask5_172_12721" style="mask-type:luminance" maskUnits="userSpaceOnUse" x="807" y="488" width="130" height="131">
<path d="M935.88 563.956C941.561 528.637 917.535 495.399 882.217 489.719C846.899 484.038 813.662 508.065 807.981 543.384C802.301 578.704 826.326 611.941 861.644 617.622C896.963 623.302 930.199 599.275 935.88 563.956Z" fill="white"/>
</mask>
<g mask="url(#mask5_172_12721)">
<path d="M922.366 621.172C928.871 593.342 911.583 565.508 883.753 559.003C855.923 552.499 828.089 569.786 821.584 597.617C815.08 625.447 832.368 653.281 860.198 659.785C888.028 666.29 915.862 649.002 922.366 621.172Z" fill="#E8CF9C"/>
</g>
<mask id="mask6_172_12721" style="mask-type:luminance" maskUnits="userSpaceOnUse" x="807" y="488" width="130" height="131">
<path d="M935.88 563.956C941.561 528.637 917.535 495.399 882.217 489.719C846.899 484.038 813.662 508.065 807.981 543.384C802.301 578.704 826.326 611.941 861.644 617.622C896.963 623.302 930.199 599.275 935.88 563.956Z" fill="white"/>
</mask>
<g mask="url(#mask6_172_12721)">
<path d="M890.095 556.53C900.122 546.503 900.122 530.247 890.095 520.22C880.069 510.194 863.812 510.193 853.786 520.22C843.759 530.247 843.759 546.503 853.786 556.53C863.812 566.556 880.069 566.556 890.095 556.53Z" fill="#E8CF9C"/>
</g>
<path d="M366.441 29.1328H236.639V227.512H366.441V29.1328Z" fill="#FFA229"/>
<path d="M255.822 64.8987C255.822 64.8987 257.25 64.8588 259.747 64.7884C262.245 64.725 265.813 64.6358 270.095 64.5255C274.377 64.4668 279.373 64.3964 284.725 64.3236C290.078 64.2954 295.787 64.2649 301.496 64.2344C307.205 64.2649 312.914 64.2931 318.267 64.3212C323.619 64.3964 328.615 64.4644 332.897 64.5231C341.461 64.7015 347.17 64.8987 347.17 64.8987C347.17 64.8987 341.461 65.0936 332.897 65.2743C328.615 65.333 323.619 65.4034 318.267 65.4762C312.914 65.5044 307.205 65.5349 301.496 65.5631C295.787 65.5326 290.078 65.502 284.725 65.4739C279.373 65.3988 274.377 65.3307 270.095 65.272C265.813 65.164 262.245 65.0725 259.747 65.0091C257.25 64.9386 255.822 64.8987 255.822 64.8987Z" fill="#002E5C"/>
<path d="M255.822 81.7347C255.822 81.7347 257.25 81.6948 259.747 81.6243C262.245 81.5609 265.813 81.4717 270.095 81.3638C274.377 81.3051 279.373 81.2346 284.725 81.1595C290.078 81.1313 295.787 81.1008 301.496 81.0703C307.205 81.1008 312.914 81.129 318.267 81.1572C323.619 81.2323 328.615 81.3004 332.897 81.3591C341.461 81.5375 347.17 81.7347 347.17 81.7347C347.17 81.7347 341.461 81.9295 332.897 82.1103C328.615 82.169 323.619 82.2394 318.267 82.3122C312.914 82.3403 307.205 82.3685 301.496 82.399C295.787 82.3685 290.078 82.338 284.725 82.3098C279.373 82.2347 274.377 82.1666 270.095 82.1056C265.813 81.9976 262.245 81.906 259.747 81.845C257.25 81.7746 255.822 81.7347 255.822 81.7347Z" fill="#002E5C"/>
<path d="M255.822 98.5573C255.822 98.5573 257.25 98.5174 259.747 98.447C262.245 98.3836 265.813 98.2944 270.095 98.1841C274.377 98.1254 279.373 98.055 284.725 97.9798C290.078 97.9517 295.787 97.9211 301.496 97.8906C307.205 97.9211 312.914 97.9493 318.267 97.9775C323.619 98.0526 328.615 98.1207 332.897 98.1794C341.461 98.3578 347.17 98.555 347.17 98.555C347.17 98.555 341.461 98.7498 332.897 98.9306C328.615 98.9893 323.619 99.0597 318.267 99.1325C312.914 99.1606 307.205 99.1912 301.496 99.2193C295.787 99.1888 290.078 99.1583 284.725 99.1301C279.373 99.055 274.377 98.9869 270.095 98.9259C265.813 98.8179 262.245 98.7264 259.747 98.663C257.25 98.5972 255.822 98.5573 255.822 98.5573Z" fill="#002E5C"/>
<path d="M255.822 115.393C255.822 115.393 257.25 115.353 259.747 115.283C262.245 115.22 265.813 115.13 270.095 115.02C274.377 114.961 279.373 114.891 284.725 114.816C290.078 114.788 295.787 114.757 301.496 114.727C307.205 114.757 312.914 114.785 318.267 114.813C323.619 114.889 328.615 114.957 332.897 115.015C341.461 115.194 347.17 115.391 347.17 115.391C347.17 115.391 341.461 115.586 332.897 115.767C328.615 115.825 323.619 115.896 318.267 115.968C312.914 115.997 307.205 116.027 301.496 116.055C295.787 116.025 290.078 115.994 284.725 115.966C279.373 115.891 274.377 115.823 270.095 115.762C265.813 115.654 262.245 115.562 259.747 115.499C257.25 115.433 255.822 115.393 255.822 115.393Z" fill="#002E5C"/>
<path d="M255.822 132.229C255.822 132.229 257.25 132.189 259.747 132.119C262.245 132.056 265.813 131.966 270.095 131.856C274.377 131.797 279.373 131.727 284.725 131.652C290.078 131.624 295.787 131.593 301.496 131.562C307.205 131.593 312.914 131.621 318.267 131.649C323.619 131.724 328.615 131.793 332.897 131.851C341.461 132.03 347.17 132.227 347.17 132.227C347.17 132.227 341.461 132.422 332.897 132.602C328.615 132.661 323.619 132.732 318.267 132.804C312.914 132.833 307.205 132.863 301.496 132.891C295.787 132.861 290.078 132.83 284.725 132.802C279.373 132.727 274.377 132.659 270.095 132.598C265.813 132.49 262.245 132.398 259.747 132.337C257.25 132.269 255.822 132.229 255.822 132.229Z" fill="#002E5C"/>
<path d="M255.822 149.063C255.822 149.063 257.25 149.023 259.747 148.952C262.245 148.889 265.813 148.8 270.095 148.692C274.377 148.633 279.373 148.563 284.725 148.488C290.078 148.459 295.787 148.429 301.496 148.398C307.205 148.429 312.914 148.457 318.267 148.485C323.619 148.56 328.615 148.628 332.897 148.687C341.461 148.866 347.17 149.063 347.17 149.063C347.17 149.063 341.461 149.258 332.897 149.438C328.615 149.497 323.619 149.568 318.267 149.64C312.914 149.668 307.205 149.699 301.496 149.727C295.787 149.697 290.078 149.666 284.725 149.638C279.373 149.563 274.377 149.495 270.095 149.434C265.813 149.326 262.245 149.234 259.747 149.173C257.25 149.103 255.822 149.063 255.822 149.063Z" fill="#002E5C"/>
<path d="M255.822 165.899C255.822 165.899 257.25 165.859 259.747 165.788C262.245 165.725 265.813 165.636 270.095 165.528C274.377 165.469 279.373 165.399 284.725 165.324C290.078 165.295 295.787 165.265 301.496 165.234C307.205 165.265 312.914 165.293 318.267 165.321C323.619 165.396 328.615 165.464 332.897 165.523C341.461 165.702 347.17 165.899 347.17 165.899C347.17 165.899 341.461 166.094 332.897 166.274C328.615 166.333 323.619 166.403 318.267 166.476C312.914 166.504 307.205 166.533 301.496 166.563C295.787 166.533 290.078 166.502 284.725 166.474C279.373 166.399 274.377 166.331 270.095 166.272C265.813 166.164 262.245 166.072 259.747 166.009C257.25 165.939 255.822 165.899 255.822 165.899Z" fill="#002E5C"/>
<path d="M255.822 182.719C255.822 182.719 257.25 182.679 259.747 182.609C262.245 182.545 265.813 182.456 270.095 182.348C274.377 182.289 279.373 182.219 284.725 182.144C290.078 182.116 295.787 182.085 301.496 182.055C307.205 182.085 312.914 182.113 318.267 182.142C323.619 182.217 328.615 182.285 332.897 182.343C341.461 182.522 347.17 182.719 347.17 182.719C347.17 182.719 341.461 182.914 332.897 183.095C328.615 183.153 323.619 183.224 318.267 183.297C312.914 183.325 307.205 183.355 301.496 183.383C295.787 183.353 290.078 183.322 284.725 183.294C279.373 183.219 274.377 183.151 270.095 183.09C265.813 182.982 262.245 182.89 259.747 182.827C257.25 182.759 255.822 182.719 255.822 182.719Z" fill="#002E5C"/>
<path d="M255.822 199.557C255.822 199.557 257.25 199.517 259.747 199.447C262.245 199.384 265.813 199.294 270.095 199.184C274.377 199.125 279.373 199.055 284.725 198.98C290.078 198.952 295.787 198.921 301.496 198.891C307.205 198.921 312.914 198.949 318.267 198.977C323.619 199.053 328.615 199.121 332.897 199.179C341.461 199.358 347.17 199.555 347.17 199.555C347.17 199.555 341.461 199.75 332.897 199.931C328.615 199.989 323.619 200.06 318.267 200.132C312.914 200.161 307.205 200.191 301.496 200.219C295.787 200.189 290.078 200.158 284.725 200.13C279.373 200.055 274.377 199.987 270.095 199.926C265.813 199.818 262.245 199.726 259.747 199.663C257.25 199.597 255.822 199.557 255.822 199.557Z" fill="#002E5C"/>
</svg>
