<svg width="1016" height="971" viewBox="0 0 1016 971" fill="none" xmlns="http://www.w3.org/2000/svg">
<g clip-path="url(#clip0_606_17068)">
<rect width="1016" height="971" fill="white"/>
<path d="M337.847 156.936L320.52 149.348L316.584 161.31L310.852 159.424L316.863 141.157L334.085 148.7L338.479 134.549L354.33 141.155L360.844 127.233L366.309 129.791L357.345 148.95L342.277 142.669L337.847 156.936Z" fill="#FFE838"/>
<path d="M828.152 507.478V495.115C828.152 450.471 845.037 411.567 889.681 411.567C937.44 411.567 976.156 372.851 976.156 325.092C976.156 277.334 937.44 238.617 889.681 238.617H282.619C239.711 238.617 204.926 273.402 204.926 316.31C204.926 367.73 163.242 409.415 111.821 409.415H96.185C43.4728 409.415 0.742188 452.146 0.742188 504.858C0.742188 557.57 43.4728 600.301 96.185 600.301C147.606 600.301 189.29 641.985 189.29 693.407V711.156C189.29 754.064 224.075 788.849 266.983 788.849H901.952C954.664 788.849 997.395 746.118 997.395 693.407V693.313C997.395 640.653 954.705 597.964 902.045 597.964C850.573 597.962 828.152 558.95 828.152 507.478Z" fill="#FAAF20"/>
<path d="M514.583 181.244C503.109 181.244 493.805 190.547 493.805 202.023V233.148H535.361V202.023C535.361 191.693 528.859 181.244 518.855 181.244C517.707 181.244 515.73 181.244 514.583 181.244ZM514.583 207.593C510.049 207.593 506.372 203.917 506.372 199.381C506.372 194.847 510.049 191.171 514.583 191.171C519.118 191.171 522.795 194.847 522.795 199.381C522.794 203.917 519.118 207.593 514.583 207.593Z" fill="#642D78"/>
<path d="M672.466 145.189C648.971 140.309 625.969 155.398 621.089 178.892C616.209 202.386 631.297 225.389 654.792 230.269C678.286 235.15 701.288 220.06 706.169 196.566C711.05 173.072 695.96 150.07 672.466 145.189Z" fill="white"/>
<path d="M887.765 213.034C888.235 186.427 867.048 164.477 840.442 164.007C813.834 163.536 791.885 184.724 791.414 211.331C790.944 237.937 812.132 259.887 838.738 260.357C865.345 260.828 887.294 239.64 887.765 213.034Z" fill="white"/>
<path d="M1011.97 876.885H20.1098C17.8874 876.885 16.0859 878.757 16.0859 881.067C16.0859 883.377 17.8874 885.248 20.1098 885.248H1011.97C1014.2 885.248 1016 883.377 1016 881.067C1016 878.757 1014.2 876.885 1011.97 876.885Z" fill="#C1C1C1"/>
<path d="M815.227 379.985C815.426 381.099 816.243 382.006 817.33 382.32C822.665 383.864 829.84 390.75 833.071 394.675L824.105 419.508C819.112 420.464 809.191 421.178 804.102 418.958C803.064 418.506 801.858 418.681 800.992 419.411L785.128 432.792C784.263 433.521 783.887 434.682 784.158 435.781C785.489 441.172 783.112 450.829 781.329 455.59L755.34 460.242C752.014 456.396 746.437 448.161 745.814 442.644C745.688 441.519 744.932 440.561 743.867 440.177L724.347 433.129C723.284 432.745 722.089 432.999 721.273 433.783C717.269 437.631 707.718 440.402 702.703 441.238L685.681 421.056C687.35 416.255 691.691 407.306 696.159 404.008C697.069 403.336 697.521 402.202 697.322 401.089L693.665 380.66C693.466 379.547 692.647 378.64 691.561 378.326C686.227 376.782 679.052 369.896 675.82 365.971L684.787 341.138C689.781 340.182 699.7 339.468 704.79 341.688C705.827 342.14 707.035 341.964 707.9 341.235L723.764 327.854C724.629 327.125 725.005 325.964 724.734 324.865C723.404 319.474 725.78 309.816 727.564 305.055L753.553 300.403C756.877 304.25 762.455 312.484 763.078 318.002C763.204 319.126 763.959 320.084 765.024 320.469L784.545 327.516C785.608 327.901 786.802 327.646 787.618 326.862C791.621 323.014 801.174 320.243 806.188 319.408L823.212 339.589C821.542 344.391 817.201 353.34 812.734 356.638C811.823 357.309 811.371 358.443 811.571 359.556L815.227 379.985ZM774.321 363.558C765.063 352.581 748.658 351.188 737.682 360.447C726.705 369.706 725.313 386.11 734.571 397.087C743.83 408.064 760.235 409.457 771.211 400.197C782.188 390.939 783.58 374.535 774.321 363.558ZM787.068 352.805C771.872 334.789 744.947 332.503 726.929 347.7C708.913 362.898 706.627 389.822 721.823 407.839C737.021 425.856 763.946 428.141 781.963 412.944C799.98 397.747 802.266 370.823 787.068 352.805Z" fill="#642D78"/>
<path d="M712.095 149.263C712.954 150.03 714.178 150.243 715.247 149.811C720.489 147.696 730.564 148.702 735.618 149.816L744.042 175.34C740.643 179.243 733.146 186.05 727.676 187.47C726.56 187.76 725.703 188.659 725.469 189.787L721.171 210.473C720.937 211.602 721.365 212.767 722.272 213.478C726.726 216.959 730.892 226.188 732.455 231.122L714.562 251.18C709.482 250.188 699.84 247.099 695.873 243.07C695.065 242.249 693.857 241.957 692.765 242.318L672.701 248.94C671.606 249.301 670.811 250.255 670.649 251.395C669.86 256.993 663.951 265.215 660.459 269.036L634.142 263.569C632.461 258.674 630.315 248.778 631.821 243.329C632.128 242.219 631.778 241.027 630.917 240.26L615.151 226.195C614.291 225.429 613.067 225.216 611.999 225.647C606.757 227.763 596.681 226.756 591.627 225.644L583.203 200.119C586.602 196.216 594.099 189.409 599.57 187.989C600.686 187.7 601.542 186.801 601.777 185.672L606.074 164.985C606.308 163.858 605.881 162.691 604.973 161.982C600.52 158.5 596.354 149.272 594.791 144.338L612.684 124.28C617.764 125.271 627.406 128.361 631.373 132.389C632.181 133.21 633.388 133.503 634.481 133.142L654.546 126.52C655.64 126.159 656.436 125.205 656.597 124.064C657.386 118.467 663.295 110.244 666.787 106.424L693.103 111.891C694.784 116.786 696.93 126.682 695.425 132.13C695.118 133.24 695.468 134.432 696.328 135.199L712.095 149.263ZM669.008 161.812C654.694 158.838 640.679 168.032 637.706 182.346C634.733 196.66 643.926 210.674 658.241 213.648C672.554 216.621 686.569 207.428 689.542 193.114C692.515 178.799 683.322 164.785 669.008 161.812ZM672.461 145.189C648.967 140.309 625.964 155.398 621.084 178.892C616.204 202.387 631.293 225.389 654.787 230.269C678.281 235.15 701.283 220.06 706.164 196.566C711.045 173.072 695.955 150.07 672.461 145.189Z" fill="#A3B523"/>
<path d="M907.525 191.391C906.249 191.451 905.045 190.781 904.426 189.664L893.071 169.168C892.452 168.05 892.521 166.674 893.249 165.624C896.82 160.472 898.197 149.328 898.23 143.589L872.684 128.23C867.63 130.951 858.433 137.394 855.558 142.966C854.972 144.101 853.79 144.808 852.512 144.785L829.086 144.371C827.808 144.348 826.652 143.6 826.106 142.445C823.431 136.775 814.467 130.012 809.513 127.113L783.44 141.558C783.269 147.296 784.251 158.482 787.638 163.757C788.329 164.832 788.349 166.209 787.691 167.304L775.619 187.385C774.961 188.48 773.734 189.108 772.461 189.002C766.212 188.486 755.874 192.866 750.887 195.707L750.359 225.51C755.243 228.525 765.421 233.269 771.683 232.973C772.96 232.913 774.164 233.583 774.783 234.701L786.138 255.196C786.757 256.314 786.687 257.69 785.959 258.739C782.388 263.892 781.011 275.036 780.979 280.776L806.525 296.133C811.579 293.412 820.776 286.969 823.65 281.398C824.235 280.263 825.418 279.556 826.695 279.579L850.123 279.993C851.4 280.015 852.557 280.764 853.103 281.919C855.778 287.588 864.742 294.352 869.696 297.25L895.769 282.805C895.94 277.068 894.958 265.882 891.571 260.607C890.88 259.532 890.859 258.154 891.519 257.059L903.59 236.978C904.248 235.884 905.475 235.256 906.748 235.361C912.996 235.878 923.335 231.498 928.322 228.656L928.85 198.854C923.964 195.838 913.787 191.096 907.525 191.391ZM887.779 213.034C887.308 239.64 865.359 260.828 838.752 260.357C812.146 259.887 790.958 237.937 791.428 211.331C791.899 184.724 813.848 163.536 840.456 164.007C867.062 164.478 888.249 186.428 887.779 213.034Z" fill="#A16EB0"/>
<path d="M840.125 182.831C823.914 182.544 810.542 195.453 810.255 211.662C809.967 227.873 822.876 241.246 839.087 241.533C855.296 241.819 868.67 228.91 868.957 212.7C869.243 196.49 856.334 183.117 840.125 182.831Z" fill="#A16EB0"/>
<path d="M71.0949 164.493L66.8391 154.801L56.0478 154.564L52.0461 143.363L40.4743 146.655L35.3897 134.187L24.3606 135.904L17.5078 124.708L21.746 122.114L26.869 130.485L38.5086 128.673L43.3951 140.659L55.1611 137.311L59.5765 149.672L70.115 149.903L74.0594 158.887L81.0112 157.591L81.9214 162.475L71.0949 164.493Z" fill="#FFE838"/>
<path d="M789.005 647.468L787.534 636.986L777.211 633.834L776.395 621.967L764.364 622L762.848 608.621L751.766 607.286L748.203 594.651L752.986 593.303L755.649 602.749L767.343 604.159L768.799 617.019L781.033 616.986L781.934 630.08L792.015 633.159L793.378 642.875L800.421 643.512L799.973 648.461L789.005 647.468Z" fill="#A16EB0"/>
<path d="M871.328 747.104L867.001 743.315L861.427 744.732C860.791 744.893 860.247 744.257 860.505 743.655L862.771 738.369L859.702 733.505C859.352 732.951 859.789 732.237 860.442 732.296L866.169 732.819L869.845 728.396C870.265 727.892 871.079 728.087 871.224 728.726L872.497 734.334L877.839 736.465C878.448 736.708 878.514 737.543 877.951 737.878L873.012 740.823L872.636 746.562C872.595 747.214 871.821 747.535 871.328 747.104Z" fill="#A16EB0"/>
<path d="M294.489 121.194L286.782 114.446L276.855 116.969C275.724 117.257 274.754 116.122 275.214 115.05L279.251 105.635L273.783 96.9733C273.16 95.9862 273.939 94.7144 275.101 94.82L285.302 95.7491L291.851 87.872C292.597 86.9749 294.047 87.3222 294.306 88.4604L296.575 98.449L306.089 102.243C307.173 102.675 307.29 104.163 306.288 104.76L297.49 110.005L296.822 120.226C296.745 121.391 295.367 121.962 294.489 121.194Z" fill="#BBD631"/>
<path d="M422.419 197.984L414.712 191.235L404.785 193.758C403.654 194.046 402.684 192.912 403.144 191.84L407.18 182.425L401.713 173.763C401.09 172.777 401.869 171.504 403.03 171.61L413.232 172.539L419.78 164.663C420.526 163.766 421.977 164.113 422.235 165.251L424.504 175.24L434.018 179.035C435.102 179.467 435.22 180.954 434.217 181.551L425.418 186.796L424.75 197.017C424.674 198.181 423.296 198.752 422.419 197.984Z" fill="#A16EB0"/>
<path d="M804.029 817.358L796.322 810.611L786.395 813.134C785.264 813.421 784.294 812.286 784.754 811.215L788.79 801.8L783.322 793.138C782.699 792.151 783.477 790.878 784.639 790.985L794.84 791.914L801.389 784.037C802.135 783.14 803.586 783.487 803.845 784.625L806.113 794.615L815.628 798.409C816.712 798.84 816.83 800.327 815.828 800.924L807.029 806.17L806.36 816.391C806.285 817.556 804.905 818.127 804.029 817.358Z" fill="#FFE838"/>
<path d="M97.2137 219.838L78.5024 220.303L77.0684 234.085L58.6216 235.186L55.203 248.301L41.4609 250.906L42.7979 256.348L61.1769 252.866L64.417 240.437L83.6065 239.292L85.0164 225.737L101.973 225.316L97.2137 219.838Z" fill="#BBD631"/>
<path d="M765.13 274.319V838.359C765.13 860.963 746.806 879.287 724.201 879.287H296.609C274.005 879.287 255.68 860.963 255.68 838.359V274.319C255.68 251.715 274.005 233.391 296.609 233.391H724.201C746.806 233.391 765.13 251.715 765.13 274.319Z" fill="#3B314A"/>
<path d="M730.542 318.676V808.53C730.542 831.415 711.991 849.966 689.107 849.966H331.701C308.817 849.966 290.266 831.415 290.266 808.53V318.676C290.266 295.791 308.817 277.24 331.701 277.24H689.107C711.991 277.24 730.542 295.791 730.542 318.676Z" fill="#FFFDF5"/>
<path d="M342.822 451.742H386.445V395.086H342.822V451.742Z" fill="#BBD631"/>
<path d="M381.906 446.591V400.235H347.371V446.591H381.906Z" fill="white"/>
<path d="M329.53 373.415C330.917 372.536 332.67 373.099 333.446 374.671L365.048 438.771L374.307 412.807C374.903 411.137 376.58 410.329 378.054 411.006C379.527 411.681 380.239 413.583 379.643 415.252L365.881 453.836L328.42 377.854C327.646 376.281 328.142 374.294 329.53 373.415Z" fill="#A16EB0"/>
<path d="M342.822 544.858H386.445V488.203H342.822V544.858Z" fill="#BBD631"/>
<path d="M381.898 539.71V493.353H347.363V539.71H381.898Z" fill="white"/>
<path d="M329.53 461.161C330.917 460.282 332.67 460.845 333.446 462.418L365.048 526.516L374.307 500.553C374.903 498.883 376.58 498.075 378.054 498.751C379.527 499.426 380.239 501.328 379.643 502.998L365.881 541.582L328.42 465.6C327.646 464.027 328.142 462.041 329.53 461.161Z" fill="#A16EB0"/>
<path d="M342.822 634.246H386.445V577.59H342.822V634.246Z" fill="#BBD631"/>
<path d="M381.906 629.095V582.739H347.371V629.095H381.906Z" fill="white"/>
<path d="M329.53 550.548C330.917 549.669 332.67 550.232 333.446 551.804L365.048 615.903L374.307 589.939C374.903 588.269 376.58 587.461 378.054 588.138C379.527 588.813 380.239 590.714 379.643 592.384L365.881 630.968L328.42 554.986C327.646 553.413 328.142 551.427 329.53 550.548Z" fill="#A16EB0"/>
<path d="M342.822 723.631H386.445V666.974H342.822V723.631Z" fill="#BBD631"/>
<path d="M381.906 718.481V672.125H347.37V718.481H381.906Z" fill="white"/>
<path d="M329.53 639.933C330.917 639.054 332.67 639.618 333.446 641.19L365.048 705.289L374.307 679.326C374.903 677.656 376.58 676.848 378.054 677.524C379.527 678.2 380.239 680.1 379.643 681.771L365.881 720.354L328.42 644.372C327.646 642.8 328.142 640.813 329.53 639.933Z" fill="#A16EB0"/>
<path d="M668.381 411.831H410.554C409.009 411.831 407.758 410.58 407.758 409.036C407.758 407.492 409.009 406.241 410.554 406.241H668.382C669.925 406.241 671.177 407.492 671.177 409.036C671.176 410.58 669.925 411.831 668.381 411.831Z" fill="#BBD631"/>
<path d="M668.381 428.047H410.554C409.009 428.047 407.758 426.795 407.758 425.251C407.758 423.708 409.009 422.456 410.554 422.456H668.382C669.925 422.456 671.177 423.708 671.177 425.251C671.176 426.795 669.925 428.047 668.381 428.047Z" fill="#BBD631"/>
<path d="M537.846 438.67H410.674C409.213 438.67 407.91 439.737 407.771 441.191C407.612 442.858 408.919 444.26 410.553 444.26H537.845C539.389 444.26 540.64 443.009 540.64 441.465C540.64 439.922 539.389 438.67 537.846 438.67Z" fill="#BBD631"/>
<path d="M669.56 507.116H411.733C410.189 507.116 408.938 505.864 408.938 504.321C408.938 502.777 410.189 501.526 411.733 501.526H669.56C671.104 501.526 672.355 502.777 672.355 504.321C672.355 505.864 671.104 507.116 669.56 507.116Z" fill="#BBD631"/>
<path d="M669.56 523.33H411.733C410.189 523.33 408.938 522.079 408.938 520.535C408.938 518.991 410.189 517.739 411.733 517.739H669.56C671.104 517.739 672.355 518.991 672.355 520.535C672.355 522.079 671.104 523.33 669.56 523.33Z" fill="#BBD631"/>
<path d="M539.025 533.954H411.853C410.393 533.954 409.089 535.021 408.951 536.475C408.792 538.142 410.099 539.545 411.733 539.545H539.025C540.568 539.545 541.819 538.294 541.819 536.749C541.821 535.206 540.569 533.954 539.025 533.954Z" fill="#BBD631"/>
<path d="M668.381 592.498H410.554C409.009 592.498 407.758 591.247 407.758 589.703C407.758 588.159 409.009 586.908 410.554 586.908H668.382C669.925 586.908 671.177 588.159 671.177 589.703C671.176 591.247 669.925 592.498 668.381 592.498Z" fill="#BBD631"/>
<path d="M668.381 608.714H410.554C409.009 608.714 407.758 607.463 407.758 605.918C407.758 604.375 409.009 603.123 410.554 603.123H668.382C669.925 603.123 671.177 604.375 671.177 605.918C671.176 607.463 669.925 608.714 668.381 608.714Z" fill="#BBD631"/>
<path d="M537.846 619.337H410.674C409.213 619.337 407.91 620.404 407.771 621.857C407.612 623.524 408.919 624.927 410.553 624.927H537.845C539.389 624.927 540.64 623.676 540.64 622.132C540.64 620.589 539.389 619.337 537.846 619.337Z" fill="#BBD631"/>
<path d="M669.56 683.107H411.733C410.189 683.107 408.938 681.855 408.938 680.311C408.938 678.767 410.189 677.516 411.733 677.516H669.56C671.104 677.516 672.355 678.767 672.355 680.311C672.355 681.855 671.104 683.107 669.56 683.107Z" fill="#BBD631"/>
<path d="M669.56 699.322H411.733C410.189 699.322 408.938 698.07 408.938 696.527C408.938 694.983 410.189 693.731 411.733 693.731H669.56C671.104 693.731 672.355 694.983 672.355 696.527C672.355 698.07 671.104 699.322 669.56 699.322Z" fill="#BBD631"/>
<path d="M539.025 709.945H411.853C410.393 709.945 409.089 711.012 408.951 712.465C408.792 714.133 410.099 715.535 411.733 715.535H539.025C540.568 715.535 541.819 714.284 541.819 712.74C541.821 711.196 540.569 709.945 539.025 709.945Z" fill="#BBD631"/>
<path d="M415.555 277.241H579.942L578.243 233.393H417.254L415.555 277.241Z" fill="#3B314A"/>
<path d="M596.787 277.24H432.398L434.914 228.623H594.272L596.787 277.24Z" fill="#A16EB0"/>
<path d="M518.529 181.244C507.054 181.244 497.75 190.547 497.75 202.023V233.148H539.307V202.023C539.307 190.547 530.004 181.244 518.529 181.244ZM518.529 207.593C513.993 207.593 510.318 203.917 510.318 199.381C510.318 194.847 513.993 191.171 518.529 191.171C523.064 191.171 526.739 194.847 526.739 199.381C526.739 203.917 523.063 207.593 518.529 207.593Z" fill="#A16EB0"/>
<path d="M257.601 264.312C222.608 286.189 176.34 275.518 154.464 240.525C132.587 205.532 143.258 159.264 178.251 137.388C213.244 115.511 259.512 126.182 281.389 161.175C303.266 196.168 292.594 242.435 257.601 264.312Z" fill="#A16EB0"/>
<path d="M243.551 269.092C281.237 254.933 300.31 212.904 286.151 175.218C271.992 137.531 229.963 118.459 192.276 132.618C154.59 146.777 135.517 188.806 149.676 226.492C163.835 264.178 205.864 283.251 243.551 269.092Z" fill="#A16EB0"/>
<path d="M271.28 227.892C286.041 198.518 274.195 162.739 244.821 147.978C215.447 133.217 179.668 145.064 164.907 174.438C150.146 203.812 161.992 239.591 191.366 254.352C220.74 269.113 256.519 257.267 271.28 227.892Z" fill="white"/>
<path d="M247.854 248.724C221.472 265.216 186.59 257.172 170.097 230.789C153.604 204.408 161.649 169.526 188.031 153.033C214.412 136.54 249.294 144.585 265.788 170.967C282.28 197.349 274.235 232.23 247.854 248.724Z" fill="#FFFDF5"/>
<path d="M174.942 224.213L166.375 229.568C164.967 230.449 164.538 232.309 165.418 233.717C166.298 235.124 168.159 235.553 169.567 234.673L178.133 229.318C179.541 228.437 179.97 226.577 179.09 225.169C178.21 223.761 176.348 223.333 174.942 224.213Z" fill="#A16EB0"/>
<path d="M242.234 239.732C240.826 240.612 240.397 242.473 241.278 243.88L246.633 252.447C247.513 253.854 249.374 254.284 250.782 253.403C252.189 252.522 252.619 250.662 251.739 249.254L246.383 240.688C245.503 239.281 243.642 238.851 242.234 239.732Z" fill="#A16EB0"/>
<path d="M266.317 167.085L257.75 172.441C256.343 173.321 255.913 175.182 256.793 176.589C257.673 177.996 259.534 178.425 260.942 177.545L269.509 172.19C270.917 171.31 271.346 169.449 270.466 168.041C269.585 166.633 267.724 166.205 266.317 167.085Z" fill="#A16EB0"/>
<path d="M185.101 148.355C183.694 149.235 183.264 151.096 184.145 152.503L189.5 161.069C190.38 162.477 192.241 162.905 193.649 162.026C195.056 161.146 195.485 159.285 194.606 157.878L189.25 149.311C188.37 147.903 186.508 147.475 185.101 148.355Z" fill="#A16EB0"/>
<path d="M201.687 119.968L200.601 108.172C200.513 107.204 201.225 106.347 202.193 106.258L215.724 105.014C216.692 104.925 217.549 105.638 217.638 106.605L218.723 118.401C218.811 119.37 218.099 120.228 217.13 120.317L203.602 121.561C202.633 121.65 201.775 120.937 201.687 119.968Z" fill="#A16EB0"/>
<path d="M153.113 150.677L142.984 144.537C142.153 144.033 141.069 144.298 140.566 145.129L133.521 156.748C133.017 157.579 133.282 158.662 134.114 159.166L144.243 165.307C145.075 165.811 146.158 165.546 146.662 164.714L153.706 153.097C154.21 152.266 153.945 151.182 153.113 150.677Z" fill="#A16EB0"/>
<path d="M164.337 129.226C163.537 129.727 162.478 129.483 161.976 128.681L157.456 121.45C156.954 120.648 157.199 119.589 157.999 119.088L172.755 109.863C173.556 109.363 174.615 109.607 175.116 110.409L179.636 117.639C180.138 118.442 179.894 119.501 179.093 120.001L164.337 129.226Z" fill="#A16EB0"/>
<path d="M168.956 131.345C161.327 133.193 153.05 130.095 148.662 123.075C143.178 114.302 145.844 102.744 154.617 97.2599C163.389 91.7753 174.947 94.4407 180.432 103.214C184.821 110.236 183.986 119.039 178.982 125.086L181.433 129.007C188.458 121.526 189.883 109.963 184.194 100.862C177.421 90.0292 163.098 86.7253 152.265 93.4979C141.431 100.271 138.128 114.593 144.9 125.427C150.59 134.528 161.61 138.31 171.411 135.271L168.956 131.345Z" fill="#A16EB0"/>
<path d="M177.472 136.124C179.194 135.047 180.942 134.049 182.713 133.125L176.191 122.692L168.039 127.788L174.481 138.091C175.457 137.416 176.455 136.76 177.472 136.124Z" fill="#A16EB0"/>
<path d="M222.575 197.859C224.182 200.43 223.401 203.816 220.83 205.424C218.259 207.031 214.873 206.25 213.265 203.679C211.658 201.108 212.439 197.721 215.01 196.114C217.581 194.506 220.967 195.288 222.575 197.859Z" fill="#A16EB0"/>
<path d="M216.456 155.536L219.857 200.687C219.943 201.824 219.09 202.816 217.953 202.901C216.815 202.986 215.824 202.134 215.738 200.997C215.725 200.818 215.703 202.836 216.456 155.536Z" fill="#A16EB0"/>
<path d="M260.672 216.41L217.464 202.875C216.376 202.534 215.769 201.375 216.111 200.287C216.452 199.198 217.611 198.592 218.699 198.933C218.87 198.986 217.003 198.22 260.672 216.41Z" fill="#A16EB0"/>
<path d="M219.817 199.581C220.474 200.631 220.155 202.015 219.104 202.672C218.054 203.329 216.67 203.01 216.013 201.959C215.357 200.908 215.676 199.525 216.726 198.868C217.777 198.211 219.161 198.531 219.817 199.581Z" fill="#A16EB0"/>
<path d="M838.97 842.887C838.97 842.887 840.066 850.285 832.119 854.122C824.172 857.958 817.047 861.794 817.047 866.179C817.047 870.564 866.372 868.919 866.372 866.179C866.372 863.439 857.055 840.146 857.055 840.146L838.97 842.887Z" fill="#F7A491"/>
<path d="M895.695 843.984V859.604C895.695 859.604 913.782 871.935 930.497 871.935C930.497 871.935 943.925 872.416 943.925 868.887C943.925 865.359 934.583 858.914 923.288 853.385C911.993 847.856 912.496 835.126 912.496 835.126L895.695 837.956V843.984Z" fill="#F7A491"/>
<path d="M909.408 576.972C904.063 550.117 810.312 558.862 811.575 580.26C811.575 580.26 814.316 669.154 819.796 727.247C825.276 785.342 827.843 846.052 827.843 846.052L860.234 845.628C860.234 845.628 847.026 622.883 853.478 616.433C855.321 614.589 857.331 613.844 859.261 613.72C864.196 613.402 868.448 617.214 869.101 622.116L894.332 847.82L928.881 844.365C928.881 844.365 914.753 603.827 909.408 576.972Z" fill="#3B314A"/>
<path opacity="0.53" d="M848.41 763.413C850.551 798.742 853.044 825.61 855.663 845.687L860.231 845.627C860.231 845.627 847.023 622.882 853.475 616.432C853.475 616.432 841.877 655.612 848.41 763.413Z" fill="#3B314A"/>
<path d="M865.679 857.374C865.679 857.374 866.317 861.182 867.912 867.669C869.507 874.157 867.912 880.08 867.912 880.08C867.912 880.08 801.565 879.233 799.014 876.977C796.463 874.72 798.296 867.175 799.014 866.541C799.731 865.906 808.264 864.143 812.73 861.746C817.196 859.349 832.506 850.182 837.45 850.887C842.394 851.592 844.468 855.4 853.878 856.387C863.286 857.374 863.446 855.4 865.679 857.374Z" fill="#3B314A"/>
<path d="M799.014 876.976C801.565 879.233 867.912 880.079 867.912 880.079C867.912 880.079 868.958 876.192 868.508 871.268C833.588 875.588 799.014 866.54 799.014 866.54C798.296 867.175 796.463 874.719 799.014 876.976Z" fill="#A16EB0"/>
<path d="M893.873 856.84C893.873 856.84 893.012 860.603 891.038 866.986C889.065 873.368 890.308 879.375 890.308 879.375C890.308 879.375 956.591 882.432 959.27 880.329C961.95 878.227 960.563 870.587 959.883 869.911C959.204 869.236 950.79 866.974 946.474 864.318C942.156 861.663 927.411 851.611 922.434 852.024C917.457 852.438 915.164 856.117 905.712 856.549C896.261 856.98 896.218 855 893.873 856.84Z" fill="#3B314A"/>
<path d="M959.27 880.329C956.59 882.432 890.308 879.375 890.308 879.375C890.308 879.375 889.493 875.434 890.231 870.543C924.837 876.91 959.883 869.91 959.883 869.91C960.562 870.586 961.95 878.227 959.27 880.329Z" fill="#A16EB0"/>
<path d="M694.953 420.633C694.856 420.51 694.759 420.383 694.665 420.255C693.599 418.805 694.66 415.994 698.246 414.575C701.832 413.156 714.711 415.868 714.711 415.868C714.711 415.868 710.357 406.967 710.394 403.041C710.431 399.115 712.296 394.25 716.309 396.173C720.322 398.095 716.405 399.838 718.699 405.056C720.993 410.273 723.638 410.115 726.197 413.594C728.756 417.073 727.23 417.87 728.991 424.129C730.751 430.389 746.825 438.25 746.825 438.25L762.511 448.805C762.511 448.805 750.401 473.534 746.422 470.774C742.442 468.015 722.047 450.03 721.406 449.933C710.634 448.291 700.768 448.378 695.648 444.509C692.922 442.449 693.108 440.78 693.878 439.669C694.606 438.618 694.592 437.232 693.908 436.151C692.738 434.3 693.184 432.855 693.903 431.885C694.599 430.946 694.754 429.714 694.291 428.642C693.594 427.027 694.141 425.679 694.929 424.696C695.881 423.507 695.894 421.83 694.953 420.633Z" fill="#F7A491"/>
<path d="M819.807 384.245C819.807 384.245 808.246 391.884 804.494 406.589C800.74 421.294 792.8 461.928 787.395 461.105C781.992 460.281 747.775 423.544 743.386 436.426C739.208 448.692 734.775 454.872 732.366 462.489C729.37 471.959 766.354 498.234 793.003 503.696C819.651 509.156 819.807 384.245 819.807 384.245Z" fill="#A16EB0"/>
<path d="M736.145 453.425C750.57 469.357 791.159 492.806 799.023 491.865C808.231 490.763 819.803 384.283 819.807 384.245C819.779 408.391 816.86 508.619 792.905 503.675C766.264 498.17 729.373 471.948 732.367 462.489C733.344 459.399 734.654 456.545 736.145 453.425Z" fill="#6C5E81"/>
<path d="M947.024 421.567C927.309 369.52 901.426 370.198 901.426 370.198L855.014 370.08C855.014 370.08 824.204 379.475 819.447 384.232C814.689 388.989 808.906 570.012 808.906 577.109C808.906 584.207 906.548 574.54 906.936 570.819C909.126 549.839 915.086 502.533 915.888 471.555C915.942 471.615 925.732 482.73 925.732 500.032C925.732 508.511 916.192 538.812 909.809 560.806L931.285 574.283C942.533 556.749 956.611 534.004 960.035 524.873C965.95 509.1 966.738 473.614 947.024 421.567Z" fill="#A16EB0"/>
<path d="M874.582 330.781C874.582 330.781 875.114 363.721 875.114 371.957C875.114 378.888 861.876 386.994 855.3 387.18C846.2 387.436 843.93 379.056 843.93 379.056V347.82L874.582 330.781Z" fill="#F7A491"/>
<path d="M843.93 365.41V352.445L858.896 344.126C859.183 344.014 859.469 343.891 859.754 343.748C860.346 343.449 860.9 343.105 861.419 342.723L874.582 335.406C874.582 335.406 874.588 335.75 874.598 336.367C874.587 336.432 874.582 336.468 874.582 336.468C874.582 336.468 873.482 348.638 867.604 356.215C862.873 362.313 852.206 366.77 843.93 365.41Z" fill="#FE875E"/>
<path d="M868.93 293.815C868.93 293.815 877.042 314.264 874.488 329.518C871.934 344.773 845.338 363.224 834.517 356.359C823.696 349.494 828.474 332.248 828.732 328.232C828.99 324.216 825.911 305.514 830.036 299.138C834.16 292.762 862.297 286.983 868.93 293.815Z" fill="#F7A491"/>
<path d="M840.104 281.758C855.86 277.08 872.985 281.032 878.928 289.003C892.39 307.059 874.886 335.238 874.886 335.238C874.886 335.238 872.269 347.642 865.246 355.018C858.223 362.394 841.193 366.515 832.429 360.258C823.664 354 827.696 335.98 827.696 335.98C827.696 335.98 828.735 340.331 832.387 340.566C836.039 340.801 836.883 338.532 838.554 338.353C844.635 337.707 847.132 339.38 852.212 341.842C853.736 342.581 855.559 342.336 857.365 341.63C862.576 339.593 865.644 334.655 865.415 329.489L864.842 316.562C857.275 312.041 853.22 305.851 853.22 305.851C849.742 315.115 827.871 311.548 824.866 306.871C821.86 302.194 824.349 286.437 840.104 281.758Z" fill="#3B314A"/>
<path d="M869.763 318.191C869.763 318.191 872.847 313.473 876.177 315.194C879.507 316.915 876.106 332.214 871.988 331.948C867.869 331.683 869.763 318.191 869.763 318.191Z" fill="#F7A491"/>
<path d="M813.152 676.378L927.656 718.022L956.011 640.06L841.507 598.415L813.152 676.378Z" fill="#FFFDF5"/>
<path d="M845.342 688.12L813.156 676.415L841.51 598.454L862.751 606.179C859.801 623.748 852.988 661.884 845.342 688.12Z" fill="#F4F2EA"/>
<path d="M877.211 619.599L883.677 621.95L890.181 604.067C891.62 600.111 896.007 598.064 899.964 599.503L913.906 604.574C917.862 606.012 919.909 610.4 918.47 614.356L911.967 632.238L918.433 634.59L924.937 616.707C927.672 609.186 923.779 600.842 916.258 598.108L902.316 593.037C894.796 590.302 886.452 594.195 883.717 601.715L877.211 619.599Z" fill="#FFFDF5"/>
<path d="M910.875 561.473C909.872 564.93 907.017 573.575 904.654 578.983C903.808 580.916 902.674 584.63 901.318 586.247C895.93 592.667 890.003 598.442 891.287 603.195C893.14 610.054 907.664 622.434 914.296 619.882C922.655 616.666 920.853 588.905 923.291 585.203C926.019 581.065 926.382 580.862 930.799 573.977L910.875 561.473Z" fill="#F7A491"/>
<path d="M908.646 523.249C908.646 496.949 896.174 456.078 902.472 426.443C902.472 426.443 906.916 455.708 915.885 471.553C915.216 497.421 910.949 534.67 908.285 558.473C908.442 551.597 908.646 539.498 908.646 523.249Z" fill="#6C5E81"/>
<path d="M126.279 279.374C129.244 279.996 156.011 280.295 156.011 299.765C156.011 319.234 155.624 326.974 160.655 335.488C165.686 344.002 167.088 380.013 145.986 369.776C140.34 367.037 144.237 387.346 144.237 387.346C144.237 387.346 108.024 403.6 97.962 399.343C87.8998 395.086 72.4201 404.762 72.4201 404.762C72.4201 404.762 57.0257 380.125 72.4201 364.73C87.8144 349.336 85.9647 350.582 85.9647 333.167C85.9647 315.753 89.0608 320.784 96.414 310.335C103.767 299.885 108.095 275.558 126.279 279.374Z" fill="#880136"/>
<path d="M54.4531 589.999L66.9769 433.354L76.8873 436.293L57.5036 589.999H54.4531Z" fill="#A3B523"/>
<path d="M162.19 665.076C162.19 665.076 148.444 808.075 155.365 825.811C162.287 843.547 173.587 874.032 173.587 874.032H160.873L134.892 839.514C134.892 839.514 135.515 837.924 133.353 831.003C131.19 824.081 115.617 749.678 121.24 714.638C122.836 704.698 124.814 656.807 129.705 648.698C142.056 628.221 162.19 654.737 162.19 665.076Z" fill="#F7A491"/>
<path d="M133.895 832.872C133.895 832.872 130.688 831.557 127.837 838.266C124.987 844.974 133.04 878.208 133.04 878.208L139.592 878.413C139.592 878.413 135.135 853.763 136.645 853.763C138.154 853.763 145.448 878.852 149.137 879.859C152.827 880.865 177.062 882.459 180.835 878.684C184.609 874.911 171.029 867.179 171.029 867.179C171.029 867.179 158.851 868.803 157.257 867.21C155.663 865.616 133.895 832.872 133.895 832.872Z" fill="#3B314A"/>
<path d="M112.643 665.076C112.643 665.076 98.8975 808.075 105.819 825.811C112.74 843.547 124.04 874.032 124.04 874.032H111.325L85.345 839.514C85.345 839.514 85.9685 837.924 83.8048 831.003C81.6423 824.081 66.0695 749.678 71.6935 714.638C73.2884 704.698 75.2665 656.807 80.1582 648.698C92.5092 628.221 112.643 654.737 112.643 665.076Z" fill="#F7A491"/>
<path d="M74.7783 680.056C81.6194 678.85 95.8573 676.359 111.85 673.66C111.207 680.732 110.241 691.662 109.201 704.511C101.636 705.641 84.718 707.687 72.6484 705.579C73.2407 698.644 73.9215 689.258 74.7783 680.056Z" fill="#F47458"/>
<path d="M125.192 671.431C138.31 669.263 151.566 667.152 162.135 665.635C161.847 668.672 160.421 683.837 158.803 703.763C155.181 704.792 150.596 705.824 144.914 706.651C135.777 707.98 127.808 707.277 122.133 706.247C122.924 697.105 123.872 683.338 125.192 671.431Z" fill="#F47458"/>
<path d="M62.1719 694.83C62.1719 665.362 62.1719 622.092 62.1719 609.386C62.1719 586.892 70.8235 527.761 84.6653 498.346C98.5084 468.931 155.609 498.346 155.609 498.346C155.609 498.346 168.644 526.955 172.105 568.482L175.424 697.208C134.282 703.6 102.096 704.101 62.1719 694.83Z" fill="#A16EB0"/>
<path d="M62.1719 621.992L82.6176 614.444L83.6561 641.143C83.6561 641.143 83.3225 653.458 62.1719 660.812V621.992Z" fill="#6C5E81"/>
<path d="M165.918 374.062C167.279 376.481 175.53 396.915 173.382 418.618C170.172 451.045 156.051 492.225 159.16 505.182C164.351 526.811 86.4371 530.059 82.7989 502.723C81.5056 492.999 84.0316 468.674 81.7428 446.663C78.1079 411.712 69.7969 377.304 71.3365 376.36C105.445 355.439 162.714 368.366 165.918 374.062Z" fill="#A16EB0"/>
<path d="M128.717 381.622C128.717 381.622 130.586 397.123 118.802 408.906C108.389 419.32 92.6057 426.28 78.4186 421.4C74.6072 396.778 70.1768 377.071 71.3365 376.359C81.0059 370.428 92.5367 367.218 104.169 365.792L130.633 367.507L128.717 381.622Z" fill="#6C5E81"/>
<path d="M161.577 480.004C160.068 487.392 158.974 493.874 158.756 498.847C153.652 498.014 148.301 497.507 144.168 497.997C135.284 499.051 100.453 501.028 82.6065 500.846C82.2821 496.606 82.4156 490.483 82.5629 483.348L151.271 473.158L161.577 480.004Z" fill="#6C5E81"/>
<path d="M71.3307 376.36C71.3307 376.36 63.9007 375.927 57.0876 411.615C50.2752 447.302 61.6711 491.101 69.2745 494.995C76.8779 498.888 145.983 490.129 145.983 490.129L143.712 465.147C143.712 465.147 90.431 462.288 84.5907 456.448C83.156 455.014 84.6637 448.088 83.4316 440.511C79.6488 417.246 71.3307 376.36 71.3307 376.36Z" fill="#A16EB0"/>
<path d="M59.7812 399.38C65.7245 376.034 71.3368 376.36 71.3368 376.36C71.3368 376.36 76.2044 400.285 80.1852 421.945C77.7127 421.269 75.2792 420.249 72.9207 418.843C65.6672 414.516 61.8205 406.58 59.7812 399.38Z" fill="#6C5E81"/>
<path d="M81.29 455.505C81.29 455.505 74.071 448.817 71.0427 445.788C68.0151 442.76 62.1754 438.867 62.1754 441.247C62.1754 443.625 64.9868 446.767 64.9868 446.767C64.9868 446.767 54.4965 440.922 53.3074 442.111C52.1177 443.301 51.577 450.763 53.3074 458.766C55.0379 466.768 78.5953 470.324 78.5953 470.324L81.29 455.505Z" fill="#F7A491"/>
<path d="M84.3642 832.872C84.3642 832.872 81.1573 831.557 78.3062 838.266C75.4551 844.974 83.5087 878.208 83.5087 878.208L90.0605 878.413C90.0605 878.413 85.604 853.763 87.1136 853.763C88.6232 853.763 95.9165 878.852 99.6067 879.859C103.296 880.865 127.531 882.459 131.304 878.684C135.078 874.911 121.498 867.179 121.498 867.179C121.498 867.179 109.32 868.803 107.727 867.21C106.133 865.616 84.3642 832.872 84.3642 832.872Z" fill="#3B314A"/>
<path d="M72.9219 374.113C90.3445 429.592 85.0286 485.927 78.254 599.424L81.5182 599.697C93.535 484.496 101.19 428.075 85.7922 370.324L72.9219 374.113Z" fill="#A3B523"/>
<path d="M178.114 490.776C153.559 497.486 98.9521 484.288 76.8906 479.745L82.082 451.195C82.082 451.195 146.816 462.207 154.689 457.666C158.582 455.42 167.059 434.966 168.885 414.854C170.753 394.28 165.926 374.062 165.926 374.062C165.926 374.062 188.011 393.932 188.011 444.545C188.009 483.164 188.919 487.824 178.114 490.776Z" fill="#642D78"/>
<path d="M165.999 434.501C165.999 434.501 160.609 440.092 156.392 444.309C152.174 448.527 145.992 458.764 145.992 458.764C145.992 458.764 154.751 460.497 157.78 460.497C160.807 460.497 170.108 454.008 173.569 454.008C177.03 454.008 175.516 449.034 171.406 450.332C167.297 451.63 163.187 452.494 163.187 452.494C163.187 452.494 172.379 445.032 176.597 440.815C180.815 436.597 176.804 434.139 173.353 437.59C169.902 441.041 165.999 443.194 165.999 443.194C165.999 443.194 178.111 430.65 175.948 428.486C173.785 426.323 165.999 434.501 165.999 434.501Z" fill="#F7A491"/>
<path d="M133.554 335.103L137.771 365.792C137.771 365.792 150.719 406.862 141.192 410.345C131.665 413.828 117.938 366.652 117.938 366.652V321.557L133.554 335.103Z" fill="#F7A491"/>
<path d="M117.938 347.986V326.532L130.142 332.143L133.553 335.102L137.211 361.725C130.817 360.396 123.842 355.203 117.938 347.986Z" fill="#F47458"/>
<path d="M137.081 289.148C137.081 289.148 149.893 283.455 154.164 309.079C158.435 334.703 147.272 354.899 138.703 354.739C125.91 354.5 112.406 341.346 106.237 324.263C100.068 307.18 126.951 286.446 137.081 289.148Z" fill="#F7A491"/>
<path d="M65.7694 374.172C67.494 370.717 70.0239 367.793 72.4281 364.729C80.191 354.837 82.4369 352.541 80.191 335.272C78.6971 323.779 78.0247 316.864 87.1155 303.642C96.0102 290.704 94.4055 275.34 122.448 278.528C122.686 278.555 152.613 275.34 144.698 289.859C144.698 289.859 139.542 287.724 132.576 296.625C125.611 305.526 128.646 307.557 122.448 311.996C111.792 319.625 116.436 328.139 119.393 337.128C123.61 349.947 117.945 358.381 126.994 374.382C132.981 384.967 121.267 404.63 106.916 410.615C64.9341 428.121 58.0071 389.723 65.7694 374.172Z" fill="#880136"/>
<path d="M75.1673 637.232H75.9595C80.1886 637.232 83.5922 633.759 83.5075 629.531L82.6853 588.562H70.9584L67.6427 629.067C67.2837 633.465 70.7551 637.232 75.1673 637.232Z" fill="#7F3100"/>
<path d="M61.4732 640.302H63.5666C75.5619 640.743 83.6572 635.205 83.4337 630.711L81.3319 588.562H58.1029C53.5949 588.562 49.7105 591.736 48.812 596.153L41.5989 631.622C40.649 636.298 49.8187 640.302 61.4732 640.302Z" fill="#BBD631"/>
<path d="M83.5055 629.531L82.6832 588.562H79.0008C74.4563 588.562 70.671 592.05 70.3009 596.58L67.6413 629.067C66.7774 639.631 83.7179 640.128 83.5055 629.531Z" fill="#A3B523"/>
</g>
<defs>
<clipPath id="clip0_606_17068">
<rect width="1016" height="971" fill="white"/>
</clipPath>
</defs>
</svg>
