<svg width="1000" height="974" viewBox="0 0 1000 974" fill="none" xmlns="http://www.w3.org/2000/svg">
<g clip-path="url(#clip0_84_1052)">
<rect width="1000" height="974" fill="#FFA229"/>
<path d="M817.513 645.122C817.517 645.467 817.397 645.803 817.175 646.068C816.953 646.333 816.643 646.51 816.302 646.566H739.659C739.318 646.51 739.008 646.333 738.786 646.068C738.563 645.803 738.444 645.467 738.448 645.122L751.021 608.106C751.026 607.955 751.062 607.807 751.126 607.671C751.191 607.534 751.283 607.413 751.396 607.313C751.509 607.214 751.642 607.139 751.786 607.092C751.929 607.046 752.081 607.03 752.231 607.044H804.94C805.09 607.03 805.24 607.046 805.383 607.092C805.525 607.139 805.656 607.214 805.768 607.314C805.88 607.414 805.97 607.536 806.032 607.672C806.094 607.809 806.127 607.956 806.13 608.106L817.513 645.122Z" fill="#FAEBDD"/>
<path d="M812.395 641.143C812.397 641.437 812.293 641.721 812.102 641.944C811.911 642.167 811.645 642.312 811.354 642.353H744.607C744.316 642.312 744.05 642.167 743.859 641.944C743.668 641.721 743.564 641.437 743.566 641.143L753.399 610.838C753.399 610.265 753.866 610.031 754.44 610.031H802.732C803.305 610.031 803.772 610.265 803.772 610.838L812.395 641.143Z" fill="#77763F"/>
<path d="M777.97 570.219C771.951 570.224 766.178 572.614 761.916 576.864C757.654 581.115 755.248 586.88 755.226 592.9C755.226 605.472 774.997 632.039 777.97 632.039C780.582 632.039 800.736 605.472 800.736 592.9C800.713 586.876 798.305 581.108 794.038 576.857C789.771 572.606 783.993 570.219 777.97 570.219ZM777.779 599.271C776.12 599.271 774.498 598.779 773.119 597.857C771.739 596.935 770.664 595.625 770.029 594.092C769.394 592.559 769.228 590.873 769.552 589.245C769.875 587.618 770.674 586.124 771.847 584.95C773.021 583.777 774.515 582.978 776.142 582.655C777.77 582.331 779.456 582.497 780.989 583.132C782.522 583.767 783.832 584.842 784.754 586.222C785.675 587.601 786.167 589.223 786.167 590.882C786.17 591.984 785.955 593.076 785.535 594.095C785.114 595.114 784.496 596.04 783.717 596.82C782.937 597.599 782.011 598.217 780.992 598.638C779.973 599.058 778.881 599.273 777.779 599.271Z" fill="#C35831"/>
<path d="M787.632 590.767C787.632 588.801 787.05 586.88 785.957 585.245C784.865 583.611 783.313 582.337 781.497 581.585C779.681 580.832 777.683 580.636 775.755 581.019C773.827 581.403 772.056 582.349 770.666 583.739C769.276 585.129 768.329 586.9 767.946 588.828C767.562 590.756 767.759 592.754 768.511 594.57C769.264 596.386 770.538 597.939 772.172 599.031C773.806 600.123 775.728 600.706 777.694 600.706C780.33 600.706 782.858 599.659 784.721 597.795C786.585 595.931 787.632 593.403 787.632 590.767ZM769.985 590.767C769.985 589.237 770.439 587.742 771.289 586.47C772.139 585.198 773.348 584.208 774.762 583.623C776.175 583.039 777.731 582.887 779.231 583.187C780.731 583.487 782.108 584.225 783.188 585.308C784.269 586.392 785.003 587.771 785.299 589.272C785.595 590.773 785.439 592.328 784.85 593.74C784.262 595.152 783.268 596.358 781.994 597.205C780.72 598.051 779.223 598.501 777.694 598.497C775.662 598.469 773.723 597.642 772.296 596.196C770.869 594.749 770.07 592.799 770.07 590.767H769.985Z" fill="#F8DFC9"/>
<path d="M163.551 648.463C157.062 648.392 150.698 650.247 145.263 653.792C139.828 657.338 135.567 662.416 133.018 668.384C130.469 674.351 129.747 680.941 130.943 687.319C132.139 693.697 135.199 699.577 139.737 704.216C144.275 708.854 150.086 712.043 156.436 713.379C162.786 714.715 169.39 714.138 175.412 711.721C181.435 709.304 186.605 705.156 190.27 699.8C193.934 694.445 195.928 688.123 196 681.635C196.051 677.325 195.251 673.048 193.647 669.047C192.043 665.047 189.666 661.402 186.652 658.321C183.639 655.241 180.047 652.784 176.083 651.092C172.119 649.401 167.86 648.507 163.551 648.463ZM163.083 691.552C161.046 691.531 159.06 690.906 157.377 689.755C155.695 688.605 154.392 686.982 153.632 685.091C152.873 683.2 152.692 681.126 153.111 679.131C153.531 677.137 154.533 675.312 155.99 673.888C157.448 672.463 159.295 671.503 161.298 671.128C163.301 670.754 165.371 670.982 167.244 671.784C169.118 672.587 170.711 673.926 171.823 675.634C172.934 677.342 173.514 679.342 173.489 681.38C173.475 682.731 173.195 684.067 172.664 685.31C172.134 686.553 171.363 687.679 170.396 688.624C169.43 689.569 168.286 690.314 167.031 690.817C165.777 691.319 164.435 691.569 163.083 691.552Z" fill="#FAEBDD"/>
<path d="M163.275 673.778C164.759 673.79 166.205 674.243 167.431 675.078C168.657 675.913 169.608 677.094 170.163 678.469C170.718 679.845 170.852 681.355 170.549 682.807C170.246 684.259 169.518 685.589 168.459 686.627C167.399 687.666 166.056 688.367 164.598 688.641C163.14 688.916 161.633 688.751 160.269 688.169C158.904 687.587 157.743 686.613 156.932 685.37C156.122 684.128 155.698 682.673 155.715 681.189C155.737 679.205 156.546 677.31 157.963 675.921C159.38 674.531 161.29 673.761 163.275 673.778ZM163.275 668.384C160.725 668.354 158.223 669.082 156.087 670.475C153.95 671.868 152.275 673.863 151.273 676.209C150.271 678.554 149.987 681.144 150.457 683.65C150.928 686.157 152.131 688.468 153.915 690.29C155.699 692.113 157.983 693.365 160.479 693.889C162.975 694.413 165.571 694.185 167.937 693.233C170.303 692.282 172.334 690.65 173.772 688.544C175.21 686.437 175.992 683.952 176.017 681.402C176.037 679.71 175.722 678.031 175.092 676.461C174.462 674.89 173.529 673.46 172.346 672.251C171.162 671.041 169.752 670.077 168.195 669.414C166.639 668.75 164.967 668.4 163.275 668.384Z" fill="#C35831"/>
<path d="M205.28 683.869V675.183L197.465 673.166C196.368 668.351 194.27 663.821 191.307 659.871L195.129 653.5L189.013 647.363L182.387 651.483C178.459 649.016 174.075 647.362 169.496 646.62L167.585 638.805H158.899L156.967 646.599C152.417 647.399 148.067 649.08 144.161 651.547L137.514 647.512L131.377 653.628L135.093 659.829C132.026 663.729 129.812 668.229 128.595 673.038L120.801 674.95V683.657L127.873 685.377C128.533 690.674 130.377 695.754 133.267 700.242L129.295 706.805L135.454 712.942L141.507 709.332C145.954 712.826 151.164 715.219 156.712 716.319L158.581 724.027H167.267L169.135 716.404C174.723 715.426 179.995 713.125 184.511 709.693L190.648 713.324L196.786 707.166L192.878 700.646C195.744 696.157 197.545 691.072 198.145 685.78L205.28 683.869ZM190.096 681.575C190.058 686.901 188.44 692.096 185.447 696.502C182.454 700.908 178.221 704.326 173.284 706.324C168.347 708.322 162.928 708.81 157.714 707.726C152.499 706.642 147.723 704.035 143.992 700.235C140.26 696.435 137.74 691.612 136.751 686.379C135.762 681.145 136.348 675.736 138.436 670.836C140.524 665.936 144.018 661.766 148.478 658.854C152.937 655.942 158.161 654.419 163.486 654.477C170.602 654.561 177.396 657.459 182.382 662.537C187.368 667.614 190.141 674.459 190.096 681.575Z" fill="#CBCBCB"/>
<path d="M227.112 676.942C223.038 676.485 218.92 677.245 215.279 679.128C211.638 681.011 208.637 683.931 206.655 687.52C204.673 691.108 203.8 695.204 204.146 699.288C204.492 703.373 206.041 707.263 208.598 710.467C211.155 713.672 214.604 716.046 218.51 717.289C222.416 718.533 226.603 718.591 230.542 717.455C234.481 716.319 237.994 714.041 240.638 710.909C243.282 707.776 244.938 703.93 245.396 699.856C245.704 697.151 245.474 694.411 244.721 691.794C243.968 689.177 242.706 686.735 241.007 684.606C239.309 682.478 237.207 680.705 234.823 679.39C232.438 678.075 229.818 677.243 227.112 676.942ZM224.075 703.997C222.797 703.855 221.591 703.337 220.608 702.509C219.625 701.68 218.909 700.579 218.552 699.344C218.195 698.109 218.212 696.796 218.602 695.571C218.991 694.346 219.735 693.264 220.739 692.462C221.743 691.659 222.963 691.173 224.244 691.064C225.525 690.955 226.809 691.228 227.935 691.849C229.06 692.471 229.976 693.411 230.567 694.553C231.157 695.695 231.396 696.986 231.253 698.264C231.061 699.976 230.197 701.541 228.851 702.616C227.505 703.692 225.787 704.188 224.075 703.997Z" fill="#FAEBDD"/>
<path d="M225.286 692.841C226.215 692.942 227.093 693.316 227.811 693.915C228.528 694.514 229.052 695.311 229.317 696.208C229.582 697.104 229.575 698.058 229.299 698.951C229.022 699.844 228.488 700.635 227.763 701.224C227.037 701.814 226.154 702.175 225.224 702.264C224.294 702.352 223.358 702.164 222.535 701.722C221.711 701.28 221.037 700.604 220.597 699.779C220.157 698.955 219.971 698.019 220.062 697.089C220.125 696.467 220.311 695.863 220.608 695.313C220.905 694.763 221.308 694.276 221.793 693.882C222.278 693.487 222.837 693.192 223.436 693.014C224.035 692.835 224.664 692.777 225.286 692.841ZM225.668 689.465C224.069 689.285 222.453 689.585 221.024 690.324C219.595 691.063 218.418 692.21 217.641 693.619C216.864 695.028 216.522 696.635 216.658 698.238C216.795 699.842 217.404 701.368 218.408 702.625C219.413 703.882 220.767 704.813 222.301 705.3C223.834 705.787 225.478 705.808 227.023 705.361C228.569 704.914 229.947 704.018 230.983 702.788C232.02 701.557 232.668 700.047 232.846 698.448C232.967 697.386 232.877 696.311 232.582 695.284C232.286 694.258 231.791 693.299 231.124 692.465C230.457 691.63 229.631 690.935 228.695 690.421C227.759 689.906 226.73 689.581 225.668 689.465Z" fill="#C35831"/>
<path d="M251.088 701.852L251.64 696.394L246.862 694.632C246.484 691.526 245.449 688.536 243.825 685.861L246.65 682.166L243.188 677.918L238.729 680.042C236.415 678.241 233.765 676.92 230.935 676.156L230.234 671.144L224.776 670.57L223.056 675.37C220.101 675.55 217.212 676.323 214.561 677.642L210.632 674.69L206.385 678.152L208.339 682.272C206.244 684.547 204.639 687.229 203.624 690.151L198.591 690.851L198.039 696.33L202.286 697.859C202.366 701.239 203.208 704.557 204.75 707.565L201.904 711.43L205.387 715.677L209.422 713.787C211.99 716.274 215.113 718.116 218.532 719.16L219.212 724.129L224.691 724.681L226.348 720.009C229.906 719.736 233.348 718.623 236.392 716.76L240.024 719.436L244.271 715.932L242.148 711.685C244.227 709.027 245.678 705.935 246.395 702.638L251.088 701.852ZM241.68 699.431C241.303 702.769 239.944 705.92 237.776 708.486C235.608 711.052 232.728 712.917 229.499 713.847C226.271 714.776 222.84 714.728 219.64 713.708C216.439 712.688 213.613 710.741 211.518 708.115C209.423 705.489 208.154 702.301 207.87 698.954C207.587 695.607 208.302 692.251 209.925 689.31C211.549 686.369 214.008 683.975 216.991 682.432C219.975 680.888 223.349 680.263 226.687 680.637C228.906 680.885 231.055 681.568 233.01 682.647C234.964 683.726 236.687 685.18 238.08 686.926C239.472 688.671 240.507 690.674 241.125 692.82C241.743 694.966 241.932 697.212 241.68 699.431Z" fill="#68304C"/>
<path d="M128.934 726.8C127.001 729.224 125.83 732.166 125.57 735.255C125.31 738.344 125.971 741.441 127.471 744.154C128.971 746.867 131.241 749.074 133.996 750.496C136.75 751.919 139.864 752.493 142.944 752.145C146.025 751.797 148.933 750.544 151.301 748.544C153.669 746.543 155.391 743.886 156.248 740.907C157.106 737.928 157.061 734.762 156.119 731.808C155.177 728.855 153.38 726.247 150.956 724.315C147.706 721.725 143.56 720.531 139.43 720.997C135.3 721.463 131.525 723.55 128.934 726.8ZM145.031 739.542C144.424 740.298 143.607 740.858 142.682 741.15C141.757 741.443 140.766 741.454 139.835 741.183C138.904 740.913 138.073 740.372 137.449 739.63C136.825 738.887 136.435 737.977 136.328 737.013C136.221 736.049 136.403 735.075 136.849 734.214C137.296 733.353 137.988 732.644 138.837 732.176C139.687 731.708 140.656 731.502 141.622 731.585C142.589 731.667 143.509 732.035 144.266 732.64C144.783 733.043 145.213 733.546 145.532 734.118C145.851 734.691 146.051 735.321 146.123 735.972C146.194 736.623 146.134 737.282 145.947 737.91C145.759 738.538 145.448 739.121 145.031 739.627V739.542Z" fill="#FAEBDD"/>
<path d="M138.384 734.359C138.823 733.806 139.416 733.396 140.088 733.181C140.76 732.965 141.481 732.954 142.159 733.148C142.838 733.342 143.443 733.733 143.9 734.271C144.356 734.81 144.642 735.471 144.722 736.172C144.803 736.873 144.673 737.583 144.35 738.21C144.027 738.838 143.526 739.355 142.908 739.698C142.291 740.04 141.587 740.192 140.883 740.133C140.18 740.075 139.51 739.81 138.957 739.371C138.588 739.081 138.281 738.721 138.052 738.311C137.823 737.901 137.678 737.45 137.624 736.984C137.571 736.518 137.611 736.046 137.741 735.595C137.871 735.145 138.09 734.724 138.384 734.359ZM136.26 732.745C135.5 733.697 135.038 734.853 134.935 736.068C134.832 737.282 135.091 738.5 135.681 739.567C136.27 740.633 137.162 741.501 138.245 742.061C139.328 742.62 140.552 742.846 141.763 742.709C142.974 742.572 144.118 742.079 145.048 741.292C145.979 740.505 146.655 739.46 146.991 738.288C147.328 737.117 147.309 735.872 146.937 734.711C146.565 733.55 145.858 732.526 144.904 731.768C144.273 731.263 143.548 730.887 142.772 730.663C141.995 730.439 141.182 730.37 140.379 730.461C139.576 730.551 138.799 730.8 138.092 731.192C137.385 731.584 136.763 732.112 136.26 732.745Z" fill="#C35831"/>
<path d="M154.546 721.466L151.276 718.918L148.218 721.275C146.085 720.263 143.761 719.72 141.401 719.682L140.148 716.391L136.049 716.9L135.667 720.596C133.581 721.347 131.667 722.51 130.039 724.015L126.471 722.443L123.923 725.714L126.301 728.814C125.243 730.79 124.586 732.955 124.369 735.185L120.907 736.502L121.396 740.622L124.836 741.025C125.393 743.341 126.436 745.513 127.894 747.396L126.323 750.9L129.614 753.449L132.333 751.325C134.524 752.641 136.986 753.439 139.532 753.661L140.87 757.038L144.99 756.528L145.414 753.173C148.037 752.529 150.469 751.27 152.507 749.499L155.969 751.07L158.517 747.8L156.181 744.848C157.457 742.462 158.134 739.802 158.156 737.096L161.321 735.865L160.811 731.617L157.201 731.171C156.355 728.76 154.959 726.579 153.123 724.8L154.546 721.466ZM149.216 726.521C151.199 728.108 152.667 730.248 153.434 732.669C154.202 735.091 154.234 737.685 153.528 740.125C152.821 742.565 151.407 744.741 149.464 746.378C147.521 748.014 145.137 749.038 142.612 749.32C140.087 749.602 137.536 749.129 135.28 747.961C133.024 746.793 131.165 744.983 129.938 742.759C128.71 740.535 128.17 737.997 128.384 735.466C128.599 732.934 129.559 730.524 131.143 728.538C132.197 727.218 133.5 726.118 134.979 725.302C136.457 724.486 138.083 723.969 139.761 723.782C141.44 723.595 143.139 723.74 144.761 724.21C146.383 724.68 147.897 725.465 149.216 726.521Z" fill="#C35831"/>
<path d="M155.226 277.585C144.969 267.325 131.899 260.337 117.669 257.505C103.44 254.673 88.6903 256.124 75.2859 261.675C61.8814 267.227 50.4243 276.628 42.3634 288.691C34.3025 300.754 30 314.937 30 329.445C30 343.954 34.3025 358.136 42.3634 370.199C50.4243 382.262 61.8814 391.664 75.2859 397.215C88.6903 402.766 103.44 404.218 117.669 401.386C131.899 398.554 144.969 391.566 155.226 381.305C162.038 374.496 167.441 366.411 171.128 357.513C174.814 348.614 176.712 339.077 176.712 329.445C176.712 319.814 174.814 310.276 171.128 301.378C167.441 292.48 162.038 284.395 155.226 277.585Z" fill="#CBCBCB"/>
<path d="M173.425 307.891L96.3145 336.114L133.861 396.193C141.774 392.552 148.968 387.516 155.098 381.327C164.54 371.909 171.235 360.095 174.465 347.155C177.694 334.216 177.334 320.641 173.425 307.891Z" fill="#282F39"/>
<path d="M155.183 277.642C146.106 268.526 134.779 261.976 122.351 258.656L96.3145 336.128L171.768 355.708C176.83 342.482 177.957 328.075 175.014 314.223C172.071 300.372 165.184 287.667 155.183 277.642Z" fill="#EAC31D"/>
<path d="M96.3145 336.109L105.616 402.771C117.898 402.402 129.89 398.947 140.487 392.726L96.3145 336.109Z" fill="#68304C"/>
<path d="M133.543 262.664C124.228 258.457 114.139 256.239 103.919 256.151C93.6982 256.063 83.572 258.108 74.1865 262.155L96.2727 336.101L133.543 262.664Z" fill="#9DA590"/>
<path d="M76.586 261.156C58.5935 268.203 44.0984 282.049 36.2363 299.701L96.2299 336.122L76.586 261.156Z" fill="#77763F"/>
<path d="M133.544 262.66C127.069 259.73 120.2 257.763 113.156 256.82L96.167 336.097L133.544 262.66Z" fill="#C35831"/>
<path d="M186.275 334.908C197.919 324.213 198.687 306.103 187.992 294.46C177.296 282.816 159.187 282.048 147.543 292.743C135.9 303.439 135.131 321.548 145.827 333.192C156.522 344.835 174.632 345.604 186.275 334.908Z" fill="#C35831"/>
<g style="mix-blend-mode:multiply">
<path d="M183.236 331.571C193.045 322.554 193.688 307.292 184.671 297.483C175.654 287.674 160.393 287.032 150.583 296.049C140.774 305.065 140.132 320.327 149.149 330.136C158.166 339.945 173.427 340.588 183.236 331.571Z" fill="#C35831"/>
</g>
<path d="M188.995 313.836C188.995 318.204 187.699 322.475 185.272 326.107C182.846 329.739 179.396 332.569 175.36 334.241C171.325 335.913 166.884 336.35 162.6 335.498C158.315 334.646 154.38 332.542 151.291 329.453C148.202 326.365 146.099 322.429 145.247 318.145C144.394 313.861 144.832 309.42 146.503 305.384C148.175 301.348 151.006 297.899 154.638 295.472C158.27 293.045 162.54 291.75 166.908 291.75C169.809 291.75 172.681 292.321 175.36 293.431C178.04 294.541 180.475 296.168 182.526 298.219C184.577 300.27 186.203 302.705 187.313 305.384C188.423 308.064 188.995 310.936 188.995 313.836Z" fill="#FAEBDD"/>
<path d="M166.906 291.767C171.274 291.767 175.544 293.062 179.176 295.489C182.808 297.916 185.639 301.365 187.311 305.401C188.982 309.437 189.42 313.878 188.568 318.162C187.715 322.446 185.612 326.382 182.523 329.47C179.434 332.559 175.499 334.663 171.215 335.515C166.93 336.367 162.49 335.93 158.454 334.258C154.418 332.586 150.969 329.756 148.542 326.123C146.115 322.491 144.82 318.221 144.82 313.853C144.82 307.995 147.147 302.378 151.289 298.236C155.431 294.094 161.048 291.767 166.906 291.767ZM166.906 290.875C162.361 290.875 157.919 292.223 154.14 294.748C150.361 297.272 147.416 300.861 145.677 305.06C143.938 309.258 143.483 313.879 144.369 318.336C145.256 322.793 147.444 326.888 150.658 330.101C153.871 333.315 157.966 335.503 162.423 336.39C166.88 337.276 171.5 336.821 175.699 335.082C179.898 333.343 183.487 330.398 186.011 326.619C188.536 322.84 189.884 318.398 189.884 313.853C189.878 307.761 187.456 301.919 183.148 297.611C178.84 293.303 172.998 290.881 166.906 290.875Z" fill="#282F39"/>
<path d="M171.642 332.39C171.663 332.508 171.64 332.629 171.577 332.731C171.515 332.833 171.417 332.908 171.303 332.942C171.187 332.968 171.066 332.946 170.967 332.882C170.867 332.819 170.797 332.718 170.772 332.603L166.524 313.851C166.505 313.736 166.528 313.617 166.591 313.519C166.654 313.421 166.752 313.35 166.864 313.32C166.921 313.304 166.981 313.301 167.04 313.31C167.099 313.318 167.155 313.34 167.205 313.372C167.255 313.404 167.298 313.446 167.331 313.495C167.363 313.545 167.385 313.601 167.395 313.659L171.642 332.39Z" fill="#C35831"/>
<path opacity="0.7" d="M166.905 293.938C166.691 293.938 166.485 294.023 166.334 294.174C166.183 294.325 166.098 294.53 166.098 294.745V297.123C166.098 297.337 166.183 297.542 166.334 297.694C166.485 297.845 166.691 297.93 166.905 297.93C167.01 297.93 167.114 297.909 167.21 297.868C167.307 297.827 167.395 297.768 167.468 297.692C167.541 297.617 167.599 297.528 167.637 297.43C167.675 297.332 167.693 297.228 167.69 297.123V294.745C167.693 294.64 167.675 294.535 167.637 294.437C167.599 294.339 167.541 294.25 167.468 294.175C167.395 294.1 167.307 294.04 167.21 293.999C167.114 293.958 167.01 293.937 166.905 293.938ZM158.049 296.911C157.942 296.73 157.77 296.598 157.568 296.543C157.365 296.487 157.15 296.513 156.966 296.613C156.874 296.664 156.794 296.733 156.729 296.815C156.665 296.897 156.617 296.991 156.589 297.092C156.562 297.193 156.555 297.299 156.568 297.402C156.582 297.506 156.616 297.606 156.669 297.696L157.858 299.82C157.962 300.003 158.135 300.137 158.338 300.193C158.541 300.249 158.758 300.222 158.941 300.117C159.124 300.013 159.258 299.841 159.314 299.637C159.37 299.434 159.342 299.217 159.238 299.034L158.049 296.911ZM152.825 304.789L150.701 303.6C150.521 303.526 150.32 303.519 150.135 303.581C149.95 303.643 149.794 303.77 149.696 303.939C149.597 304.107 149.563 304.305 149.6 304.497C149.636 304.688 149.741 304.86 149.894 304.981L152.018 306.17C152.108 306.221 152.208 306.255 152.312 306.268C152.415 306.281 152.52 306.273 152.621 306.245C152.721 306.218 152.816 306.171 152.898 306.107C152.98 306.043 153.049 305.963 153.101 305.873C153.152 305.782 153.186 305.682 153.199 305.578C153.212 305.475 153.204 305.37 153.176 305.269C153.149 305.169 153.102 305.075 153.038 304.992C152.974 304.91 152.894 304.841 152.803 304.789H152.825ZM150.998 313.836C150.998 313.622 150.913 313.417 150.762 313.266C150.611 313.114 150.405 313.029 150.191 313.029H147.813C147.599 313.029 147.394 313.114 147.242 313.266C147.091 313.417 147.006 313.622 147.006 313.836C147.006 313.941 147.027 314.045 147.068 314.142C147.108 314.239 147.168 314.326 147.243 314.4C147.319 314.473 147.408 314.53 147.506 314.568C147.603 314.607 147.708 314.625 147.813 314.622H150.191C150.296 314.625 150.401 314.607 150.499 314.568C150.596 314.53 150.686 314.473 150.761 314.4C150.836 314.326 150.896 314.239 150.937 314.142C150.977 314.045 150.998 313.941 150.998 313.836ZM152.039 321.503L149.915 322.692C149.762 322.812 149.657 322.984 149.621 323.176C149.584 323.367 149.619 323.566 149.717 323.734C149.815 323.902 149.971 324.029 150.156 324.092C150.341 324.154 150.542 324.147 150.722 324.072L152.846 322.883C153.026 322.777 153.158 322.604 153.214 322.402C153.269 322.2 153.244 321.984 153.143 321.8C153.093 321.706 153.023 321.623 152.939 321.556C152.855 321.49 152.759 321.441 152.655 321.413C152.552 321.385 152.444 321.379 152.338 321.394C152.232 321.41 152.13 321.447 152.039 321.503ZM158.941 327.619C158.852 327.565 158.753 327.53 158.65 327.515C158.547 327.5 158.442 327.505 158.342 327.531C158.241 327.556 158.146 327.602 158.063 327.664C157.98 327.727 157.91 327.805 157.858 327.895L156.669 330.019C156.616 330.109 156.582 330.209 156.568 330.313C156.555 330.416 156.562 330.522 156.589 330.623C156.617 330.724 156.665 330.818 156.729 330.9C156.794 330.982 156.874 331.051 156.966 331.102C157.15 331.203 157.365 331.228 157.568 331.172C157.77 331.117 157.942 330.985 158.049 330.804L159.238 328.681C159.346 328.51 159.384 328.305 159.344 328.107C159.305 327.91 159.191 327.735 159.026 327.619H158.941ZM166.905 329.743C166.691 329.743 166.485 329.828 166.334 329.979C166.183 330.13 166.098 330.336 166.098 330.55V332.928C166.098 333.142 166.183 333.347 166.334 333.499C166.485 333.65 166.691 333.735 166.905 333.735C167.01 333.735 167.114 333.714 167.21 333.673C167.307 333.632 167.395 333.573 167.468 333.497C167.541 333.422 167.599 333.333 167.637 333.235C167.675 333.137 167.693 333.033 167.69 332.928V330.55C167.693 330.445 167.675 330.34 167.637 330.242C167.599 330.145 167.541 330.055 167.468 329.98C167.395 329.905 167.307 329.845 167.21 329.804C167.114 329.764 167.01 329.743 166.905 329.743ZM175.951 327.895C175.838 327.717 175.66 327.588 175.454 327.537C175.249 327.486 175.032 327.515 174.847 327.619C174.757 327.671 174.679 327.741 174.617 327.824C174.554 327.907 174.509 328.002 174.483 328.103C174.457 328.204 174.452 328.308 174.467 328.411C174.482 328.514 174.517 328.613 174.571 328.702L175.76 330.826C175.812 330.916 175.881 330.996 175.963 331.06C176.046 331.124 176.14 331.171 176.24 331.199C176.341 331.226 176.446 331.234 176.549 331.221C176.653 331.208 176.753 331.175 176.843 331.123C176.934 331.071 177.014 331.002 177.078 330.92C177.142 330.838 177.189 330.744 177.216 330.643C177.244 330.542 177.252 330.437 177.239 330.334C177.226 330.23 177.192 330.13 177.141 330.04L175.951 327.895ZM183.83 322.692L181.707 321.503C181.526 321.428 181.325 321.421 181.141 321.484C180.956 321.546 180.8 321.673 180.701 321.841C180.603 322.009 180.569 322.208 180.605 322.399C180.642 322.591 180.746 322.763 180.9 322.883L183.023 324.072C183.114 324.124 183.214 324.157 183.317 324.17C183.421 324.183 183.526 324.176 183.626 324.148C183.727 324.12 183.821 324.073 183.903 324.009C183.986 323.945 184.055 323.866 184.106 323.775C184.158 323.684 184.191 323.584 184.204 323.481C184.217 323.378 184.21 323.272 184.182 323.172C184.154 323.071 184.107 322.977 184.043 322.895C183.979 322.813 183.9 322.744 183.809 322.692H183.83ZM185.954 313.029H183.554C183.344 313.035 183.144 313.122 182.997 313.273C182.85 313.424 182.768 313.626 182.768 313.836C182.768 314.045 182.851 314.245 182.999 314.392C183.146 314.539 183.346 314.622 183.554 314.622H185.954C186.058 314.625 186.161 314.607 186.258 314.568C186.355 314.53 186.443 314.472 186.516 314.398C186.59 314.325 186.647 314.237 186.686 314.14C186.724 314.044 186.743 313.94 186.74 313.836C186.746 313.631 186.671 313.432 186.532 313.282C186.393 313.131 186.201 313.04 185.996 313.029H185.954ZM181.707 306.17L183.83 304.981C183.921 304.929 184 304.86 184.064 304.778C184.128 304.695 184.176 304.601 184.203 304.501C184.231 304.4 184.238 304.295 184.225 304.192C184.212 304.088 184.179 303.988 184.128 303.898C184.076 303.807 184.007 303.727 183.925 303.663C183.842 303.599 183.748 303.552 183.648 303.525C183.547 303.497 183.442 303.489 183.339 303.502C183.235 303.515 183.135 303.549 183.044 303.6L180.921 304.789C180.831 304.842 180.753 304.912 180.69 304.995C180.628 305.078 180.582 305.173 180.557 305.273C180.531 305.374 180.526 305.479 180.541 305.582C180.556 305.685 180.591 305.783 180.645 305.873C180.693 305.972 180.762 306.059 180.847 306.13C180.932 306.201 181.03 306.253 181.136 306.283C181.243 306.313 181.354 306.32 181.463 306.305C181.572 306.289 181.677 306.25 181.77 306.191L181.707 306.17ZM176.78 296.613C176.689 296.561 176.589 296.526 176.486 296.513C176.382 296.499 176.277 296.507 176.176 296.534C176.075 296.562 175.98 296.609 175.898 296.674C175.816 296.739 175.747 296.819 175.697 296.911L174.507 299.034C174.454 299.123 174.418 299.222 174.403 299.325C174.388 299.428 174.394 299.533 174.419 299.633C174.445 299.734 174.49 299.829 174.553 299.912C174.615 299.995 174.694 300.065 174.783 300.117C174.881 300.189 174.992 300.238 175.111 300.262C175.229 300.286 175.351 300.284 175.468 300.255C175.586 300.227 175.696 300.173 175.79 300.098C175.884 300.023 175.961 299.928 176.015 299.82L177.204 297.696C177.255 297.602 177.286 297.499 177.295 297.392C177.304 297.286 177.291 297.179 177.257 297.077C177.223 296.976 177.169 296.882 177.098 296.803C177.027 296.723 176.94 296.658 176.843 296.613H176.78Z" fill="#282F39"/>
<path d="M168.179 314.696C168.012 314.962 167.749 315.153 167.443 315.228C167.138 315.304 166.816 315.257 166.544 315.099L158.049 310.023C157.915 309.943 157.799 309.836 157.706 309.71C157.613 309.585 157.546 309.442 157.508 309.29C157.471 309.138 157.464 308.98 157.487 308.825C157.511 308.671 157.565 308.522 157.646 308.388C157.727 308.254 157.833 308.137 157.959 308.045C158.085 307.952 158.228 307.885 158.38 307.847C158.532 307.81 158.689 307.803 158.844 307.826C158.999 307.85 159.147 307.904 159.281 307.985L167.776 313.06C167.91 313.141 168.027 313.247 168.119 313.373C168.212 313.499 168.279 313.642 168.317 313.794C168.354 313.946 168.361 314.104 168.338 314.259C168.314 314.413 168.26 314.562 168.179 314.696Z" fill="#282F39"/>
<path d="M166.504 314.992C166.283 314.769 166.158 314.468 166.158 314.153C166.158 313.839 166.283 313.537 166.504 313.315L177.632 302.229C177.855 302.007 178.157 301.883 178.471 301.883C178.786 301.883 179.087 302.007 179.31 302.229C179.532 302.452 179.656 302.753 179.656 303.068C179.656 303.382 179.532 303.684 179.31 303.907L168.203 314.971C167.98 315.197 167.676 315.326 167.358 315.33C167.04 315.334 166.734 315.213 166.504 314.992Z" fill="#282F39"/>
<path d="M166.907 316.962C168.631 316.962 170.029 315.565 170.029 313.841C170.029 312.116 168.631 310.719 166.907 310.719C165.183 310.719 163.785 312.116 163.785 313.841C163.785 315.565 165.183 316.962 166.907 316.962Z" fill="#C35831"/>
<g style="mix-blend-mode:screen" opacity="0.5">
<path d="M166.905 291.75C162.529 291.758 158.253 293.065 154.62 295.507C150.988 297.949 148.163 301.416 146.504 305.466C144.845 309.516 144.427 313.968 145.303 318.257C146.179 322.545 148.31 326.476 151.424 329.552L182.387 297.994C178.247 293.96 172.686 291.717 166.905 291.75Z" fill="white"/>
</g>
<path d="M804.388 386.742H726.513C725.857 386.742 725.324 387.275 725.324 387.931V398.72C725.324 399.376 725.857 399.909 726.513 399.909H804.388C805.045 399.909 805.578 399.376 805.578 398.72V387.931C805.578 387.275 805.045 386.742 804.388 386.742Z" fill="#EAC31D"/>
<path d="M800.779 427.243C800.779 427.901 800.63 428.666 799.972 428.666H731.696C731.314 428.629 730.953 428.471 730.667 428.215C730.38 427.959 730.183 427.619 730.104 427.243V358.946C730.104 358.287 731.038 357.969 731.696 357.969H799.972C800.63 357.969 800.779 358.287 800.779 358.946V427.243Z" fill="#FAEBDD"/>
<g style="mix-blend-mode:multiply">
<path d="M800.779 392.649C800.779 392.988 800.609 393.307 799.951 393.307H731.718C731.059 393.307 730.104 392.988 730.104 392.649V357.948C730.104 357.629 731.059 357.948 731.718 357.948H799.951C800.609 357.948 800.779 357.608 800.779 357.948V392.649Z" fill="#F6DCC4"/>
</g>
<path d="M743.397 407.098V403.02L747.071 399.644C753.442 393.973 756.458 390.745 756.5 387.39C756.5 385.033 755.12 383.143 751.807 383.143C749.559 383.249 747.402 384.067 745.649 385.479L743.737 380.7C746.47 378.736 749.758 377.695 753.124 377.727C759.686 377.727 763.211 381.55 763.211 386.753C763.211 391.595 759.771 395.439 755.566 399.155L752.911 401.279H763.785V406.822L743.397 407.098Z" fill="#C35831"/>
<path d="M787.123 383.857H775.974L775.358 388.232C775.974 388.232 776.504 388.232 777.205 388.232C779.891 388.142 782.539 388.884 784.787 390.356C785.926 391.156 786.843 392.233 787.452 393.485C788.061 394.736 788.343 396.122 788.27 397.513C788.27 402.864 783.682 407.6 775.931 407.6C773.173 407.662 770.437 407.103 767.925 405.965L769.157 400.911C771.161 401.813 773.329 402.297 775.528 402.333C778.331 402.333 781.283 400.995 781.283 397.937C781.283 394.879 778.947 393.117 773.192 393.117C771.905 393.097 770.619 393.189 769.348 393.393L771.195 378.336H787.038L787.123 383.857Z" fill="#C35831"/>
<g style="mix-blend-mode:multiply">
<path d="M800.779 392.727H730.104V393.321H800.779V392.727Z" fill="#EAC31D"/>
</g>
<path d="M916.412 357.172H889.017V519.335H916.412V357.172Z" fill="#68304C"/>
<path d="M889.081 443.133H861.686V519.33H889.081V443.133Z" fill="#EAC31D"/>
<path d="M861.729 401.453H834.334V519.338H861.729V401.453Z" fill="#CBCBCB"/>
<path d="M834.396 478.055H807.001V519.339H834.396V478.055Z" fill="#C35831"/>
<path d="M807.064 496.188H779.669V519.335H807.064V496.188Z" fill="#77763F"/>
<path d="M832.907 456.57C844.086 445.391 844.086 427.265 832.907 416.086C821.727 404.906 803.602 404.906 792.422 416.086C781.243 427.265 781.242 445.391 792.422 456.57C803.602 467.75 821.727 467.75 832.907 456.57Z" fill="#C35831"/>
<g style="mix-blend-mode:multiply">
<path d="M821.84 458.591C834.163 453.527 840.048 439.431 834.984 427.107C829.919 414.783 815.824 408.898 803.5 413.963C791.176 419.027 785.291 433.123 790.355 445.447C795.42 457.771 809.516 463.656 821.84 458.591Z" fill="#C35831"/>
</g>
<path d="M834.756 436.328C834.756 440.697 833.461 444.967 831.034 448.599C828.607 452.231 825.158 455.062 821.122 456.733C817.086 458.405 812.646 458.842 808.361 457.99C804.077 457.138 800.142 455.034 797.053 451.946C793.964 448.857 791.861 444.921 791.008 440.637C790.156 436.353 790.594 431.912 792.265 427.876C793.937 423.841 796.768 420.391 800.4 417.964C804.032 415.538 808.302 414.242 812.67 414.242C818.528 414.242 824.145 416.569 828.287 420.711C832.429 424.853 834.756 430.471 834.756 436.328Z" fill="#FAEBDD"/>
<path d="M812.67 414.251C817.039 414.251 821.309 415.547 824.941 417.973C828.573 420.4 831.404 423.85 833.075 427.885C834.747 431.921 835.184 436.362 834.332 440.646C833.48 444.931 831.377 448.866 828.288 451.955C825.199 455.044 821.264 457.147 816.979 457.999C812.695 458.851 808.254 458.414 804.218 456.742C800.183 455.071 796.733 452.24 794.307 448.608C791.88 444.976 790.584 440.706 790.584 436.337C790.584 430.48 792.911 424.862 797.053 420.72C801.195 416.578 806.813 414.251 812.67 414.251ZM812.67 413.359C808.126 413.359 803.683 414.707 799.904 417.232C796.126 419.757 793.181 423.345 791.441 427.544C789.702 431.743 789.247 436.363 790.134 440.82C791.021 445.278 793.209 449.372 796.422 452.585C799.636 455.799 803.73 457.987 808.188 458.874C812.645 459.761 817.265 459.306 821.464 457.566C825.662 455.827 829.251 452.882 831.776 449.103C834.301 445.325 835.649 440.882 835.649 436.337C835.643 430.245 833.22 424.404 828.912 420.096C824.604 415.788 818.763 413.365 812.67 413.359Z" fill="#282F39"/>
<path d="M817.364 454.851C817.389 454.967 817.368 455.087 817.304 455.187C817.24 455.287 817.14 455.357 817.024 455.382C816.969 455.398 816.91 455.402 816.853 455.395C816.795 455.387 816.74 455.368 816.69 455.338C816.64 455.308 816.597 455.268 816.563 455.221C816.53 455.174 816.506 455.12 816.493 455.064L812.246 436.312C812.226 436.197 812.25 436.078 812.313 435.98C812.376 435.882 812.473 435.811 812.586 435.781C812.643 435.765 812.703 435.762 812.762 435.77C812.821 435.779 812.877 435.801 812.927 435.833C812.977 435.865 813.02 435.907 813.052 435.956C813.085 436.006 813.107 436.062 813.117 436.12L817.364 454.851Z" fill="#C35831"/>
<path opacity="0.7" d="M812.671 416.438C812.457 416.438 812.252 416.523 812.1 416.674C811.949 416.825 811.864 417.03 811.864 417.244V419.623C811.864 419.837 811.949 420.042 812.1 420.194C812.252 420.345 812.457 420.43 812.671 420.43C812.776 420.43 812.88 420.409 812.977 420.368C813.073 420.327 813.161 420.268 813.234 420.192C813.307 420.117 813.365 420.028 813.403 419.93C813.441 419.832 813.459 419.728 813.457 419.623V417.244C813.459 417.14 813.441 417.035 813.403 416.937C813.365 416.839 813.307 416.75 813.234 416.675C813.161 416.6 813.073 416.54 812.977 416.499C812.88 416.458 812.776 416.437 812.671 416.438ZM803.815 419.389C803.695 419.236 803.523 419.131 803.331 419.095C803.14 419.058 802.942 419.093 802.773 419.191C802.605 419.289 802.478 419.446 802.416 419.63C802.353 419.815 802.36 420.016 802.435 420.196L803.624 422.32C803.676 422.411 803.745 422.49 803.827 422.554C803.909 422.618 804.003 422.665 804.104 422.693C804.205 422.721 804.31 422.728 804.413 422.715C804.517 422.702 804.616 422.669 804.707 422.617C804.798 422.566 804.877 422.497 804.941 422.414C805.005 422.332 805.052 422.238 805.08 422.137C805.108 422.037 805.115 421.932 805.102 421.828C805.089 421.725 805.056 421.625 805.004 421.534L803.815 419.389ZM798.591 427.247L796.467 426.058C796.378 426.004 796.279 425.969 796.176 425.954C796.074 425.938 795.969 425.944 795.868 425.97C795.767 425.995 795.673 426.041 795.59 426.103C795.507 426.166 795.437 426.244 795.384 426.334C795.28 426.518 795.251 426.735 795.302 426.941C795.354 427.146 795.482 427.324 795.66 427.438L797.784 428.627C797.875 428.679 797.975 428.712 798.078 428.725C798.181 428.738 798.286 428.731 798.387 428.703C798.488 428.675 798.582 428.628 798.664 428.564C798.746 428.5 798.815 428.421 798.867 428.33C798.919 428.239 798.952 428.139 798.965 428.036C798.978 427.933 798.97 427.827 798.943 427.727C798.915 427.626 798.868 427.532 798.804 427.45C798.74 427.367 798.66 427.299 798.57 427.247H798.591ZM796.765 436.294C796.765 436.08 796.68 435.874 796.528 435.723C796.377 435.572 796.172 435.487 795.958 435.487H793.579C793.464 435.468 793.345 435.474 793.233 435.506C793.12 435.537 793.015 435.592 792.926 435.668C792.837 435.744 792.765 435.838 792.716 435.944C792.667 436.051 792.642 436.166 792.642 436.283C792.642 436.4 792.667 436.516 792.716 436.622C792.765 436.728 792.837 436.822 792.926 436.898C793.015 436.974 793.12 437.029 793.233 437.061C793.345 437.092 793.464 437.098 793.579 437.08H795.958C796.161 437.08 796.357 437.004 796.507 436.866C796.656 436.728 796.749 436.539 796.765 436.336V436.294ZM797.805 443.96L795.682 445.149C795.528 445.27 795.424 445.442 795.387 445.633C795.351 445.825 795.385 446.023 795.483 446.192C795.582 446.36 795.738 446.487 795.922 446.549C796.107 446.611 796.308 446.604 796.489 446.53L798.612 445.341C798.794 445.23 798.927 445.054 798.982 444.848C799.037 444.642 799.011 444.423 798.909 444.236C798.856 444.145 798.783 444.065 798.697 444.003C798.611 443.941 798.513 443.898 798.409 443.876C798.305 443.854 798.198 443.854 798.094 443.876C797.99 443.898 797.892 443.941 797.805 444.003V443.96ZM804.707 450.076C804.619 450.02 804.52 449.982 804.416 449.965C804.313 449.949 804.207 449.953 804.106 449.979C804.004 450.005 803.909 450.052 803.826 450.116C803.743 450.18 803.674 450.261 803.624 450.352L802.435 452.476C802.382 452.566 802.348 452.666 802.334 452.77C802.321 452.874 802.328 452.979 802.356 453.08C802.383 453.181 802.431 453.275 802.496 453.358C802.56 453.44 802.641 453.508 802.732 453.559C802.916 453.66 803.132 453.685 803.334 453.63C803.536 453.574 803.709 453.442 803.815 453.262L805.004 451.138C805.085 450.952 805.09 450.742 805.018 450.552C804.947 450.362 804.805 450.207 804.622 450.119L804.707 450.076ZM812.671 452.2C812.46 452.2 812.258 452.282 812.108 452.429C811.957 452.576 811.869 452.775 811.864 452.986V455.386C811.864 455.491 811.885 455.594 811.926 455.691C811.966 455.788 812.026 455.876 812.101 455.949C812.177 456.022 812.266 456.079 812.364 456.118C812.461 456.156 812.566 456.174 812.671 456.171C812.775 456.174 812.878 456.156 812.975 456.117C813.072 456.079 813.159 456.021 813.233 455.948C813.307 455.874 813.364 455.786 813.403 455.69C813.441 455.593 813.46 455.49 813.457 455.386V452.986C813.446 452.785 813.358 452.596 813.212 452.457C813.066 452.319 812.872 452.242 812.671 452.243V452.2ZM821.718 450.352C821.607 450.17 821.429 450.038 821.223 449.987C821.016 449.935 820.797 449.967 820.613 450.076C820.521 450.127 820.441 450.196 820.377 450.278C820.312 450.361 820.266 450.456 820.24 450.558C820.214 450.66 820.209 450.765 820.226 450.869C820.243 450.972 820.281 451.071 820.337 451.159L821.527 453.283C821.578 453.374 821.647 453.453 821.729 453.517C821.812 453.581 821.906 453.628 822.007 453.656C822.107 453.684 822.212 453.691 822.316 453.678C822.419 453.665 822.519 453.632 822.61 453.58C822.7 453.529 822.78 453.46 822.844 453.378C822.908 453.295 822.955 453.201 822.983 453.1C823.01 453 823.018 452.895 823.005 452.791C822.992 452.688 822.959 452.588 822.907 452.497L821.718 450.352ZM829.597 445.149L827.473 443.96C827.385 443.904 827.286 443.866 827.182 443.849C827.079 443.832 826.973 443.837 826.871 443.863C826.77 443.889 826.675 443.935 826.592 444C826.509 444.064 826.44 444.144 826.39 444.236C826.28 444.419 826.248 444.638 826.3 444.845C826.352 445.052 826.483 445.23 826.666 445.341L828.79 446.53C828.88 446.581 828.98 446.615 829.084 446.628C829.187 446.641 829.292 446.633 829.393 446.606C829.493 446.578 829.587 446.531 829.67 446.467C829.752 446.403 829.821 446.323 829.873 446.233C829.924 446.142 829.957 446.042 829.97 445.939C829.983 445.835 829.976 445.73 829.948 445.629C829.921 445.529 829.873 445.435 829.809 445.352C829.745 445.27 829.666 445.201 829.575 445.149H829.597ZM831.72 435.487H829.32C829.132 435.518 828.96 435.615 828.836 435.761C828.712 435.907 828.644 436.092 828.644 436.283C828.644 436.475 828.712 436.66 828.836 436.806C828.96 436.952 829.132 437.049 829.32 437.08H831.72C831.909 437.049 832.081 436.952 832.205 436.806C832.329 436.66 832.397 436.475 832.397 436.283C832.397 436.092 832.329 435.907 832.205 435.761C832.081 435.615 831.909 435.518 831.72 435.487ZM827.473 428.627L829.597 427.438C829.779 427.328 829.911 427.151 829.966 426.945C830.022 426.74 829.996 426.521 829.894 426.334C829.841 426.244 829.771 426.166 829.688 426.103C829.605 426.041 829.511 425.995 829.41 425.97C829.309 425.944 829.204 425.938 829.102 425.954C828.999 425.969 828.9 426.004 828.811 426.058L826.687 427.247C826.595 427.297 826.515 427.366 826.45 427.449C826.386 427.532 826.34 427.627 826.314 427.729C826.288 427.83 826.283 427.936 826.3 428.039C826.317 428.143 826.354 428.242 826.411 428.33C826.458 428.431 826.525 428.521 826.609 428.594C826.693 428.667 826.791 428.721 826.897 428.753C827.004 428.785 827.116 428.794 827.226 428.78C827.336 428.766 827.442 428.728 827.537 428.67L827.473 428.627ZM822.546 419.071C822.458 419.014 822.359 418.976 822.255 418.96C822.152 418.943 822.046 418.948 821.944 418.974C821.843 418.999 821.748 419.046 821.665 419.11C821.582 419.174 821.513 419.255 821.463 419.347L820.274 421.471C820.217 421.559 820.179 421.658 820.162 421.761C820.146 421.865 820.15 421.971 820.176 422.072C820.202 422.174 820.249 422.269 820.313 422.352C820.377 422.435 820.458 422.503 820.55 422.554C820.737 422.656 820.956 422.682 821.161 422.626C821.367 422.571 821.543 422.438 821.654 422.256L822.843 420.133C822.936 419.964 822.964 419.766 822.921 419.578C822.878 419.391 822.767 419.225 822.61 419.113L822.546 419.071Z" fill="#282F39"/>
<path d="M813.944 437.141C813.777 437.407 813.513 437.598 813.208 437.674C812.903 437.749 812.58 437.703 812.309 437.544L803.814 432.469C803.68 432.388 803.563 432.282 803.47 432.156C803.377 432.03 803.31 431.887 803.273 431.735C803.235 431.583 803.228 431.425 803.252 431.271C803.276 431.116 803.329 430.967 803.41 430.834C803.489 430.698 803.595 430.579 803.72 430.484C803.845 430.389 803.988 430.32 804.14 430.28C804.292 430.241 804.45 430.232 804.606 430.254C804.761 430.276 804.911 430.329 805.046 430.409L813.54 435.506C813.674 435.586 813.791 435.693 813.884 435.819C813.977 435.945 814.044 436.088 814.082 436.24C814.119 436.391 814.126 436.549 814.103 436.704C814.079 436.859 814.025 437.007 813.944 437.141Z" fill="#282F39"/>
<path d="M812.268 437.485C812.046 437.262 811.922 436.96 811.922 436.646C811.922 436.331 812.046 436.03 812.268 435.807L823.396 424.721C823.619 424.499 823.921 424.375 824.235 424.375C824.549 424.375 824.851 424.499 825.074 424.721C825.297 424.948 825.422 425.253 825.422 425.571C825.422 425.889 825.297 426.194 825.074 426.42L813.967 437.485C813.741 437.708 813.435 437.833 813.118 437.833C812.8 437.833 812.495 437.708 812.268 437.485Z" fill="#282F39"/>
<path d="M812.673 439.455C814.397 439.455 815.794 438.057 815.794 436.333C815.794 434.609 814.397 433.211 812.673 433.211C810.948 433.211 809.551 434.609 809.551 436.333C809.551 438.057 810.948 439.455 812.673 439.455Z" fill="#C35831"/>
<g style="mix-blend-mode:screen" opacity="0.5">
<path d="M812.671 414.242C808.285 414.241 803.999 415.546 800.357 417.99C796.716 420.434 793.884 423.907 792.223 427.966C790.563 432.025 790.148 436.487 791.033 440.782C791.917 445.078 794.061 449.013 797.19 452.086L827.983 420.465C823.878 416.485 818.388 414.254 812.671 414.242Z" fill="white"/>
</g>
<path d="M517.673 194.498C517.673 195.156 517.673 196.005 516.994 196.005H438.418C438.022 195.951 437.651 195.778 437.356 195.509C437.06 195.24 436.853 194.887 436.762 194.498V132.678C436.762 132.04 437.76 131.828 438.418 131.828H516.994C517.631 131.828 517.673 132.04 517.673 132.678V194.498Z" fill="#FFCCA5"/>
<path d="M438.736 134.181H517.439C518.076 134.181 517.673 133.182 517.673 132.524V129.148L482.186 91.3038C479.765 88.6279 476.643 89.0102 474.095 91.3038L436.697 130.337V132.46C436.697 133.119 438.099 134.181 438.736 134.181Z" fill="#FFCCA5"/>
<g style="mix-blend-mode:multiply">
<path d="M517.121 133.352H438.417C437.78 133.352 436.697 133.755 436.697 134.413V137.726L472.948 175.57C475.348 178.246 478.109 177.864 480.657 175.57L517.673 136.601V134.477C517.673 133.755 517.758 133.352 517.121 133.352Z" fill="#FFB882"/>
</g>
<path d="M515.379 139.13L492.018 164.614H462.499L439.84 140.978V107.848C439.84 107.148 440.519 107.381 441.22 107.381H514.805C515.506 107.381 515.464 107.148 515.464 107.848L515.379 139.13Z" fill="#FAEBDD"/>
<path d="M450.543 115.602V118.32H502.552V115.602H450.543ZM450.543 126.092H502.552V123.374H450.543V126.092ZM450.543 133.844H502.552V131.147H450.543V133.844ZM450.543 141.616H502.552V138.919H450.543V141.616ZM450.543 149.389H502.552V146.671H450.543V149.389Z" fill="#9DA590"/>
<path d="M517.121 195.994H438.417C437.78 195.994 436.697 195.697 436.697 195.039V191.726L472.948 153.882C475.348 151.206 478.109 151.588 480.657 153.882L517.673 192.851V194.975C517.673 195.761 517.758 195.994 517.121 195.994Z" fill="#FFB882"/>
<path d="M569.214 178.781H509.964C509.306 178.781 508.286 178.781 508.286 179.461V225.268C508.286 225.905 509.306 226.606 509.964 226.606H542.626L568.259 238.032L562.992 226.606H569.214C569.851 226.606 569.979 225.905 569.979 225.268V179.376C569.979 178.781 569.851 178.781 569.214 178.781Z" fill="#C35831"/>
<path d="M496.01 191.258H555.281C555.918 191.258 556.194 191.491 556.194 192.129V238.042C556.194 238.679 555.918 239.762 555.281 239.762H522.619L496.987 251.188L502.232 239.762H496.01C495.373 239.762 494.502 238.679 494.502 238.042V192.129C494.566 191.513 495.373 191.258 496.01 191.258Z" fill="#FAEBDD"/>
<path d="M451.75 236.954C463.881 226.814 465.495 208.761 455.356 196.63C445.217 184.499 427.163 182.884 415.032 193.024C402.901 203.163 401.287 221.217 411.426 233.348C421.566 245.479 439.619 247.093 451.75 236.954Z" fill="#C35831"/>
<g style="mix-blend-mode:multiply">
<path d="M433.385 239.078C446.708 239.078 457.509 228.277 457.509 214.953C457.509 201.629 446.708 190.828 433.385 190.828C420.061 190.828 409.26 201.629 409.26 214.953C409.26 228.277 420.061 239.078 433.385 239.078Z" fill="#C35831"/>
</g>
<path d="M455.469 214.891C455.469 219.259 454.174 223.529 451.747 227.161C449.32 230.793 445.871 233.624 441.835 235.296C437.799 236.967 433.359 237.405 429.074 236.553C424.79 235.7 420.855 233.597 417.766 230.508C414.677 227.419 412.573 223.484 411.721 219.2C410.869 214.915 411.306 210.475 412.978 206.439C414.65 202.403 417.481 198.954 421.113 196.527C424.745 194.1 429.015 192.805 433.383 192.805C439.241 192.805 444.858 195.132 449 199.274C453.142 203.416 455.469 209.033 455.469 214.891Z" fill="#FAEBDD"/>
<path d="M433.384 192.862C437.755 192.862 442.028 194.159 445.661 196.589C449.295 199.018 452.125 202.471 453.795 206.511C455.465 210.55 455.898 214.994 455.041 219.28C454.184 223.566 452.074 227.502 448.979 230.588C445.884 233.674 441.942 235.773 437.654 236.618C433.365 237.463 428.922 237.016 424.888 235.335C420.853 233.653 417.408 230.812 414.989 227.172C412.57 223.532 411.285 219.255 411.298 214.884C411.298 209.027 413.625 203.409 417.767 199.267C421.909 195.125 427.526 192.798 433.384 192.798M433.384 191.906C428.839 191.902 424.394 193.246 420.612 195.768C416.831 198.291 413.882 201.878 412.14 206.076C410.398 210.275 409.939 214.895 410.824 219.354C411.708 223.813 413.895 227.909 417.107 231.125C420.32 234.34 424.414 236.531 428.872 237.419C433.33 238.308 437.951 237.854 442.151 236.115C446.351 234.377 449.941 231.432 452.467 227.652C454.993 223.873 456.341 219.43 456.341 214.884C456.335 208.792 453.913 202.951 449.605 198.643C445.297 194.335 439.455 191.912 433.363 191.906H433.384Z" fill="#282F39"/>
<path d="M438.12 233.498C438.145 233.614 438.124 233.734 438.06 233.834C437.996 233.934 437.896 234.004 437.78 234.029C437.665 234.049 437.547 234.025 437.449 233.962C437.351 233.899 437.28 233.802 437.249 233.689L432.981 214.874C432.965 214.816 432.962 214.756 432.971 214.698C432.98 214.639 433.001 214.583 433.033 214.533C433.065 214.483 433.107 214.44 433.157 214.407C433.206 214.375 433.262 214.353 433.321 214.343C433.436 214.323 433.554 214.347 433.652 214.41C433.75 214.473 433.821 214.57 433.852 214.683L438.12 233.498Z" fill="#C35831"/>
<path opacity="0.7" d="M433.384 195.079C433.28 195.076 433.176 195.094 433.08 195.132C432.983 195.171 432.895 195.229 432.822 195.302C432.748 195.376 432.69 195.464 432.652 195.56C432.613 195.657 432.595 195.76 432.598 195.864V198.243C432.595 198.348 432.613 198.452 432.652 198.55C432.69 198.648 432.747 198.737 432.82 198.812C432.894 198.887 432.981 198.947 433.078 198.988C433.175 199.029 433.279 199.05 433.384 199.05C433.598 199.05 433.803 198.965 433.954 198.813C434.106 198.662 434.191 198.457 434.191 198.243V195.779C434.169 195.582 434.074 195.401 433.925 195.271C433.775 195.141 433.582 195.072 433.384 195.079ZM424.486 198.03C424.381 197.847 424.209 197.713 424.006 197.657C423.802 197.602 423.586 197.629 423.402 197.733C423.219 197.837 423.085 198.01 423.029 198.213C422.974 198.416 423.001 198.633 423.105 198.816L424.294 200.94C424.408 201.118 424.586 201.246 424.792 201.298C424.997 201.349 425.214 201.32 425.399 201.216C425.491 201.166 425.571 201.097 425.635 201.014C425.7 200.931 425.746 200.836 425.772 200.734C425.798 200.633 425.803 200.527 425.786 200.424C425.769 200.32 425.731 200.221 425.675 200.133L424.486 198.03ZM419.283 205.909L417.159 204.72C416.976 204.616 416.759 204.589 416.556 204.644C416.353 204.7 416.18 204.834 416.076 205.017C415.972 205.2 415.944 205.417 416 205.62C416.056 205.824 416.19 205.996 416.373 206.1L418.497 207.29C418.677 207.364 418.878 207.371 419.063 207.309C419.248 207.247 419.404 207.12 419.502 206.951C419.601 206.783 419.635 206.585 419.598 206.393C419.562 206.202 419.457 206.03 419.304 205.909H419.283ZM417.477 214.892C417.477 214.787 417.456 214.683 417.416 214.587C417.375 214.49 417.315 214.402 417.24 214.329C417.165 214.256 417.075 214.198 416.978 214.16C416.88 214.122 416.775 214.104 416.67 214.107H414.292C414.188 214.104 414.084 214.122 413.988 214.16C413.891 214.199 413.803 214.257 413.73 214.33C413.656 214.404 413.598 214.492 413.56 214.588C413.522 214.685 413.503 214.788 413.506 214.892C413.503 214.997 413.522 215.102 413.56 215.2C413.598 215.297 413.655 215.387 413.729 215.462C413.802 215.537 413.889 215.597 413.986 215.638C414.083 215.678 414.187 215.699 414.292 215.699H416.67C416.884 215.699 417.09 215.614 417.241 215.463C417.392 215.312 417.477 215.106 417.477 214.892ZM418.518 222.559L416.394 223.748C416.211 223.852 416.077 224.025 416.021 224.228C415.966 224.431 415.993 224.648 416.097 224.831C416.201 225.014 416.374 225.148 416.577 225.204C416.78 225.26 416.997 225.233 417.18 225.128L419.304 223.939C419.396 223.889 419.476 223.82 419.54 223.737C419.605 223.654 419.651 223.559 419.677 223.458C419.703 223.356 419.708 223.25 419.691 223.147C419.674 223.043 419.636 222.944 419.58 222.856C419.467 222.688 419.294 222.57 419.096 222.526C418.898 222.483 418.691 222.517 418.518 222.623V222.559ZM425.441 228.675C425.254 228.573 425.035 228.547 424.829 228.602C424.624 228.658 424.447 228.79 424.337 228.972L423.148 231.096C423.095 231.186 423.061 231.286 423.047 231.39C423.034 231.494 423.041 231.599 423.069 231.7C423.096 231.801 423.144 231.895 423.208 231.977C423.273 232.06 423.353 232.128 423.445 232.179C423.623 232.272 423.831 232.293 424.025 232.238C424.218 232.183 424.383 232.055 424.486 231.882L425.675 229.758C425.773 229.59 425.803 229.392 425.76 229.202C425.716 229.013 425.602 228.847 425.441 228.739V228.675ZM433.384 230.799C433.279 230.799 433.175 230.82 433.078 230.86C432.981 230.901 432.894 230.961 432.82 231.036C432.747 231.111 432.69 231.201 432.652 231.298C432.613 231.396 432.595 231.501 432.598 231.606V234.005C432.595 234.11 432.613 234.215 432.652 234.313C432.69 234.41 432.747 234.5 432.82 234.575C432.894 234.65 432.981 234.71 433.078 234.751C433.175 234.791 433.279 234.812 433.384 234.812C433.598 234.812 433.803 234.727 433.954 234.576C434.106 234.425 434.191 234.219 434.191 234.005V231.669C434.191 231.455 434.106 231.25 433.954 231.099C433.803 230.947 433.598 230.862 433.384 230.862V230.799ZM442.431 228.972C442.379 228.882 442.31 228.802 442.228 228.738C442.145 228.674 442.051 228.627 441.951 228.599C441.85 228.572 441.745 228.564 441.641 228.577C441.538 228.59 441.438 228.623 441.347 228.675C441.257 228.727 441.177 228.796 441.113 228.878C441.049 228.96 441.002 229.054 440.974 229.155C440.947 229.256 440.939 229.361 440.952 229.464C440.965 229.568 440.999 229.667 441.05 229.758L442.239 231.882C442.29 231.973 442.359 232.054 442.441 232.118C442.523 232.183 442.618 232.23 442.718 232.258C442.819 232.286 442.925 232.293 443.028 232.279C443.132 232.266 443.232 232.232 443.322 232.179C443.414 232.128 443.494 232.06 443.559 231.977C443.624 231.895 443.671 231.801 443.699 231.7C443.727 231.599 443.734 231.494 443.72 231.39C443.707 231.286 443.672 231.186 443.62 231.096L442.431 228.972ZM450.331 223.748L448.207 222.559C448.116 222.507 448.016 222.474 447.913 222.461C447.809 222.448 447.704 222.456 447.604 222.483C447.503 222.511 447.409 222.558 447.327 222.622C447.244 222.686 447.175 222.765 447.124 222.856C447.072 222.947 447.039 223.047 447.026 223.15C447.013 223.254 447.021 223.359 447.048 223.459C447.076 223.56 447.123 223.654 447.187 223.736C447.251 223.819 447.331 223.888 447.421 223.939L449.545 225.128C449.725 225.203 449.926 225.21 450.111 225.148C450.296 225.085 450.452 224.958 450.55 224.79C450.649 224.622 450.683 224.423 450.646 224.232C450.61 224.04 450.505 223.868 450.352 223.748H450.331ZM452.454 214.107H450.076C449.971 214.104 449.866 214.122 449.768 214.16C449.671 214.198 449.582 214.256 449.506 214.329C449.431 214.402 449.371 214.49 449.331 214.587C449.29 214.683 449.269 214.787 449.269 214.892C449.269 215.106 449.354 215.312 449.505 215.463C449.656 215.614 449.862 215.699 450.076 215.699H452.454C452.668 215.699 452.874 215.614 453.025 215.463C453.176 215.312 453.261 215.106 453.261 214.892C453.245 214.695 453.155 214.511 453.01 214.377C452.864 214.244 452.673 214.17 452.475 214.17L452.454 214.107ZM448.207 207.226L450.331 206.037C450.484 205.916 450.589 205.744 450.625 205.553C450.661 205.361 450.627 205.163 450.529 204.995C450.43 204.826 450.274 204.699 450.09 204.637C449.905 204.575 449.704 204.582 449.524 204.656L447.4 205.846C447.219 205.952 447.087 206.125 447.032 206.327C446.976 206.529 447.002 206.745 447.103 206.929C447.147 207.034 447.213 207.129 447.298 207.206C447.382 207.284 447.483 207.342 447.592 207.376C447.701 207.41 447.817 207.42 447.93 207.406C448.044 207.391 448.153 207.351 448.249 207.29L448.207 207.226ZM443.28 197.669C443.096 197.569 442.88 197.543 442.678 197.599C442.476 197.654 442.303 197.786 442.197 197.967L441.008 200.09C440.933 200.271 440.926 200.472 440.988 200.656C441.051 200.841 441.178 200.997 441.346 201.096C441.514 201.194 441.713 201.228 441.904 201.192C442.096 201.155 442.268 201.051 442.388 200.897L443.577 198.774C443.674 198.6 443.702 198.396 443.655 198.203C443.607 198.01 443.489 197.842 443.322 197.733L443.28 197.669Z" fill="#282F39"/>
<path d="M434.659 215.75C434.578 215.884 434.472 216.001 434.346 216.094C434.22 216.187 434.077 216.254 433.925 216.291C433.773 216.329 433.615 216.336 433.461 216.312C433.306 216.289 433.157 216.235 433.024 216.154L424.529 211.078C424.263 210.911 424.071 210.647 423.996 210.342C423.921 210.037 423.967 209.715 424.125 209.443C424.206 209.309 424.313 209.192 424.439 209.099C424.564 209.006 424.707 208.939 424.859 208.902C425.011 208.864 425.169 208.857 425.324 208.881C425.478 208.904 425.627 208.958 425.761 209.039L434.255 214.115C434.389 214.196 434.506 214.302 434.599 214.428C434.692 214.554 434.759 214.697 434.796 214.849C434.834 215.001 434.841 215.159 434.817 215.313C434.794 215.468 434.74 215.616 434.659 215.75Z" fill="#282F39"/>
<path d="M432.98 216.09C432.758 215.867 432.634 215.566 432.634 215.251C432.634 214.937 432.758 214.635 432.98 214.412L444.087 203.348C444.313 203.125 444.618 203 444.936 203C445.254 203 445.559 203.125 445.786 203.348C446.008 203.571 446.132 203.873 446.132 204.187C446.132 204.501 446.008 204.803 445.786 205.026L434.679 216.111C434.567 216.223 434.434 216.311 434.287 216.371C434.14 216.43 433.983 216.46 433.825 216.458C433.667 216.456 433.511 216.422 433.365 216.359C433.22 216.296 433.089 216.205 432.98 216.09Z" fill="#282F39"/>
<path d="M433.384 218.064C435.108 218.064 436.505 216.666 436.505 214.942C436.505 213.218 435.108 211.82 433.384 211.82C431.659 211.82 430.262 213.218 430.262 214.942C430.262 216.666 431.659 218.064 433.384 218.064Z" fill="#C35831"/>
<g style="mix-blend-mode:screen" opacity="0.5">
<path d="M433.384 192.852C429 192.855 424.717 194.162 421.078 196.608C417.44 199.054 414.612 202.527 412.954 206.585C411.296 210.643 410.883 215.103 411.768 219.397C412.653 223.69 414.796 227.624 417.924 230.695L448.76 199.095C444.648 195.083 439.129 192.842 433.384 192.852Z" fill="white"/>
</g>
<path d="M755.609 176.408C755.099 176.408 754.61 176.408 754.143 176.408C754.929 174.169 755.331 171.814 755.332 169.442C755.335 164.619 753.66 159.945 750.596 156.221C747.531 152.497 743.267 149.954 738.534 149.028C733.8 148.101 728.892 148.85 724.65 151.144C720.408 153.439 717.096 157.137 715.28 161.606C713.432 160.888 711.466 160.521 709.483 160.523C705.265 160.525 701.213 162.161 698.176 165.087C695.139 168.013 693.353 172.002 693.194 176.216C689.008 177.364 685.382 179.993 682.99 183.614C680.597 187.235 679.602 191.603 680.189 195.903C680.776 200.203 682.905 204.144 686.18 206.992C689.455 209.839 693.653 211.401 697.993 211.384C707.89 211.384 745.882 211.512 755.609 211.512C760.272 211.512 764.745 209.659 768.042 206.362C771.34 203.064 773.193 198.591 773.193 193.928C773.193 189.264 771.34 184.792 768.042 181.494C764.745 178.197 760.272 176.344 755.609 176.344V176.408Z" fill="#FAEBDD"/>
<path d="M748.386 204.781L726.746 183.141L705.105 204.781H716.977V227.334H736.621V204.781H748.386Z" fill="#77763F"/>
<path d="M628.677 217.001C628.677 216.237 628.847 215.43 629.59 215.43H688.224L710.714 237.686V326.03C710.714 326.795 709.652 327.198 708.909 327.198H629.59C628.847 327.198 628.677 326.795 628.677 326.03V217.001Z" fill="#FAEBDD"/>
<path d="M689.753 237.218H710.098L688.861 215.727V236.114C688.84 236.815 689.01 237.218 689.753 237.218Z" fill="#9DA590"/>
<path d="M649.596 253.32C646.861 253.316 644.186 254.123 641.91 255.64C639.633 257.157 637.858 259.314 636.808 261.84C635.759 264.366 635.482 267.146 636.013 269.829C636.544 272.513 637.859 274.978 639.792 276.914C641.724 278.849 644.188 280.168 646.87 280.703C649.552 281.238 652.333 280.966 654.861 279.92C657.388 278.874 659.549 277.102 661.069 274.828C662.589 272.554 663.4 269.881 663.4 267.145C663.403 265.331 663.048 263.534 662.355 261.856C661.663 260.179 660.647 258.655 659.365 257.371C658.083 256.087 656.56 255.068 654.884 254.373C653.208 253.678 651.411 253.32 649.596 253.32ZM649.596 275.045C648.029 275.045 646.496 274.58 645.193 273.709C643.89 272.838 642.875 271.599 642.276 270.151C641.677 268.702 641.521 267.108 641.829 265.571C642.136 264.034 642.893 262.622 644.003 261.515C645.113 260.409 646.526 259.656 648.064 259.353C649.602 259.049 651.195 259.209 652.642 259.812C654.089 260.415 655.325 261.433 656.193 262.739C657.061 264.044 657.522 265.578 657.518 267.145C657.512 269.243 656.675 271.252 655.19 272.733C653.705 274.214 651.693 275.045 649.596 275.045Z" fill="#282F39"/>
<path d="M641.654 267.12C641.654 265.019 642.488 263.004 643.974 261.519C645.459 260.033 647.474 259.198 649.575 259.198H649.596V253.273H648.598C645.094 253.505 641.808 255.06 639.407 257.623C637.006 260.186 635.668 263.565 635.665 267.077C635.665 267.375 635.665 267.693 635.665 267.99H641.569C641.675 267.714 641.654 267.417 641.654 267.12Z" fill="#68304C"/>
<path d="M649.595 280.941V275.037C647.648 275.034 645.771 274.317 644.318 273.021C642.866 271.725 641.94 269.941 641.716 268.008H635.791C635.997 271.518 637.542 274.815 640.105 277.221C642.669 279.626 646.058 280.958 649.574 280.941H649.595Z" fill="#77763F"/>
<path d="M663.377 267.138C663.384 265.607 663.133 264.084 662.634 262.636L661.742 261.086L656.815 263.932C657.259 264.942 657.491 266.034 657.494 267.138C657.499 268.587 657.105 270.009 656.356 271.248C655.607 272.488 654.531 273.498 653.247 274.168L656.199 279.265C658.376 278.076 660.192 276.322 661.455 274.188C662.718 272.054 663.382 269.618 663.377 267.138Z" fill="#EAC31D"/>
<path d="M661.148 274.648C662.84 272.064 663.619 268.987 663.361 265.909C663.104 262.83 661.824 259.926 659.725 257.659L656.646 255.875L653.991 260.462C654.876 261.043 655.635 261.797 656.223 262.677C656.811 263.557 657.216 264.547 657.415 265.587C657.613 266.627 657.6 267.696 657.376 268.731C657.153 269.766 656.724 270.746 656.115 271.611L661.148 274.648Z" fill="#9DA590"/>
<path d="M649.595 253.32C646.762 253.313 643.996 254.181 641.674 255.805L644.923 260.753C646.272 259.747 647.913 259.21 649.595 259.224C650.992 259.224 652.365 259.593 653.573 260.294C654.781 260.995 655.783 262.003 656.476 263.217L661.275 259.776C660.036 257.798 658.314 256.167 656.27 255.038C654.227 253.908 651.93 253.317 649.595 253.32Z" fill="#DB610B"/>
<path d="M642.843 229.914H635.75V235.351H642.843V229.914Z" fill="#C35831"/>
<path d="M683.575 229.914H646.411V235.351H683.575V229.914ZM635.792 294.941H702.688V289.504H635.75L635.792 294.941ZM635.792 306.578H702.688V301.142H635.75L635.792 306.578ZM635.792 318.216H702.688V312.78H635.75L635.792 318.216ZM669.346 253.784V259.221H702.688V253.784H669.346ZM669.346 269.775H702.688V264.339H669.304L669.346 269.775ZM669.346 280.394H702.688V274.957H669.304L669.346 280.394Z" fill="#9DA590"/>
<path d="M795.887 264.188C807.067 253.008 807.067 234.883 795.887 223.703C784.708 212.523 766.582 212.523 755.402 223.703C744.223 234.883 744.223 253.008 755.403 264.188C766.582 275.367 784.708 275.367 795.887 264.188Z" fill="#C35831"/>
<g style="mix-blend-mode:multiply">
<path d="M775.655 268.078C788.979 268.078 799.78 257.277 799.78 243.953C799.78 230.629 788.979 219.828 775.655 219.828C762.331 219.828 751.53 230.629 751.53 243.953C751.53 257.277 762.331 268.078 775.655 268.078Z" fill="#C35831"/>
</g>
<path d="M797.741 243.982C797.736 248.35 796.437 252.618 794.008 256.247C791.579 259.876 788.128 262.704 784.092 264.372C780.056 266.041 775.616 266.475 771.333 265.62C767.05 264.766 763.116 262.661 760.03 259.571C756.943 256.481 754.842 252.546 753.991 248.262C753.141 243.978 753.579 239.539 755.252 235.504C756.924 231.47 759.755 228.022 763.386 225.596C767.018 223.17 771.287 221.875 775.654 221.875C778.557 221.875 781.43 222.447 784.111 223.558C786.792 224.67 789.228 226.298 791.279 228.351C793.33 230.405 794.957 232.842 796.066 235.524C797.174 238.206 797.743 241.08 797.741 243.982Z" fill="#FAEBDD"/>
<path d="M775.656 221.869C780.033 221.847 784.318 223.126 787.967 225.543C791.617 227.959 794.467 231.404 796.156 235.442C797.846 239.48 798.299 243.928 797.458 248.223C796.617 252.519 794.52 256.468 791.432 259.57C788.345 262.673 784.406 264.789 780.115 265.65C775.823 266.512 771.373 266.08 767.327 264.41C763.281 262.74 759.822 259.907 757.388 256.269C754.954 252.631 753.655 248.353 753.655 243.976C753.655 238.116 755.981 232.496 760.123 228.351C764.264 224.206 769.882 221.874 775.741 221.869M775.741 220.977C771.192 220.972 766.743 222.318 762.958 224.842C759.173 227.367 756.222 230.958 754.478 235.16C752.734 239.362 752.275 243.987 753.16 248.45C754.045 252.913 756.234 257.013 759.45 260.231C762.665 263.45 766.763 265.643 771.225 266.532C775.687 267.421 780.313 266.967 784.517 265.227C788.72 263.486 792.314 260.539 794.842 256.756C797.37 252.973 798.719 248.526 798.719 243.976C798.714 237.881 796.292 232.038 791.984 227.727C787.677 223.415 781.836 220.988 775.741 220.977Z" fill="#282F39"/>
<path d="M780.37 262.501C780.385 262.557 780.39 262.615 780.382 262.672C780.374 262.73 780.355 262.785 780.325 262.835C780.295 262.885 780.256 262.928 780.208 262.962C780.161 262.996 780.108 263.019 780.051 263.032C779.992 263.047 779.931 263.051 779.871 263.042C779.811 263.033 779.753 263.013 779.702 262.981C779.65 262.949 779.605 262.907 779.57 262.857C779.536 262.808 779.511 262.751 779.499 262.692L775.252 243.961C775.226 243.846 775.248 243.725 775.312 243.625C775.375 243.526 775.476 243.456 775.591 243.43C775.647 243.414 775.706 243.41 775.763 243.418C775.821 243.425 775.876 243.445 775.926 243.475C775.975 243.504 776.019 243.544 776.052 243.591C776.086 243.638 776.11 243.692 776.122 243.749L780.37 262.501Z" fill="#C35831"/>
<path opacity="0.7" d="M775.656 224.078C775.446 224.078 775.244 224.16 775.093 224.307C774.942 224.454 774.855 224.654 774.849 224.864V227.264C774.88 227.453 774.977 227.624 775.123 227.748C775.269 227.872 775.454 227.94 775.646 227.94C775.837 227.94 776.022 227.872 776.168 227.748C776.314 227.624 776.411 227.453 776.442 227.264V224.864C776.437 224.657 776.352 224.46 776.206 224.314C776.06 224.168 775.863 224.083 775.656 224.078ZM766.801 227.03C766.69 226.848 766.514 226.716 766.308 226.66C766.102 226.605 765.883 226.631 765.696 226.733C765.514 226.843 765.382 227.021 765.33 227.228C765.279 227.435 765.311 227.654 765.42 227.837L766.609 229.961C766.66 230.052 766.729 230.133 766.811 230.197C766.893 230.262 766.988 230.309 767.088 230.337C767.189 230.365 767.295 230.372 767.398 230.358C767.502 230.345 767.602 230.311 767.692 230.258C767.874 230.147 768.007 229.971 768.062 229.765C768.118 229.56 768.092 229.341 767.99 229.154L766.801 227.03ZM761.576 234.93L759.453 233.741C759.272 233.634 759.057 233.603 758.854 233.655C758.651 233.706 758.477 233.837 758.37 234.017C758.263 234.197 758.232 234.412 758.283 234.616C758.335 234.819 758.465 234.993 758.646 235.1L760.769 236.31C760.86 236.362 760.96 236.395 761.063 236.408C761.167 236.421 761.272 236.414 761.372 236.386C761.473 236.358 761.567 236.311 761.649 236.247C761.732 236.183 761.801 236.104 761.852 236.013C761.904 235.922 761.937 235.823 761.95 235.719C761.963 235.616 761.956 235.511 761.928 235.41C761.9 235.309 761.853 235.215 761.789 235.133C761.725 235.051 761.646 234.982 761.555 234.93H761.576ZM759.729 243.956C759.729 243.747 759.646 243.547 759.499 243.4C759.351 243.253 759.151 243.17 758.943 243.17H756.564C756.449 243.151 756.331 243.157 756.218 243.189C756.105 243.22 756.001 243.275 755.911 243.351C755.822 243.427 755.751 243.521 755.702 243.627C755.652 243.734 755.627 243.849 755.627 243.966C755.627 244.083 755.652 244.199 755.702 244.305C755.751 244.411 755.822 244.506 755.911 244.581C756.001 244.657 756.105 244.713 756.218 244.744C756.331 244.775 756.449 244.782 756.564 244.763H758.943C759.048 244.763 759.152 244.742 759.249 244.701C759.345 244.66 759.433 244.6 759.506 244.525C759.579 244.45 759.637 244.361 759.675 244.263C759.713 244.165 759.731 244.061 759.729 243.956ZM760.79 251.622L758.667 252.833C758.575 252.883 758.494 252.952 758.43 253.035C758.366 253.117 758.319 253.213 758.294 253.314C758.268 253.416 758.263 253.522 758.28 253.625C758.296 253.728 758.334 253.827 758.391 253.916C758.442 254.007 758.51 254.088 758.592 254.152C758.675 254.217 758.769 254.264 758.87 254.292C758.971 254.32 759.076 254.327 759.18 254.313C759.284 254.3 759.383 254.266 759.474 254.213L761.597 253.002C761.688 252.951 761.768 252.882 761.832 252.8C761.896 252.717 761.943 252.623 761.97 252.523C761.998 252.422 762.006 252.317 761.993 252.213C761.98 252.11 761.946 252.01 761.895 251.919C761.843 251.829 761.774 251.749 761.692 251.685C761.61 251.621 761.515 251.574 761.415 251.546C761.314 251.519 761.209 251.511 761.106 251.524C761.002 251.537 760.902 251.571 760.812 251.622H760.79ZM767.692 257.738C767.602 257.686 767.502 257.651 767.398 257.638C767.295 257.624 767.189 257.631 767.088 257.659C766.988 257.687 766.893 257.734 766.811 257.799C766.729 257.864 766.66 257.944 766.609 258.036L765.42 260.159C765.311 260.342 765.279 260.561 765.33 260.768C765.382 260.975 765.514 261.153 765.696 261.264C765.883 261.365 766.102 261.391 766.308 261.336C766.514 261.281 766.69 261.148 766.801 260.966L767.99 258.843C768.043 258.751 768.077 258.649 768.091 258.544C768.105 258.438 768.098 258.331 768.071 258.229C768.043 258.126 767.995 258.03 767.93 257.946C767.866 257.862 767.785 257.791 767.692 257.738ZM775.656 259.862C775.551 259.859 775.447 259.877 775.349 259.916C775.251 259.954 775.162 260.011 775.087 260.084C775.012 260.158 774.952 260.245 774.911 260.342C774.87 260.439 774.849 260.543 774.849 260.648V263.047C774.88 263.236 774.977 263.408 775.123 263.532C775.269 263.656 775.454 263.724 775.646 263.724C775.837 263.724 776.022 263.656 776.168 263.532C776.314 263.408 776.411 263.236 776.442 263.047V260.648C776.436 260.443 776.351 260.249 776.204 260.106C776.058 259.963 775.861 259.883 775.656 259.883V259.862ZM784.682 258.014C784.631 257.923 784.563 257.842 784.48 257.778C784.398 257.713 784.304 257.666 784.203 257.638C784.102 257.61 783.996 257.603 783.893 257.617C783.789 257.63 783.689 257.664 783.599 257.717C783.418 257.824 783.286 257.996 783.231 258.198C783.175 258.4 783.201 258.616 783.301 258.8L784.512 260.924C784.563 261.015 784.631 261.096 784.713 261.16C784.796 261.225 784.89 261.272 784.991 261.3C785.092 261.328 785.197 261.335 785.301 261.322C785.405 261.308 785.505 261.274 785.595 261.221C785.777 261.111 785.909 260.934 785.965 260.728C786.02 260.523 785.994 260.304 785.892 260.117L784.682 258.014ZM792.582 252.811L790.458 251.601C790.271 251.499 790.052 251.473 789.846 251.528C789.641 251.584 789.464 251.716 789.354 251.898C789.301 251.989 789.267 252.088 789.253 252.192C789.24 252.296 789.247 252.401 789.275 252.502C789.302 252.603 789.35 252.697 789.415 252.78C789.479 252.862 789.56 252.93 789.651 252.981L791.775 254.192C791.959 254.293 792.174 254.318 792.377 254.262C792.579 254.207 792.751 254.075 792.858 253.894C792.959 253.716 792.987 253.506 792.936 253.307C792.884 253.109 792.757 252.939 792.582 252.833V252.811ZM794.705 243.149H792.306C792.117 243.18 791.945 243.277 791.821 243.423C791.697 243.568 791.629 243.754 791.629 243.945C791.629 244.136 791.697 244.322 791.821 244.468C791.945 244.613 792.117 244.71 792.306 244.741H794.705C794.894 244.71 795.066 244.613 795.19 244.468C795.314 244.322 795.382 244.136 795.382 243.945C795.382 243.754 795.314 243.568 795.19 243.423C795.066 243.277 794.894 243.18 794.705 243.149ZM790.458 236.289L792.582 235.079C792.673 235.028 792.754 234.959 792.818 234.877C792.883 234.795 792.931 234.701 792.958 234.6C792.986 234.499 792.993 234.393 792.98 234.29C792.966 234.186 792.932 234.086 792.879 233.996C792.827 233.906 792.757 233.828 792.674 233.765C792.591 233.703 792.496 233.657 792.395 233.631C792.295 233.606 792.19 233.6 792.087 233.615C791.984 233.631 791.885 233.666 791.796 233.72L789.672 234.909C789.581 234.96 789.501 235.028 789.436 235.11C789.371 235.193 789.324 235.287 789.296 235.388C789.268 235.489 789.261 235.594 789.275 235.698C789.288 235.802 789.322 235.902 789.375 235.992C789.428 236.089 789.5 236.175 789.587 236.244C789.674 236.314 789.774 236.364 789.881 236.394C789.988 236.424 790.1 236.432 790.21 236.417C790.32 236.403 790.426 236.367 790.522 236.31L790.458 236.289ZM785.51 226.733C785.42 226.68 785.32 226.646 785.216 226.632C785.112 226.619 785.007 226.626 784.906 226.654C784.805 226.681 784.711 226.729 784.628 226.794C784.546 226.858 784.478 226.939 784.427 227.03L783.216 229.154C783.115 229.341 783.089 229.56 783.144 229.765C783.199 229.971 783.332 230.147 783.514 230.258C783.604 230.311 783.704 230.345 783.808 230.358C783.912 230.372 784.017 230.365 784.118 230.337C784.219 230.309 784.313 230.262 784.395 230.197C784.478 230.133 784.546 230.052 784.597 229.961L785.807 227.837C785.909 227.65 785.935 227.431 785.88 227.225C785.825 227.02 785.692 226.843 785.51 226.733Z" fill="#282F39"/>
<path d="M777.015 244.758C776.936 244.894 776.831 245.013 776.706 245.108C776.581 245.203 776.438 245.272 776.286 245.311C776.134 245.351 775.976 245.36 775.82 245.338C775.665 245.316 775.515 245.263 775.38 245.183L766.885 240.086C766.751 240.005 766.635 239.899 766.542 239.773C766.449 239.647 766.382 239.504 766.344 239.352C766.307 239.2 766.3 239.042 766.323 238.888C766.347 238.733 766.401 238.585 766.482 238.451C766.563 238.317 766.669 238.2 766.795 238.107C766.921 238.014 767.064 237.947 767.216 237.91C767.368 237.872 767.525 237.865 767.68 237.889C767.835 237.912 767.983 237.966 768.117 238.047L776.612 243.123C776.746 243.204 776.863 243.31 776.955 243.436C777.048 243.562 777.115 243.705 777.153 243.857C777.19 244.009 777.197 244.166 777.174 244.321C777.15 244.476 777.096 244.624 777.015 244.758Z" fill="#282F39"/>
<path d="M775.252 245.117C775.029 244.891 774.904 244.586 774.904 244.268C774.904 243.95 775.029 243.645 775.252 243.418L786.38 232.354C786.603 232.132 786.905 232.008 787.219 232.008C787.534 232.008 787.835 232.132 788.058 232.354C788.281 232.581 788.406 232.886 788.406 233.204C788.406 233.521 788.281 233.827 788.058 234.053L777.015 245.117C776.904 245.24 776.768 245.339 776.616 245.406C776.464 245.473 776.3 245.508 776.134 245.508C775.968 245.508 775.804 245.473 775.652 245.406C775.5 245.339 775.364 245.24 775.252 245.117Z" fill="#282F39"/>
<path d="M775.655 247.08C777.379 247.08 778.777 245.682 778.777 243.958C778.777 242.234 777.379 240.836 775.655 240.836C773.931 240.836 772.533 242.234 772.533 243.958C772.533 245.682 773.931 247.08 775.655 247.08Z" fill="#C35831"/>
<g style="mix-blend-mode:screen" opacity="0.5">
<path d="M775.655 221.875C771.269 221.874 766.982 223.178 763.34 225.622C759.699 228.067 756.867 231.539 755.207 235.599C753.546 239.658 753.132 244.119 754.016 248.415C754.901 252.711 757.044 256.646 760.173 259.719L791.03 228.119C786.909 224.122 781.395 221.883 775.655 221.875Z" fill="white"/>
</g>
<path d="M347.737 300.958C347.737 301.701 347.568 302.529 346.824 302.529H288.19L265.7 280.273V221.639C265.7 220.896 266.762 220.492 267.505 220.492H346.824C347.568 220.492 347.737 220.896 347.737 221.639V300.958Z" fill="#FAEBDD"/>
<path d="M265.7 276.461H347.737V275.781H265.7V276.461ZM270.415 284.679H347.737V284H269.735L270.415 284.679ZM265.7 280.199L266.316 280.581H347.737V279.88H265.7V280.199ZM274.513 288.693H347.737V288.014H273.834L274.513 288.693ZM282.711 296.891H347.737V296.211H282.031L282.711 296.891ZM278.612 292.792H347.737V292.112H277.954L278.612 292.792ZM265.7 264.08H347.737V263.4H265.7V264.08ZM265.7 251.763H347.737V251.083H265.7V251.763ZM265.7 255.883H347.737V255.182H265.7V255.883ZM265.7 246.984V247.664H347.737V246.984H265.7ZM265.7 268.221H347.737V267.541H265.7V268.221ZM265.7 272.32H347.737V271.64H265.7V272.32ZM265.7 260.024H347.737V259.472H265.7V260.024Z" fill="#EAC98A"/>
<path d="M346.824 220.492H267.505C266.762 220.492 265.7 220.896 265.7 221.639V240.986H347.737V221.639C347.737 220.896 347.568 220.492 346.824 220.492Z" fill="#C35831"/>
<path d="M286.661 280.711H266.316L287.553 302.202V281.858C287.574 281.051 287.404 280.711 286.661 280.711Z" fill="#EAC31D"/>
<path d="M294.135 252.562C294.135 253.327 293.944 254.24 293.201 254.24H215.007C214.569 254.183 214.16 253.99 213.836 253.69C213.513 253.389 213.291 252.995 213.202 252.562V174.39C213.202 173.625 214.243 173.328 215.007 173.328H293.201C293.944 173.328 294.135 173.625 294.135 174.39V252.562Z" fill="#282F39"/>
<path d="M294.135 253.274C294.135 253.677 294.262 254.229 293.88 254.229H254.125C253.743 254.229 253.021 253.677 253.021 253.274V214.262C253.021 213.858 253.743 213.773 254.125 213.773H293.88C294.262 213.773 294.135 213.773 294.135 214.262V253.274Z" fill="#C35831"/>
<g style="mix-blend-mode:multiply">
<path d="M294.135 213.123H254.338V173.305H253V213.123H213.202V214.44H253V254.238H254.338V214.44H294.135V213.123Z" fill="#282F39"/>
</g>
<path d="M282.201 190.562H264.299V196.53H282.201V190.562Z" fill="#EAC31D"/>
<path d="M264.299 225.719V231.686H282.201V225.719H264.299ZM264.299 242.305H282.201V236.337H264.299V242.305Z" fill="#EAC31D"/>
<path d="M242.404 190.551H236.437V184.562H230.448V190.551H224.48V196.519H230.448V202.486H236.437V196.519H242.404V190.551Z" fill="#EAC31D"/>
<path d="M241.639 237.993L237.434 233.767L241.639 229.562L237.434 225.336L233.208 229.562L228.982 225.336L224.756 229.562L228.982 233.767L224.756 237.993L228.982 242.219L233.208 237.993L237.434 242.219L241.639 237.993Z" fill="#EAC31D"/>
<path d="M81.0459 464.181C81.0459 463.416 81.2158 462.609 81.9803 462.609H140.594L163.083 484.865V573.21C163.083 573.975 162.043 574.378 161.278 574.378H81.9803C81.2158 574.378 81.0459 573.975 81.0459 573.21V464.181Z" fill="#FAEBDD"/>
<path d="M142.143 484.585H162.467L141.23 463.094V483.417C141.209 484.076 141.379 484.585 142.143 484.585Z" fill="#C35831"/>
<path d="M95.2337 477.156H88.1406V482.593H95.2337V477.156Z" fill="#77763F"/>
<path d="M135.923 477.156H98.759V482.593H135.923V477.156ZM135.923 485.651H88.1619V491.088H135.923V485.651ZM88.1406 542.204H155.057V536.768H88.1406V542.204ZM88.1406 553.842H155.057V548.405H88.1406V553.842ZM88.1406 565.48H155.057V560.043H88.1406V565.48ZM121.673 501.048V506.484H155.057V501.048H121.673ZM121.673 517.039H155.057V511.602H121.673V517.039ZM121.673 527.657H155.057V522.22H121.673V527.657Z" fill="#9DA590"/>
<path d="M117.148 499.07H114.388V533.325H117.148V499.07Z" fill="#5A6F8A"/>
<path d="M112.794 499.781H110.033V533.335H112.794V499.781Z" fill="#4E703A"/>
<path d="M108.42 502.148H105.659V533.324H108.42V502.148Z" fill="#A72714"/>
<path d="M104.046 519.414H101.285V533.324H104.046V519.414Z" fill="#9BA798"/>
<path d="M99.6709 509.906H96.9102V533.33H99.6709V509.906Z" fill="#C35D19"/>
<path d="M95.2969 523.195H92.5361V533.325H95.2969V523.195Z" fill="#A0B241"/>
<path d="M90.9414 516.227H88.1807V533.322H90.9414V516.227Z" fill="#712712"/>
<path d="M87.34 565.302L54.769 597.873C53.4172 599.224 53.4172 601.416 54.769 602.768L55.9853 603.984C57.3372 605.336 59.5289 605.336 60.8808 603.984L93.4518 571.413C94.8036 570.062 94.8036 567.87 93.4517 566.518L92.2354 565.302C90.8836 563.95 88.6918 563.95 87.34 565.302Z" fill="#EAC31D"/>
<path d="M79.164 570.236L70.9349 578.465C70.5534 578.847 70.5534 579.466 70.9349 579.847L79.164 588.076C79.5455 588.458 80.1641 588.458 80.5456 588.076L88.7747 579.847C89.1562 579.466 89.1561 578.847 88.7746 578.465L80.5456 570.236C80.1641 569.855 79.5455 569.855 79.164 570.236Z" fill="#C35831"/>
<path d="M128.552 558.702C128.552 564.624 126.796 570.413 123.506 575.337C120.216 580.262 115.539 584.1 110.068 586.366C104.596 588.632 98.5755 589.225 92.767 588.07C86.9585 586.914 81.6231 584.063 77.4354 579.875C73.2477 575.687 70.3958 570.352 69.2404 564.543C68.085 558.735 68.678 552.714 70.9444 547.243C73.2108 541.771 77.0487 537.095 81.9729 533.804C86.8971 530.514 92.6865 528.758 98.6088 528.758C106.55 528.758 114.167 531.913 119.782 537.528C125.398 543.144 128.552 550.76 128.552 558.702Z" fill="#C35831"/>
<path d="M122.414 558.691C122.419 563.401 121.026 568.005 118.413 571.923C115.799 575.841 112.083 578.896 107.733 580.701C103.383 582.506 98.5961 582.98 93.9767 582.064C89.3573 581.148 85.1135 578.882 81.782 575.554C78.4505 572.225 76.1811 567.983 75.2608 563.365C74.3405 558.746 74.8107 553.958 76.6119 549.607C78.4131 545.256 81.4644 541.537 85.3798 538.92C89.2952 536.303 93.8987 534.906 98.6081 534.906C104.918 534.906 110.97 537.411 115.434 541.871C119.898 546.331 122.409 552.381 122.414 558.691Z" fill="#FAEBDD"/>
<path d="M98.6098 534.914C103.319 534.914 107.923 536.31 111.838 538.927C115.754 541.544 118.805 545.263 120.606 549.615C122.407 553.966 122.877 558.754 121.957 563.372C121.037 567.991 118.767 572.233 115.436 575.561C112.104 578.89 107.861 581.155 103.241 582.071C98.6218 582.988 93.8345 582.513 89.4848 580.708C85.1352 578.903 81.4186 575.848 78.8053 571.931C76.192 568.013 74.7993 563.408 74.8035 558.699C74.8035 555.573 75.4194 552.479 76.6161 549.592C77.8127 546.704 79.5666 544.082 81.7775 541.873C83.9884 539.664 86.613 537.912 89.5012 536.718C92.3893 535.524 95.4846 534.911 98.6098 534.914ZM98.6098 533.703C93.6662 533.703 88.8335 535.169 84.723 537.916C80.6125 540.662 77.4088 544.566 75.5169 549.133C73.6251 553.701 73.1301 558.726 74.0945 563.575C75.059 568.424 77.4396 572.878 80.9353 576.373C84.431 579.869 88.8848 582.25 93.7334 583.214C98.5821 584.178 103.608 583.683 108.175 581.792C112.743 579.9 116.646 576.696 119.393 572.585C122.139 568.475 123.605 563.642 123.605 558.699C123.6 552.071 120.965 545.717 116.278 541.03C111.592 536.344 105.237 533.709 98.6098 533.703Z" fill="white"/>
<path opacity="0.5" d="M114.176 543.888C118.275 551.682 113.667 562.152 103.898 567.248C94.1288 572.345 82.8946 570.179 78.8171 562.385C74.7397 554.591 79.348 544.143 89.0957 539.025C98.8433 533.907 110.184 536.094 114.176 543.888Z" fill="white"/>
<path opacity="0.5" d="M102.176 541.052C104.3 545.299 101.922 550.927 96.6548 553.688C91.3881 556.449 85.3357 555.259 83.1271 551.033C80.9184 546.807 83.3819 541.158 88.6486 538.397C93.9153 535.637 99.9677 536.847 102.176 541.052Z" fill="white"/>
<path d="M180.138 529.102H173.767V533.349H180.138V529.102Z" fill="#1C4670"/>
<path d="M276.996 533.435H264.891V529.188H276.996V533.435ZM252.786 533.435H240.681V529.188H252.786V533.435ZM228.576 533.435H216.365V529.188H228.491L228.576 533.435ZM204.345 533.435H192.24V529.188H204.345V533.435Z" fill="#1C4670"/>
<path d="M295.474 529.102H289.103V533.349H295.474V529.102Z" fill="#1C4670"/>
<path d="M301.44 652.622H293.179V648.375H301.44V652.622ZM280.437 652.622H267.695V648.375H280.437V652.622ZM254.953 652.622H242.211V648.375H254.953V652.622ZM229.469 652.622H216.727V648.375H229.469V652.622Z" fill="#1C4670"/>
<path d="M489.023 391.512H484.775V385.311H489.023V391.512ZM489.023 372.569H484.775V359.827H489.023V372.569ZM489.023 347.085H484.775V334.343H489.023V347.085ZM489.023 321.601H484.775V308.859H489.023V321.601ZM489.023 296.117H484.775V283.375H489.023V296.117ZM489.023 270.633H484.775V257.891H489.023V270.633Z" fill="#1C4670"/>
<path d="M680.559 426.379H673.19V422.132H676.311V416.78H680.559V426.379ZM660.448 426.379H647.706V422.132H660.448V426.379ZM634.964 426.379H622.222V422.132H634.964V426.379ZM680.559 404.038H676.311V391.296H680.559V404.038ZM680.559 378.554H676.311V365.812H680.559V378.554ZM680.559 353.07H676.311V340.328H680.559V353.07Z" fill="#1C4670"/>
<path d="M329.43 461.099H316.688V456.852H329.43V461.099ZM314.31 450.735H310.062V437.993H314.31V450.735ZM314.31 425.251H310.062V412.509H314.31V425.251ZM314.31 399.767H310.062V387.025H314.31V399.767ZM311.549 377.044H298.807V372.797H311.549V377.044ZM286.065 377.044H273.323V372.797H286.065V377.044ZM260.581 377.044H247.839V372.797H260.581V377.044ZM235.097 377.044H222.355V372.797H235.097V377.044ZM209.613 377.044H196.871V372.797H209.613V377.044ZM184.129 377.044H171.387V372.797H184.129V377.044Z" fill="#1C4670"/>
<path d="M380.038 413.134H375.79V407.188H380.038V413.134ZM380.038 394.446H375.79V381.704H380.038V394.446ZM380.038 368.962H375.79V356.22H380.038V368.962ZM380.038 343.478H375.79V330.736H380.038V343.478ZM380.038 317.994H375.79V305.252H380.038V317.994ZM380.038 292.51H375.79V279.768H380.038V292.51ZM369.058 278.005H356.316V273.758H369.058V278.005Z" fill="#1C4670"/>
<path d="M758.391 509.482H751.319V505.234H758.391V509.482ZM738.577 509.482H725.835V505.234H738.577V509.482ZM713.093 509.482H700.351V505.234H713.093V509.482ZM687.609 509.482H674.867V505.234H687.609V509.482Z" fill="#1C4670"/>
<path d="M734.541 626.411H725.834V622.164H734.541V626.411ZM713.071 626.411H700.329V622.164H713.071V626.411ZM687.587 626.411H674.845V622.164H687.587V626.411Z" fill="#1C4670"/>
<path d="M619.115 711.858C691.874 639.099 691.874 521.135 619.115 448.377C546.357 375.618 428.392 375.618 355.634 448.377C282.876 521.135 282.876 639.099 355.634 711.858C428.393 784.616 546.357 784.616 619.115 711.858Z" fill="#C35831"/>
<g style="mix-blend-mode:multiply">
<path d="M640.564 615.147C659.89 530.558 606.985 446.318 522.396 426.991C437.807 407.664 353.566 460.569 334.239 545.158C314.913 629.747 367.818 713.988 452.407 733.315C536.996 752.642 621.237 699.736 640.564 615.147Z" fill="#C35831"/>
</g>
<path d="M631.162 580.161C631.162 608.6 622.729 636.401 606.929 660.048C591.129 683.695 568.671 702.125 542.396 713.009C516.121 723.892 487.209 726.74 459.316 721.191C431.423 715.643 405.801 701.948 385.691 681.838C365.582 661.728 351.887 636.107 346.338 608.213C340.79 580.32 343.637 551.408 354.521 525.133C365.404 498.858 383.835 476.401 407.481 460.601C431.128 444.801 458.929 436.367 487.369 436.367C525.505 436.367 562.08 451.517 589.046 478.483C616.013 505.45 631.162 542.024 631.162 580.161Z" fill="#FAEBDD"/>
<path d="M487.367 436.321C515.805 436.321 543.604 444.753 567.25 460.552C590.896 476.35 609.326 498.805 620.211 525.077C631.095 551.35 633.945 580.26 628.401 608.152C622.856 636.044 609.165 661.665 589.059 681.777C568.954 701.889 543.336 715.587 515.446 721.14C487.555 726.693 458.644 723.852 432.369 712.975C406.093 702.098 383.633 683.674 367.828 660.033C352.022 636.392 343.582 608.595 343.573 580.157C343.571 561.273 347.288 542.573 354.513 525.126C361.739 507.679 372.33 491.826 385.683 478.473C399.036 465.12 414.889 454.529 432.336 447.303C449.783 440.078 468.483 436.361 487.367 436.364M487.367 430.523C457.771 430.519 428.839 439.292 404.229 455.731C379.619 472.17 360.437 495.538 349.108 522.88C337.78 550.222 334.813 580.309 340.585 609.336C346.356 638.364 360.605 665.028 381.531 685.957C402.457 706.885 429.119 721.139 458.146 726.914C487.172 732.689 517.26 729.727 544.603 718.403C571.946 707.078 595.317 687.899 611.76 663.291C628.203 638.684 636.979 609.753 636.979 580.157C636.94 540.488 621.165 502.454 593.117 474.401C565.068 446.348 527.036 430.568 487.367 430.523Z" fill="#282F39"/>
<path d="M518.161 700.86C518.334 701.603 518.209 702.384 517.812 703.036C517.415 703.687 516.777 704.157 516.037 704.343C515.292 704.517 514.508 704.392 513.853 703.995C513.198 703.598 512.724 702.961 512.533 702.219L484.543 580.151C484.369 579.405 484.494 578.621 484.891 577.966C485.288 577.311 485.926 576.837 486.667 576.646C487.41 576.473 488.192 576.598 488.843 576.996C489.494 577.393 489.964 578.03 490.15 578.77L518.161 700.86Z" fill="#C35831"/>
<path opacity="0.7" d="M487.367 450.609C485.992 450.609 484.674 451.155 483.703 452.127C482.731 453.099 482.185 454.417 482.185 455.791V471.336C482.185 472.711 482.731 474.029 483.703 475C484.674 475.972 485.992 476.518 487.367 476.518C488.741 476.518 490.059 475.972 491.031 475C492.003 474.029 492.548 472.711 492.548 471.336V455.791C492.548 454.417 492.003 453.099 491.031 452.127C490.059 451.155 488.741 450.609 487.367 450.609ZM429.709 469.85C429.022 468.659 427.89 467.789 426.562 467.433C425.233 467.076 423.818 467.262 422.627 467.949C421.435 468.636 420.566 469.768 420.21 471.097C419.853 472.425 420.039 473.84 420.726 475.032L428.499 488.496C428.839 489.085 429.292 489.602 429.832 490.017C430.372 490.432 430.989 490.736 431.646 490.913C432.304 491.089 432.99 491.134 433.665 491.046C434.34 490.957 434.991 490.737 435.581 490.396C436.171 490.056 436.688 489.603 437.103 489.063C437.517 488.523 437.822 487.906 437.998 487.249C438.175 486.591 438.22 485.905 438.131 485.23C438.043 484.555 437.822 483.904 437.482 483.314L429.709 469.85ZM395.73 521.221L382.266 513.449C381.075 512.762 379.66 512.576 378.332 512.932C377.003 513.289 375.871 514.158 375.184 515.349C374.497 516.541 374.311 517.956 374.668 519.284C375.024 520.612 375.893 521.745 377.085 522.432L390.549 530.204C391.139 530.545 391.79 530.765 392.465 530.854C393.14 530.943 393.826 530.897 394.484 530.721C395.141 530.544 395.758 530.24 396.298 529.825C396.838 529.411 397.291 528.894 397.631 528.304C397.971 527.714 398.192 527.063 398.281 526.388C398.369 525.713 398.324 525.027 398.148 524.369C397.971 523.711 397.667 523.095 397.252 522.555C396.837 522.015 396.32 521.562 395.73 521.221ZM383.795 580.153C383.795 578.779 383.25 577.461 382.278 576.489C381.306 575.517 379.988 574.971 378.614 574.971H363.068C361.694 574.971 360.376 575.517 359.404 576.489C358.433 577.461 357.887 578.779 357.887 580.153C357.887 581.527 358.433 582.845 359.404 583.817C360.376 584.789 361.694 585.335 363.068 585.335H378.614C379.986 585.329 381.301 584.782 382.272 583.811C383.242 582.84 383.79 581.526 383.795 580.153ZM390.591 630.038L377.127 637.811C376.537 638.151 376.02 638.604 375.606 639.144C375.191 639.684 374.886 640.301 374.71 640.958C374.533 641.616 374.488 642.302 374.577 642.977C374.665 643.652 374.886 644.303 375.226 644.893C375.567 645.483 376.02 646 376.56 646.415C377.1 646.829 377.716 647.134 378.374 647.31C379.032 647.487 379.718 647.532 380.393 647.443C381.068 647.355 381.719 647.134 382.309 646.794L395.773 639.021C396.964 638.334 397.834 637.202 398.19 635.874C398.547 634.545 398.361 633.13 397.674 631.939C396.986 630.748 395.854 629.878 394.526 629.522C393.198 629.165 391.782 629.351 390.591 630.038ZM435.57 669.857C434.983 669.514 434.333 669.292 433.658 669.202C432.984 669.111 432.299 669.155 431.641 669.331C430.984 669.507 430.368 669.81 429.829 670.225C429.289 670.64 428.837 671.157 428.499 671.747L420.726 685.211C420.039 686.402 419.853 687.818 420.21 689.146C420.566 690.474 421.435 691.606 422.627 692.293C423.818 692.98 425.233 693.166 426.562 692.81C427.89 692.453 429.022 691.584 429.709 690.393L437.482 676.929C437.827 676.337 438.052 675.683 438.142 675.004C438.233 674.325 438.188 673.634 438.011 672.973C437.833 672.311 437.526 671.691 437.107 671.149C436.688 670.607 436.166 670.153 435.57 669.814V669.857ZM487.367 683.724C485.992 683.724 484.674 684.27 483.703 685.242C482.731 686.214 482.185 687.532 482.185 688.906V704.451C482.185 705.826 482.731 707.144 483.703 708.115C484.674 709.087 485.992 709.633 487.367 709.633C488.741 709.633 490.059 709.087 491.031 708.115C492.003 707.144 492.548 705.826 492.548 704.451V688.906C492.554 688.222 492.424 687.544 492.166 686.91C491.908 686.277 491.528 685.7 491.046 685.215C490.564 684.729 489.991 684.343 489.36 684.08C488.728 683.817 488.051 683.682 487.367 683.682V683.724ZM546.235 671.747C545.913 671.124 545.468 670.573 544.927 670.128C544.386 669.682 543.76 669.351 543.087 669.154C542.414 668.957 541.709 668.899 541.013 668.983C540.317 669.066 539.645 669.291 539.038 669.641C538.432 669.992 537.902 670.463 537.483 671.024C537.063 671.585 536.761 672.226 536.596 672.907C536.431 673.588 536.406 674.296 536.522 674.987C536.639 675.678 536.894 676.339 537.273 676.929L545.046 690.393C545.368 691.015 545.813 691.566 546.354 692.012C546.895 692.457 547.52 692.789 548.193 692.985C548.866 693.182 549.572 693.241 550.267 693.157C550.963 693.073 551.635 692.849 552.242 692.498C552.849 692.147 553.378 691.677 553.798 691.116C554.218 690.554 554.519 689.914 554.684 689.232C554.849 688.551 554.874 687.844 554.758 687.152C554.642 686.461 554.386 685.801 554.007 685.211L546.235 671.747ZM597.606 637.768L584.142 629.996C583.552 629.635 582.895 629.397 582.21 629.294C581.526 629.192 580.828 629.228 580.158 629.399C579.487 629.571 578.858 629.875 578.307 630.294C577.756 630.713 577.295 631.238 576.95 631.838C576.606 632.438 576.385 633.101 576.3 633.788C576.216 634.475 576.27 635.171 576.459 635.837C576.649 636.502 576.969 637.123 577.403 637.663C577.836 638.203 578.373 638.65 578.982 638.979L592.425 646.751C593.014 647.092 593.665 647.312 594.341 647.401C595.016 647.49 595.702 647.444 596.359 647.268C597.017 647.091 597.634 646.787 598.174 646.372C598.714 645.958 599.167 645.44 599.507 644.851C599.847 644.261 600.068 643.61 600.157 642.935C600.245 642.259 600.2 641.573 600.023 640.916C599.847 640.258 599.543 639.642 599.128 639.102C598.713 638.562 598.196 638.108 597.606 637.768ZM611.686 574.929H596.141C594.767 574.929 593.449 575.475 592.477 576.447C591.505 577.418 590.959 578.736 590.959 580.111C590.959 581.485 591.505 582.803 592.477 583.775C593.449 584.746 594.767 585.292 596.141 585.292H611.686C613.06 585.292 614.378 584.746 615.35 583.775C616.322 582.803 616.868 581.485 616.868 580.111C616.868 578.736 616.322 577.418 615.35 576.447C614.378 575.475 613.06 574.929 611.686 574.929ZM584.079 530.204L597.543 522.432C598.132 522.092 598.649 521.639 599.064 521.098C599.479 520.558 599.783 519.942 599.96 519.284C600.136 518.627 600.181 517.941 600.093 517.265C600.004 516.59 599.784 515.939 599.443 515.349C599.103 514.76 598.65 514.242 598.11 513.828C597.57 513.413 596.953 513.109 596.296 512.932C595.638 512.756 594.952 512.71 594.277 512.799C593.602 512.888 592.951 513.108 592.361 513.449L578.918 521.221C578.309 521.55 577.772 521.997 577.339 522.537C576.906 523.077 576.585 523.698 576.396 524.363C576.206 525.029 576.152 525.725 576.236 526.412C576.321 527.099 576.542 527.762 576.887 528.362C577.231 528.962 577.693 529.487 578.243 529.906C578.794 530.325 579.424 530.629 580.094 530.801C580.764 530.972 581.462 531.008 582.147 530.906C582.831 530.803 583.488 530.565 584.079 530.204ZM552.117 467.96C550.929 467.274 549.516 467.088 548.191 467.442C546.865 467.797 545.734 468.663 545.046 469.85L537.273 483.314C536.894 483.904 536.639 484.564 536.522 485.255C536.406 485.946 536.431 486.654 536.596 487.335C536.761 488.017 537.063 488.657 537.483 489.219C537.902 489.78 538.432 490.25 539.038 490.601C539.645 490.952 540.317 491.176 541.013 491.26C541.709 491.344 542.414 491.285 543.087 491.088C543.76 490.892 544.386 490.56 544.927 490.115C545.468 489.669 545.913 489.118 546.235 488.496L554.029 475.032C554.37 474.442 554.592 473.791 554.68 473.116C554.769 472.441 554.723 471.755 554.545 471.098C554.368 470.44 554.062 469.825 553.645 469.286C553.228 468.747 552.709 468.297 552.117 467.96Z" fill="#282F39"/>
<path d="M495.628 585.364C494.562 587.113 492.85 588.372 490.863 588.869C488.876 589.365 486.773 589.06 485.009 588.018L429.794 554.91C428.036 553.852 426.77 552.14 426.272 550.15C425.775 548.159 426.087 546.053 427.139 544.292C428.198 542.534 429.91 541.268 431.9 540.771C433.89 540.273 435.997 540.585 437.758 541.638L492.867 574.724C494.644 575.769 495.933 577.477 496.451 579.472C496.969 581.468 496.673 583.587 495.628 585.364Z" fill="#282F39"/>
<path d="M484.798 587.609C484.076 586.889 483.503 586.033 483.112 585.091C482.721 584.149 482.52 583.139 482.52 582.119C482.52 581.099 482.721 580.089 483.112 579.147C483.503 578.205 484.076 577.35 484.798 576.63L557.173 504.552C557.893 503.83 558.749 503.257 559.691 502.866C560.633 502.475 561.643 502.273 562.663 502.273C563.683 502.273 564.693 502.475 565.635 502.866C566.577 503.257 567.432 503.83 568.152 504.552C569.605 506.006 570.421 507.977 570.421 510.031C570.421 512.086 569.605 514.057 568.152 515.511L495.757 587.609C494.303 589.062 492.332 589.877 490.278 589.877C488.223 589.877 486.252 589.062 484.798 587.609Z" fill="#282F39"/>
<path d="M487.368 600.485C498.627 600.485 507.755 591.358 507.755 580.098C507.755 568.839 498.627 559.711 487.368 559.711C476.108 559.711 466.98 568.839 466.98 580.098C466.98 591.358 476.108 600.485 487.368 600.485Z" fill="#C35831"/>
<g style="mix-blend-mode:screen" opacity="0.5">
<path d="M487.369 436.305C458.82 436.298 430.916 444.792 407.213 460.704C383.51 476.616 365.082 499.226 354.277 525.651C343.472 552.076 340.78 581.12 346.545 609.081C352.309 637.042 366.269 662.653 386.644 682.65L587.479 476.888C560.682 450.818 524.756 436.254 487.369 436.305Z" fill="white"/>
</g>
<path d="M842.192 712.655H760.218C760.218 712.655 702.433 687.171 668.9 693.839C635.368 700.507 581.533 736.843 581.533 736.843C581.533 736.843 534.494 748.948 483.419 743.576C432.345 738.203 379.041 727.882 347.228 743.576C323.486 755.277 320.81 785.221 320.81 785.221L271.137 763.368C269.757 762.773 268.377 762.264 266.996 761.797C254.254 756.424 242.128 752.898 235.141 752.898C215.752 752.898 200.037 767.998 200.037 786.643C200.037 801.509 211.165 814.973 225.521 819.943L494.951 940.227C511.721 947.715 530.727 948.475 548.042 942.351L766.929 864.518H858.247L842.192 712.655Z" fill="#FFCCA5"/>
<path d="M407.241 787.723C405.287 806.262 381.417 817.709 362.134 815.691C342.851 813.674 327.072 795.24 329.026 776.701C330.98 758.161 348.139 744.846 367.443 746.8C386.747 748.753 409.173 769.162 407.241 787.723Z" fill="#FCD8BE"/>
<path d="M225.435 819.937L250.346 831.065C252.834 827.682 254.393 823.706 254.869 819.534C256.823 800.994 234.355 780.628 215.093 778.611C210.241 778.09 205.334 778.567 200.673 780.012C200.213 782.191 199.978 784.411 199.973 786.638C200.015 801.44 211.143 814.968 225.435 819.937Z" fill="#FCD8BE"/>
<g style="mix-blend-mode:multiply" opacity="0.5">
<path d="M852.426 808.939L785.297 808.514L547.956 904.673C530.641 910.798 511.635 910.038 494.865 902.55L228.451 807.176C226.157 806.39 215.347 801.421 201.098 794.625C202.85 800.475 205.972 805.823 210.205 810.225C214.437 814.628 219.658 817.958 225.435 819.939L494.865 940.224C511.635 947.712 530.641 948.472 547.956 942.347L766.928 864.515H858.245L852.426 808.939Z" fill="#FFCCA5"/>
</g>
<g style="mix-blend-mode:screen" opacity="0.3">
<path d="M240.491 772.16C247.435 772.16 259.604 775.685 272.346 781.058C273.726 781.525 275.107 782.035 276.487 782.651L326.159 804.504C326.159 804.504 328.835 774.539 352.578 762.837C384.433 747.143 437.694 757.464 488.769 762.837C539.843 768.21 586.882 756.105 586.882 756.105C586.882 756.105 644.667 732.363 678.2 725.652C711.733 718.941 765.546 731.917 765.546 731.917H844.122L841.998 712.655H760.025C760.025 712.655 702.24 687.171 668.707 693.839C635.174 700.507 581.339 736.843 581.339 736.843C581.339 736.843 534.3 748.948 483.226 743.576C432.152 738.203 378.848 727.882 347.035 743.576C323.293 755.277 320.617 785.221 320.617 785.221L270.944 763.368C269.564 762.773 268.183 762.264 266.803 761.797C254.061 756.424 241.935 752.898 234.948 752.898C215.559 752.898 199.844 767.998 199.844 786.643C199.921 792.936 201.816 799.073 205.302 804.312C205.906 795.456 209.9 787.173 216.453 781.185C223.007 775.197 231.616 771.965 240.491 772.16Z" fill="#FFCCA5"/>
</g>
<path d="M882.518 700.539H818.001V872.577H882.518V700.539Z" fill="white"/>
<path d="M882.518 809.242H818.001V872.591H882.518V809.242Z" fill="#E7FFFF"/>
<path d="M1000 688.914H862.365V884.249H1000V688.914Z" fill="#282F39"/>
<g style="mix-blend-mode:multiply" opacity="0.5">
<path d="M1000 814.555H862.365V884.232H1000V814.555Z" fill="#282F39"/>
</g>
<g style="mix-blend-mode:screen" opacity="0.3">
<path d="M1000 688.992H862.365V721.123H1000V688.992Z" fill="#282F39"/>
</g>
<g style="mix-blend-mode:multiply" opacity="0.5">
<path d="M585.31 842.142C586.875 841.729 588.216 840.721 589.048 839.333C589.879 837.945 590.135 836.286 589.761 834.712C589.387 833.138 588.412 831.772 587.045 830.906C585.678 830.041 584.026 829.744 582.443 830.079L524.573 843.31C524.573 843.31 433.256 841.505 390.166 836.132C347.077 830.759 322.082 816.424 320.659 785.291V785.185L314.054 782.297C300.76 844.053 391.908 850.467 391.908 850.467L529.946 855.839L585.31 842.142Z" fill="#FFCCA5"/>
</g>
</g>
<defs>
<clipPath id="clip0_84_1052">
<rect width="1000" height="974" fill="white"/>
</clipPath>
</defs>
</svg>
