<svg width="1133" height="1133" viewBox="0 0 1133 1133" fill="none" xmlns="http://www.w3.org/2000/svg">
<rect width="1133" height="1133" transform="translate(1133 1133) rotate(180)" fill="white"/>
<g style="mix-blend-mode:multiply">
<path d="M42.9727 840.047L527.779 1119.88C554.901 1135.52 598.868 1135.52 625.99 1119.88L1081.85 856.808C1108.97 841.132 1108.97 815.748 1081.85 800.1L597.041 520.273C569.918 504.597 525.951 504.597 498.829 520.273L42.9727 783.339C15.8503 798.987 15.8503 824.371 42.9727 840.047Z" fill="#E2E0E4"/>
</g>
<path d="M1102.09 785.592L1102.09 752.641L1075.74 753.897L596.955 477.439C569.833 461.791 525.866 461.791 498.744 477.439L47.3983 738.05L22.6455 735.794L22.6455 769.059C22.6455 779.282 29.4689 789.532 43.0016 797.328L527.808 1077.16C554.93 1092.83 598.897 1092.83 626.019 1077.16L1081.85 814.089C1095.38 806.351 1102.15 795.928 1102.09 785.592Z" fill="#1C4670"/>
<path d="M42.9727 764.266L527.779 1044.09C554.901 1059.74 598.868 1059.74 625.99 1044.09L1081.85 781.027C1108.97 765.351 1108.97 739.967 1081.85 724.319L597.041 444.491C569.918 428.815 525.951 428.815 498.829 444.491L42.9727 707.558C15.8503 723.206 15.8503 748.59 42.9727 764.266Z" fill="#CEDAE3"/>
<path style="mix-blend-mode:multiply" d="M163.571 778.344C184.641 790.508 218.901 790.451 240.085 778.201C261.269 765.952 261.412 746.164 240.342 734C219.272 721.836 185.012 721.893 163.799 734C142.587 746.107 142.558 766.18 163.571 778.344Z" fill="url(#paint0_linear_55_2798)"/>
<path d="M219.442 192.448C219.442 192.448 245.337 177.343 257.099 199.301C268.862 221.259 243.281 249.556 253.902 263.176C264.522 276.796 284.85 278.681 284.85 278.681C284.85 278.681 283.337 305.978 241.311 311.661C199.286 317.343 195.061 209.352 219.442 192.448Z" fill="#E85900"/>
<path d="M224.178 184.766C236.912 185.651 243.021 198.786 243.021 210.464C243.021 222.143 214.471 225.426 212.815 220.115C211.16 214.804 224.178 184.766 224.178 184.766Z" fill="#EBF0FF"/>
<path d="M206.335 698.481C213.13 702.193 214.9 708.132 213.587 718.468C212.788 724.893 212.674 723.922 211.731 730.033C210.789 736.143 211.531 742.025 210.018 743.425C208.505 744.824 205.051 743.425 205.051 743.425C205.051 743.425 203.366 734.516 203.024 733.802C202.681 733.088 197.542 734.601 192.689 744.624C187.835 754.646 177.3 764.611 157.287 765.382C151.577 765.896 145.496 763.812 145.438 759.129C145.438 753.932 160.913 739.655 166.879 732.945C172.846 726.235 176.9 716.098 183.81 709.503C190.719 702.907 188.32 697.796 191.518 696.825C194.716 695.854 206.335 698.481 206.335 698.481Z" fill="#2F3D7B"/>
<path d="M240.856 713.923C246.566 725.745 248.336 731.198 246.794 737.709C245.253 744.219 244.311 743.991 244.767 753.699C245.224 763.407 243.283 765.406 243.283 765.406C242.603 765.84 241.804 766.05 240.999 766.006C239.704 765.566 238.437 765.051 237.202 764.464C237.202 764.464 238.515 749.302 237.43 748.845C236.345 748.388 231.72 769.089 222.299 775.828C211.564 783.595 196.432 786.85 190.637 781.539C187.239 771.659 195.662 762.436 199.43 755.441C201.314 751.957 208.423 740.193 213.505 731.455C218.587 722.718 221.87 716.722 226.695 714.752C236.288 710.868 240.856 713.923 240.856 713.923Z" fill="#2F3D7B"/>
<path d="M174.392 268.853C165.827 264.284 154.664 272.85 149.611 284.415C142.775 299.429 136.975 314.894 132.252 330.701C129.997 338.096 123.973 365.736 118.577 371.989C113.181 378.243 121.432 404.141 131.253 403.884C141.074 403.627 152.209 365.593 159.118 361.053C166.027 356.513 174.392 268.853 174.392 268.853Z" fill="#2C3873"/>
<path d="M135.389 388.696C134.793 384.578 133.033 380.717 130.317 377.565C127.601 374.414 124.042 372.104 120.058 370.907C114.348 369.622 103.984 370.45 101.301 368.623C98.617 366.795 93.6493 358.058 92.5644 356.63C91.4795 355.202 81.1444 350.719 78.0039 347.321C74.8635 343.923 69.2106 345.208 70.2955 348.406C71.3804 351.604 70.2955 373.334 70.2955 373.334C70.2955 373.334 77.2617 384.499 81.2872 385.07C84.6375 385.607 88.0718 385.15 91.1655 383.756C94.4772 383.756 94.363 384.184 95.7334 386.012C97.1038 387.839 110.751 408.37 131.221 403.829C135.418 401.802 137.017 395.178 135.389 388.696Z" fill="#FF9C78"/>
<path d="M152.771 518.305C153.428 526.671 166.818 590.946 167.474 596.314C168.131 601.682 185.917 701.449 182.891 709.501C181.425 713.546 179.748 717.511 177.866 721.38C185.169 721.742 192.442 720.228 198.993 716.982C204.162 714.201 208.326 709.866 210.899 704.59C210.899 704.59 208.044 663.444 211.184 643.513C214.325 623.583 202.819 537.864 202.819 537.864L152.771 518.305Z" fill="#FF9C78"/>
<path d="M183.18 703.988C183.18 710.955 172.445 726.46 169.133 734.169C165.822 741.879 184.864 735.854 189.832 729.315C194.8 722.776 203.936 720.064 208.789 713.925C213.643 707.785 209.389 696.164 209.389 696.164L183.18 703.988Z" fill="#FF9C78"/>
<path d="M152.773 431.93C148.738 456.845 147.779 482.162 149.918 507.312C151.831 529.584 164.193 590.118 165.564 597.485C166.934 604.852 179.839 697.423 180.552 703.677C181.266 709.93 210.33 707.817 211.158 692.826C211.986 677.835 210.33 642.029 216.868 623.298C223.406 604.566 216.24 458.399 199.995 446.949C183.75 435.499 152.773 431.93 152.773 431.93Z" fill="#2C3873"/>
<path d="M195.711 560.278C195.711 559.935 199.736 588.403 200.736 597.398C201.731 605.075 204.234 612.479 208.102 619.184C210.443 622.868 221.12 676.292 219.807 698.907C218.494 721.521 217.152 730.002 217.152 730.002C217.152 730.002 241.933 735.713 242.247 724.634C242.561 713.555 244.274 702.876 248.3 683.116C252.325 663.357 255.323 645.996 250.955 628.55C246.587 611.104 245.616 607.791 245.616 607.791C245.616 607.791 243.275 558.222 242.247 555.224C241.219 552.225 195.711 560.278 195.711 560.278Z" fill="#FF9C78"/>
<path d="M242.48 720.093C242.48 720.093 244.421 726.346 237.655 733.085C230.888 739.823 220.04 758.24 209.105 755.928C198.17 753.615 214.815 737.824 218.241 718.808C218.896 715.104 219.192 711.346 219.126 707.586L242.48 720.093Z" fill="#FF9C78"/>
<path d="M251.047 429.04C265.322 474.213 263.095 494.714 256.044 537.288C248.992 579.862 248.678 603.619 249.306 609.329C249.934 615.04 256.586 632.43 253.103 662.725C249.62 693.021 246.765 709.81 244.538 714.893C242.311 719.976 215.189 729.17 216.445 712.666C217.701 696.162 211.763 633.686 207.081 623.378C201.552 610.061 197.716 596.104 195.661 581.832C193.348 566.527 186.182 520.013 186.182 506.564C186.182 493.115 176.532 488.775 174.334 476.583C172.135 464.39 177.189 415.734 177.189 415.734L251.047 429.04Z" fill="#2F3D7B"/>
<path d="M213.245 460.449C202.01 461.763 190.629 460.999 179.67 458.194C174.063 456.652 168.629 454.537 163.454 451.883C158.743 449.485 154.461 447.914 151.292 443.317C147.352 437.435 147.238 430.011 147.666 423.187C148.16 416.451 147.911 409.681 146.924 402.999C144.925 390.464 142.127 378.043 140.5 365.422C138.359 348.861 141.014 325.247 146.41 311.941C151.806 298.635 159.086 277.191 168.25 270.109C173.075 266.397 180.927 268.082 187.093 265.084C193.26 262.086 200.712 268.539 211.618 270.937C222.524 273.336 231.603 273.193 239.739 277.333C247.876 281.474 268.889 302.061 270.516 306.972C272.144 311.884 261.951 362.824 256.812 389.322C253.757 405.455 262.808 433.409 251.102 446.23C244.079 453.825 233.658 457.137 223.78 458.936C220.211 459.564 216.785 460.078 213.245 460.449Z" fill="#202A54"/>
<path d="M240.535 279.624C240.535 279.624 247.758 285.335 232.998 293.701C218.238 302.067 168.903 373.909 168.903 373.909C168.903 373.909 168.475 317.886 174.385 300.868C180.295 283.85 179.353 270.115 196.797 271.657C211.515 273.48 226.119 276.14 240.535 279.624Z" fill="#EBF0FF"/>
<path d="M168.876 387.954L222.921 328.819L217.211 319.453L236.254 316.169C236.254 316.169 249.501 302.149 250.529 294.154C251.557 286.159 248.759 280.191 239.794 277.336C240.088 281.256 239.15 285.169 237.11 288.529C228.642 294.957 220.751 302.113 213.528 309.916C204.478 320.395 167.163 375.99 167.163 375.99L168.876 387.954Z" fill="#2C3873"/>
<path d="M185.376 273.995C176.636 292.325 171.776 312.263 171.101 332.559C171.101 352.547 168.418 398.861 169.046 402.345C169.674 405.828 161.252 359.514 159.853 348.292C158.454 337.071 156.113 314.599 156.113 314.599L165.163 312.571L158.14 304.919C158.14 304.919 176.726 271.511 178.753 270.654C180.78 269.798 185.376 273.995 185.376 273.995Z" fill="#2C3873"/>
<path d="M230.374 408.83C229.857 403.655 230.165 398.431 231.288 393.354C232.972 385.33 239.596 348.81 242.936 339.358C246.276 329.907 251.216 315.516 259.352 310.976C267.489 306.436 269.288 306.379 270.601 306.978C271.914 307.578 274.398 311.147 275.083 326.138C276.22 340.023 275.258 354 272.228 367.598C268.631 383.645 261.122 423.421 244.963 435.128C231.545 432.53 230.374 408.83 230.374 408.83Z" fill="#2C3873"/>
<path d="M183.613 260.433C187.125 267.429 190.437 281.62 189.323 288.787C188.21 295.954 197.574 299.324 205.797 298.781C214.019 298.239 240.999 280.792 240.656 279.622C240.313 278.451 229.236 275.824 227.523 266.201C225.81 256.579 224.011 248.155 225.753 242.387C227.494 236.619 231.206 218.888 215.247 214.176C199.287 209.465 185.383 221.886 185.383 221.886L183.613 260.433Z" fill="#FF9C78"/>
<path d="M220.039 227.311C220.382 236.591 220.467 259.292 217.584 264.003C214.7 268.714 190.604 281.135 184.666 281.449C178.727 281.764 176.101 281.107 173.702 276.281C171.304 271.456 163.624 256.579 161.883 245.529C160.435 237.417 160.435 229.113 161.883 221.001C163.025 212.064 163.539 206.296 167.222 203.469C170.905 200.642 189.462 195.417 202.966 198.415C216.47 201.413 220.039 227.311 220.039 227.311Z" fill="#FF9C78"/>
<path d="M174.332 209.011C180.185 210.839 186.066 206.156 192.376 209.782C198.685 213.408 200.084 223.716 204.367 226.914C208.649 230.112 212.247 232.939 213.389 237.422C214.531 241.905 215.901 257.239 212.96 263.692C218.128 252.927 219.241 242.419 220.555 239.078C221.868 235.738 222.896 232.968 227.264 233.368C231.632 233.767 225.351 246.531 225.008 249.986C225.042 253.339 225.483 256.676 226.322 259.923C226.898 255.855 228.467 251.991 230.89 248.672C236.233 241.377 239.149 232.588 239.226 223.545C238.684 214.265 240.283 196.562 225.38 184.826C210.476 173.09 198.057 176.517 186.238 180.457C174.418 184.398 166.453 189.994 161.97 202.958C157.488 215.921 161.97 219.348 161.97 219.348C162.669 215.482 163.623 211.666 164.825 207.926C165.824 206.727 167.851 205.927 174.332 209.011Z" fill="#E85900"/>
<path d="M221.411 244.443C221.411 241.16 221.925 233.564 226.607 232.137C231.289 230.709 233.231 233.564 232.974 236.563C233.151 238.676 232.8 240.8 231.953 242.743C231.106 244.687 229.789 246.39 228.12 247.699C223.096 251.725 222.182 250.782 221.411 248.955C221.008 247.478 221.008 245.92 221.411 244.443Z" fill="#FF9C78"/>
<mask id="mask0_55_2798" style="mask-type:luminance" maskUnits="userSpaceOnUse" x="160" y="442" width="6" height="6">
<path d="M160.956 447.892L165.61 443.724C165.695 443.581 165.741 443.418 165.741 443.252C165.741 443.086 165.695 442.923 165.61 442.781L160.985 447.007C161.184 447.407 161.156 447.721 160.956 447.892Z" fill="white"/>
</mask>
<g mask="url(#mask0_55_2798)">
<path d="M165.698 442.727L161.073 446.953C161.073 447.409 161.073 447.724 161.073 447.895L165.612 443.726C165.698 443.584 165.743 443.421 165.743 443.255C165.743 443.089 165.698 442.926 165.612 442.784L165.698 442.727Z" fill="#292B39"/>
</g>
<mask id="mask1_55_2798" style="mask-type:luminance" maskUnits="userSpaceOnUse" x="55" y="301" width="7" height="6">
<path d="M60.2013 301.948L55.5762 306.202C55.8331 305.974 56.3185 306.002 56.9751 306.402L61.6288 302.148C60.9721 301.776 60.4582 301.719 60.2013 301.948Z" fill="white"/>
</mask>
<g mask="url(#mask1_55_2798)">
<path d="M60.2013 301.948L55.5762 306.202C55.8331 305.974 56.3185 306.002 56.9751 306.402L61.6288 302.148C60.9721 301.776 60.4582 301.719 60.2013 301.948Z" fill="#292B39"/>
</g>
<path d="M138.673 348.266L134.02 352.52L161.056 446.919L165.71 442.693L138.673 348.266Z" fill="#1E202A"/>
<path d="M61.5875 302.148L56.9624 306.374L131.421 349.377L136.046 345.151L61.5875 302.148Z" fill="#272937"/>
<mask id="mask2_55_2798" style="mask-type:luminance" maskUnits="userSpaceOnUse" x="131" y="345" width="8" height="8">
<path d="M136.06 345.148L131.407 349.489C132.607 350.215 133.531 351.32 134.033 352.63L138.658 348.404C138.19 347.053 137.273 345.905 136.06 345.148Z" fill="white"/>
</mask>
<g mask="url(#mask2_55_2798)">
<path d="M136.057 345.148L131.404 349.489C132.604 350.215 133.528 351.32 134.03 352.63L138.655 348.404C138.165 347.096 137.25 345.99 136.057 345.263V345.148Z" fill="#292B39"/>
</g>
<path d="M85.1117 404.712L159.57 447.543C160.712 448.199 161.369 447.857 161.083 446.8L133.989 352.515C133.487 351.206 132.563 350.1 131.363 349.374L56.9044 306.401C55.7624 305.716 55.1058 306.058 55.3913 307.143L82.5993 401.571C83.086 402.856 83.9651 403.955 85.1117 404.712Z" fill="#303344"/>
<path d="M72.8082 361.775C72.8082 361.775 79.7458 360.918 81.573 360.918C83.4002 360.918 85.8555 362.117 85.5985 364.002C85.4364 365.058 84.9814 366.047 84.2852 366.857C85.5561 366.211 86.8847 365.685 88.2537 365.287C88.9389 365.287 90.5091 367.743 90.2522 369.056L89.9952 370.398C90.2382 370.418 90.4744 370.489 90.6884 370.605C90.9024 370.722 91.0895 370.883 91.2375 371.077C91.3855 371.27 91.4912 371.493 91.5477 371.73C91.6042 371.968 91.6102 372.214 91.5655 372.454C91.2514 374.281 87.4257 377.679 87.4257 377.679C85.2233 380.019 82.898 382.24 80.4595 384.332C79.7547 384.99 78.8992 385.463 77.9682 385.712C77.0373 385.961 76.0595 385.978 75.1207 385.76C73.1793 385.189 71.7233 382.448 71.0952 380.963C70.1396 379.552 68.9293 378.332 67.5264 377.365L66.6985 372.568C66.6985 372.568 64.3859 371.083 64.1861 369.941C63.9862 368.799 65.585 366.229 65.014 364.487C64.3339 362.932 63.9282 361.27 63.8149 359.576C63.9083 357.589 64.6618 355.69 65.9562 354.179C67.7698 352.547 69.9716 351.406 72.3514 350.867C72.3514 350.867 75.4919 352.866 74.6068 354.436C73.7218 356.007 71.2379 357.121 70.6955 358.263C70.2276 359.469 69.8553 360.71 69.582 361.975L72.8082 361.775Z" fill="#FF9C78"/>
<path d="M154.831 373.39C151.976 372.762 142.955 370.734 140.985 370.734C139.066 370.655 137.157 370.425 135.275 370.049C135.275 370.049 132.42 367.194 130.678 367.622C128.937 368.05 129.165 369.221 129.479 370.477C130.51 372.992 132.446 375.029 134.903 376.188C136.731 376.85 138.672 377.142 140.613 377.045C141.242 377.045 147.722 378.501 149.664 382.27C146.209 382.013 143.126 381.442 143.126 381.442C143.126 381.442 136.731 379.7 135.589 379.129C131.684 376.961 127.64 375.053 123.483 373.418C121.713 373.161 121.028 374.104 121.085 376.416C120.76 376.95 120.548 377.545 120.465 378.164C120.381 378.784 120.427 379.414 120.6 380.014L122.541 383.583C122.654 385.295 122.99 386.984 123.541 388.609C125.055 391.193 126.753 393.664 128.622 396.004C128.742 396.969 128.933 397.923 129.193 398.86C129.565 400.059 143.468 409.282 144.896 409.967C150.35 410.33 155.829 409.995 161.198 408.968C163.514 408.597 165.881 408.684 168.164 409.225C168.164 409.225 196.714 426.871 209.733 432.068C222.752 437.265 234.343 438.236 243.507 435.98C252.672 433.724 239.996 406.969 235.599 405.342C231.202 403.714 228.176 404.713 216.014 402.486C203.851 400.259 171.704 387.724 169.42 385.582C167.136 383.441 158.6 374.903 154.831 373.39Z" fill="#FF9C78"/>
<path d="M176.558 404.541C178.528 393.833 184.666 390.492 185.923 390.492C187.179 390.492 235.114 400.115 239.083 403.884C243.051 407.653 251.33 425.671 246.734 433.78C242.137 441.889 229.604 438.691 219.954 437.092C210.304 435.493 176.558 414.791 176.558 414.791C176.558 414.791 174.988 413.021 176.558 404.541Z" fill="#2C3873"/>
<path style="mix-blend-mode:multiply" d="M943.793 797.614C993.715 784.283 1029.56 756.159 1023.86 734.798C1018.16 713.437 973.063 706.928 923.141 720.259C873.22 733.591 837.373 761.715 843.076 783.076C848.779 804.437 893.872 810.946 943.793 797.614Z" fill="url(#paint1_linear_55_2798)"/>
<path d="M1017.58 730.716C1019.58 731.601 1019.58 732.401 1019.58 735.57C1019.58 738.74 1018.9 742.766 1010.73 746.164C1006.75 747.591 1002.49 748.103 998.281 747.664C994.071 747.224 990.013 745.842 986.408 743.622C979.528 739.653 979.014 736.512 970.192 731.687C961.37 726.861 961.998 731.087 955.46 728.289C948.922 725.491 943.184 722.578 942.584 718.352C942.385 715.319 942.385 712.276 942.584 709.243C942.356 708.215 948.094 707.188 948.094 707.188L1017.58 730.716Z" fill="#191C21"/>
<path d="M975.099 692.135C978.753 700.188 1005.13 715.407 1012.21 719.947C1019.29 724.487 1018.78 728.827 1018.72 733.224C1018.72 736.822 1011.16 746.473 996.825 743.19C982.493 739.906 976.269 729.37 968.875 727.114C961.48 724.858 943.894 720.347 943.637 707.554C943.783 697.995 944.961 688.479 947.148 679.172L975.099 692.135Z" fill="#292D36"/>
<path d="M912.035 789.681C912.858 790.597 913.481 791.674 913.865 792.844C914.248 794.014 914.383 795.252 914.261 796.477C914.261 798.904 913.034 801.103 906.924 803.644C899.986 806.714 892.16 807.121 884.941 804.786C874.406 800.903 865.584 794.678 861.644 788.739C857.704 782.8 858.247 779.145 855.934 777.489C853.621 775.833 848.225 774.291 847.969 768.095C847.712 761.898 848.168 761.441 848.654 760.328C849.51 758.243 852.565 758.9 855.22 759.5C857.875 760.099 912.035 789.681 912.035 789.681Z" fill="#191C21"/>
<path d="M877.947 737.396C883.657 743.107 884.913 737.71 886.968 745.962C891.651 764.408 908.809 772.86 912.035 782.825C913.305 786.003 913.738 789.454 913.291 792.847C913.224 793.868 912.883 794.851 912.306 795.695C911.728 796.539 910.935 797.212 910.008 797.644C896.932 803.555 888.31 801.471 888.31 801.471C883.375 799.524 878.657 797.064 874.235 794.132C868.068 789.992 861.645 784.196 859.218 777C858.133 773.716 857.705 773.459 855.963 772.717C852.823 770.433 848.483 769.604 848.683 762.066C848.911 753.243 849.711 735.911 851.395 731.285C852.509 728.23 863.615 726.859 863.615 726.859L877.947 737.396Z" fill="#292D36"/>
<path d="M933.391 460.341C933.391 460.341 933.933 479.501 934.79 502.316C935.76 527.5 937.074 557.168 938.501 570.474C938.729 572.558 938.958 574.243 939.186 575.442C941.727 588.748 943.726 595.829 951.463 600.883C953.077 601.905 954.766 602.802 956.516 603.568C968.564 608.821 985.066 598.342 987.35 592.317C989.634 586.292 992.203 521.275 993.974 483.099C995.744 444.922 995.658 454.83 992.917 422.422L933.391 460.341Z" fill="#3B4157"/>
<path d="M942.952 691.852C943.323 698.02 947.834 701.503 953.458 703.273C963.194 706.129 976.298 703.273 977.212 699.59C978.725 693.565 978.982 622.266 987.461 592.456C987.461 592.456 965.592 574.41 951.032 568.728C945.008 566.386 940.268 566.101 938.812 570.07C938.812 570.27 938.812 570.441 938.612 570.612C933.816 585.318 936.014 656.902 942.952 691.852Z" fill="#3B4157"/>
<path d="M938.614 570.468C933.818 585.316 936.016 656.901 942.954 691.851C943.325 698.018 947.836 701.502 953.46 703.272C952.147 683.285 950.748 663.554 949.492 649.648C946.78 619.038 950.577 593.911 951.034 585.402C952.233 562.787 950.263 515.245 962.71 505.822L934.903 502.453C935.874 527.495 937.187 557.162 938.614 570.468Z" fill="#363C53"/>
<path d="M868.977 519.846C869.862 544.716 870.89 589.26 872.746 608.591C872.955 611.111 873.298 613.618 873.773 616.101C875.274 621.996 877.702 627.616 880.968 632.748C883.039 636.539 885.89 639.847 889.333 642.456C893.872 644.969 908.918 646.968 913.344 638.202C914.377 635.641 915.217 633.007 915.856 630.321C915.856 630.321 915.856 630.321 915.856 630.178C922.451 605.051 936.383 533.295 940.523 524.529C945.291 514.506 958.338 513.735 961.935 507.196C965.533 500.658 967.388 477.329 967.132 457.998C967.132 457.998 904.607 407.458 894.072 414.254C890.561 416.481 886.535 424.476 882.652 435.241C875.058 457.056 868.32 500.344 868.977 519.846Z" fill="#3B4157"/>
<path d="M851.824 734.114C851.824 734.114 852.053 741.139 862.474 745.165C864.158 745.793 865.728 746.335 867.213 746.735C882.487 750.961 887.712 743.537 887.712 743.537L893.25 704.133C898.761 664.7 908.325 653.164 914.092 636.517C914.771 634.536 915.324 632.515 915.748 630.464C915.748 630.464 915.748 630.464 915.748 630.321C917.408 622.362 916.825 614.097 914.063 606.45L883.943 590.888L882.43 590.117C882.43 590.117 878.205 597.256 872.609 608.734C866.316 621.791 860.871 635.239 856.307 648.995C845.401 681.632 851.824 734.114 851.824 734.114Z" fill="#3B4157"/>
<path d="M851.824 734.116C851.824 734.116 852.053 741.14 862.474 745.166C864.158 745.794 865.728 746.337 867.213 746.736C860.19 645.113 873.694 640.059 880.974 632.75C883.686 629.894 885.542 627.039 885.085 618.301C884.714 611.363 884.314 601.826 884.086 590.747C883.686 572.272 883.772 549.458 885.371 527.043C887.341 498.803 891.68 460.884 900.359 443.38C894.677 440.299 888.792 437.608 882.744 435.328C875.064 457.058 868.326 500.345 868.983 519.848C869.868 544.718 870.896 589.262 872.752 608.593C866.405 621.692 860.911 635.188 856.307 648.997C845.401 681.634 851.824 734.116 851.824 734.116Z" fill="#363C53"/>
<path d="M968.299 255.268C984.744 254.811 988.684 258.438 1003.99 299.355C1009.47 314.004 1021.46 358.091 1024.31 364.544C1027.17 370.997 1009.3 398.18 998.619 389.643C987.941 381.105 978.092 364.373 972.924 346.298C967.757 328.223 968.299 255.268 968.299 255.268Z" fill="#DDE8F6"/>
<path d="M911.886 253.555C898.211 260.122 856.642 284.25 855.3 288.362C853.958 292.474 883.85 419.024 883.308 427.476C883.368 430.766 883.052 434.052 882.366 437.27C882.366 437.27 886.42 451.547 929.587 452.375C972.755 453.203 987.658 434.044 988.6 430.046C989.542 426.049 991.455 379.848 991.712 349.638C992.368 297.842 985.088 273 981.576 264.748C979.435 259.665 976.694 256.81 974.353 256.182C962.676 252.784 938.038 256.01 938.038 256.01L911.886 253.555Z" fill="#CBDCF1"/>
<path d="M946.203 297.836C946.203 297.836 962.648 402.771 964.104 419.333C959.65 439.52 955.539 443.66 955.539 443.66C955.539 443.66 944.261 434.552 942.463 426.785C940.664 419.018 938.466 299.977 938.466 299.977L946.203 297.836Z" fill="#3C424F"/>
<path d="M1013.01 359.711C1018.32 357.055 1020.04 359.14 1022.52 359.511C1025.01 359.882 1035.17 374.93 1039.65 380.612C1044.13 386.295 1052.38 394.689 1055.24 400.4C1058.09 406.111 1047.45 417.875 1047.45 417.875C1047.45 417.875 1044.99 427.441 1028.83 419.817C1012.67 412.193 996.142 392.519 992.344 383.496C988.547 374.473 1005.02 363.965 1013.01 359.711Z" fill="#DDE8F6"/>
<path d="M1041.11 400.52C1043.28 397.664 1044.28 394.809 1046.67 394.323C1049.07 393.838 1057.58 396.208 1057.58 396.208L1061.52 398.235C1063.67 397.706 1065.87 397.428 1068.09 397.407C1068.49 397.595 1068.85 397.87 1069.13 398.213C1069.42 398.557 1069.62 398.959 1069.73 399.391C1069.84 399.823 1069.85 400.274 1069.77 400.712C1069.68 401.149 1069.5 401.561 1069.23 401.919C1067.97 403.061 1062.66 406.345 1062.66 406.345L1053.67 419.651C1053.67 419.651 1044.79 422.078 1039.19 420.365C1033.6 418.651 1032.63 418.137 1032.26 414.825C1031.89 411.513 1041.11 400.52 1041.11 400.52Z" fill="#FF9C78"/>
<path d="M980.235 406.203C983.09 406.203 995.452 412.285 997.365 412.856C999.278 413.427 1008.96 415.712 1010.58 416.454C1012.21 417.196 1011.53 420.023 1009.93 420.708C1008.33 421.394 986.345 417.111 986.345 417.111C988.864 419.923 991.182 422.91 993.282 426.048C993.719 429.772 993.91 433.521 993.853 437.27C993.682 438.697 991.569 443.352 989.97 443.637C988.372 443.923 986.345 441.439 986.345 441.439L987.886 434.985L986.459 429.674L985.774 435.842L983.404 440.011L978.665 440.982V439.268C978.665 439.268 976.58 441.439 974.496 440.696C972.412 439.954 968.301 431.93 965.931 431.102C963.562 430.274 957.88 431.559 955.768 430.817C953.655 430.074 942.663 430.16 941.064 424.934C940.194 421.801 940.458 418.461 941.812 415.504C943.165 412.546 945.519 410.162 948.459 408.773C955.111 406.203 966.702 407.945 968.13 407.602C969.557 407.26 980.235 406.203 980.235 406.203Z" fill="#FF9C78"/>
<path d="M1015.44 403.886L990.288 455.283L986.12 460.908L990.145 464.706L1077.99 373.904L1073.97 370.078L1015.44 403.886Z" fill="#4A5161"/>
<path d="M1019.47 407.685L994.315 459.111L990.147 464.708L1048.3 431.128L1078 373.906L1019.47 407.685Z" fill="#2F343E"/>
<path d="M1056.15 413.228C1056.15 413.228 1054.64 416.54 1053.3 417.14C1051.45 417.891 1049.78 418.997 1048.36 420.395C1048.08 420.86 1047.92 421.382 1047.87 421.921C1047.83 422.461 1047.91 423.003 1048.1 423.507L1044.53 424.478L1043.02 426.705L1040.42 428.333C1040.42 428.333 1039.28 431.188 1039.77 431.931C1040.25 432.673 1041.59 432.502 1041.59 432.502C1041.59 432.502 1041.39 434.186 1042.99 434.243C1044.59 434.301 1047.87 431.988 1048.7 431.588C1052.13 429.761 1055.43 427.711 1058.58 425.449C1060.92 422.403 1062.55 418.871 1063.35 415.112C1063.7 413.276 1063.58 411.38 1063 409.602L1060.95 408.773L1056.15 413.228Z" fill="#FF9C78"/>
<path d="M855.732 287.671C863.326 283.844 880.114 297.693 882.654 315.882C885.195 334.07 889.221 397.146 885.995 403.999C882.769 410.852 852.848 420.674 849.365 412.251C845.882 403.828 839.173 297.836 855.732 287.671Z" fill="#DDE8F6"/>
<path d="M933.218 402.089C942.125 402.66 951.261 404.002 952.489 407.343C953.717 410.683 953.631 430.528 945.837 434.126C938.043 437.724 904.04 434.126 892.734 432.127C881.428 430.129 850.652 428.244 849.11 410.569C847.568 392.894 877.66 388.383 885.597 391.409C893.534 394.436 933.218 402.089 933.218 402.089Z" fill="#DDE8F6"/>
<path d="M933.814 330.188L936.069 363.51L917.312 371.99L898.326 366.679L897.812 330.188L933.814 330.188Z" fill="#DDE8F6"/>
<path d="M941.636 285.703L949.002 294.498L946.975 302.864L938.496 304.691L934.328 297.839L938.696 286.56L941.636 285.703Z" fill="#3C424F"/>
<path d="M949.549 265.176C949.407 265.376 949.292 265.604 949.15 265.833C946.295 270.715 945.381 278.082 943.44 280.109C941.498 282.137 933.19 282.965 926.624 280.395C920.057 277.825 909.494 261.664 910.664 255.496C911.835 249.328 914.29 241.048 915.718 234.595C917.145 228.141 914.747 212.551 918.373 207.211C921.374 203.646 925.452 201.151 929.993 200.102C929.993 200.102 956.744 230.797 956.858 243.132C956.657 251.042 954.113 258.713 949.549 265.176Z" fill="#FF9C78"/>
<path d="M913.602 254.923C913.802 255.323 924.565 270.142 930.389 274.454C933.245 276.63 936.294 278.541 939.496 280.165L940.01 283.334C940.01 283.334 931.16 294.213 928.876 294.756C926.592 295.298 906.95 274.34 904.294 264.089C901.639 253.838 913.459 243.93 913.459 243.93C913.459 243.93 911.375 249.326 911.889 250.183C912.552 251.728 913.124 253.311 913.602 254.923Z" fill="#DDE8F6"/>
<path d="M945.465 265.945C945.465 266.716 946.979 277.11 939.499 280.222L940.012 283.392C940.012 283.392 949.891 293.785 951.661 293.9C953.431 294.014 954.145 273.769 952.66 270.714C951.175 267.659 945.465 265.945 945.465 265.945Z" fill="#DDE8F6"/>
<path d="M927.989 220.116C927.703 220.602 921.222 245.815 923.135 250.526C925.048 255.238 943.434 274.197 948.202 275.625C952.97 277.053 959.822 273.883 962.192 271.97C964.561 270.057 975.382 244.73 978.608 232.937C981.834 221.144 983.176 209.18 982.234 205.097C981.291 201.014 972.812 193.676 959.793 190.82C946.775 187.965 927.989 220.116 927.989 220.116Z" fill="#FF9C78"/>
<path d="M967.191 213.834C962.438 215.209 957.423 215.414 952.574 214.434C949.233 213.977 948.434 211.75 947.064 212.407C945.693 213.063 945.236 219.488 944.979 220.573C944.723 221.658 943.267 223.999 942.439 224.171C942.439 224.171 937.1 224.171 935.672 226.284C934.228 228.946 932.987 231.714 931.961 234.564L926.736 233.508C926.736 233.508 928.649 225.713 925.309 221.258C921.968 216.804 917.429 221.258 917.429 221.258C917.429 221.258 917.258 234.05 915.173 237.391C913.632 230.767 910.977 220.773 910.348 215.776C909.72 210.779 905.895 194.418 911.662 184.595C914.323 180.054 918.121 176.283 922.681 173.655C927.241 171.026 932.407 169.63 937.671 169.604C937.671 169.604 952.859 162.123 964.479 168.091C969.736 171.009 974.305 175.023 977.876 179.861C981.447 184.698 983.937 190.247 985.178 196.131C986.269 205.641 984.739 215.268 980.753 223.971C981.409 220.716 981.152 217.318 981.809 214.063C982.182 212.29 982.326 210.476 982.237 208.666C981.124 203.526 979.097 209.551 978.126 210.094C977.155 210.636 969.875 213.006 967.191 213.834Z" fill="#32364C"/>
<path d="M921.138 238.73C919.054 239.386 916.199 235.874 914.857 229.907C913.515 223.939 911.831 219.456 917.997 217.543C924.164 215.63 925.021 224.481 924.45 226.109C923.879 227.736 924.164 237.787 921.138 238.73Z" fill="#FF9C78"/>
<path d="M551.192 865.059L547.623 865.059C494.12 864.517 444.215 851.896 407.129 829.567C370.042 807.238 350.229 778.17 350.743 746.989C351.252 730.644 356.885 714.872 366.845 701.903C377.551 687.226 393.082 674.148 413.01 663.012C451.667 641.454 502.4 629.89 555.902 630.432C609.405 630.975 659.31 643.596 696.425 665.896C733.54 688.197 753.325 717.436 752.811 748.502C752.296 764.847 746.664 780.617 736.709 793.589C726.003 808.266 710.472 821.343 690.544 832.451C652.715 853.524 603.381 865.059 551.192 865.059ZM552.391 634.544C502.942 634.544 453.408 645.195 415.008 666.61C376.609 688.025 355.368 716.522 354.854 747.046C354.369 776.571 373.668 804.639 409.099 826.055C484.499 871.427 609.776 872.683 688.374 828.91C726.659 807.552 748.015 778.998 748.529 748.474C749.014 718.949 729.686 690.881 694.141 669.494C655.713 646.223 604.123 634.544 552.391 634.544Z" fill="#2795E9"/>
<path d="M341.007 455.148L344.719 457.318C339.922 454.463 336.925 448.581 336.896 440.186L333.185 438.016C333.213 446.582 336.182 452.293 341.007 455.148Z" fill="#1C4670"/>
<path d="M498.545 26.2952L494.834 24.1537C489.951 21.2983 483.214 21.7266 475.762 26.0097L479.474 28.1798C486.925 23.9824 493.72 23.4684 498.545 26.2952Z" fill="#1C4670"/>
<path d="M479.479 28.1494L475.768 26.0078L455.24 37.8577L458.952 39.9992L479.479 28.1494Z" fill="#1C4670"/>
<path d="M458.95 40.0295L455.239 37.8594C453.435 39.0431 451.885 40.5743 450.679 42.3637C449.473 44.1532 448.636 46.1649 448.216 48.2815C447.832 50.3041 447.046 52.2288 445.903 53.9409C444.76 55.653 443.284 57.1174 441.563 58.2468L445.275 60.4169C446.994 59.2989 448.47 57.8448 449.613 56.1422C450.756 54.4395 451.543 52.5233 451.927 50.5087C452.337 48.3808 453.17 46.3568 454.376 44.5568C455.583 42.7567 457.138 41.2172 458.95 40.0295Z" fill="#1C4670"/>
<path d="M445.245 60.3342L441.533 58.1641L393.313 86.0041L397.024 88.1742L445.245 60.3342Z" fill="#1C4670"/>
<path d="M388.429 86.4881L392.141 88.6582C392.924 89.0213 393.789 89.1678 394.648 89.0824C395.507 88.997 396.327 88.6829 397.023 88.1728L393.311 86.0313C392.613 86.5368 391.791 86.8458 390.933 86.9262C390.074 87.0065 389.21 86.8552 388.429 86.4881Z" fill="#1C4670"/>
<path d="M388.434 83.2295L384.722 81.0594C383.894 80.6755 382.977 80.5206 382.068 80.611C381.16 80.7014 380.292 81.0337 379.555 81.5734L383.295 83.7149C384.027 83.1767 384.892 82.8473 385.797 82.7618C386.702 82.6763 387.613 82.838 388.434 83.2295Z" fill="#1C4670"/>
<path d="M336.041 141.795L332.329 139.625L333.186 438.013L336.897 440.183L336.041 141.795Z" fill="#1C4670"/>
<path d="M383.264 83.717L379.553 81.5469L359.025 93.3967L362.737 95.5668L383.264 83.717Z" fill="#1C4670"/>
<path d="M363.618 99.192C350.343 106.787 339.551 125.462 339.551 140.709L340.407 439.097C340.407 454.373 351.256 460.512 364.532 452.86L481.244 385.444C494.548 377.792 505.283 359.175 505.226 343.927L504.369 45.5393C504.369 30.2915 493.52 24.1239 480.245 31.8049L459.746 43.6547C458.618 44.387 457.647 45.3378 456.892 46.451C456.137 47.5642 455.613 48.8173 455.349 50.1365C454.81 52.9383 453.717 55.6041 452.133 57.9774C450.55 60.3507 448.508 62.3835 446.128 63.9565L397.907 91.7965C393.453 94.3664 389.599 93.11 388.542 88.7698C388.029 86.7425 386.23 86.1429 384.146 87.3421L363.618 99.192Z" fill="url(#paint2_linear_55_2798)"/>
<path d="M336.07 141.797L336.898 440.185C336.898 457.317 348.974 464.027 363.763 455.49L480.504 388.103C495.292 379.537 507.226 358.864 507.198 341.874L506.341 43.4578C506.341 26.4968 494.265 19.6439 479.476 28.1815L458.948 40.0313C457.145 41.2094 455.595 42.7355 454.389 44.5202C453.183 46.3049 452.346 48.3123 451.925 50.4249C451.531 52.4465 450.73 54.367 449.572 56.0701C448.414 57.7732 446.922 59.2235 445.187 60.3331L396.938 88.1731C393.769 90.0006 391 89.1154 390.257 86.003C389.515 82.8907 386.517 81.8056 383.205 83.7187L362.649 95.5686C348.118 104.106 336.012 124.808 336.07 141.797ZM340.495 439.1L339.553 140.712C339.553 125.464 350.259 106.876 363.535 99.1949L384.062 87.3451C386.146 86.1458 387.945 86.7454 388.459 88.7728C389.515 93.113 393.369 94.4835 397.823 91.7995L446.129 63.9595C448.525 62.3948 450.583 60.3656 452.182 57.9919C453.781 55.6182 454.887 52.9481 455.437 50.1394C455.7 48.8202 456.225 47.5671 456.98 46.454C457.735 45.3408 458.705 44.39 459.833 43.6577L480.332 31.8078C493.608 24.1269 504.428 30.2945 504.457 45.5422L505.313 343.93C505.313 359.178 494.636 377.795 481.331 385.447L364.619 452.863C351.344 460.515 340.523 454.376 340.495 439.1Z" fill="url(#paint3_linear_55_2798)"/>
<path d="M362.736 95.5634L359.024 93.4219C344.235 101.988 332.302 122.661 332.359 139.622L336.07 141.792C336.013 124.803 348.118 104.101 362.736 95.5634Z" fill="#1C4670"/>
<path style="mix-blend-mode:screen" d="M503.63 38.9688C504.191 41.1125 504.469 43.3203 504.458 45.5361L505.058 253.665L367.362 451.258L364.507 452.857C351.231 460.509 340.41 454.37 340.382 439.094L339.896 273.767L503.63 38.9688Z" fill="url(#paint4_linear_55_2798)"/>
<path d="M487.182 69.9201L486.896 66.151C486.182 56.5855 479.102 52.588 471.108 57.2137L457.347 65.1516C453.141 67.9563 449.722 71.7893 447.414 76.2869C445.105 80.7845 443.984 85.7975 444.157 90.8501L444.443 94.5907C445.156 104.156 452.237 108.154 460.231 103.528L473.992 95.5901C478.195 92.79 481.613 88.9619 483.922 84.4693C486.23 79.9766 487.352 74.9684 487.182 69.9201Z" fill="#9CC0F8"/>
<path d="M470.306 350.808L469.992 346.64C469.193 335.932 450.607 339.301 452.348 336.617L381.716 377.421C377.007 380.549 373.178 384.832 370.594 389.86C368.01 394.889 366.757 400.496 366.955 406.146L367.269 410.315C368.069 421.022 375.834 425.505 384.942 420.337L455.574 379.534C460.28 376.404 464.105 372.12 466.684 367.091C469.263 362.063 470.51 356.457 470.306 350.808Z" fill="#9CC0F8"/>
<path d="M489.55 58.2459L494.06 60.416C492.413 59.7452 490.625 59.4931 488.856 59.6825C487.088 59.8718 485.393 60.4967 483.925 61.501L479.443 59.2738C480.911 58.2789 482.602 57.6641 484.367 57.4846C486.131 57.3052 487.912 57.5668 489.55 58.2459Z" fill="#DAE6FB"/>
<path d="M462.909 108.844L458.398 106.788C456.643 105.775 455.189 104.312 454.185 102.551C453.182 100.789 452.665 98.7927 452.688 96.7656L457.199 98.9072C457.191 100.92 457.715 102.899 458.718 104.644C459.72 106.389 461.166 107.838 462.909 108.844Z" fill="#DAE6FB"/>
<path d="M470.159 69.3502L465.648 67.1802L479.38 59.2422L483.891 61.4123L470.159 69.3502Z" fill="#DAE6FB"/>
<path d="M457.262 98.7935L452.751 96.6234L452.466 92.8828L456.977 95.0529L457.262 98.7935Z" fill="#DAE6FB"/>
<path d="M485.148 66.1567C491.2 62.6732 496.567 65.6999 497.081 72.924L497.367 76.6646C497.492 80.4811 496.643 84.2666 494.9 87.6639C493.157 91.0611 490.576 93.958 487.403 96.0812L473.728 103.933C467.704 107.417 462.308 104.39 461.794 97.1662L461.508 93.4257C461.378 89.6052 462.227 85.815 463.977 82.4161C465.726 79.0172 468.316 76.1229 471.501 74.009L485.148 66.1567Z" fill="#F6F9FE"/>
<path d="M499.993 74.1177L499.708 70.3772C498.994 60.8116 491.914 56.7855 483.92 61.4113L470.159 69.3492C465.953 72.1539 462.534 75.9869 460.225 80.4845C457.917 84.9821 456.796 89.9951 456.969 95.0477L457.254 98.7883C457.968 108.354 465.048 112.351 473.042 107.726L486.803 99.8162C491.009 97.0116 494.428 93.1786 496.737 88.681C499.045 84.1834 500.166 79.1704 499.993 74.1177ZM487.517 96.0756L473.727 103.928C467.703 107.412 462.307 104.385 461.793 97.1607L461.508 93.4201C461.377 89.5997 462.227 85.8094 463.976 82.4106C465.726 79.0117 468.316 76.1174 471.5 74.0035L485.147 66.1512C491.2 62.6676 496.567 65.6943 497.081 72.9185L497.367 76.659C497.504 80.465 496.673 84.2437 494.95 87.6401C493.227 91.0365 490.669 93.9392 487.517 96.0756Z" fill="#EBF2FD"/>
<path d="M456.972 95.0483L452.461 92.8782C452.288 87.8255 453.409 82.8125 455.718 78.3149C458.026 73.8173 461.446 69.9843 465.651 67.1797L470.162 69.3498C465.956 72.1544 462.537 75.9874 460.229 80.485C457.92 84.9826 456.799 89.9956 456.972 95.0483Z" fill="#DAE6FB"/>
<path d="M399.907 150.354C384.518 142.131 370.529 161.776 379.922 178.68C389.315 195.584 381.92 215.657 371.756 213.544C377.466 221.454 404.046 235.902 410.413 212.545C416.78 189.188 399.907 150.354 399.907 150.354Z" fill="#E85900"/>
<path d="M456.605 235.531C465.17 237.53 466.341 241.242 469.624 246.753C472.907 252.264 488.153 272.28 489.409 273.965C490.665 275.649 486.354 296.208 483.699 295.551C481.044 294.895 472.821 290.783 461.744 276.078C450.667 261.372 440.446 239.243 456.605 235.531Z" fill="#2C3873"/>
<path d="M427.569 208.977C446.669 211.09 452.921 216.144 459.687 223.253C466.454 230.363 485.382 268.568 485.382 268.568C485.382 268.568 463.827 252.578 456.09 255.005C448.353 257.432 427.569 208.977 427.569 208.977Z" fill="#2C3873"/>
<path d="M433.96 398.895C433.96 402.007 433.475 405.405 432.989 408.946C432.704 411.145 432.361 413.4 431.99 415.656L416.202 424.793L393.019 438.014C392.85 436.098 392.583 434.192 392.22 432.303C390.336 421.31 385.739 403.749 383.255 391.3C380.439 374.256 380.729 356.843 384.112 339.903L411.491 333.193L424.767 329.938C424.767 329.938 434.502 334.192 436.187 341.902C437.871 349.611 434.931 379.507 433.96 398.895Z" fill="#3B4157"/>
<path d="M466.456 389.636C466 391.948 465.543 394.261 465 396.574L431.997 415.648L416.209 424.785L415.894 418.818L411.498 333.156L410.927 323.79L458.776 323.391C461.003 337.668 462.631 353.458 462.945 357.17C463.259 359.74 469.311 374.017 466.456 389.636Z" fill="#3B4157"/>
<path d="M406.044 209.577C389.513 220.685 377.266 225.054 371.327 235.276C365.389 245.498 383.489 307.688 384.546 313.828C385.602 319.967 380.834 342.381 380.834 348.578C380.834 354.774 403.274 370.05 433.195 362.54C463.115 355.031 461.745 344.98 461.088 337.641C461.02 322.911 461.696 308.187 463.115 293.526C463.829 288.729 466.798 282.39 466.227 268.827C465.656 255.264 450.896 226.71 445.614 218.915C440.332 211.119 431.339 209.892 425.857 208.607C420.376 207.322 406.044 209.577 406.044 209.577Z" fill="#202A54"/>
<path d="M402.105 213.944C392.484 219.883 389.6 224.509 403.19 241.813C416.78 259.116 444.759 302.29 444.759 302.29C444.759 302.29 456.607 253.548 433.767 219.74C425.202 206.72 402.105 213.944 402.105 213.944Z" fill="#EBF0FF"/>
<path d="M446.07 309.034L444.757 301.782C444.757 301.782 404.33 242.504 399.933 234.937C395.537 227.37 396.222 221.031 397.792 218.775C398.803 217.236 399.546 215.537 399.991 213.75C395.46 216.216 391.861 220.097 389.741 224.8C387.2 231.796 387.543 238.164 397.649 249.785C405.929 252.241 407.299 253.982 407.299 253.982L404.758 262.549C404.758 262.549 413.266 272.086 446.07 309.034Z" fill="#2C3873"/>
<path d="M427.65 214.345C436.215 220.056 447.635 230.964 444.78 302.291L446.093 308.402C446.093 308.402 456.971 271.082 450.004 243.47L445.751 240.015L448.32 233.534C448.32 233.534 444.009 213.66 427.65 214.345Z" fill="#2C3873"/>
<path d="M472.417 336.44L477.47 338.867C475.614 338.11 473.598 337.826 471.605 338.04C469.612 338.254 467.703 338.961 466.05 340.095L460.997 337.696C462.645 336.553 464.553 335.839 466.547 335.619C468.541 335.4 470.559 335.682 472.417 336.44Z" fill="#DAE6FB"/>
<path d="M387.365 425.039L382.34 422.612C378.828 420.956 376.43 416.902 376.002 411.391L381.055 413.789C381.013 416.056 381.576 418.293 382.684 420.27C383.793 422.247 385.409 423.894 387.365 425.039Z" fill="#DAE6FB"/>
<path d="M395.47 380.866L390.445 378.467L461.078 337.664L466.103 340.091L395.47 380.866Z" fill="#DAE6FB"/>
<path d="M381.059 413.791L376.006 411.364L375.692 407.195L380.745 409.594L381.059 413.791Z" fill="#DAE6FB"/>
<path d="M467.653 345.381C474.39 341.497 480.386 344.895 480.985 352.947L481.3 357.145C481.447 361.411 480.501 365.645 478.553 369.443C476.604 373.241 473.717 376.478 470.165 378.846L399.504 419.621C392.738 423.532 386.771 420.163 386.171 412.082L385.857 407.885C385.71 403.618 386.655 399.385 388.604 395.587C390.553 391.789 393.44 388.552 396.992 386.184L467.653 345.381Z" fill="#F6F9FE"/>
<path d="M484.094 354.283L483.78 350.114C482.981 339.407 475.072 334.924 466.136 340.092L395.475 380.895C390.774 384.029 386.952 388.314 384.373 393.341C381.795 398.369 380.545 403.973 380.744 409.621L381.058 413.789C381.857 424.497 389.765 428.98 398.701 423.812L469.362 383.008C474.064 379.875 477.886 375.59 480.464 370.562C483.043 365.535 484.293 359.93 484.094 354.283ZM470.162 378.84L399.501 419.614C392.735 423.526 386.768 420.157 386.168 412.076L385.854 407.879C385.707 403.612 386.652 399.379 388.601 395.581C390.55 391.783 393.437 388.546 396.988 386.178L467.649 345.374C474.387 341.491 480.383 344.889 480.982 352.941L481.296 357.139C481.444 361.405 480.498 365.638 478.549 369.437C476.601 373.235 473.713 376.471 470.162 378.84Z" fill="#EBF2FD"/>
<path d="M380.743 409.621L375.69 407.194C375.494 401.544 376.748 395.938 379.332 390.91C381.916 385.882 385.743 381.599 390.45 378.469L395.475 380.896C390.773 384.029 386.951 388.314 384.373 393.342C381.794 398.37 380.545 403.974 380.743 409.621Z" fill="#DAE6FB"/>
<path d="M402.163 189.595C405.817 201.017 399.479 215.836 397.081 219.805C394.683 223.774 408.215 237.709 416.552 240.964C418.98 241.894 421.61 242.173 424.179 241.772C426.748 241.371 429.168 240.305 431.198 238.679C431.198 238.679 435.737 233.911 432.369 224.402L428.971 214.923L437.165 192.336C437.165 192.336 409.072 157.358 402.163 189.595Z" fill="#FF9C78"/>
<path d="M418.178 163.234C414.862 169.993 413.171 177.434 413.239 184.963C413.725 196.385 411.612 202.524 414.296 206.921C416.979 211.319 431.939 220.741 435.051 220.884C436.28 221.033 437.526 220.846 438.657 220.343C439.788 219.84 440.762 219.041 441.475 218.029C443.759 210.541 445.543 202.91 446.814 195.186C447.546 186.879 447.335 178.517 446.186 170.258C444.901 161.977 441.247 157.951 439.048 156.752C436.85 155.553 418.178 163.234 418.178 163.234Z" fill="#FF9C78"/>
<path d="M369.981 255.803C369.981 255.803 365.042 252.948 363.472 270.08C361.901 287.213 360.931 317.366 362.215 320.906C363.5 324.447 369.553 327.245 375.206 326.417C380.858 325.589 384.941 313.568 384.941 313.568L392.136 269.538L369.981 255.803Z" fill="#2C3873"/>
<path d="M381.689 312.375C370.954 312.946 363.759 320.57 363.474 323.111C363.188 325.653 402.359 351.808 420.916 359.432C426.426 363.8 427.568 364.372 431.451 364.286C433.568 364.212 435.685 364.452 437.732 365C442.752 367.106 447.89 368.918 453.12 370.425C453.784 370.389 454.43 370.197 455.005 369.865C455.581 369.532 456.069 369.069 456.432 368.512C456.432 368.512 458.459 370.568 459.887 370.425C460.284 370.391 460.669 370.274 461.018 370.083C461.367 369.891 461.672 369.628 461.914 369.311C461.914 369.311 464.112 369.311 464.769 367.684C465.149 366.583 465.149 365.387 464.769 364.286C464.769 364.286 464.997 362.601 465.054 361.602C465.111 360.602 457.517 353.692 455.119 351.808C452.088 349.363 448.576 347.583 444.812 346.583C441.957 346.211 431.051 348.267 428.368 347.125C425.684 345.983 390.054 317.686 387.798 313.917C385.887 312.995 383.808 312.47 381.689 312.375Z" fill="#FF9C78"/>
<path d="M427.541 346.639C422.516 338.473 385.43 308.148 385.43 308.148C385.43 308.148 362.876 315.258 362.019 321.654C362.533 325.138 362.99 324.767 365.588 327.365C368.186 329.964 405.558 355.605 411.81 358.061C418.063 360.516 418.89 358.546 418.89 358.546C418.89 358.546 419.49 348.095 427.541 346.639Z" fill="#2C3873"/>
<path d="M547.449 262.434C536.029 264.547 512.19 271 488.379 272.571C484.468 278.281 477.787 289.846 483.726 295.557C487.637 296.413 500.856 295.043 509.135 291.873C517.415 288.704 541.625 277.596 545.022 277.596C548.42 277.596 555.015 281.28 560.411 281.394C565.807 281.508 582.48 283.193 582.48 278.71C586.049 277.967 586.934 277.111 586.134 274.512C586.488 274.362 586.804 274.136 587.06 273.85C587.317 273.564 587.508 273.226 587.62 272.858C587.731 272.491 587.761 272.103 587.706 271.723C587.652 271.343 587.515 270.979 587.305 270.658C586.991 269.915 587.79 268.002 585.706 267.374C583.622 266.746 579.311 267.888 575.171 267.374C570.605 266.314 566.128 264.901 561.781 263.148C562.947 261.831 564.328 260.721 565.864 259.864C568.938 259.782 571.986 259.262 574.914 258.322C578.511 256.723 577.769 254.41 574.914 254.553C572.059 254.696 561.524 255.21 558.726 254.981C555.929 254.753 547.449 262.434 547.449 262.434Z" fill="#FF9C78"/>
<path d="M543.429 278.107C540.317 271.768 540.574 264.858 542.372 263.573C544.371 263.145 545.227 262.46 536.662 263.573C528.097 264.687 492.181 268.884 487.613 271.654C483.045 274.424 480.162 282.818 479.277 287.93C478.392 293.041 480.39 294.24 480.39 294.24C482.427 296.098 485.116 297.074 487.87 296.953C492.695 296.724 510.853 295.639 543.429 278.107Z" fill="#2C3873"/>
<path d="M568.829 269.883C567.151 271.491 564.944 272.434 562.622 272.534C560.299 272.633 558.02 271.884 556.21 270.425C554.744 269.307 553.07 268.494 551.285 268.033C549.5 267.572 547.642 267.473 545.818 267.741C549.108 269.009 552.144 270.856 554.783 273.195C557.323 276.05 567.03 276.821 567.03 276.821C567.03 276.821 577.394 277.564 580.991 276.079C584.589 274.594 591.069 266.313 568.829 269.883Z" fill="#FF926A"/>
<path d="M437.987 160.295C428.823 163.15 422.399 164.521 419.572 173.116C417.755 179.04 416.549 185.134 415.975 191.304L413.12 195.33C413.215 193.061 412.925 190.793 412.264 188.62C411.35 187.364 405.355 185.765 404.641 189.134C403.927 192.504 404.641 206.267 401.415 209.436C401.243 201.469 397.875 198.671 394.134 193.931C391.534 191.07 389.536 187.715 388.261 184.065C386.986 180.415 386.459 176.545 386.712 172.687C387.14 161.751 389.766 153.556 402.871 149.245C417.288 141.621 437.73 151.614 440.271 153.813C442.812 156.012 444.125 163.293 444.125 163.293C443.18 161.979 442.16 160.721 441.071 159.524C440.011 159.631 438.972 159.891 437.987 160.295Z" fill="#E85900"/>
<path d="M378.518 233.964C373.094 232.507 371.324 235.334 371.324 235.334C367.654 240.409 365.238 246.279 364.272 252.467C363.301 261.381 362.806 270.34 362.787 279.307C362.787 279.307 361.645 303.35 386.198 305.948C388.025 306.148 394.62 268.143 395.048 261.661C395.477 255.179 392.907 236.219 378.518 233.964Z" fill="#2C3873"/>
<path d="M410.185 192.164C410.247 191.261 410.076 190.357 409.686 189.54C409.296 188.722 408.702 188.02 407.961 187.5C407.22 186.98 406.357 186.66 405.456 186.572C404.555 186.484 403.647 186.63 402.819 186.996C400.249 188.567 401.877 197.447 405.674 199.16C409.471 200.873 409.871 199.988 410.385 199.16C410.581 196.828 410.514 194.481 410.185 192.164Z" fill="#FF9C78"/>
<path d="M797.974 434.729L794.262 436.899C799.087 434.043 802.056 428.161 802.085 419.767L805.796 417.625C805.768 425.991 802.799 431.93 797.974 434.729Z" fill="#1C4670"/>
<path d="M640.435 5.81866L644.175 3.67712C649.029 0.821736 655.766 1.25005 663.218 5.53313L659.506 7.70321C652.055 3.39158 645.317 2.99183 640.435 5.81866Z" fill="#1C4670"/>
<path d="M659.482 7.67279L663.222 5.53125L683.721 17.3811L680.009 19.5226L659.482 7.67279Z" fill="#1C4670"/>
<path d="M680.034 19.5529L683.745 17.3828C685.542 18.5684 687.084 20.1011 688.28 21.8908C689.476 23.6806 690.303 25.6913 690.711 27.805C691.105 29.8123 691.897 31.7205 693.039 33.4172C694.181 35.1139 695.652 36.5649 697.363 37.6846L693.652 39.8547C691.936 38.733 690.463 37.2779 689.32 35.5758C688.178 33.8738 687.389 31.9595 687 29.9465C686.586 27.8385 685.757 25.8338 684.561 24.0494C683.365 22.265 681.826 20.7365 680.034 19.5529Z" fill="#1C4670"/>
<path d="M693.71 39.829L697.421 37.6875L745.642 65.5275L741.931 67.6976L693.71 39.829Z" fill="#1C4670"/>
<path d="M750.665 66.0116L746.954 68.1817C746.171 68.5448 745.305 68.6912 744.447 68.6059C743.588 68.5205 742.768 68.2064 742.072 67.6962L745.783 65.5547C746.482 66.0602 747.303 66.3693 748.162 66.4496C749.021 66.53 749.885 66.3787 750.665 66.0116Z" fill="#1C4670"/>
<path d="M750.666 62.753L754.377 60.5829C755.206 60.1989 756.122 60.0441 757.031 60.1345C757.94 60.2249 758.808 60.5572 759.545 61.0968L755.833 63.2384C755.095 62.7005 754.225 62.3715 753.316 62.2861C752.407 62.2007 751.491 62.362 750.666 62.753Z" fill="#1C4670"/>
<path d="M802.916 121.319L806.627 119.148L805.771 417.536L802.059 419.706L802.916 121.319Z" fill="#1C4670"/>
<path d="M755.689 63.2404L759.401 61.0703L779.928 72.9202L776.216 75.0903L755.689 63.2404Z" fill="#1C4670"/>
<path d="M775.364 78.7154C788.669 86.3964 799.403 104.985 799.346 120.233L798.49 418.62C798.49 433.897 787.641 440.036 774.365 432.383L657.653 364.968C644.377 357.315 633.614 338.698 633.671 323.45L634.528 25.0627C634.528 9.81499 645.377 3.64735 658.652 11.3283L679.294 23.1782C680.402 23.9239 681.349 24.8843 682.08 26.0025C682.811 27.1207 683.31 28.374 683.548 29.6885C684.097 32.4972 685.204 35.1673 686.802 37.541C688.401 39.9147 690.459 41.9438 692.855 43.5085L741.104 71.3485C745.53 73.9184 749.384 72.662 750.44 68.3218C750.954 66.2945 752.781 65.6949 754.837 66.8941L775.364 78.7154Z" fill="url(#paint5_linear_55_2798)"/>
<path d="M776.363 75.0889L755.836 63.2391C752.495 61.326 749.583 62.2683 748.755 65.5234C747.927 68.7785 745.244 69.5209 742.074 67.6935L693.825 39.8535C692.109 38.7317 690.636 37.2767 689.494 35.5746C688.351 33.8726 687.562 31.9582 687.173 29.9453C686.753 27.8327 685.915 25.8252 684.709 24.0405C683.503 22.2558 681.953 20.7297 680.15 19.5517L659.622 7.70185C644.833 -0.86431 632.814 6.01717 632.757 22.9782L631.9 321.394C631.9 338.527 643.806 359.086 658.595 367.623L775.221 435.153C790.01 443.719 802.029 436.838 802.086 419.848L802.914 121.46C802.971 104.328 791.038 83.6265 776.363 75.0889ZM774.364 432.298L657.652 364.882C644.377 357.23 633.613 338.612 633.671 323.365L634.527 24.9769C634.527 9.72917 645.376 3.56154 658.652 11.2425L679.293 23.178C680.401 23.9238 681.349 24.8841 682.079 26.0023C682.81 27.1205 683.309 28.3739 683.547 29.6883C684.096 32.497 685.203 35.1671 686.802 37.5408C688.4 39.9145 690.458 41.9437 692.854 43.5084L741.104 71.3484C745.529 73.9182 749.383 72.6619 750.44 68.3217C750.954 66.2943 752.781 65.6947 754.836 66.894L775.364 78.7438C788.668 86.4248 799.403 105.013 799.346 120.261L798.489 418.649C798.461 433.897 787.783 440.036 774.364 432.298Z" fill="url(#paint6_linear_55_2798)"/>
<path d="M776.366 75.0869L780.078 72.9453C794.867 81.5115 806.8 102.184 806.743 119.145L803.032 121.316C802.975 104.326 791.041 83.6245 776.366 75.0869Z" fill="#1C4670"/>
<path style="mix-blend-mode:screen" d="M635.353 18.5C634.792 20.6438 634.514 22.8516 634.525 25.0674L633.925 233.196L771.621 430.789L774.476 432.388C787.752 440.04 798.573 433.901 798.601 418.625L799.086 253.298L635.353 18.5Z" fill="url(#paint7_linear_55_2798)"/>
<path d="M766.682 336.042L674.58 282.846C662.903 276.136 652.111 282.189 650.456 296.38L649.513 304.375C647.886 318.652 655.994 335.585 667.671 342.324L759.773 395.491C771.45 402.229 782.242 396.176 783.898 381.956L784.811 373.99C786.467 359.77 778.359 342.78 766.682 336.042Z" fill="#9CC0F8"/>
<path d="M667.873 155.044C665.177 154.665 662.428 154.991 659.896 155.992C657.364 156.993 655.134 158.634 653.427 160.755C648.747 166.773 644.753 173.296 641.521 180.2C638.495 186.311 625.619 209.554 625.619 209.554C625.619 209.554 618.51 224.716 618.367 225.544C618.224 226.372 609.631 238.593 614.37 243.476C619.11 248.358 630.958 249.872 633.128 248.815C650.058 240.649 662.648 210.896 662.648 210.896L667.873 155.044Z" fill="#DDE8F6"/>
<path d="M719.72 313.516L718.892 365.655L718.378 396.55L718.378 401.662C718.204 402.037 718.003 402.399 717.779 402.747L674.44 377.733C674.211 375.506 673.983 373.193 673.755 370.738C673.393 366.931 673.022 362.876 672.641 358.574C670.272 331.248 672.641 304.864 676.495 275.768C676.495 275.768 703.989 275.111 714.724 279.051C716.19 279.46 717.502 280.295 718.492 281.45C723.003 287.874 719.72 313.516 719.72 313.516Z" fill="#373D4A"/>
<path d="M768.538 423.161C768.178 425.593 767.323 427.926 766.025 430.014C764.235 429.414 762.513 428.63 760.886 427.673L725.541 407.285C725.256 405.001 724.913 402.574 724.571 400.147C722.858 387.555 720.888 373.82 718.861 365.654C718.429 363.272 717.568 360.989 716.32 358.915C711.124 352.747 698.762 348.293 695.564 342.297C692.366 336.3 698.076 290.643 698.076 290.643C703.323 286.368 708.856 282.457 714.635 278.936C726.055 272.026 740.587 266.001 747.411 274.053C759.687 288.501 768.909 314.913 767.538 341.354C766.808 365.158 767.285 388.983 768.966 412.739C769.23 416.218 769.087 419.716 768.538 423.161Z" fill="#373D4A"/>
<path d="M660.623 163.097C669.445 154.217 704.019 151.333 704.019 151.333C708.073 150.431 712.268 150.354 716.353 151.105C722.063 152.447 751.098 168.608 751.44 169.379C751.783 170.15 758.806 205.899 757.579 220.519C756.351 235.138 757.208 276.684 756.779 288.534C739.649 305.238 709.386 304.61 697.966 300.527C686.547 296.444 675.783 286.764 674.841 284.422C673.899 282.081 663.992 245.218 663.992 245.218C663.992 245.218 656.341 224.888 655.256 210.953C654.171 197.019 652.115 171.635 660.623 163.097Z" fill="#CBDCF1"/>
<path d="M685.802 189.133C682.776 203.61 693.397 288.158 693.397 288.158L701.362 300.521L705.959 288.929L689.4 189.133L685.802 189.133Z" fill="#595E71"/>
<path d="M674.35 152.759C677.453 157.649 679.252 163.252 679.574 169.035C679.557 170.167 679.79 171.289 680.257 172.321C680.724 173.352 681.413 174.268 682.275 175.002C683.137 175.736 684.151 176.27 685.244 176.567C686.337 176.863 687.481 176.914 688.596 176.716C695.139 175.977 701.209 172.942 705.726 168.15C712.321 161.925 718.773 154.815 717.146 152.873C715.519 150.932 710.694 142.851 710.694 142.851C710.694 142.851 708.467 131.429 707.981 127.004C707.496 122.578 706.725 107.787 703.328 106.445C699.93 105.103 685.57 115.782 685.57 115.782L674.35 152.759Z" fill="#FF9C78"/>
<path d="M695.909 118.778C695.909 118.778 699.535 144.048 698.764 146.532C697.993 149.017 679.321 162.837 676.78 163.065C674.789 163.184 672.794 162.879 670.929 162.171C669.064 161.462 667.37 160.365 665.96 158.953C664.561 157.383 654.54 134.825 653.141 125.117C651.742 115.409 651.314 101.589 653.74 99.1331C656.167 96.6775 671.242 90.1386 677.237 90.567C683.233 90.9953 694.967 103.53 694.967 103.53L695.909 118.778Z" fill="#FF9C78"/>
<path d="M747.268 167.434C740.93 167.205 731.366 177.113 733.164 193.646C734.963 210.179 758.859 261.661 758.859 261.661C758.859 261.661 782.413 269.285 784.269 263.803C786.124 258.32 774.362 212.406 765.825 193.96C757.289 175.514 753.206 168.404 747.268 167.434Z" fill="#DDE8F6"/>
<path d="M634.272 244.525C634.643 236.787 625.878 220.311 622.481 218.826C619.083 217.342 578.286 210.717 578.286 210.717C578.286 210.717 573.946 209.746 571.405 216.114C568.864 222.481 568.208 225.879 569.578 227.25C570.948 228.62 616.428 251.463 631.36 249.065C635.728 246.267 634.272 244.525 634.272 244.525Z" fill="#DDE8F6"/>
<path d="M568.493 210.78C570.206 213.921 569.378 222.202 569.007 222.944C568.563 223.669 567.981 224.299 567.294 224.8L560.614 224.258C558.057 224.895 555.404 225.049 552.791 224.715C549.222 224.058 532.406 216.148 531.778 213.293C531.15 210.438 528.438 199.416 536.26 197.217C541.578 196.001 547.102 196.001 552.42 197.217C553.26 197.373 554.039 197.764 554.666 198.345C555.293 198.927 555.742 199.674 555.96 200.501C556.931 203.442 568.493 210.78 568.493 210.78Z" fill="#FF9C78"/>
<path d="M546.651 156.07L502.627 171.318L509.365 247.957L553.389 232.709L546.651 156.07Z" fill="#F8F7FB"/>
<path d="M542.166 167.063L508.705 178.655L513.816 236.934L547.276 225.341L542.166 167.063Z" fill="#DDDEE2"/>
<path d="M545.532 168.18L505.334 182.085L505.705 186.14L545.875 172.234L545.532 168.18Z" fill="#F8F7FB"/>
<path d="M546.109 174.344L505.939 188.278L506.282 192.333L546.48 178.427L546.109 174.344Z" fill="#F8F7FB"/>
<path d="M546.705 180.539L506.507 194.473L506.878 198.528L547.048 184.594L546.705 180.539Z" fill="#F8F7FB"/>
<path d="M547.273 186.734L507.075 200.669L507.446 204.723L547.616 190.789L547.273 186.734Z" fill="#F8F7FB"/>
<path d="M547.85 192.93L507.68 206.864L508.023 210.919L548.221 196.984L547.85 192.93Z" fill="#F8F7FB"/>
<path d="M548.446 199.125L508.248 213.059L508.619 217.114L548.789 203.18L548.446 199.125Z" fill="#F8F7FB"/>
<path d="M549.023 205.328L508.853 219.262L509.196 223.317L549.394 209.383L549.023 205.328Z" fill="#F8F7FB"/>
<path d="M549.619 211.523L509.421 225.458L509.764 229.512L549.962 215.578L549.619 211.523Z" fill="#F8F7FB"/>
<path d="M550.194 217.719L509.996 231.653L510.367 235.708L550.537 221.773L550.194 217.719Z" fill="#F8F7FB"/>
<path d="M556.531 206.867C556.531 206.867 547.052 208.352 545.596 208.837C543.298 209.057 541.018 209.439 538.773 209.98C536.717 210.865 537.231 214.034 540 214.748C542.37 215.171 544.796 215.171 547.166 214.748C547.166 214.748 551.535 215.034 552.505 216.832C552.857 217.888 553.509 218.817 554.381 219.507C555.253 220.197 556.308 220.617 557.416 220.716C560.642 221.116 566.495 222.258 566.352 217.346C566.209 212.435 556.531 206.867 556.531 206.867Z" fill="#FF9C78"/>
<path d="M659.99 108.045C670.925 111.957 678.205 109.188 678.49 110.158C678.776 111.129 680.004 119.724 680.004 119.724L686.142 121.409L690.624 129.975L695.42 128.775C695.42 128.775 694.792 122.379 698.675 119.724C702.558 117.068 705.841 122.836 705.584 126.463C705.327 130.089 709.581 137.456 709.581 137.456C709.581 137.456 712.807 126.434 713.75 123.693C719.745 106.361 724.598 92.0552 698.532 82.8609C681.659 67.2705 659.505 79.0632 654.023 88.3718C648.542 97.6804 652.139 104.105 652.139 104.105C654.45 105.955 657.125 107.297 659.99 108.045Z" fill="#32364C"/>
<path d="M696.91 125.89C696.339 119.723 698.823 117.781 702.962 118.266C707.102 118.752 706.16 123.977 704.79 128.374C703.419 132.772 702.477 135.998 699.08 135.313C695.682 134.628 696.91 125.89 696.91 125.89Z" fill="#FF9C78"/>
<path d="M715.665 150.96C716.293 156.357 703.874 173.118 686.801 174.774L686.573 176.658L692.568 185.224C692.568 185.224 722.603 176.144 723.231 156.214C721.832 153.358 713.324 147.391 713.324 147.391L715.665 150.96Z" fill="#DDE8F6"/>
<path d="M686.799 174.773C684.755 174.287 682.921 173.155 681.568 171.546C680.216 169.936 679.418 167.934 679.291 165.836C675.351 170.69 677.664 178.971 681.118 182.369C683.039 180.566 684.859 178.66 686.571 176.658L686.799 174.773Z" fill="#DDE8F6"/>
<path d="M646.684 287.276L651.023 285.449C653.407 284.578 655.963 284.281 658.483 284.584C661.003 284.886 663.417 285.78 665.527 287.191L661.187 288.99C659.072 287.59 656.658 286.705 654.139 286.408C651.62 286.11 649.067 286.408 646.684 287.276Z" fill="#DAE6FB"/>
<path d="M765.222 401.55L760.883 403.377C765.936 401.264 769.591 395.925 770.504 388.101L774.844 386.273C773.93 394.097 770.276 399.437 765.222 401.55Z" fill="#DAE6FB"/>
<path d="M661.164 288.992L665.532 287.164L757.634 340.36L753.295 342.187L661.164 288.992Z" fill="#DAE6FB"/>
<path d="M771.422 380.109L775.762 378.281L774.848 386.276L770.48 388.104L771.422 380.109Z" fill="#DAE6FB"/>
<path d="M751.577 348.892C760.37 353.975 766.508 366.824 765.252 377.446L764.338 385.413C763.082 396.149 754.917 400.746 746.124 395.663L654.022 342.468C645.2 337.385 639.061 324.536 640.289 313.914L641.231 305.919C642.459 295.211 650.653 290.614 659.446 295.696L751.577 348.892Z" fill="#F6F9FE"/>
<path d="M753.29 342.187L661.188 288.991C649.511 282.252 638.719 288.334 637.063 302.526L636.121 310.521C634.494 324.798 642.602 341.73 654.279 348.469L746.381 401.636C758.058 408.375 768.85 402.321 770.506 388.101L771.419 380.135C773.075 365.915 764.939 348.926 753.29 342.187ZM764.339 385.532C763.083 396.268 754.917 400.865 746.124 395.782L654.022 342.587C645.2 337.504 639.062 324.655 640.29 314.033L641.232 306.038C642.459 295.33 650.653 290.733 659.447 295.815L751.577 349.011C760.371 354.094 766.509 366.943 765.253 377.565L764.339 385.532Z" fill="#EBF2FD"/>
<path d="M753.292 342.187L757.66 340.359C769.308 347.098 777.445 364.088 775.789 378.307L771.421 380.135C773.077 365.915 764.94 348.926 753.292 342.187Z" fill="#DAE6FB"/>
<path d="M773.51 257.832C765.802 253.492 757.523 258.431 757.523 258.431C757.523 258.431 719.323 304.403 717.553 307.516C715.783 310.628 726.917 322.306 730.372 321.792C733.826 321.278 785.701 276.106 784.474 263.828C781.373 260.951 777.606 258.89 773.51 257.832Z" fill="#DDE8F6"/>
<path d="M719.26 307.859L708.011 314.027C704.326 314.822 700.694 315.843 697.134 317.082C694.157 319.84 691.608 323.026 689.568 326.534C689.566 327.741 689.809 328.935 690.282 330.046C690.031 331.989 690.031 333.956 690.282 335.899C690.796 336.899 694.222 338.184 694.222 338.184C694.222 338.184 694.764 340.211 696.306 340.639C697.103 340.919 697.961 340.979 698.789 340.811C698.789 340.811 699.132 342.581 702.958 341.353C706.783 340.125 707.012 337.156 710.238 335.642C715.107 333.688 719.535 330.775 723.257 327.076C725.23 325.169 726.862 322.938 728.082 320.48C728.082 320.48 729.452 319.11 729.281 318.082C726.906 313.846 723.447 310.318 719.26 307.859Z" fill="#FF9C78"/>
<path d="M686.575 176.656C686.575 176.656 681.978 180.996 682.007 185.222C682.387 188.555 683.519 191.758 685.319 194.588L689.401 195.645C689.401 195.645 695.111 191.076 692.57 185.222C691.261 181.942 689.209 179.01 686.575 176.656Z" fill="#595E71"/>
<path d="M380.516 791.567C380.516 794.323 379.698 797.017 378.168 799.309C376.637 801.6 374.461 803.386 371.915 804.441C369.369 805.495 366.568 805.771 363.865 805.234C361.163 804.696 358.68 803.369 356.732 801.42C354.783 799.471 353.456 796.989 352.919 794.286C352.381 791.583 352.657 788.781 353.711 786.235C354.766 783.689 356.552 781.512 358.843 779.981C361.134 778.45 363.828 777.633 366.583 777.633C368.414 777.629 370.227 777.987 371.919 778.686C373.611 779.385 375.149 780.411 376.443 781.706C377.738 783 378.764 784.538 379.463 786.23C380.162 787.923 380.519 789.736 380.516 791.567Z" fill="#2795E9"/>
<path d="M750.069 704.731C750.069 707.176 749.344 709.567 747.986 711.6C746.627 713.633 744.696 715.218 742.438 716.154C740.179 717.09 737.693 717.334 735.295 716.857C732.897 716.38 730.694 715.203 728.966 713.474C727.237 711.745 726.059 709.541 725.582 707.143C725.105 704.745 725.35 702.259 726.286 700C727.221 697.74 728.806 695.809 730.839 694.451C732.872 693.092 735.262 692.367 737.707 692.367C739.331 692.363 740.941 692.681 742.442 693.301C743.944 693.921 745.308 694.831 746.457 695.98C747.605 697.129 748.516 698.493 749.136 699.995C749.756 701.497 750.073 703.106 750.069 704.731Z" fill="#2795E9"/>
<path style="mix-blend-mode:multiply" d="M461.885 865.119C465.747 865.198 469.564 864.273 472.962 862.435L670.385 748.448C672.364 747.414 674.028 745.866 675.204 743.967C676.379 742.068 677.022 739.888 677.065 737.655C676.942 735.123 676.147 732.67 674.762 730.547C673.378 728.425 671.453 726.709 669.185 725.576L656.452 718.238C652.388 715.968 647.803 714.797 643.148 714.84C639.286 714.765 635.47 715.69 632.071 717.524L434.677 831.511C432.694 832.544 431.025 834.091 429.845 835.99C428.665 837.888 428.016 840.069 427.967 842.305C428.093 844.839 428.892 847.294 430.282 849.417C431.672 851.54 433.603 853.254 435.876 854.383L448.58 861.721C452.646 863.987 457.23 865.158 461.885 865.119Z" fill="url(#paint8_linear_55_2798)"/>
<path d="M674.294 442.437L645.915 426.047C592.156 466.965 567.945 480.042 543.935 486.552C519.81 507.911 478.584 532.553 424.825 553.683L424.825 670.325C424.825 717.382 443.382 740.996 465.308 752.475L493.687 768.864L492.117 761.155C509.287 763.618 526.592 765.029 543.935 765.381C543.935 765.381 645.915 657.476 645.915 542.661L645.915 474.132L674.294 442.437Z" fill="#DD9700"/>
<path d="M424.825 553.685L453.232 570.103L522.637 558.425L572.342 502.945L543.935 486.555C519.81 507.913 478.584 532.555 424.825 553.685Z" fill="#FFD33B"/>
<path d="M671.212 440.638L645.917 426.047C592.157 466.965 567.947 480.042 543.937 486.552L572.344 502.971L633.184 502.971L674.295 442.551L671.212 440.638Z" fill="#FFE359"/>
<path d="M572.343 502.972C548.218 524.301 506.963 548.943 453.232 570.102L453.232 686.716C453.232 801.531 572.314 781.8 572.343 781.8C572.371 781.8 674.294 673.866 674.294 559.08L674.294 442.438C620.563 483.384 596.496 496.461 572.343 502.972Z" fill="#FFAF19"/>
<path d="M572.915 766.664C557.359 768.746 541.543 767.677 526.407 763.523C493.147 753.472 467.138 721.52 467.138 678.975L467.138 582.12C474.998 578.313 482.659 574.258 490.12 569.956C521.982 551.567 555.043 536.291 572.915 520.501C590.787 515.675 605.548 503.368 637.409 484.894C644.889 480.592 652.503 475.833 660.249 470.617L660.249 567.358C660.249 609.903 652.512 661.328 619.252 709.784C605.386 729.978 589.889 749.002 572.915 766.664Z" fill="#FFA229"/>
<path d="M526.407 763.522C493.147 753.471 467.138 721.519 467.138 678.974L467.138 582.119C474.998 578.312 482.659 574.257 490.12 569.955C521.982 551.567 555.043 536.29 572.915 520.5L572.915 766.663C557.359 768.745 541.543 767.677 526.407 763.522Z" fill="#FFA229"/>
<path d="M612.626 593.061C606.884 632.896 586.117 669.023 554.584 694.027L535.227 727.692L514.899 715.956C488.091 700.309 488.091 649.826 514.899 603.226C541.708 556.626 585.103 531.556 611.969 547.203L632.296 558.967L612.626 593.061Z" fill="#2E6BA8"/>
<path d="M535.229 615.045C508.421 661.644 508.421 712.128 535.229 727.775C562.038 743.423 605.434 718.352 632.299 671.781C659.164 625.21 659.107 574.698 632.299 559.05C605.491 543.403 562.009 568.359 535.229 615.045Z" fill="#1C4670"/>
<path d="M565.869 690.714L572.693 694.655C572.381 694.481 572.085 694.281 571.808 694.055L565.099 690.086L565.869 690.714Z" fill="#C6C0D0"/>
<path d="M632.27 599.769L625.446 595.8C624.07 595.174 622.553 594.923 621.048 595.074C619.544 595.224 618.106 595.77 616.881 596.656C613.601 598.674 610.858 601.456 608.887 604.766L615.711 608.735C617.689 605.424 620.43 602.634 623.705 600.597C624.932 599.715 626.371 599.174 627.876 599.029C629.38 598.884 630.896 599.139 632.27 599.769Z" fill="#D3E1FC"/>
<path d="M615.771 608.735L608.947 604.766L576.857 656.591L583.681 660.56L615.771 608.735Z" fill="#D3E1FC"/>
<path d="M552.389 678.235L545.565 674.266L564.979 690.084L571.803 694.053L552.389 678.235Z" fill="#D3E1FC"/>
<path d="M570.093 649.564L563.27 645.623C561.896 644.993 560.38 644.738 558.876 644.883C557.372 645.029 555.933 645.57 554.705 646.451L561.529 650.42C562.754 649.534 564.191 648.988 565.696 648.838C567.2 648.687 568.717 648.938 570.093 649.564Z" fill="#D3E1FC"/>
<path d="M561.555 650.422L554.732 646.453C551.661 648.345 549.064 650.914 547.138 653.963C542.027 661.787 541.428 670.867 545.567 674.265L552.391 678.234C548.165 674.836 548.851 665.727 553.961 657.932C555.879 654.876 558.478 652.306 561.555 650.422Z" fill="#D3E1FC"/>
<path d="M561.555 650.427C558.485 652.295 555.886 654.845 553.961 657.88C548.85 665.675 548.251 674.783 552.391 678.181L571.804 694C574.659 696.285 578.656 695.97 582.739 693.629C586.586 691.23 589.798 687.939 592.103 684.035L631.816 619.931C636.727 612.022 637.098 603.085 632.673 599.944C631.291 599.171 629.715 598.814 628.135 598.915C626.555 599.017 625.037 599.572 623.765 600.515C620.491 602.552 617.75 605.342 615.771 608.653L583.681 660.735L570.805 650.084C569.415 649.183 567.781 648.732 566.126 648.793C564.471 648.855 562.874 649.425 561.555 650.427Z" fill="white"/>
<path d="M41.3786 102.983L45.3756 105.325L44.8617 104.953L40.8647 102.641C41.0293 102.765 41.2009 102.879 41.3786 102.983Z" fill="#3689F5"/>
<path d="M79.0634 51.7026L75.0664 49.3612C74.2631 48.9951 73.3767 48.8498 72.4986 48.9401C71.6204 49.0305 70.7822 49.3532 70.0702 49.8752C68.169 51.0622 66.5901 52.7001 65.4736 54.6437L69.4706 56.9565C70.5997 55.0318 72.1643 53.3986 74.0386 52.188C74.7564 51.6654 75.601 51.3447 76.4848 51.2594C77.3685 51.174 78.2589 51.3271 79.0634 51.7026Z" fill="#3689F5"/>
<path d="M69.3833 56.9586L65.3578 54.6172L47.8281 82.9712L51.8251 85.284L69.3833 56.9586Z" fill="#3689F5"/>
<path d="M35.2719 97.1332L31.2749 94.8203L40.8677 102.616L44.8647 104.957L35.2719 97.1332Z" fill="#3689F5"/>
<path d="M45.6595 80.3172L41.6625 78.0044C40.8566 77.6347 39.9672 77.4849 39.0847 77.5702C38.2022 77.6554 37.358 77.9727 36.6377 78.4898L40.6632 80.8312C41.379 80.3174 42.2166 79.9996 43.093 79.9094C43.9694 79.8193 44.8541 79.9599 45.6595 80.3172Z" fill="#3689F5"/>
<path d="M40.6642 80.8258L36.6386 78.4844C34.8367 79.6015 33.3134 81.1153 32.1848 82.9102C29.3298 87.4788 28.7874 92.8184 31.2712 94.8172L35.2682 97.1586C32.7844 95.1313 33.2126 89.8203 36.2104 85.2231C37.3392 83.4359 38.8628 81.9316 40.6642 80.8258Z" fill="#3689F5"/>
<path d="M40.6685 80.8295C38.8672 81.9353 37.3435 83.4396 36.2147 85.2267C33.3597 89.8239 32.7887 95.1349 35.2726 97.1622L44.8654 104.957C45.8181 105.573 46.9368 105.881 48.0703 105.84C49.2038 105.799 50.2975 105.412 51.2034 104.729C53.4839 103.31 55.3771 101.348 56.7136 99.0182L78.7255 63.4687C81.5805 58.843 81.8375 53.5891 79.2394 51.7616C78.4236 51.3073 77.4941 51.098 76.5624 51.1587C75.6306 51.2195 74.7361 51.5478 73.9863 52.1043C72.0703 53.3009 70.4656 54.9351 69.3041 56.8728L51.7459 85.2267L46.0359 80.5439C45.2202 80.0345 44.2675 79.7886 43.3072 79.8397C42.3469 79.8907 41.4256 80.2363 40.6685 80.8295Z" fill="#8CD1FF"/>
<g opacity="0.76">
<path d="M41.3786 156.303L45.3756 158.645L44.8617 158.188L40.8647 155.875L41.3786 156.303Z" fill="#3689F5"/>
<path d="M79.0634 105.018L75.0664 102.676C74.2642 102.312 73.3803 102.165 72.5033 102.25C71.6264 102.335 70.7873 102.65 70.0702 103.162C68.1744 104.367 66.5976 106.013 65.4736 107.959L69.4706 110.271C70.5997 108.347 72.1643 106.714 74.0386 105.503C74.7564 104.98 75.601 104.66 76.4848 104.574C77.3685 104.489 78.2589 104.642 79.0634 105.018Z" fill="#3689F5"/>
<path d="M69.3833 110.271L65.3578 107.93L47.8281 136.284L51.8251 138.597L69.3833 110.271Z" fill="#3689F5"/>
<path d="M35.2719 150.446L31.2749 148.133L40.8677 155.928L44.8647 158.269L35.2719 150.446Z" fill="#3689F5"/>
<path d="M45.6595 133.63L41.6625 131.317C40.8566 130.947 39.9672 130.797 39.0847 130.883C38.2022 130.968 37.358 131.285 36.6377 131.802L40.6632 134.144C41.3752 133.622 42.2135 133.299 43.0916 133.209C43.9698 133.118 44.8561 133.264 45.6595 133.63Z" fill="#3689F5"/>
<path d="M40.6642 134.138L36.6386 131.797C34.8367 132.914 33.3134 134.428 32.1848 136.223C29.3298 140.791 28.7874 146.131 31.2712 148.13L35.2682 150.471C32.7844 148.444 33.2126 143.133 36.2104 138.536C37.3234 136.736 38.8504 135.228 40.6642 134.138Z" fill="#3689F5"/>
<path d="M40.6685 134.14C38.8548 135.23 37.3277 136.737 36.2147 138.537C33.3597 143.134 32.7887 148.445 35.2726 150.473L44.8654 158.182C45.8037 158.808 46.9064 159.142 48.0344 159.142C49.1624 159.142 50.2651 158.808 51.2034 158.182C53.557 156.79 55.521 154.825 56.9134 152.471L78.9254 116.922C81.7804 112.268 82.0373 107.042 79.4393 105.215C78.6235 104.76 77.694 104.551 76.7622 104.612C75.8304 104.673 74.936 105.001 74.1861 105.557C72.2701 106.754 70.6654 108.388 69.5039 110.326L51.9457 138.68L46.2357 133.997C45.4148 133.422 44.4308 133.125 43.4286 133.151C42.4264 133.176 41.4589 133.523 40.6685 134.14Z" fill="#8CD1FF"/>
</g>
<g opacity="0.52">
<path d="M41.3786 209.577L45.3756 211.89C45.1917 211.796 45.0193 211.681 44.8617 211.547L40.8647 209.234L41.3786 209.577Z" fill="#3689F5"/>
<path d="M79.0634 158.322L75.0664 155.981C74.2642 155.617 73.3803 155.47 72.5033 155.555C71.6264 155.64 70.7873 155.954 70.0702 156.466C68.1854 157.673 66.6109 159.307 65.4736 161.235L69.4706 163.576C70.5946 161.647 72.1601 160.013 74.0386 158.808C74.7564 158.285 75.601 157.964 76.4848 157.879C77.3685 157.794 78.2589 157.947 79.0634 158.322Z" fill="#3689F5"/>
<path d="M69.3833 163.576L65.3578 161.234L47.8281 189.588L51.8251 191.901L69.3833 163.576Z" fill="#3689F5"/>
<path d="M35.2719 203.748L31.2749 201.406L40.8677 209.23L44.8647 211.571L35.2719 203.748Z" fill="#3689F5"/>
<path d="M45.6595 186.934L41.6625 184.622C40.8566 184.252 39.9672 184.102 39.0847 184.187C38.2022 184.273 37.358 184.59 36.6377 185.107L40.6632 187.42C41.3804 186.908 42.2195 186.594 43.0964 186.508C43.9733 186.423 44.8572 186.57 45.6595 186.934Z" fill="#3689F5"/>
<path d="M40.6642 187.414L36.6386 185.102C34.8303 186.235 33.3065 187.769 32.1848 189.585C29.3298 194.153 28.7874 199.493 31.2712 201.491L35.2682 203.804C32.7844 201.806 33.2126 196.466 36.2104 191.897C37.3238 190.075 38.8493 188.54 40.6642 187.414Z" fill="#3689F5"/>
<path d="M40.6685 187.418C38.8602 188.527 37.3352 190.042 36.2147 191.844C33.3597 196.413 32.7887 201.752 35.2726 203.751L44.8654 211.575C45.8353 212.186 46.9667 212.491 48.1124 212.45C49.2581 212.41 50.365 212.025 51.2891 211.346C53.5564 209.911 55.4461 207.953 56.7992 205.635L78.8112 170.086C81.6662 165.432 81.9231 160.206 79.3251 158.379C78.5093 157.924 77.5798 157.715 76.648 157.776C75.7162 157.837 74.8218 158.165 74.0719 158.721C72.1518 159.913 70.546 161.548 69.3897 163.49L51.8315 191.844L46.1216 187.133C45.2915 186.62 44.3248 186.372 43.3504 186.423C42.3761 186.474 41.4405 186.821 40.6685 187.418Z" fill="#8CD1FF"/>
</g>
<g opacity="0.28">
<path d="M41.3772 262.918L45.3742 265.231L44.8603 264.888L40.8633 262.547L41.3772 262.918Z" fill="#3689F5"/>
<path d="M79.0619 211.607L75.0649 209.294C74.2641 208.924 73.3791 208.774 72.501 208.859C71.6229 208.945 70.7834 209.262 70.0687 209.78C68.1839 210.987 66.6094 212.62 65.4722 214.548L69.4692 216.889C70.5851 214.955 72.1523 213.319 74.0371 212.121C74.7522 211.594 75.5956 211.268 76.4793 211.178C77.3631 211.087 78.2549 211.235 79.0619 211.607Z" fill="#3689F5"/>
<path d="M69.3818 216.86L65.3563 214.547L47.8267 242.901L51.8236 245.214L69.3818 216.86Z" fill="#3689F5"/>
<path d="M35.2704 257.068L31.2734 254.727L40.8662 262.55L44.8632 264.863L35.2704 257.068Z" fill="#3689F5"/>
<path d="M45.658 240.248L41.661 237.907C40.8513 237.547 39.9617 237.405 39.0803 237.495C38.1988 237.585 37.3563 237.904 36.6362 238.421L40.6618 240.734C41.3764 240.216 42.216 239.899 43.0941 239.813C43.9722 239.728 44.8571 239.878 45.658 240.248Z" fill="#3689F5"/>
<path d="M40.6627 240.735L36.6372 238.422C34.842 239.536 33.32 241.038 32.1834 242.819C29.3284 247.416 28.7859 252.756 31.2698 254.755L35.2667 257.068C32.7829 255.069 33.2112 249.729 36.2089 245.161C37.3294 243.359 38.8543 241.844 40.6627 240.735Z" fill="#3689F5"/>
<path d="M40.6671 240.731C38.8587 241.84 37.3338 243.355 36.2133 245.156C33.3583 249.725 32.7873 255.065 35.2711 257.063L44.8639 264.887C45.8338 265.498 46.9652 265.804 48.111 265.763C49.2567 265.722 50.3636 265.337 51.2876 264.659C53.5549 263.224 55.4446 261.265 56.7977 258.948L78.8097 223.398C81.6647 218.744 81.9217 213.49 79.3236 211.691C78.5078 211.237 77.5783 211.028 76.6465 211.088C75.7148 211.149 74.8203 211.477 74.0704 212.034C72.1439 213.217 70.5363 214.854 69.3883 216.802L51.8301 245.128L46.1201 240.445C45.2927 239.924 44.3245 239.672 43.3483 239.723C42.3721 239.775 41.4356 240.126 40.6671 240.731Z" fill="#8CD1FF"/>
</g>
<path d="M1074.39 151.022L1078.39 153.364L1077.88 152.993L1073.88 150.68C1074.03 150.816 1074.21 150.932 1074.39 151.022Z" fill="#3689F5"/>
<path d="M1112.08 99.7363L1108.08 97.3948C1107.28 97.0306 1106.4 96.8837 1105.52 96.9689C1104.64 97.0541 1103.81 97.3684 1103.09 97.8803C1101.15 99.0734 1099.54 100.72 1098.38 102.677L1102.4 104.99C1103.56 103.053 1105.17 101.418 1107.09 100.222C1107.8 99.7043 1108.64 99.3867 1109.52 99.3014C1110.4 99.2161 1111.28 99.3662 1112.08 99.7363Z" fill="#3689F5"/>
<path d="M1102.38 104.99L1098.38 102.648L1080.82 131.002L1084.85 133.315L1102.38 104.99Z" fill="#3689F5"/>
<path d="M1068.29 145.164L1064.26 142.852L1073.85 150.647L1077.88 152.988L1068.29 145.164Z" fill="#3689F5"/>
<path d="M1078.68 128.348L1074.68 126.036C1073.88 125.666 1072.99 125.516 1072.11 125.601C1071.22 125.687 1070.38 126.004 1069.66 126.521L1073.66 128.862C1074.37 128.341 1075.22 128.018 1076.1 127.928C1076.98 127.838 1077.87 127.983 1078.68 128.348Z" fill="#3689F5"/>
<path d="M1073.65 128.857L1069.65 126.516C1067.85 127.633 1066.33 129.146 1065.2 130.941C1062.2 135.51 1061.8 140.85 1064.29 142.848L1068.28 145.19C1065.8 143.162 1066.2 137.851 1069.2 133.254C1070.32 131.461 1071.84 129.955 1073.65 128.857Z" fill="#3689F5"/>
<path d="M1073.65 128.865C1071.85 129.962 1070.32 131.468 1069.2 133.262C1066.2 137.859 1065.8 143.17 1068.29 145.198L1077.88 152.993C1078.84 153.621 1079.97 153.937 1081.11 153.896C1082.26 153.855 1083.36 153.46 1084.27 152.764C1086.56 151.353 1088.45 149.389 1089.78 147.054L1111.82 111.504C1114.68 106.85 1114.91 101.624 1112.31 99.7969C1111.5 99.3451 1110.57 99.1371 1109.65 99.1978C1108.72 99.2586 1107.83 99.5856 1107.08 100.14C1105.17 101.336 1103.56 102.97 1102.4 104.908L1084.84 133.262L1079.13 128.579C1078.3 128.052 1077.33 127.796 1076.35 127.848C1075.37 127.899 1074.42 128.254 1073.65 128.865Z" fill="#8CD1FF"/>
<g opacity="0.76">
<path d="M1074.39 204.327L1078.39 206.668L1077.88 206.297L1073.88 203.984L1074.39 204.327Z" fill="#3689F5"/>
<path d="M1112.08 153.041L1108.08 150.7C1107.28 150.335 1106.4 150.188 1105.52 150.274C1104.64 150.359 1103.81 150.673 1103.09 151.185C1101.15 152.378 1099.54 154.025 1098.38 155.982L1102.4 158.295C1103.55 156.348 1105.16 154.711 1107.09 153.526C1107.8 153.009 1108.64 152.691 1109.52 152.606C1110.4 152.521 1111.28 152.671 1112.08 153.041Z" fill="#3689F5"/>
<path d="M1102.38 158.295L1098.38 155.953L1080.82 184.307L1084.85 186.62L1102.38 158.295Z" fill="#3689F5"/>
<path d="M1068.29 198.469L1064.26 196.156L1073.85 203.951L1077.88 206.293L1068.29 198.469Z" fill="#3689F5"/>
<path d="M1078.68 181.653L1074.68 179.34C1073.88 178.971 1072.99 178.821 1072.11 178.906C1071.22 178.991 1070.38 179.309 1069.66 179.826L1073.66 182.167C1074.37 181.645 1075.22 181.323 1076.1 181.233C1076.98 181.143 1077.87 181.288 1078.68 181.653Z" fill="#3689F5"/>
<path d="M1073.65 182.162L1069.65 179.82C1067.85 180.937 1066.33 182.451 1065.2 184.246C1062.2 188.815 1061.8 194.154 1064.29 196.153L1068.28 198.466C1065.8 196.467 1066.2 191.128 1069.2 186.559C1070.32 184.765 1071.84 183.259 1073.65 182.162Z" fill="#3689F5"/>
<path d="M1073.65 182.169C1071.85 183.267 1070.32 184.773 1069.2 186.567C1066.2 191.135 1065.8 196.475 1068.29 198.474L1077.88 206.297C1078.84 206.926 1079.97 207.241 1081.11 207.2C1082.26 207.16 1083.36 206.764 1084.27 206.069C1086.55 204.642 1088.44 202.682 1089.78 200.358L1111.82 164.809C1114.68 160.154 1114.91 154.929 1112.31 153.102C1111.5 152.65 1110.57 152.442 1109.65 152.503C1108.72 152.563 1107.83 152.89 1107.08 153.444C1105.16 154.621 1103.56 156.247 1102.4 158.184L1084.84 186.738L1079.13 182.055C1078.32 181.504 1077.36 181.219 1076.38 181.239C1075.39 181.26 1074.44 181.585 1073.65 182.169Z" fill="#8CD1FF"/>
</g>
<g opacity="0.52">
<path d="M1074.39 257.637L1078.39 259.95C1078.21 259.856 1078.03 259.741 1077.88 259.607L1073.88 257.266C1074.03 257.412 1074.21 257.537 1074.39 257.637Z" fill="#3689F5"/>
<path d="M1112.08 206.326L1108.08 204.013C1107.28 203.643 1106.4 203.493 1105.52 203.578C1104.64 203.663 1103.8 203.981 1103.09 204.498C1101.16 205.691 1099.55 207.326 1098.38 209.267L1102.4 211.608C1103.55 209.661 1105.16 208.024 1107.09 206.84C1107.8 206.323 1108.64 206.004 1109.51 205.914C1110.39 205.823 1111.28 205.965 1112.08 206.326Z" fill="#3689F5"/>
<path d="M1102.38 211.578L1098.38 209.266L1080.82 237.62L1084.85 239.932L1102.38 211.578Z" fill="#3689F5"/>
<path d="M1068.29 251.787L1064.26 249.445L1073.85 257.269L1077.88 259.61L1068.29 251.787Z" fill="#3689F5"/>
<path d="M1078.68 234.967L1074.68 232.625C1073.87 232.266 1072.99 232.124 1072.1 232.214C1071.22 232.304 1070.38 232.623 1069.66 233.139L1073.66 235.452C1074.38 234.935 1075.22 234.618 1076.1 234.533C1076.99 234.447 1077.88 234.597 1078.68 234.967Z" fill="#3689F5"/>
<path d="M1073.65 235.453L1069.65 233.141C1067.86 234.254 1066.34 235.757 1065.2 237.538C1062.2 242.135 1061.8 247.475 1064.29 249.473L1068.28 251.786C1065.8 249.788 1066.2 244.448 1069.2 239.879C1070.33 238.084 1071.85 236.571 1073.65 235.453Z" fill="#3689F5"/>
<path d="M1073.65 235.448C1071.85 236.565 1070.33 238.079 1069.2 239.874C1066.2 244.443 1065.8 249.782 1068.29 251.781L1077.88 259.605C1078.84 260.233 1079.97 260.549 1081.11 260.508C1082.26 260.467 1083.36 260.072 1084.27 259.376C1086.55 257.949 1088.44 255.989 1089.78 253.666L1111.82 218.145C1114.68 213.49 1114.91 208.236 1112.31 206.438C1111.5 205.986 1110.57 205.778 1109.65 205.838C1108.72 205.899 1107.83 206.226 1107.08 206.78C1105.16 207.964 1103.55 209.601 1102.4 211.549L1084.84 239.903L1078.99 235.277C1078.19 234.769 1077.25 234.514 1076.3 234.545C1075.34 234.575 1074.42 234.89 1073.65 235.448Z" fill="#8CD1FF"/>
</g>
<g opacity="0.28">
<path d="M1074.38 310.942L1078.38 313.254L1077.87 312.912L1073.87 310.57C1074.02 310.717 1074.2 310.841 1074.38 310.942Z" fill="#3689F5"/>
<path d="M1112.07 259.63L1108.08 257.318C1107.27 256.947 1106.39 256.797 1105.51 256.883C1104.63 256.968 1103.79 257.286 1103.08 257.803C1101.15 258.996 1099.54 260.631 1098.37 262.571L1102.39 264.913C1103.53 262.959 1105.14 261.32 1107.08 260.144C1107.79 259.622 1108.63 259.3 1109.5 259.209C1110.38 259.119 1111.27 259.264 1112.07 259.63Z" fill="#3689F5"/>
<path d="M1102.37 264.883L1098.37 262.57L1080.81 290.896L1084.84 293.237L1102.37 264.883Z" fill="#3689F5"/>
<path d="M1068.28 305.091L1064.25 302.75L1073.84 310.574L1077.87 312.887L1068.28 305.091Z" fill="#3689F5"/>
<path d="M1078.67 288.272L1074.68 285.93C1073.87 285.57 1072.98 285.428 1072.09 285.519C1071.21 285.609 1070.37 285.928 1069.65 286.444L1073.65 288.757C1074.37 288.24 1075.21 287.923 1076.09 287.837C1076.98 287.752 1077.87 287.902 1078.67 288.272Z" fill="#3689F5"/>
<path d="M1073.64 288.758L1069.65 286.445C1067.85 287.559 1066.33 289.062 1065.19 290.843C1062.19 295.44 1061.79 300.751 1064.28 302.778L1068.28 305.091C1065.79 303.092 1066.19 297.753 1069.19 293.184C1070.32 291.389 1071.84 289.875 1073.64 288.758Z" fill="#3689F5"/>
<path d="M1073.64 288.753C1071.84 289.87 1070.32 291.384 1069.19 293.179C1066.19 297.748 1065.79 303.087 1068.28 305.086L1077.87 312.91C1078.83 313.538 1079.96 313.854 1081.1 313.813C1082.25 313.772 1083.35 313.377 1084.26 312.681C1086.54 311.254 1088.43 309.294 1089.77 306.971L1111.82 271.421C1114.67 266.767 1114.9 261.513 1112.3 259.714C1111.49 259.255 1110.57 259.043 1109.64 259.104C1108.71 259.165 1107.82 259.496 1107.08 260.057C1105.14 261.233 1103.53 262.871 1102.39 264.825L1084.84 293.151L1079.13 288.468C1078.29 287.945 1077.32 287.691 1076.34 287.743C1075.36 287.794 1074.42 288.147 1073.64 288.753Z" fill="#8CD1FF"/>
</g>
<defs>
<linearGradient id="paint0_linear_55_2798" x1="147.84" y1="756.158" x2="256.073" y2="756.158" gradientUnits="userSpaceOnUse">
<stop offset="0.21" stop-color="#F3F4F5"/>
<stop offset="0.79" stop-color="#E9EAED"/>
<stop offset="1" stop-color="#E4E5E9"/>
</linearGradient>
<linearGradient id="paint1_linear_55_2798" x1="842.513" y1="758.89" x2="1024.52" y2="758.89" gradientUnits="userSpaceOnUse">
<stop offset="0.21" stop-color="#F3F4F5"/>
<stop offset="0.79" stop-color="#E9EAED"/>
<stop offset="1" stop-color="#E4E5E9"/>
</linearGradient>
<linearGradient id="paint2_linear_55_2798" x1="524.383" y1="344.241" x2="320.565" y2="140.452" gradientUnits="userSpaceOnUse">
<stop stop-color="#3385FF"/>
<stop offset="1" stop-color="#7BAEFA"/>
</linearGradient>
<linearGradient id="paint3_linear_55_2798" x1="534.663" y1="307.095" x2="308.589" y2="176.603" gradientUnits="userSpaceOnUse">
<stop offset="0.07" stop-color="#1F79FF"/>
<stop offset="0.55" stop-color="#7BAEFA"/>
<stop offset="1" stop-color="#90BBFB"/>
</linearGradient>
<linearGradient id="paint4_linear_55_2798" x1="509.312" y1="301.093" x2="303.678" y2="167.687" gradientUnits="userSpaceOnUse">
<stop/>
<stop offset="0.49" stop-color="#21227B"/>
<stop offset="0.84" stop-color="#3739CB"/>
<stop offset="1" stop-color="#3F42EB"/>
</linearGradient>
<linearGradient id="paint5_linear_55_2798" x1="614.628" y1="323.765" x2="818.417" y2="119.975" gradientUnits="userSpaceOnUse">
<stop stop-color="#3385FF"/>
<stop offset="1" stop-color="#7BAEFA"/>
</linearGradient>
<linearGradient id="paint6_linear_55_2798" x1="604.35" y1="286.616" x2="830.395" y2="156.123" gradientUnits="userSpaceOnUse">
<stop offset="0.07" stop-color="#1F79FF"/>
<stop offset="0.55" stop-color="#7BAEFA"/>
<stop offset="1" stop-color="#90BBFB"/>
</linearGradient>
<linearGradient id="paint7_linear_55_2798" x1="629.7" y1="280.624" x2="835.305" y2="147.218" gradientUnits="userSpaceOnUse">
<stop/>
<stop offset="0.49" stop-color="#21227B"/>
<stop offset="0.84" stop-color="#3739CB"/>
<stop offset="1" stop-color="#3F42EB"/>
</linearGradient>
<linearGradient id="paint8_linear_55_2798" x1="677.094" y1="789.965" x2="427.967" y2="789.965" gradientUnits="userSpaceOnUse">
<stop offset="0.21" stop-color="#F3F4F5"/>
<stop offset="0.79" stop-color="#E9EAED"/>
<stop offset="1" stop-color="#E4E5E9"/>
</linearGradient>
</defs>
</svg>
