<svg width="1000" height="987" viewBox="0 0 1000 987" fill="none" xmlns="http://www.w3.org/2000/svg">
<g clip-path="url(#clip0_1_2)">
<rect width="1000" height="987" fill="white"/>
<g clip-path="url(#clip1_1_2)">
<path d="M1021.99 -25H-22.9976V1020H1021.99V-25Z" fill="white"/>
<path d="M932.162 682.72H797.981C821.845 682.72 841.192 659.19 841.192 630.17C841.192 601.147 821.845 577.62 797.981 577.62H902.599C926.463 577.62 945.81 554.093 945.81 525.07C945.81 496.047 926.463 472.523 902.599 472.523H882.862C895.782 463.437 904.492 446.494 904.492 427.044C904.492 405.136 893.466 386.377 877.799 378.487H928.373C952.239 378.487 971.588 354.96 971.588 325.938C971.588 296.915 952.239 273.388 928.373 273.388H794.194C818.055 273.388 837.4 249.861 837.4 220.84C837.4 191.818 818.055 168.293 794.194 168.293H898.807C922.673 168.293 942.018 144.766 942.018 115.743C942.018 86.7206 922.673 63.1934 898.807 63.1934H53.1582C29.2943 63.1934 9.94751 86.7206 9.94751 115.743C9.94751 144.766 29.2967 168.293 53.1582 168.293H107.745C83.879 168.293 64.5298 191.818 64.5298 220.84C64.5298 249.861 83.879 273.388 107.745 273.388H82.7264C58.86 273.388 39.5108 296.915 39.5108 325.938C39.5108 354.96 58.86 378.487 82.7264 378.487H158.317C142.647 386.377 131.619 405.136 131.619 427.044C131.619 446.494 140.332 463.437 153.249 472.523H56.9504C33.084 472.523 13.7397 496.047 13.7397 525.07C13.7397 554.093 33.084 577.62 56.9504 577.62H111.533C87.6712 577.62 68.322 601.145 68.322 630.17C68.322 659.19 87.6712 682.72 111.533 682.72H86.5186C62.6546 682.72 43.303 706.244 43.303 735.267C43.303 764.289 62.6546 787.814 86.5186 787.814H162.111C146.441 795.706 135.409 814.465 135.409 836.373C135.409 865.396 154.758 888.923 178.62 888.923H865.073C888.939 888.923 908.284 865.396 908.284 836.373C908.284 814.465 897.259 795.706 881.591 787.814H932.165C956.026 787.814 975.376 764.289 975.376 735.267C975.376 706.244 956.024 682.72 932.162 682.72Z" fill="#BCE1E5"/>
<path d="M199.534 928.233C199.534 908.102 327.552 891.783 485.464 891.783C643.379 891.783 765.565 915.463 765.565 935.591C765.565 955.72 643.379 964.683 485.464 964.683C327.552 964.683 199.534 948.366 199.534 928.233Z" fill="#C0C2C4"/>
<path d="M238.503 633.077L187.838 664.708V948.492L238.503 918.285V633.077Z" fill="#3E0D00"/>
<path d="M811.162 633.043L760.504 664.708V948.492L811.162 918.255V633.043Z" fill="#3E0D00"/>
<path d="M760.504 664.708H187.838V684.966H760.504V664.708Z" fill="#582100"/>
<path d="M238.469 633.077L187.838 664.708H760.504L811.142 633.077H238.469Z" fill="#71300D"/>
<path d="M760.504 664.708H752.858V948.494H760.504V664.708Z" fill="#572000"/>
<path d="M195.484 664.708H187.838V948.494H195.484V664.708Z" fill="#572000"/>
<path d="M613.678 923.64C613.678 930.482 608.136 936.031 601.292 936.031C594.452 936.031 588.903 930.482 588.903 923.64C588.903 916.8 594.452 911.256 601.292 911.256C608.136 911.256 613.678 916.8 613.678 923.64Z" fill="#00010D"/>
<path d="M601.292 880.493V913.976" stroke="#00010D" stroke-width="3.6881" stroke-miterlimit="10"/>
<path d="M669.669 601.248H653.955V731.77H669.669V601.248Z" fill="#28313B"/>
<path d="M682.36 619.511C682.36 623.308 678.487 626.387 673.712 626.387H649.912C645.141 626.387 641.266 623.308 641.266 619.511C641.266 615.719 645.141 612.639 649.912 612.639H673.712C678.487 612.639 682.36 615.719 682.36 619.511Z" fill="#1B232D"/>
<path d="M682.36 637.307C682.36 641.101 678.487 644.181 673.712 644.181H649.912C645.141 644.181 641.266 641.101 641.266 637.307C641.266 633.507 645.141 630.43 649.912 630.43H673.712C678.487 630.433 682.36 633.507 682.36 637.307Z" fill="#1B232D"/>
<path d="M682.36 655.098C682.36 658.895 678.487 661.972 673.712 661.972H649.912C645.141 661.972 641.266 658.895 641.266 655.098C641.266 651.303 645.141 648.226 649.912 648.226H673.712C678.487 648.226 682.36 651.303 682.36 655.098Z" fill="#1B232D"/>
<path d="M682.36 672.742C682.36 676.534 678.487 679.613 673.712 679.613H649.912C645.141 679.613 641.266 676.534 641.266 672.742C641.266 668.944 645.141 665.865 649.912 665.865H673.712C678.487 665.867 682.36 668.944 682.36 672.742Z" fill="#1B232D"/>
<path d="M682.36 690.537C682.36 694.332 678.487 697.412 673.712 697.412H649.912C645.141 697.412 641.266 694.332 641.266 690.537C641.266 686.74 645.141 683.663 649.912 683.663H673.712C678.487 683.663 682.36 686.74 682.36 690.537Z" fill="#1B232D"/>
<path d="M682.36 706.851C682.36 710.644 678.487 713.721 673.712 713.721H649.912C645.141 713.721 641.266 710.644 641.266 706.851C641.266 703.054 645.141 699.972 649.912 699.972H673.712C678.487 699.972 682.36 703.054 682.36 706.851Z" fill="#1B232D"/>
<path d="M680.512 744.881C680.512 759.903 668.334 772.078 653.313 772.078H549.27C534.251 772.078 522.074 759.903 522.074 744.881C522.074 729.855 534.249 717.682 549.27 717.682H653.313C668.334 717.682 680.512 729.855 680.512 744.881Z" fill="#D83633"/>
<path d="M653.313 717.682H653.121C654.225 720.641 654.856 723.831 654.856 727.176C654.856 742.198 642.676 754.375 627.66 754.375H523.811C527.662 764.705 537.594 772.078 549.268 772.078H653.311C668.332 772.078 680.51 759.903 680.51 744.881C680.512 729.855 668.334 717.682 653.313 717.682Z" fill="#D1D3D4"/>
<path d="M718.685 574.091C718.685 594.116 702.449 610.351 682.427 610.351H608.842C588.822 610.351 572.586 594.116 572.586 574.091V537.852C572.586 517.827 588.822 501.597 608.842 501.597H682.427C702.449 501.597 718.685 517.827 718.685 537.852V574.091Z" fill="#D83633"/>
<path d="M686.329 501.811C691.294 507.616 694.312 515.144 694.312 523.379V556.585C694.312 574.931 679.441 589.808 661.087 589.808H593.671C586.194 589.808 579.315 587.306 573.768 583.14C577.792 598.78 591.945 610.351 608.839 610.351H682.424C702.447 610.351 718.682 594.116 718.682 574.091V537.852C718.685 519.145 704.519 503.762 686.329 501.811Z" fill="#D1D3D4"/>
<path d="M609.257 772.078H593.329V883.459H609.257V772.078Z" fill="#151D27"/>
<path d="M599.49 880.493L549.536 922.792" stroke="#151D27" stroke-width="3.6881" stroke-miterlimit="10"/>
<path d="M604.388 880.493L654.338 922.792" stroke="#151D27" stroke-width="3.6881" stroke-miterlimit="10"/>
<path d="M559.315 928.238C559.315 935.075 553.77 940.615 546.931 940.615C540.086 940.615 534.542 935.075 534.542 928.238C534.542 921.393 540.086 915.849 546.931 915.849C553.77 915.849 559.315 921.393 559.315 928.238Z" fill="#151D27"/>
<path d="M666.732 928.238C666.732 935.075 661.18 940.615 654.338 940.615C647.498 940.615 641.951 935.075 641.951 928.238C641.951 921.393 647.498 915.849 654.338 915.849C661.18 915.849 666.732 921.393 666.732 928.238Z" fill="#151D27"/>
<path d="M583.486 479.54H551.202V454.857L583.486 440.723V479.54Z" fill="#F9A374"/>
<path d="M564.572 473.857C557.004 468.529 555.788 458.48 560.081 450.969L551.202 454.857V479.54H583.486V477.905C576.88 478.908 569.627 477.419 564.572 473.857Z" fill="#E6E7E8"/>
<path d="M639.435 678.989L647.144 500.353C645.07 472.847 625.893 470.35 625.893 470.35L580.387 465.541L564.894 475.88L550.566 466.632L513.361 491.073C513.361 491.073 507.719 495.428 503.536 514.63L513.315 678.986H639.435V678.989Z" fill="#E6E7E8"/>
<path d="M571.974 475.882H559.094L550.878 491.117L559.772 504.406L560.3 504.438H570.19L578.907 491.113L571.974 475.882Z" fill="#D83633"/>
<path d="M559.772 504.406L557.383 645.201L568.959 665.226L579.829 644.353L570.19 504.438L559.772 504.406Z" fill="#98221E"/>
<path d="M642.964 678.989L647.144 498.665C645.07 471.156 625.893 468.662 625.893 468.662L584.024 464.059L594.024 678.991L642.964 678.989Z" fill="#003F54"/>
<path d="M549.671 678.989L550.568 466.634L513.364 491.076C513.364 491.076 507.721 495.431 503.538 514.633L513.317 678.989H549.671Z" fill="#003F54"/>
<path d="M513.32 678.989H642.964C642.964 678.989 661.025 750.812 573.382 744.483C573.382 744.483 503.066 746.693 513.32 678.989Z" fill="#181421"/>
<path d="M513.32 678.989L406.802 697.896L430.754 915.864H458.032L454.982 733.591H533.443L513.32 678.989Z" fill="#181421"/>
<path d="M545.188 470.122L551.372 462.842L564.896 475.882L540.565 498.768L545.188 470.122Z" fill="white"/>
<path d="M589.001 464.533L583.486 458.133L564.896 475.882L593.329 498.768L589.001 464.533Z" fill="white"/>
<path d="M601.351 396.561C600.749 405.763 604.964 413.517 610.744 413.885C616.527 414.259 621.698 407.114 622.285 397.913C622.875 388.719 618.667 380.962 612.877 380.589C607.097 380.218 601.936 387.372 601.351 396.561Z" fill="#F9A374"/>
<path d="M609.54 393.28C609.54 393.28 609.554 392.767 609.67 391.921C609.778 391.071 610.068 389.862 610.596 388.549C611.147 387.281 612.11 385.792 613.538 385.593C613.89 385.541 614.263 385.561 614.647 385.62C614.708 385.649 615.106 385.735 615.229 385.802C615.364 385.89 615.497 385.917 615.672 386.037C616.318 386.443 616.881 387.109 617.296 387.888C617.743 388.652 618.073 389.522 618.306 390.397C618.52 391.267 618.707 392.187 618.69 392.985C618.635 393.905 618.704 394.841 618.608 395.647C618.522 396.468 618.451 397.24 618.372 397.957C618.242 398.682 618.146 399.356 618.065 399.95C617.992 400.553 617.834 401.056 617.763 401.484C617.581 402.332 617.5 402.836 617.5 402.836C617.5 402.836 617.738 402.391 618.107 401.597C618.272 401.191 618.537 400.72 618.739 400.14C618.948 399.562 619.191 398.908 619.427 398.186C619.641 397.453 619.813 396.625 620.004 395.755C620.206 394.88 620.231 394.003 620.336 393.066C620.415 392 620.309 390.99 620.058 389.96C619.813 388.942 619.459 387.925 618.925 386.957C618.385 386.013 617.625 385.101 616.596 384.482C616.365 384.325 616.03 384.197 615.728 384.081C615.399 383.973 615.313 383.978 614.917 383.894C614.342 383.838 613.767 383.85 613.197 383.973C612.044 384.229 611.159 385.023 610.631 385.814C610.073 386.61 609.788 387.443 609.586 388.2C609.205 389.729 609.257 391.024 609.311 391.906C609.392 392.801 609.54 393.28 609.54 393.28Z" fill="#C8825F"/>
<path d="M609.54 393.28C609.54 393.28 608.884 392.361 612.587 391.808C612.587 391.808 616.839 392.069 614.993 396.78C614.593 397.793 614.271 398.832 614.148 399.923C613.976 401.459 614.917 403.45 614.096 404.876C613.032 406.724 609.618 406.026 609.159 404.062C608.807 402.563 610.385 399.796 611.122 398.64C611.122 398.64 613.359 395.123 609.54 393.28Z" fill="#C8825F"/>
<path d="M609.132 403.865C609.139 403.87 609.011 403.941 608.876 404.133C608.719 404.325 608.557 404.627 608.444 405.025C608.362 405.224 608.35 405.441 608.333 405.681C608.316 405.925 608.281 406.185 608.365 406.436C608.426 406.689 608.468 406.969 608.559 407.235C608.662 407.488 608.824 407.716 608.967 407.96C609.137 408.183 609.269 408.449 609.481 408.611C609.672 408.793 609.906 408.935 610.102 409.083C610.503 409.41 610.936 409.574 611.329 409.641C612.101 409.837 612.634 409.783 612.634 409.783C612.634 409.783 612.354 409.26 611.906 408.741C611.796 408.601 611.675 408.466 611.54 408.343C611.425 408.188 611.329 408.011 611.206 407.866C611.086 407.719 610.98 407.549 610.832 407.417C610.682 407.281 610.631 407.09 610.525 406.935C610.267 406.645 610.125 406.311 609.94 405.986C609.842 405.831 609.781 405.669 609.714 405.507C609.663 405.34 609.552 405.18 609.505 405.028C609.277 404.413 609.132 403.865 609.132 403.865Z" fill="#C8825F"/>
<path d="M504.418 363.943C504.418 363.943 497.804 433.058 531.641 454.815C531.641 454.815 548.548 471.432 568.853 456.875C568.853 456.875 598.984 440.622 603.948 428.226C603.948 428.226 629.96 315.999 566.806 312.374C566.806 312.374 512.872 299.891 504.418 363.943Z" fill="#F9A374"/>
<path d="M566.803 312.374C566.803 312.374 562.524 311.381 556.176 311.393C567.381 315.743 575.953 325.041 581.67 336.368C589.775 352.419 595.351 372.147 596.288 390.149C597.519 414.035 585.255 438.41 563.766 449.974C554.807 454.793 543.603 459.34 533.313 456.228C538.051 459.915 552.325 468.726 568.853 456.875C568.853 456.875 598.984 440.622 603.948 428.226C603.948 428.226 629.96 316.001 566.803 312.374Z" fill="#E6E7E8"/>
<path d="M568.3 380.899C568.3 383.907 570.741 386.345 573.746 386.345C576.757 386.345 579.19 383.907 579.19 380.899C579.19 377.895 576.757 375.452 573.746 375.452C570.741 375.452 568.3 377.898 568.3 380.899Z" fill="#2E2E2F"/>
<path d="M573.427 377.416C572.992 378.026 573.621 379.232 574.845 380.112C576.064 380.985 577.406 381.203 577.846 380.594C578.288 379.984 577.656 378.78 576.435 377.895C575.213 377.023 573.867 376.804 573.427 377.416Z" fill="white"/>
<path d="M563.372 362.66C563.372 362.66 561.003 363.454 560.75 366.118C560.75 366.118 560.856 369.289 563.5 369.013C563.5 369.013 582.999 366.497 590.527 371.338C590.527 371.338 589.618 357.04 563.372 362.66Z" fill="#3C2415"/>
<path d="M535.544 380.899C535.544 383.907 533.106 386.345 530.103 386.345C527.092 386.345 524.657 383.907 524.657 380.899C524.657 377.895 527.092 375.452 530.103 375.452C533.106 375.452 535.544 377.898 535.544 380.899Z" fill="#2E2E2F"/>
<path d="M530.418 377.416C530.858 378.026 530.221 379.232 529 380.112C527.781 380.985 526.439 381.203 525.996 380.594C525.559 379.984 526.19 378.78 527.407 377.895C528.631 377.023 529.98 376.804 530.418 377.416Z" fill="white"/>
<path d="M540.469 362.66C540.469 362.66 542.846 363.454 543.092 366.118C543.092 366.118 542.981 369.289 540.342 369.013C540.342 369.013 520.843 366.497 513.317 371.338C513.317 371.338 514.229 357.04 540.469 362.66Z" fill="#3C2415"/>
<path d="M547.921 393.354C547.921 393.354 547.238 395.645 546.053 398.822C545.461 400.393 544.768 402.224 544.028 404.187C543.851 404.674 543.672 405.17 543.49 405.672L543.2 406.421C543.173 406.49 543.055 406.802 543.102 406.67L543.028 406.982C542.804 407.923 542.706 408.943 542.696 409.906C542.711 410.872 542.839 411.794 543.134 412.583C543.416 413.389 543.93 413.986 544.544 414.517C545.822 415.534 547.717 415.928 549.317 416.073C550.949 416.242 552.377 416.161 553.38 416.154C554.392 416.119 554.97 416.1 554.97 416.1C554.97 416.1 554.439 416.341 553.507 416.763C552.551 417.125 551.175 417.646 549.376 417.923C547.611 418.157 545.286 418.292 542.917 416.975C541.752 416.326 540.735 415.21 540.12 413.952C539.479 412.691 539.204 411.324 539.145 410.012C539.083 408.692 539.218 407.427 539.491 406.176L539.619 405.672C539.752 405.274 539.752 405.333 539.823 405.141L540.15 404.35C540.379 403.831 540.602 403.317 540.826 402.811C541.344 401.838 541.836 400.894 542.34 400.027C542.898 399.184 543.389 398.37 543.92 397.667C545.999 394.821 547.921 393.354 547.921 393.354Z" fill="#D78E65"/>
<path d="M536.316 426.412H566.668C566.668 426.412 566.125 437.631 551.492 438.799C551.492 438.799 538.117 439.558 536.316 426.412Z" fill="white"/>
<path d="M533.802 426.412C533.802 426.412 536.1 426.132 539.548 425.893C542.996 425.665 547.594 425.512 552.192 425.505C556.791 425.51 561.389 425.66 564.837 425.891C568.285 426.129 570.583 426.412 570.583 426.412C570.583 426.412 568.283 426.695 564.837 426.933C561.389 427.164 556.791 427.312 552.192 427.319C547.594 427.312 542.998 427.162 539.548 426.931C536.1 426.692 533.802 426.412 533.802 426.412Z" fill="#CD8861"/>
<path d="M536.687 428.312C536.687 428.312 536.798 428.936 537.188 429.944C537.387 430.445 537.646 431.045 538.036 431.676C538.412 432.313 538.901 432.989 539.499 433.652C540.084 434.328 540.836 434.94 541.674 435.508C542.101 435.781 542.576 436.004 543.035 436.265C543.527 436.471 544.026 436.68 544.537 436.891C545.07 437.044 545.613 437.201 546.161 437.356C546.724 437.459 547.297 437.565 547.874 437.671C549.01 437.806 550.29 437.941 551.431 437.921C553.815 437.897 556.208 437.452 558.292 436.678C560.379 435.904 562.173 434.768 563.409 433.453C564.665 432.165 565.486 430.846 565.955 429.872C566.444 428.907 566.666 428.312 566.666 428.312C566.666 428.312 566.636 428.467 566.58 428.754C566.523 429.044 566.457 429.477 566.28 430C566.123 430.531 565.896 431.172 565.557 431.875C565.233 432.588 564.783 433.362 564.169 434.119C562.967 435.645 561.153 437.174 558.892 438.145C556.646 439.145 554.058 439.661 551.455 439.728C550.099 439.733 548.889 439.57 547.597 439.396C546.967 439.266 546.338 439.155 545.731 438.99C545.134 438.784 544.542 438.582 543.959 438.381C543.401 438.108 542.846 437.865 542.327 437.577C541.836 437.236 541.339 436.931 540.895 436.582C540.022 435.857 539.265 435.095 538.697 434.294C537.523 432.709 537.083 431.114 536.847 430.04C536.635 428.948 536.687 428.312 536.687 428.312Z" fill="#CD8861"/>
<path d="M540.565 431.738C540.565 431.738 541.932 431.593 543.981 431.482C546.031 431.359 548.762 431.315 551.495 431.283C554.225 431.313 556.958 431.357 559.008 431.482C561.055 431.59 562.421 431.738 562.421 431.738C562.421 431.738 561.055 431.885 559.008 431.993C556.958 432.119 554.227 432.161 551.495 432.193C548.764 432.161 546.031 432.116 543.981 431.993C541.934 431.88 540.565 431.738 540.565 431.738Z" fill="#D1D3D4"/>
<path d="M546.901 428.312C546.901 428.312 547.049 428.789 547.157 429.501C547.282 430.216 547.324 431.168 547.356 432.119C547.324 433.072 547.285 434.023 547.159 434.736C547.049 435.449 546.904 435.926 546.904 435.926C546.904 435.926 546.759 435.449 546.648 434.736C546.525 434.021 546.483 433.07 546.451 432.119C546.483 431.165 546.525 430.214 546.651 429.501C546.756 428.789 546.901 428.312 546.901 428.312Z" fill="#D1D3D4"/>
<path d="M554.267 428.312C554.267 428.312 554.412 428.789 554.522 429.501C554.645 430.216 554.689 431.168 554.719 432.119C554.689 433.072 554.645 434.023 554.522 434.736C554.414 435.449 554.267 435.926 554.267 435.926C554.267 435.926 554.119 435.449 554.011 434.736C553.886 434.021 553.844 433.07 553.815 432.119C553.844 431.165 553.891 430.214 554.011 429.501C554.122 428.789 554.267 428.312 554.267 428.312Z" fill="#D1D3D4"/>
<path d="M504.418 364.73C503.939 370.043 503.536 375.575 503.924 380.899C503.924 380.899 489.913 335.768 519.223 305.256C536.54 287.222 566.671 291.056 566.671 291.056C605.937 292.946 617.947 330.335 617.947 330.335C624.517 359.111 615.458 380.94 615.458 380.94C610.483 380.186 609.274 380.94 609.274 380.94L607.977 402.843H604.723V379.006C604.425 363.626 593.24 363.57 593.24 363.57C595.278 357.022 594.658 350.35 592.348 343.844C590.711 339.234 585.076 334.557 580.139 333.992C578.89 333.849 575.99 334.935 575.641 336.339C572.476 348.885 543.846 346.801 543.691 346.781C539.58 346.196 535.168 345.031 531.759 342.586C530.01 341.328 528.614 339.929 527.97 337.776C527.277 335.444 528.169 332.859 525.883 331.074C523.856 329.492 519.822 329.275 517.78 330.905C517.78 330.905 506.529 341.51 511.061 358.431C511.061 358.431 504.995 358.288 504.418 364.73Z" fill="#3C2415"/>
<path d="M546.333 441.669C546.333 441.669 546.948 441.625 547.766 441.571C548.179 441.542 548.644 441.537 549.13 441.529C549.622 441.49 550.13 441.556 550.647 441.505C551.163 441.527 551.671 441.529 552.163 441.519C552.65 441.517 553.124 441.581 553.529 441.571C554.35 441.605 554.975 441.736 554.975 441.736C554.975 441.736 554.535 442.139 553.756 442.586C553.372 442.832 552.881 442.969 552.347 443.105C551.816 443.274 551.229 443.301 550.642 443.316C550.054 443.328 549.469 443.227 548.936 443.109C548.403 442.982 547.921 442.785 547.525 442.579C546.736 442.144 546.333 441.669 546.333 441.669Z" fill="#CD8861"/>
<path d="M457.874 915.864H430.698C430.698 915.864 422.081 922.354 406.517 924.424C406.517 924.424 398.999 924.431 397.445 930.391C397.445 930.391 396.408 934.023 397.445 937.916C397.445 937.916 418.186 943.965 438.805 937.916C438.805 937.916 442.701 935.373 443.087 938.477H457.877C457.877 938.477 460.865 927.1 457.874 915.864Z" fill="#0A0313"/>
<path d="M522.681 915.864H495.504C495.504 915.864 486.89 922.354 471.33 924.424C471.33 924.424 463.807 924.431 462.254 930.391C462.254 930.391 461.212 934.023 462.254 937.916C462.254 937.916 482.994 943.965 503.612 937.916C503.612 937.916 507.507 935.373 507.893 938.477H522.681C522.681 938.477 525.667 927.1 522.681 915.864Z" fill="#0A0313"/>
<path d="M586.88 744.385H542.996L522.256 915.864H495.337L485.828 712.838L571.284 678.989H642.964C642.964 678.989 648.742 704.482 635.94 723.868C635.94 723.868 620.122 746.123 586.88 744.385Z" fill="#23202D"/>
<path d="M522.074 510.113C522.074 510.113 514.875 626.235 371.291 624.515" stroke="#003F54" stroke-width="14.7523" stroke-miterlimit="10"/>
<path d="M345.215 615.183C345.215 615.183 340.519 611.981 337.397 612.765L322.268 628.899L319.614 631.224C319.614 631.224 324.561 633.471 329.331 628.899C329.331 628.899 340.592 616.294 345.215 615.183Z" fill="#F9A374"/>
<path d="M354.476 615.183C354.476 615.183 349.784 611.981 346.663 612.765L331.526 628.899L328.876 631.224C328.876 631.224 333.829 633.471 338.597 628.899C338.597 628.899 349.855 616.294 354.476 615.183Z" fill="#F9A374"/>
<path d="M338.221 613.04C338.221 613.04 333.524 609.843 330.405 610.622L315.273 626.754L312.622 629.086C312.622 629.086 317.569 631.327 322.342 626.754C322.342 626.754 333.603 614.148 338.221 613.04Z" fill="#F9A374"/>
<path d="M371.466 627.535C371.466 627.535 360.509 632.529 354.387 633.082C354.387 633.082 349.469 634.672 341.974 640.433C341.974 640.433 337.188 643.055 338.004 635.412C338.004 635.412 344.716 627.697 351.15 625.807C351.15 625.807 339.794 609.68 330.405 610.622C330.405 610.622 345.473 606.984 352.76 608.619C352.76 608.619 356.975 609.088 371.466 608.619V627.535Z" fill="#F9A374"/>
<path d="M316.782 632.038H356.68C356.68 632.038 350.573 621.642 350.573 605.728C350.573 589.807 324.273 584.155 324.273 605.728C324.276 627.299 316.782 632.038 316.782 632.038Z" fill="#A7A9AC"/>
<path d="M469.497 609.732C469.497 615.674 467.418 616.068 461.677 616.068H202.688C196.951 616.068 195.329 615.674 195.329 609.732V430.153C195.329 424.21 196.949 423.035 202.688 423.035H461.677C467.42 423.035 469.497 424.212 469.497 430.153V609.732Z" fill="#BCBEC0"/>
<path d="M296.752 643.033V645.171C296.752 647.059 298.097 648.583 299.761 648.583H373.129C374.788 648.583 376.138 647.059 376.138 645.171V643.033H296.752Z" fill="#D1D3D4"/>
<path d="M462.377 431.202H201.987V597.446H462.377V431.202Z" fill="#58595B"/>
<path d="M458.098 434.208H206.268V594.44H458.098V434.208Z" fill="#249DC3"/>
<path d="M353.451 528.472C280.37 576.342 206.099 594.197 206.099 594.197L206.438 433.957L458.268 434.446C458.268 434.446 426.529 480.599 353.451 528.472Z" fill="#56B9D6"/>
<path d="M316.782 632.038H356.683L376.133 643.033H296.752L316.782 632.038Z" fill="#BCBEC0"/>
<path d="M354.559 529.02C354.559 535.601 344.645 540.947 332.411 540.947C320.176 540.947 310.26 535.601 310.26 529.02C310.26 522.428 320.176 517.09 332.411 517.09C344.645 517.09 354.559 522.428 354.559 529.02Z" fill="#95979A"/>
<path d="M339.98 537.791C339.98 541.829 336.591 545.098 332.406 545.098C328.228 545.098 324.834 541.829 324.834 537.791C324.834 533.746 328.225 530.475 332.406 530.475C336.591 530.477 339.98 533.748 339.98 537.791Z" fill="#95979A"/>
<path d="M393.754 416.633C393.754 382.752 366.29 360.289 332.406 360.289C298.527 360.289 271.072 382.752 271.072 416.633C271.072 445.543 294.872 458.711 302.041 478.62C307.61 494.091 302.265 501.951 305.964 501.951C314.428 501.951 352.514 501.951 358.858 501.951C361.549 501.951 354.64 495.743 360.207 480.948C367.769 460.846 393.754 444.837 393.754 416.633Z" fill="#F7941D"/>
<path d="M304.619 398.444C307.768 383.169 315.445 371.002 326.274 360.542C295.275 363.081 271.072 384.821 271.072 416.633C271.072 445.543 294.872 458.711 302.041 478.62C307.61 494.091 302.265 501.951 305.964 501.951H337.707C312.479 475.361 297.269 434.11 304.619 398.444Z" fill="#E5CBC7"/>
<path d="M358.858 501.951H305.964L309.52 532.232H356.194L358.858 501.951Z" fill="#BEC0C2"/>
<path d="M336.982 527.656L356.407 529.813L356.786 525.495L336.982 527.656Z" fill="#A3A5A8"/>
<path d="M342.468 519.029L357.228 520.469L357.484 517.589L342.468 519.029Z" fill="#A3A5A8"/>
<path d="M329.877 511.057L357.931 512.487L358.184 509.616L329.877 511.057Z" fill="#A3A5A8"/>
<path d="M328.27 525.535L308.94 527.302L308.549 523.994L328.27 525.535Z" fill="#A3A5A8"/>
<path d="M323.949 516.572L307.849 518.012L307.512 515.136L323.949 516.572Z" fill="#A3A5A8"/>
<path d="M335.377 508.931L306.92 510.115L306.615 507.495L335.377 508.931Z" fill="#A3A5A8"/>
<path d="M389.972 415.082C389.972 433.962 378.782 449.264 364.98 449.264C351.175 449.264 339.983 433.96 339.983 415.082C339.983 396.2 351.178 380.901 364.98 380.901C378.782 380.901 389.972 396.203 389.972 415.082Z" fill="#FCAF17"/>
<path d="M632.575 497.584C621.381 473.351 725.689 657.207 493.017 632.195" stroke="#003F54" stroke-width="15.3255" stroke-miterlimit="10"/>
<path d="M478.981 621.359L466.843 618.928C466.843 618.928 450.937 622.755 448.452 624.817C445.982 626.877 448.853 629.499 448.853 629.499L452.119 628.368L463.085 625.296L471.618 626.987C471.618 626.987 478.971 627.434 478.981 621.359Z" fill="#E1956A"/>
<path d="M473.434 643.181C489.704 639.167 492.029 646.444 492.029 646.444L493.504 625.952C489.557 621.293 478.315 621.229 478.315 621.229L461.5 622.128C461.5 622.128 451.571 628.992 449.474 631.499C447.385 634.009 450.649 636.031 450.649 636.031L453.675 634.284L461.343 628.462L470.873 629.499L460.937 630.639L453.517 637.744C449.644 641.421 453.906 643.613 453.906 643.613L462.992 635.486L476.858 637.663C472.272 638.666 464.601 640.504 464.601 640.504C464.601 640.504 463.284 644.102 466.85 644.102L473.434 643.181Z" fill="#F9A374"/>
<path d="M622.187 521.487C622.187 521.487 622.895 522.917 623.878 525.532C624.826 528.152 626.156 531.932 627.25 536.614C627.81 538.951 628.331 541.507 628.724 544.245C629.13 546.975 629.462 549.883 629.582 552.908C629.697 555.931 629.739 559.077 629.439 562.264C629.226 565.454 628.643 568.672 627.96 571.867C627.122 575.025 626.151 578.168 624.782 581.102C623.536 584.091 621.784 586.787 620.024 589.306C619.13 590.557 618.117 591.693 617.173 592.828C616.148 593.897 615.094 594.89 614.101 595.878C613.015 596.763 611.958 597.628 610.938 598.463C609.879 599.242 608.785 599.899 607.778 600.575C605.73 601.875 603.715 602.845 601.933 603.647C600.102 604.354 598.566 605.082 597.217 605.473C594.538 606.291 593.007 606.701 593.007 606.701C593.007 606.701 594.44 605.981 596.947 604.819C598.212 604.268 599.635 603.354 601.311 602.447C602.167 602.015 602.963 601.363 603.858 600.783C604.73 600.167 605.713 599.623 606.595 598.857C607.497 598.117 608.478 597.404 609.412 596.571C610.319 595.716 611.258 594.833 612.223 593.924C613.096 592.929 614.018 591.933 614.907 590.877C615.701 589.741 616.635 588.677 617.409 587.47C618.975 585.069 620.422 582.476 621.575 579.692C622.816 576.949 623.679 573.99 624.436 571.019C625.114 568.02 625.711 564.988 625.954 561.947C626.257 558.917 626.414 555.906 626.397 552.987C626.36 547.145 625.873 541.669 625.212 536.997C624.534 532.333 623.848 528.43 623.202 525.734C622.592 523.028 622.187 521.487 622.187 521.487Z" fill="#00212F"/>
<path d="M796.391 734.07C851.519 666.585 884.599 580.382 884.599 486.445C884.599 270.114 709.228 94.7424 492.896 94.7424C276.565 94.7424 101.191 270.114 101.191 486.445C101.191 580.382 134.274 666.585 189.404 734.07" stroke="#003D5B" stroke-width="1.0661" stroke-miterlimit="10" stroke-dasharray="3.2 3.2"/>
<path d="M580.472 99.8535C581.753 53.6128 545.306 15.0885 499.066 13.8071C452.825 12.5257 414.301 48.9725 413.019 95.2132C411.738 141.454 448.185 179.978 494.425 181.26C540.666 182.541 579.19 146.094 580.472 99.8535Z" fill="#1C4670"/>
<path d="M672.055 206.628C672.055 252.886 709.552 290.387 755.813 290.387C802.071 290.387 839.572 252.888 839.572 206.628C839.572 160.367 802.071 122.868 755.813 122.868C709.552 122.868 672.055 160.367 672.055 206.628Z" fill="#FFA229"/>
<path d="M104.966 206.628C104.966 252.886 142.465 290.387 188.723 290.387C234.981 290.387 272.483 252.888 272.483 206.628C272.483 160.367 234.981 122.868 188.723 122.868C142.465 122.868 104.966 160.367 104.966 206.628Z" fill="#FFA229"/>
<path d="M803.842 481.307C803.842 527.565 841.341 565.067 887.599 565.067C933.857 565.067 971.359 527.565 971.359 481.307C971.359 435.049 933.857 397.547 887.599 397.547C841.341 397.547 803.842 435.049 803.842 481.307Z" fill="#1C4670"/>
<path d="M181.687 503.585C192.317 458.566 164.44 413.453 119.42 402.822C74.4006 392.192 29.2875 420.07 18.6572 465.089C8.0268 510.109 35.9047 555.222 80.9241 565.852C125.944 576.483 171.057 548.605 181.687 503.585Z" fill="#1C4670"/>
<path d="M559.875 97.7505C559.875 132.6 531.629 160.849 496.779 160.849C461.93 160.849 433.679 132.6 433.679 97.7505C433.679 62.9032 461.93 34.6523 496.779 34.6523C531.629 34.6523 559.875 62.9032 559.875 97.7505Z" fill="#2599A3"/>
<path d="M515.512 40.0841C522.587 44.3285 525.06 52.2324 525.772 60.2714C525.991 62.7291 528.859 63.5057 530.287 61.4929C533.025 57.6442 538.238 64.4249 539.948 66.187C541.229 67.3888 542.32 68.7504 543.229 70.2717L541.111 75.9833C540.182 74.7913 539.412 73.501 538.798 72.1247C537.414 69.3525 535.419 63.3582 531.189 63.7736C526.593 64.2209 522.224 66.4647 518.485 69.0846C517.507 69.7703 516.17 70.8271 515.834 72.051C515.091 74.7544 520.734 83.5873 512.599 83.3784C510.808 83.3342 510.09 85.2241 510.724 86.6471C513.265 92.3268 520.919 94.9319 520.771 101.688C520.744 102.981 522.108 104.072 523.366 103.664C524.819 103.197 525.834 102.782 527.237 102.167C528.771 101.388 530.353 100.707 531.973 100.135C534.328 100.132 535.519 101.098 535.556 103.03C533.661 104.249 532.642 104.878 532.13 107.208C531.251 111.236 529.488 114.81 528.943 119.01C527.852 127.427 527.92 134.343 521.732 140.944C520.673 142.072 521.717 143.881 523.226 143.51C526.64 142.672 529.542 140.182 533.037 139.725C533.684 139.642 534.271 139.339 534.443 138.654C535.053 136.258 539.469 127.619 542.915 127.906C542.733 130.634 547.016 131.63 547.813 128.705C550.428 119.115 555.255 110.364 558.4 100.978C558.45 99.9087 558.479 98.8322 558.479 97.7508C558.479 69.4827 539.884 45.5746 514.261 37.5454C513.789 37.3979 513.145 39.2067 515.512 40.0841Z" fill="#A7C3D2"/>
<path d="M454.515 58.3569C455.07 57.9612 455.63 57.6171 456.196 57.2853C455.183 60.7482 453.628 63.9431 454.372 67.6886C455.127 71.4783 459.398 75.4573 461.713 78.4483C463.131 80.2817 464.653 81.9799 466.388 83.5135C468.995 85.8188 466.469 85.8237 464.168 88.2151C462.362 90.0853 460.413 93.3172 462.18 95.9321C464.611 99.5179 463.527 102.909 464.599 106.807C465.867 111.411 473.463 117.754 467.098 122.637C464.223 124.839 466.818 128.474 466.621 131.291C466.343 135.25 467.216 139.288 468.678 143.011C468.597 144.056 468.57 145.125 468.614 146.211C468.735 149.126 473.23 149.146 473.156 146.211C472.873 135.051 479.956 129.138 487.258 121.838C492.68 116.419 499.765 113.743 505.121 108.533C507.819 105.915 507.428 101.781 505.035 99.1885C503.594 97.6279 501.09 96.7923 499.227 95.9075C497.988 95.3202 496.784 94.7008 495.59 94.0299C493.009 92.5799 495.946 92.602 497.462 91.9507C499.456 91.0954 498.947 87.6105 496.848 87.2639C490.129 86.1506 485.848 80.7487 479.536 78.7752C477.047 77.9985 474.673 77.6717 472.087 77.4628C467.327 77.0794 466.968 74.8797 467.049 70.3724C467.088 68.2785 464.832 67.2659 463.117 68.1162C462.913 68.2195 462.711 68.3202 462.507 68.421C459.55 58.9442 474.958 57.4377 475.171 64.4568C475.265 67.4699 479.711 68.2047 480.492 65.1769C481.699 60.5245 486.037 53.6504 492.225 57.4549C493.773 58.4085 496.059 57.1895 495.958 55.3118C495.862 53.5005 495.978 51.7752 496.13 50.0278C497.015 50.1851 497.9 50.3449 498.782 50.5464C501.001 51.0502 502.692 48.3836 501.026 46.6903C499.104 44.7365 491.451 42.4336 488.423 40.2242C495.096 39.1232 500.657 40.062 507.431 39.3542C508.743 39.2165 509.559 37.3585 509.48 36.3411C505.374 35.5006 502.13 36.1494 497.775 36.1494C481.547 36.1494 466.756 42.2788 455.576 52.3429C454.547 53.444 453.524 54.5819 452.499 55.7542C451.33 57.0912 452.89 59.512 454.515 58.3569Z" fill="#A7C3D2"/>
<path d="M453.522 56.865C454.075 56.4718 454.635 56.1252 455.203 55.791C454.188 59.2539 452.635 62.4488 453.379 66.1943C454.134 69.984 458.405 73.963 460.72 76.954C462.138 78.7874 463.662 80.4856 465.395 82.0168C468.005 84.3221 465.476 84.3294 463.173 86.7183C461.372 88.5886 459.42 91.8204 461.19 94.4354C463.618 98.0211 462.537 101.413 463.606 105.308C464.874 109.914 472.468 116.257 466.105 121.138C463.232 123.34 465.825 126.975 465.631 129.791C465.348 133.751 466.223 137.789 467.688 141.512C467.607 142.556 467.582 143.623 467.626 144.709C467.744 147.622 472.24 147.644 472.163 144.709C471.883 133.549 478.966 127.636 486.265 120.339C491.687 114.918 498.772 112.244 504.133 107.031C506.821 104.413 506.433 100.28 504.039 97.6868C502.599 96.1262 500.097 95.2906 498.229 94.4059C496.993 93.8185 495.789 93.1992 494.592 92.5282C492.014 91.0757 494.948 91.0978 496.47 90.449C498.463 89.5938 497.954 86.1088 495.858 85.7623C489.136 84.6489 484.852 79.247 478.541 77.2759C476.051 76.4968 473.68 76.17 471.094 75.9635C466.331 75.5777 465.975 73.3781 466.056 68.8732C466.093 66.7792 463.834 65.7667 462.124 66.617C461.92 66.7202 461.716 66.821 461.512 66.9218C458.555 57.445 473.96 55.9385 474.179 62.9576C474.27 65.9707 478.718 66.7055 479.502 63.6777C480.704 59.0253 485.044 52.1536 491.23 55.9557C492.781 56.9092 495.064 55.6927 494.966 53.8126C494.87 52.0013 494.988 50.276 495.135 48.5286C496.02 48.6859 496.907 48.8432 497.787 49.0472C500.006 49.551 501.7 46.8869 500.033 45.1911C498.109 43.2397 490.458 40.9369 487.43 38.725C494.1 37.6264 500.773 38.7889 507.544 38.081C508.859 37.9434 509.571 36.9505 509.495 35.9306C505.389 35.0901 501.134 34.6501 496.782 34.6501C480.554 34.6501 465.764 40.7796 454.584 50.8437C453.554 51.9448 452.531 53.0827 451.509 54.255C450.334 55.5968 451.9 58.0176 453.522 56.865Z" fill="white"/>
<path d="M515.431 39.2853C523.651 43.2741 526.411 51.6965 527.171 60.2713C527.39 62.729 530.255 63.5056 531.686 61.4928C534.423 57.6441 539.634 64.4248 541.347 66.1869C542.625 67.3887 543.721 68.7503 544.625 70.2716L542.507 75.9832C541.578 74.7912 540.808 73.501 540.196 72.1247C538.81 69.3524 536.812 63.3582 532.585 63.7735C527.994 64.2208 523.619 66.4647 519.884 69.0845C518.908 69.7702 517.569 70.827 517.232 72.0509C516.487 74.7544 522.133 83.5872 513.998 83.3783C512.206 83.3341 511.488 85.224 512.12 86.647C514.664 92.3267 522.314 94.9318 522.169 101.688C522.14 102.981 523.502 104.072 524.762 103.664C526.215 103.197 527.232 102.782 528.633 102.167C530.169 101.388 531.745 100.707 533.369 100.135C535.726 100.132 536.918 101.098 536.955 103.03C535.06 104.249 534.038 104.878 533.529 107.208C532.647 111.236 530.884 114.809 530.341 119.01C529.252 127.427 529.319 134.343 523.13 140.944C522.074 142.072 523.113 143.881 524.625 143.51C528.038 142.672 530.941 140.182 534.433 139.725C535.082 139.642 535.672 139.339 535.839 138.654C536.449 136.257 540.865 127.619 544.311 127.906C544.129 130.634 548.415 131.63 549.209 128.705C551.826 119.115 556.655 110.364 559.796 100.978C559.848 99.9086 559.873 98.8321 559.873 97.7508C559.873 68.9666 540.59 44.6971 514.243 37.1201C514.209 37.9926 514.565 38.8626 515.431 39.2853Z" fill="white"/>
<path d="M792.457 216.908H716.382L697.51 169.006H798.001L792.457 216.908Z" fill="#93CED4" stroke="black" stroke-width="1.7719" stroke-miterlimit="10" stroke-linecap="round" stroke-linejoin="round"/>
<path d="M719.284 238.199H789.928L798.778 163.673L810.009 160.298" stroke="black" stroke-width="1.7719" stroke-miterlimit="10" stroke-linecap="round" stroke-linejoin="round"/>
<path d="M736.218 246.666C736.218 251.343 732.428 255.132 727.754 255.132C723.077 255.132 719.287 251.343 719.287 246.666C719.287 241.989 723.077 238.199 727.754 238.199C732.428 238.199 736.218 241.989 736.218 246.666Z" fill="#93CED4" stroke="black" stroke-width="1.4423" stroke-miterlimit="10" stroke-linecap="round" stroke-linejoin="round"/>
<path d="M731.138 246.666C731.138 248.536 729.624 250.052 727.753 250.052C725.881 250.052 724.364 248.536 724.364 246.666C724.364 244.795 725.881 243.279 727.753 243.279C729.621 243.279 731.138 244.795 731.138 246.666Z" fill="black"/>
<path d="M788.478 246.666C788.478 251.343 784.688 255.132 780.011 255.132C775.334 255.132 771.544 251.343 771.544 246.666C771.544 241.989 775.334 238.199 780.011 238.199C784.688 238.199 788.478 241.989 788.478 246.666Z" fill="#93CED4" stroke="black" stroke-width="1.4423" stroke-miterlimit="10" stroke-linecap="round" stroke-linejoin="round"/>
<path d="M783.395 246.666C783.395 248.536 781.879 250.052 780.008 250.052C778.138 250.052 776.624 248.536 776.624 246.666C776.624 244.795 778.138 243.279 780.008 243.279C781.879 243.279 783.395 244.795 783.395 246.666Z" fill="black"/>
<path d="M814.121 162.233C814.121 164.503 812.275 166.347 810.009 166.347C807.733 166.347 805.895 164.503 805.895 162.233C805.895 159.962 807.733 158.121 810.009 158.121C812.275 158.121 814.121 159.962 814.121 162.233Z" fill="black"/>
<path d="M795.3 192.958H706.944" stroke="black" stroke-width="1.7719" stroke-miterlimit="10" stroke-linecap="round" stroke-linejoin="round"/>
<path d="M751.121 169.006V215.456" stroke="black" stroke-width="1.7719" stroke-miterlimit="10" stroke-linecap="round" stroke-linejoin="round"/>
<path d="M717.348 169.006L732.831 215.456" stroke="black" stroke-width="1.7719" stroke-miterlimit="10" stroke-linecap="round" stroke-linejoin="round"/>
<path d="M775.41 169.006L771.542 215.456" stroke="black" stroke-width="1.7719" stroke-miterlimit="10" stroke-linecap="round" stroke-linejoin="round"/>
<path d="M796.907 178.441H701.38" stroke="black" stroke-width="1.7719" stroke-miterlimit="10" stroke-linecap="round" stroke-linejoin="round"/>
<path d="M793.688 206.264H712.268" stroke="black" stroke-width="1.7719" stroke-miterlimit="10" stroke-linecap="round" stroke-linejoin="round"/>
<path d="M955.68 481.297C956.203 517.901 926.952 547.998 890.345 548.516C853.738 549.037 823.642 519.786 823.123 483.179C822.605 446.575 851.853 416.478 888.46 415.957C925.067 415.439 955.164 444.692 955.68 481.297Z" fill="#EE332A"/>
<path d="M888.625 427.486C858.386 427.916 834.22 452.778 834.65 483.017C835.08 513.259 859.942 537.422 890.181 536.992C920.422 536.56 944.586 511.7 944.156 481.461C943.726 451.222 918.864 427.058 888.625 427.486ZM890.036 526.746C865.452 527.095 845.245 507.449 844.898 482.872C844.547 458.293 864.193 438.084 888.772 437.735C913.352 437.386 933.561 457.03 933.91 481.609C934.256 506.188 914.615 526.395 890.036 526.746Z" fill="white"/>
<path d="M888.91 447.762C869.873 448.032 854.655 463.687 854.925 482.729C855.198 501.767 870.851 516.984 889.891 516.714C908.933 516.446 924.148 500.788 923.88 481.749C923.607 462.709 907.952 447.494 888.91 447.762ZM889.733 505.519C876.877 505.701 866.302 495.428 866.12 482.57C865.938 469.711 876.214 459.138 889.075 458.956C901.928 458.772 912.504 469.048 912.686 481.909C912.867 494.767 902.589 505.338 889.733 505.519Z" fill="white"/>
<path d="M889.232 470.07C882.513 470.166 877.14 475.691 877.236 482.41C877.327 489.129 882.852 494.499 889.576 494.406C896.293 494.31 901.663 488.785 901.567 482.066C901.476 475.344 895.946 469.974 889.232 470.07ZM889.47 487.043C886.816 487.08 884.636 484.961 884.599 482.307C884.56 479.655 886.683 477.475 889.333 477.436C891.987 477.396 894.169 479.517 894.204 482.169C894.243 484.823 892.122 487.003 889.47 487.043Z" fill="white"/>
<path d="M949.868 518.548L951.637 529.15L954.392 530.728L954.232 526.341L957.071 532.264L963.407 535.894L963.453 530.934L966.019 537.391L971.576 540.573L969.807 529.976L949.868 518.548Z" fill="#F9A45A"/>
<path d="M951.005 516.557L961.632 513.269L966.206 514.886L962.394 516.432L967.919 516.871L972.763 519.651L970.546 520.787L975.762 521.367L981.569 524.694L970.947 527.985L951.005 516.557Z" fill="#DA844D"/>
<path d="M888.89 483.514C888.018 483.01 888.578 480.751 890.254 481.577L974.282 529.108C975.159 529.607 975.462 530.725 974.958 531.605C974.457 532.483 973.338 532.785 972.458 532.281L888.89 483.514Z" fill="#603913"/>
<path d="M143.903 535.235C143.903 539.895 140.128 543.675 135.468 543.675H66.9164C62.2591 543.675 58.4817 539.897 58.4817 535.235V470.065C58.4817 465.408 62.2591 461.628 66.9164 461.628H135.471C140.13 461.628 143.905 465.408 143.905 470.065L143.903 535.235Z" fill="#FFC421"/>
<path d="M138.321 535.997C138.321 540.239 135.035 543.675 130.988 543.675H71.4016C67.3513 543.675 64.0679 540.239 64.0679 535.997V477.396C64.0679 473.155 67.3513 469.719 71.4016 469.719H130.985C135.033 469.719 138.319 473.155 138.319 477.396L138.321 535.997Z" fill="#FFD31C"/>
<path d="M101.191 415.23C85.4989 415.23 72.7461 427.788 72.4143 443.402V461.631H82.1688V443.402C82.4981 433.166 90.8738 424.965 101.191 424.965C111.508 424.965 119.887 433.166 120.221 443.402V461.631H129.97V443.402C129.639 427.788 116.886 415.23 101.191 415.23Z" fill="#D1D3D4"/>
<path d="M110.584 498.002C110.584 492.816 106.382 488.611 101.193 488.611C96.0102 488.611 91.8052 492.816 91.8052 498.002C91.8052 501.523 93.7443 504.588 96.6124 506.198L94.3538 520.568H107.488L105.698 506.247C108.611 504.647 110.584 501.555 110.584 498.002Z" fill="#E49723"/>
<path d="M94.9633 498.002C94.9633 493.357 98.3426 489.508 102.776 488.753C102.26 488.665 101.732 488.608 101.191 488.608C96.0078 488.608 91.8027 492.813 91.8027 497.999C91.8027 501.521 93.7418 504.586 96.6099 506.195L94.3513 520.565H97.5119L99.7729 506.195C96.9049 504.588 94.9633 501.523 94.9633 498.002Z" fill="#D27D21"/>
<path d="M148.509 143.925L117.605 192.171L221.418 258.668L252.322 210.422L148.509 143.925Z" fill="#51693C"/>
<path d="M119.53 191.926L149.081 145.788L250.393 210.681L119.53 191.926Z" fill="#445F37"/>
<path d="M226.257 242.871L239.988 221.43C233.937 217.555 231.691 210.258 234.974 205.136L160.546 157.462C157.263 162.586 149.696 163.599 143.647 159.721L129.914 181.161C135.965 185.037 138.211 192.332 134.927 197.453L209.358 245.127C212.641 240.008 220.206 238.995 226.257 242.871Z" fill="#6F8A52"/>
<path d="M225.229 241.416L238.238 221.106C232.357 217.343 230.118 210.359 233.224 205.502L160.944 159.205C157.833 164.056 150.551 164.941 144.674 161.176L131.666 181.486C137.545 185.249 139.784 192.233 136.68 197.087L208.96 243.385C212.069 238.533 219.351 237.654 225.229 241.416Z" fill="#E8E2C3"/>
<path d="M207.441 215.702C199.284 228.442 182.599 232.32 170.173 224.365C157.754 216.409 154.301 199.631 162.461 186.89C170.618 174.15 187.303 170.272 199.726 178.227C212.15 186.185 215.603 202.961 207.441 215.702Z" fill="#51693C"/>
<path d="M190.807 213.984C189.294 216.35 187.246 217.766 184.668 218.235C182.09 218.705 179.244 218.167 176.133 216.623L173.454 220.796L171.827 219.752L174.498 215.579C171.588 213.713 169.136 210.995 167.145 207.419L171.139 201.182L171.908 201.673C169.62 206.792 170.77 210.98 175.361 214.234L183.995 200.756C180.249 194.074 179.47 189.021 181.665 185.598C182.995 183.518 184.825 182.314 187.158 181.98C189.49 181.648 192.061 182.245 194.87 183.774L196.836 180.704L198.468 181.749L196.47 184.868C199.542 186.834 201.579 189.316 202.594 192.307L199.218 197.584L198.448 197.092C199.358 194.831 199.606 192.86 199.195 191.176C198.785 189.493 197.642 187.758 195.765 185.969L188.178 197.815C190.662 202.025 192.051 205.46 192.329 208.12C192.503 210.174 191.995 212.128 190.807 213.984ZM187.003 196.055L194.101 184.976C192.653 184.275 191.105 184.14 189.456 184.573C187.807 185.003 186.62 185.779 185.904 186.898C184.695 188.783 185.061 191.835 187.003 196.055ZM186.359 212.691C187.898 210.292 187.49 206.918 185.13 202.568L176.99 215.279C178.775 216.151 180.525 216.348 182.233 215.861C183.938 215.38 185.317 214.32 186.359 212.691Z" fill="#E8E2C3"/>
</g>
</g>
<defs>
<clipPath id="clip0_1_2">
<rect width="1000" height="987" fill="white"/>
</clipPath>
<clipPath id="clip1_1_2">
<rect width="1000" height="987" fill="white"/>
</clipPath>
</defs>
</svg>
