<svg width="1016" height="1044" viewBox="0 0 1016 1044" fill="none" xmlns="http://www.w3.org/2000/svg">
<g clip-path="url(#clip0_639_5777)">
<rect width="1016" height="1044" fill="white"/>
<path d="M38.2886 900.634C115.119 892.74 199.065 899.966 276.71 899.964C357.642 899.959 438.571 899.954 519.503 899.947C681.364 899.936 843.226 899.924 1005.09 899.924C1008.73 899.924 1012.36 899.924 1016 899.924C1016 899.924 1016 970.023 877.692 944.032C759.039 921.735 640.622 928.818 519.632 927.326C429.968 926.221 355.685 949.024 271.882 970.458C203.846 987.858 59.1028 1011.52 11.5457 977.83C-22.8353 953.473 35.5151 927.185 48.8645 902.064C45.6908 900.015 42.4246 900.209 38.2886 900.634Z" fill="#EBEFF3"/>
<path d="M206.38 877.667C214.869 880.862 245.105 896.811 243.407 905.229C241.709 913.647 199.588 913.896 177.516 908.423C155.443 902.95 155.061 904.373 146.572 903.445C138.082 902.515 124.881 889.46 144.125 869.155C144.125 869.155 159.972 877.568 178.649 878.368C197.323 879.166 206.38 877.667 206.38 877.667Z" fill="#424AAA"/>
<path opacity="0.36" d="M159.449 878.972C154.772 877.769 151.726 875.102 150.049 871.826C146.327 870.32 144.125 869.155 144.125 869.155C124.881 889.46 138.082 902.515 146.572 903.445C155.061 904.375 155.443 902.953 177.516 908.423C190.21 911.572 209.523 912.821 223.976 911.717C204.124 897.406 183.227 885.083 159.449 878.972Z" fill="#424AAA"/>
<path d="M180.339 844.026C178.642 844.519 176.384 860.912 176.384 860.912C176.384 860.912 201.285 874.618 206.379 877.667C211.473 880.716 188.121 894.782 172.421 891.495C164.499 889.834 143.557 885.166 141.293 879.032C139.028 872.897 151.473 859.203 148.644 845.31L180.339 844.026Z" fill="#F8D2A1"/>
<path d="M86.1818 546.188C83.355 592.341 97.9606 609.63 112.638 655.753C118.028 672.692 137.72 715.569 142.853 739.497C151.696 780.728 143.292 846.004 142.085 857.803C142.085 857.803 160.623 867.951 179.383 862.099C179.383 862.099 195.547 807.309 192.98 712.125C190.128 606.391 175.02 540.016 175.02 540.016L86.1818 546.188Z" fill="#424AAA"/>
<path opacity="0.36" d="M142.853 739.5C147.218 759.859 147.377 786.074 146.276 808.824C168.677 758.073 185.557 705.609 189.755 650.273C184.379 581.178 175.02 540.019 175.02 540.019L86.1818 546.189C83.355 592.341 97.9606 609.63 112.638 655.753C118.03 672.693 137.722 715.57 142.853 739.5Z" fill="#424AAA"/>
<path d="M145.622 884.993C154.111 888.185 184.347 904.137 182.649 912.555C180.951 920.972 138.83 921.222 116.758 915.749C94.6852 910.276 94.3035 911.699 85.8141 910.771C77.3247 909.841 64.1232 896.786 83.3667 876.48C83.3667 876.48 99.2144 884.894 117.891 885.694C136.568 886.492 145.622 884.993 145.622 884.993Z" fill="#424AAA"/>
<path d="M113.372 851.35C111.674 851.842 115.637 868.238 115.637 868.238C115.637 868.238 140.539 881.944 145.632 884.993C150.726 888.042 127.374 902.108 111.674 898.821C103.752 897.162 82.8104 892.492 80.5458 886.358C78.2812 880.223 84.5083 866.529 81.677 852.636L113.372 851.35Z" fill="#F8D2A1"/>
<path d="M67.1115 558.976C64.2847 605.128 78.8902 622.417 93.5675 668.542C98.9572 685.482 93.6693 731.901 93.579 756.375C93.4148 800.404 78.3999 851.26 77.1924 863.059C77.1924 863.059 95.7303 873.207 114.49 867.355C114.49 867.355 149.012 792.097 156.47 704.108C161.802 641.198 155.947 552.809 155.947 552.809L67.1115 558.976Z" fill="#424AAA"/>
<path d="M565.334 911.909H283.071C248.282 911.909 221.933 883.707 224.216 848.919L269.386 160.838C271.669 126.049 301.722 97.8469 336.51 97.8469H618.776C653.564 97.8469 679.913 126.049 677.63 160.838L632.46 848.919C630.175 883.707 600.124 911.909 565.334 911.909Z" fill="#26A5DE"/>
<path d="M555.485 911.909H273.219C238.431 911.909 212.081 883.707 214.364 848.919L259.534 160.838C261.817 126.049 291.87 97.8469 326.659 97.8469H608.926C643.715 97.8469 670.064 126.049 667.781 160.838L622.611 848.919C620.326 883.707 590.273 911.909 555.485 911.909Z" fill="#DFE6FE"/>
<path d="M440.161 872.992C453.721 859.87 454.751 838.939 442.463 826.24C430.174 813.542 409.22 813.885 395.661 827.007C382.102 840.129 381.071 861.06 393.359 873.758C405.648 886.457 426.602 886.113 440.161 872.992Z" fill="white"/>
<path d="M550.334 162.061H384.168C380.412 162.061 377.566 159.015 377.812 155.26C378.059 151.504 381.305 148.459 385.061 148.459H551.227C554.984 148.459 557.829 151.504 557.584 155.26C557.337 159.017 554.091 162.061 550.334 162.061Z" fill="white"/>
<path d="M594.723 784.311H252.891C245.16 784.311 239.303 778.045 239.812 770.314L276.627 209.524C277.133 201.793 283.814 195.524 291.544 195.524H633.377C641.108 195.524 646.965 201.791 646.456 209.524L609.641 770.314C609.135 778.045 602.454 784.311 594.723 784.311Z" fill="white"/>
<path d="M641.759 281.043L646.455 209.521C646.961 201.791 641.107 195.522 633.376 195.522H291.543C283.813 195.522 277.134 201.788 276.625 209.521L271.93 281.043H641.759Z" fill="#26A5DE"/>
<path d="M269.9 311.97L239.812 770.312C239.305 778.042 245.16 784.309 252.891 784.309H594.723C602.454 784.309 609.132 778.042 609.641 770.312L639.729 311.97H269.9Z" fill="white"/>
<path d="M535.767 328.364H364.88C359.953 328.364 356.219 324.369 356.543 319.442C356.867 314.515 361.123 310.52 366.053 310.52H536.938C541.865 310.52 545.598 314.515 545.274 319.442C544.951 324.369 540.694 328.364 535.767 328.364Z" fill="#26A5DE"/>
<path d="M651.144 537.491L630.186 499.922L596.71 479.677L581.875 474.021L586.013 481.442L596.131 490.339L609.032 507.618C609.032 507.618 616.367 524.051 622.021 527.283C627.676 530.514 641.93 549.927 641.93 549.927L651.144 537.491Z" fill="#DDBB8F"/>
<path d="M830.251 604.351L733.841 591.601L646.356 528.916L628.195 539.048C628.195 539.048 681.843 611.795 708.972 626.572C735.498 641.02 831.907 659.028 831.907 659.028C831.907 659.028 872.372 624.761 830.251 604.351Z" fill="#DB6B29"/>
<path d="M674.013 551.018H320.608C313.569 551.018 308.239 545.312 308.7 538.275L315.792 430.223C316.254 423.184 322.334 417.48 329.373 417.48H682.778C689.817 417.48 695.147 423.184 694.684 430.223L687.592 538.275C687.132 545.312 681.053 551.018 674.013 551.018Z" fill="#75CEF7" stroke="white" stroke-width="2" stroke-miterlimit="10"/>
<path d="M660.277 760.273H306.872C299.832 760.273 294.503 754.566 294.965 747.529L299.758 674.501C300.221 667.462 306.3 661.758 313.339 661.758H666.745C673.784 661.758 679.113 667.462 678.651 674.501L673.856 747.529C673.398 754.568 667.316 760.273 660.277 760.273Z" fill="#75CEF7" stroke="white" stroke-width="2" stroke-miterlimit="10"/>
<path d="M453.144 649.533H308.727C304.676 649.533 301.611 646.25 301.875 642.2C302.141 638.15 305.639 634.869 309.689 634.869H454.107C458.157 634.869 461.222 638.152 460.958 642.2C460.692 646.25 457.192 649.533 453.144 649.533Z" fill="#64C2F1"/>
<path d="M669.873 622.221H377.168C370.992 622.221 366.315 617.215 366.72 611.039L368.735 580.343C369.139 574.166 374.476 569.161 380.65 569.161H673.355C679.531 569.161 684.208 574.166 683.803 580.343L681.789 611.039C681.384 617.213 676.05 622.221 669.873 622.221Z" fill="#26A5DE"/>
<path d="M329.723 622.221C315.069 622.221 303.973 610.342 304.933 595.691C305.895 581.039 318.553 569.161 333.205 569.161C347.857 569.161 358.955 581.039 357.993 595.691C357.033 610.342 344.375 622.221 329.723 622.221Z" fill="#26A5DE"/>
<path d="M478.147 513.791C488.907 503.378 489.725 486.768 479.974 476.691C470.223 466.615 453.595 466.888 442.835 477.301C432.075 487.714 431.256 504.324 441.008 514.4C450.759 524.476 467.386 524.204 478.147 513.791Z" fill="#75CEF7" stroke="white" stroke-width="2" stroke-miterlimit="10"/>
<path d="M172.621 300.876C163.047 304.637 155.258 309.558 152.17 319.414C149.082 329.268 143.185 347.193 143.185 347.193L116.711 309.676C116.711 309.676 127.796 296.453 128.869 282.341C128.869 282.341 151.936 277.198 164.583 280.987C177.231 284.776 172.621 300.876 172.621 300.876Z" fill="#DCA07B"/>
<path d="M293.008 378.785L302.714 358.755L312.244 349.37L324.495 349.037L322.658 358.713L293.008 378.785Z" fill="#CF9C84"/>
<path d="M344.893 348.369L346.947 356.463C346.95 356.477 346.943 356.491 346.929 356.495L292.726 370.254C292.187 370.391 291.637 370.064 291.5 369.525L289.929 363.338C289.793 362.796 290.119 362.248 290.658 362.112L344.861 348.353C344.875 348.346 344.889 348.353 344.893 348.369Z" fill="#25B2CE"/>
<path d="M339.037 350.881L340.603 357.052C340.606 357.064 340.599 357.078 340.587 357.08L287.277 370.612C286.243 370.876 285.191 370.249 284.929 369.215L284.302 366.747C284.039 365.713 284.666 364.661 285.7 364.399L339.01 350.867C339.021 350.86 339.033 350.867 339.037 350.881Z" fill="#25B2CE"/>
<path d="M358.564 349.211C358.777 350.051 358.268 350.907 357.428 351.119L338.465 355.933C337.625 356.146 336.769 355.637 336.556 354.797C336.343 353.958 336.852 353.104 337.692 352.889L356.656 348.075C357.498 347.86 358.351 348.369 358.564 349.211Z" fill="#25B2CE"/>
<path d="M344.906 348.385L346.951 356.447L355.737 351.904L354.795 348.186L344.906 348.385Z" fill="#25B2CE"/>
<path d="M307.074 361.041L307.648 363.303L337.064 355.835L336.489 353.573L307.074 361.041Z" fill="#EBEFF3"/>
<path d="M286.935 380.957C286.935 380.957 293.338 375.965 297.779 372.393C302.22 368.822 313.849 363.934 317.522 359.652C322.91 353.374 320.289 350.969 326.75 346.289C329.248 344.48 337.191 348.836 337.191 348.836L329.135 358.163L332.301 367.346L329.9 373.941C332.2 376.067 330.044 385.165 330.044 385.165L321.67 393.913C321.67 393.913 307.539 399.046 302.854 400.117C298.168 401.188 282.359 408.75 282.359 408.75L286.935 380.957Z" fill="#DCA07B"/>
<path d="M552.815 473.647C546.211 467.043 535.501 467.043 528.894 473.647L528.603 473.938L528.311 473.647C521.707 467.043 510.997 467.043 504.391 473.647C497.786 480.253 497.786 490.961 504.391 497.568L528.52 521.696L528.603 521.616L528.684 521.696L552.813 497.568C559.419 490.963 559.419 480.253 552.815 473.647Z" fill="white"/>
<path d="M277.74 384.126L290.192 377.765L292.883 412.527L259.984 415.398L277.74 384.126Z" fill="white"/>
<path d="M142.096 220.106C149.926 213.872 168.031 211.622 179.232 233.086C189.223 252.227 200.432 266.764 195.158 289.565C191.096 307.124 179.75 307.98 152.494 298.077C125.237 288.175 117 263.53 117 263.53C117 263.53 131.962 228.175 142.096 220.106Z" fill="#DCA07B"/>
<path d="M179.779 242.787C180.324 244.723 179.198 246.738 177.26 247.284C175.321 247.83 173.309 246.704 172.763 244.765C172.217 242.829 173.343 240.814 175.282 240.268C177.218 239.725 179.233 240.851 179.779 242.787Z" fill="#43253D"/>
<path d="M184.898 271.212C187.702 273.382 191.287 274.191 194.783 273.78" stroke="#43253D" stroke-width="0.6138" stroke-miterlimit="10"/>
<path d="M182.836 244.21C187.851 250.569 192.866 254.089 197.881 260.446C198.357 261.05 198.862 261.769 198.686 262.519C198.506 263.284 197.705 263.703 196.988 264.025C194.326 265.218 191.665 266.414 189.003 267.608" fill="#DCA07B"/>
<path d="M92.4803 348.581C85.5269 371.757 72.0317 437.915 69.0546 475.351C66.6928 505.046 63.1328 565.633 63.1328 565.633C63.1328 565.633 131.916 585.293 186.357 567.146C186.357 567.146 182.434 458.976 179.41 425.708C176.387 392.437 178.679 372.78 171.117 359.169C163.556 345.558 145.409 326.655 145.409 326.655L116.676 309.264C116.676 309.264 97.0165 333.46 92.4803 348.581Z" fill="#E6B54F"/>
<path d="M116.682 306.745L159.173 334.089L148.967 357.908L109.953 315.676L116.682 306.745Z" fill="white"/>
<path d="M103.434 364.838C116.636 388.477 173.753 422.682 187.364 435.157C200.975 447.632 258.659 419.391 282.251 420.031L279.799 382.051C279.799 382.051 233.343 402.52 199.645 394.875C199.645 394.875 153.339 342.153 139.728 330.811C126.12 319.472 85.3195 332.403 103.434 364.838Z" fill="#F6C761"/>
<path d="M172.625 223.706C172.625 223.706 163.305 231.839 153.606 240.132C145.082 247.423 151.395 269.398 149.41 273.881C149.41 273.881 142.406 266.916 142.699 271.21C143.192 278.392 142.699 300.876 142.699 300.876C142.699 300.876 129.667 295.642 117.007 292.007C99.2159 286.905 96.6737 255.908 96.6737 255.908V244.21C96.6737 244.21 96.1995 229.651 110.564 215.797C134.647 192.57 179.914 203.535 172.625 223.706Z" fill="#872612"/>
<path d="M83.8438 243.777L85.8331 257.823L96.6704 255.91V244.21L83.8438 243.777Z" fill="#424AAA"/>
<path d="M83.8472 243.777C74.3908 243.639 69.7806 233.079 48.1453 240.132C26.51 247.185 29.7045 275.834 42.471 292.008C55.2376 308.182 56.6556 329.107 54.1735 335.489C51.6914 341.873 49.9172 344.355 49.9172 344.355C49.9172 344.355 56.3016 345.065 67.6502 331.589C78.9987 318.112 79.7089 309.676 79.7089 309.676C79.7089 309.676 82.1909 314.686 81.4831 319.414C81.4831 319.414 86.8035 308.08 80.0651 293.946C73.3268 279.812 85.8365 257.823 85.8365 257.823L83.8472 243.777Z" fill="#872612"/>
<path d="M138.537 268.429C137.159 267.384 136.224 265.873 135.084 264.571C133.946 263.269 132.419 262.098 130.689 262.14C128.369 262.195 126.655 264.402 125.94 266.611C123.992 272.63 127.571 279.875 133.532 281.989C136.516 283.046 139.77 282.915 142.932 282.771C143.777 282.732 144.723 282.646 145.271 282.003C145.921 281.242 145.699 280.099 145.442 279.132C144.869 276.977 144.538 272.174 143.129 270.514C141.933 269.098 140.134 269.604 138.537 268.429Z" fill="#DCA07B"/>
<path d="M167.148 218.941C162.329 228.106 157.46 237.418 155.304 247.546C153.151 257.673 154.025 268.901 159.988 277.367" stroke="#872612" stroke-miterlimit="10"/>
<path d="M784.552 796.645C784.552 796.645 705.785 840.744 675.79 857.681C645.795 874.618 649.251 898.902 649.376 907.85L862.99 907.119L854.677 873.318C854.677 873.318 776.946 888.669 755.235 893.781C755.235 893.781 822.248 886.134 854.677 873.318C887.105 860.503 900.686 844.813 900.686 844.813L784.552 796.645Z" fill="#2E5388"/>
<path d="M874.344 868.13L914.792 870.573L936.643 942.349C936.643 942.349 923.946 942.349 908.341 933.402C899.664 928.426 877.693 909.71 877.693 909.71L874.344 868.13Z" fill="#313B64"/>
<path d="M874.354 868.13L877.704 909.71L845.946 909.782L839.469 867.795L874.354 868.13Z" fill="#608CCE"/>
<path d="M812.948 577.322C812.948 577.322 817.588 592.272 826.734 607.153L783.748 626.008C783.748 626.008 781.865 597.782 764.336 584.856L812.948 577.322Z" fill="#F8D2A1"/>
<path d="M768.04 525.404C760.911 524.12 755.843 532.642 750.772 536.117C748.521 537.66 746.8 538.622 743.983 539.175C742.378 539.489 739.562 539.142 738.848 541.197C737.858 544.046 743.097 548.226 743.46 551.162C744.048 555.911 739.926 560.773 738.857 565.3C735.406 579.931 741.878 592.054 757.619 592.73C780.934 593.729 813.337 583.859 823.77 561.139C827.498 553.015 826.976 542.073 824.519 533.709C821.632 523.878 808.764 516.707 799.294 514.516C793.612 513.202 786.691 514.4 781.137 515.872C776.109 517.204 768.487 518.606 764.429 521.967L768.04 525.404Z" fill="#F8D2A1"/>
<path d="M757.528 533.825C756.716 535.446 757.373 537.419 758.994 538.229C760.616 539.041 762.589 538.384 763.401 536.762C764.213 535.141 763.556 533.168 761.934 532.356C760.313 531.546 758.34 532.203 757.528 533.825Z" fill="#43253D"/>
<path d="M833.048 528.934C833.118 528.925 839.104 524.026 837.196 514.995C832.935 494.84 805.292 489.823 812.169 485.393C809.306 487.239 808.181 491.039 808.674 494.41C808.688 494.5 808.725 494.586 808.739 494.676C801.97 487.015 790.229 475.879 768.968 489.633C758.091 496.67 755.723 505.189 743.645 500.547C744.511 500.88 742.679 506.399 742.66 507.088C742.57 510.898 742.945 513.077 745.901 515.798C758.917 527.761 781.841 526.448 798.198 524.585C805.554 523.748 794.119 531.655 791.323 536.431C789.502 539.543 790.645 552.753 790.435 555.191C798.482 555.453 797.224 548.298 804.008 545.085C810.277 542.117 813.615 550.41 810.434 555.511C805.505 563.412 798.577 562.314 798.577 562.314C797.504 566.975 807.14 576.325 807.605 581.136C812.452 579.311 811.566 582.45 815.325 580.313C818.151 578.705 833.372 562.226 837.413 557.456C846.051 547.273 854.42 526.401 833.048 528.934Z" fill="#411919"/>
<path d="M757.158 567.777C752.059 570.421 745.953 568.471 741.766 564.953" stroke="#43253D" stroke-width="0.6138" stroke-miterlimit="10"/>
<path d="M813.186 581.231L773.961 618.395L788.645 641.555L820.914 586.653L813.186 581.231Z" fill="#F6772E"/>
<path d="M820.91 586.653C820.91 586.653 843.311 595.915 858.65 613.808C930.676 697.837 900.683 844.813 900.683 844.813C900.683 844.813 836.515 857.859 789.217 784.637L788.641 641.555L820.91 586.653Z" fill="#FF9C42"/>
<path d="M900.686 844.813L887.105 860.504C864.903 886.157 797.531 892.446 770.964 871.348L716.095 805.052L734.406 854.672L694.312 857.936C694.312 857.936 647.502 787.062 652.343 750.569C653.216 743.999 660.618 727.807 669.887 729.355C723.967 738.378 808.306 777.599 808.306 777.599L900.686 844.813Z" fill="#3E689E"/>
<path d="M746.405 874.288L755.995 907.121L647.203 909.677C647.203 909.677 654.89 896.27 660.941 892.354C669.338 886.92 707.844 878.433 707.844 878.433L746.405 874.288Z" fill="#313B64"/>
<path d="M746.415 874.288L703.711 882.578L690.234 859.629L732.945 846.546L746.415 874.288Z" fill="#77A6E4"/>
<path d="M620.117 545.703L622.555 525.606L619.883 513.737L610.679 507.452L607.32 515.756L620.117 545.703Z" fill="#E6B397"/>
<path d="M597.247 466.464C582.31 466.464 570.203 478.571 570.203 493.508C570.203 501.414 573.617 508.504 579.026 513.45L572.209 524.028L597.249 520.554C612.185 520.554 624.293 508.446 624.293 493.51C624.29 478.574 612.183 466.464 597.247 466.464Z" fill="#26A5DE"/>
<path d="M629.234 557.206C629.234 557.206 621.24 543.38 619.602 538.462C617.964 533.545 611.476 524.084 610.775 519.001C609.743 511.548 610.669 507.452 610.669 507.452L604.453 509.441L602.626 512.147L595.684 517.614L589.991 525.973C587.185 526.468 585.219 529.779 585.219 529.779L587.317 540.593C587.317 540.593 599.017 554.046 602.075 557.171C605.133 560.297 613.5 573.861 613.5 573.861L629.234 557.206Z" fill="#F8D2A1"/>
<path d="M819.32 617.613L720.71 629.399L629.256 557.208L602.016 572.557C602.016 572.557 673.165 658.57 702.503 668.256C731.187 677.724 830.735 671.11 830.735 671.11C830.735 671.11 864.411 630.155 819.32 617.613Z" fill="#F6772E"/>
<path d="M358.547 348.186H545.944" stroke="#A06ECE" stroke-miterlimit="10"/>
<path d="M358.547 368.047H545.944" stroke="#A06ECE" stroke-miterlimit="10"/>
<path d="M1008.85 87.6152H718.969V111.901H1008.85V87.6152Z" fill="#DFE6FE"/>
<path d="M923.143 164.115H718.969V176.257H923.143V164.115Z" fill="#DFE6FE"/>
<path d="M923.143 222.41H718.969V234.552H923.143V222.41Z" fill="#DFE6FE"/>
<path d="M923.143 280.702H718.969V292.844H923.143V280.702Z" fill="#DFE6FE"/>
<path d="M958.82 168.329L977.786 184.836L1008.85 145.158L976.618 172.56L958.82 168.329Z" fill="#49BEE4"/>
<path d="M958.82 229.738L977.786 246.245L1008.85 206.569L976.618 233.971L958.82 229.738Z" fill="#49BEE4"/>
<path d="M958.82 291.149L977.786 307.656L1008.85 267.977L976.618 295.379L958.82 291.149Z" fill="#49BEE4"/>
</g>
<defs>
<clipPath id="clip0_639_5777">
<rect width="1016" height="1044" fill="white"/>
</clipPath>
</defs>
</svg>
